<?xml version="1.0" standalone="no"?><!DOCTYPE svg PUBLIC "-//W3C//DTD SVG 1.1//EN" "http://www.w3.org/Graphics/SVG/1.1/DTD/svg11.dtd"><svg t="1545201851091" class="icon" style="" viewBox="0 0 1024 1024" version="1.1" xmlns="http://www.w3.org/2000/svg" p-id="17517" xmlns:xlink="http://www.w3.org/1999/xlink" width="64" height="64"><defs><style type="text/css"></style></defs><path d="M603.2 17c-46.9 0-85 38-85 85v81.7c0 9.4 7.6 17 17 17s17-7.6 17-17V102c0-28.1 22.8-50.9 50.9-50.9 9.4 0 17-7.6 17-17S612.5 17 603.2 17z" fill="" p-id="17518"></path><path d="M535.2 201.2c-9.7 0-17.5-7.9-17.5-17.5V102c0-47.1 38.3-85.5 85.5-85.5 9.7 0 17.5 7.9 17.5 17.5s-7.9 17.5-17.5 17.5c-27.8 0-50.4 22.6-50.4 50.4v81.7c-0.1 9.7-8 17.6-17.6 17.6z m68-183.7c-46.6 0-84.5 37.9-84.5 84.5v81.7c0 9.1 7.4 16.5 16.5 16.5s16.5-7.4 16.5-16.5V102c0-28.4 23.1-51.4 51.4-51.4 9.1 0 16.5-7.4 16.5-16.5s-7.3-16.6-16.4-16.6z" fill="" p-id="17519"></path><path d="M533.2 165.3c-112.8 0-204.2 91.4-204.2 204.2v255.2c0 112.8 91.4 204.2 204.2 204.2s204.2-91.4 204.2-204.2V369.5c0-112.7-91.5-204.2-204.2-204.2z" fill="" p-id="17520"></path><path d="M533.2 131.3C401.6 131.3 295 238 295 369.5v255.2c0 131.5 106.6 238.2 238.2 238.2s238.2-106.6 238.2-238.2V369.5c0-131.5-106.7-238.2-238.2-238.2z m204.2 493.4c0 112.8-91.4 204.2-204.2 204.2S329 737.5 329 624.7V369.5c0-112.8 91.4-204.2 204.2-204.2s204.2 91.4 204.2 204.2v255.2z" fill="" p-id="17521"></path><path d="M682.4 670c25.8-75.1 32.1-213.8 19.1-416.1-36.8-53.5-98.4-88.6-168.3-88.6-112.8 0-204.2 91.4-204.2 204.2v255.2c0 69.4 34.6 130.6 87.5 167.5 127 1.5 215.8-39.1 265.9-122.2z" fill="#FF505D" p-id="17522"></path><path d="M682.4 670c-50.1 83.1-138.9 123.7-265.9 122.2 33.1 23.1 73.3 36.7 116.7 36.7 112.8 0 204.2-91.4 204.2-204.2V369.5c0-42.9-13.3-82.7-35.9-115.6 13 202.3 6.7 341-19.1 416.1z" fill="#E21220" p-id="17523"></path><path d="M546 199.4h-17c-39.9 0-72.3 32.4-72.3 72.3v76.6c0 39.9 32.4 72.3 72.3 72.3h17c39.9 0 72.3-32.4 72.3-72.3v-76.6c0-39.9-32.4-72.3-72.3-72.3z" fill="" p-id="17524"></path><path d="M546 165.3h-17c-58.7 0-106.3 47.6-106.3 106.3v76.6c0 58.7 47.6 106.3 106.3 106.3h17c58.7 0 106.3-47.6 106.3-106.3v-76.6c0-58.6-47.6-106.3-106.3-106.3z m72.3 182.9c0 39.9-32.4 72.3-72.3 72.3h-17c-39.9 0-72.3-32.4-72.3-72.3v-76.6c0-39.9 32.4-72.3 72.3-72.3h17c39.9 0 72.3 32.4 72.3 72.3v76.6z" fill="" p-id="17525"></path><path d="M694.8 241.9c-112.8 0-204.2 91.4-204.2 204.2v255.2c0 112.8 91.4 204.2 204.2 204.2S899 814 899 701.3V446.1c0-112.8-91.4-204.2-204.2-204.2z" fill="" p-id="17526"></path><path d="M694.8 207.9c-131.5 0-238.2 106.6-238.2 238.2v255.2c0 131.5 106.6 238.2 238.2 238.2S933 832.8 933 701.3V446.1c0-131.6-106.6-238.2-238.2-238.2zM899 701.3c0 112.8-91.4 204.2-204.2 204.2S490.7 814 490.7 701.3V446.1c0-112.8 91.4-204.2 204.2-204.2S899 333.3 899 446.1v255.2z" fill="" p-id="17527"></path><path d="M844 746.6c25.8-75.1 32.1-213.8 19.1-416.1-36.8-53.5-98.4-88.6-168.3-88.6-112.8 0-204.2 91.4-204.2 204.2v255.2c0 69.4 34.6 130.6 87.5 167.5 127 1.5 215.8-39.1 265.9-122.2z" fill="#FF505D" p-id="17528"></path><path d="M844 746.6c-50.1 83.1-138.9 123.7-265.9 122.2 33.1 23.1 73.3 36.7 116.7 36.7C807.6 905.4 899 814 899 701.3V446.1c0-42.9-13.3-82.7-35.9-115.6 13 202.3 6.7 341-19.1 416.1z" fill="#E21220" p-id="17529"></path><path d="M380.1 241.9c-112.8 0-204.2 91.4-204.2 204.2v255.2c0 112.8 91.4 204.2 204.2 204.2S584.2 814 584.2 701.3V446.1c0-112.8-91.4-204.2-204.1-204.2z" fill="" p-id="17530"></path><path d="M380.1 207.9c-131.5 0-238.2 106.6-238.2 238.2v255.2c0 131.5 106.6 238.2 238.2 238.2s238.2-106.6 238.2-238.2V446.1c0-131.6-106.7-238.2-238.2-238.2z m204.1 493.4c0 112.8-91.4 204.2-204.2 204.2S175.9 814 175.9 701.3V446.1c0-112.8 91.4-204.2 204.2-204.2s204.2 91.4 204.2 204.2v255.2z" fill="" p-id="17531"></path><path d="M529.3 746.6c25.8-75.1 32.1-213.8 19.1-416.1-36.8-53.5-98.4-88.6-168.3-88.6-112.8 0-204.2 91.4-204.2 204.2v255.2c0 69.4 34.6 130.6 87.5 167.5 127 1.5 215.7-39.1 265.9-122.2z" fill="#FF505D" p-id="17532"></path><path d="M529.3 746.6c-50.1 83.1-138.9 123.7-265.9 122.2 33.1 23.1 73.3 36.7 116.7 36.7 112.8 0 204.2-91.4 204.2-204.2V446.1c0-42.9-13.3-82.7-35.9-115.6 13 202.3 6.6 341-19.1 416.1z" fill="#E21220" p-id="17533"></path><path d="M546 199.4h-17c-39.9 0-72.3 32.4-72.3 72.3v76.6c0 39.9 32.4 72.3 72.3 72.3h17c39.9 0 72.3-32.4 72.3-72.3v-76.6c0-39.9-32.4-72.3-72.3-72.3z" fill="#3FC378" p-id="17534"></path><path d="M533.2 284.4c-112.8 0-204.2 91.4-204.2 204.2v255.2C329 856.6 420.4 948 533.2 948s204.2-91.4 204.2-204.2V488.6c0-112.7-91.5-204.2-204.2-204.2z" fill="" p-id="17535"></path><path d="M533.2 250.4C401.6 250.4 295 357.1 295 488.6v255.2C295 875.4 401.6 982 533.2 982s238.2-106.6 238.2-238.2V488.6c0-131.5-106.7-238.2-238.2-238.2z m204.2 493.4C737.4 856.6 646 948 533.2 948S329 856.6 329 743.8V488.6c0-112.8 91.4-204.2 204.2-204.2s204.2 91.4 204.2 204.2v255.2z" fill="" p-id="17536"></path><path d="M682.4 789.1c25.8-75.1 32.1-213.8 19.1-416.1-36.8-53.5-98.4-88.6-168.3-88.6-112.8 0-204.2 91.4-204.2 204.2v255.2c0 69.4 34.6 130.6 87.5 167.5 127 1.5 215.8-39.1 265.9-122.2z" fill="#FF505D" p-id="17537"></path><path d="M682.4 789.1c-50.1 83.1-138.9 123.7-265.9 122.2 33.1 23.1 73.3 36.7 116.7 36.7 112.8 0 204.2-91.4 204.2-204.2V488.6c0-42.9-13.3-82.7-35.9-115.6 13 202.3 6.7 341-19.1 416.1z" fill="#E21220" p-id="17538"></path><path d="M508.5 315.8c-88.1 13-138.2 71.7-148 171.8-0.9 9.4 5.9 17.7 15.3 18.6 9.4 0.9 17.7-5.9 18.6-15.3 8.3-85.2 47.3-130.9 119.1-141.5 9.3-1.4 15.7-10 14.4-19.3-1.4-9.2-10.1-15.6-19.4-14.3z" fill="#FFFFFF" p-id="17539"></path></svg>