<?xml version="1.0" standalone="no"?><!DOCTYPE svg PUBLIC "-//W3C//DTD SVG 1.1//EN" "http://www.w3.org/Graphics/SVG/1.1/DTD/svg11.dtd"><svg t="1545200854987" class="icon" style="" viewBox="0 0 1024 1024" version="1.1" xmlns="http://www.w3.org/2000/svg" p-id="1893" xmlns:xlink="http://www.w3.org/1999/xlink" width="64" height="64"><defs><style type="text/css"></style></defs><path d="M451.2 158.4c-22.4 92.8-41.6 193.6-46.4 284.8-14.4 278.4 86.4 491.2 120 518.4 36.8 28.8 104 14.4 124.8-25.6 20.8-40-116.8-268.8-88-454.4S704 80 633.6 52.8s-92.8 3.2-107.2 72c-16 70.4-57.6 1.6-75.2 33.6z" fill="#3E851E" p-id="1894"></path><path d="M484.8 144c-6.4 33.6-24 187.2-24 308.8s24-227.2 60.8-315.2c-20.8-19.2-32-17.6-36.8 6.4z" fill="#256109" p-id="1895"></path><path d="M622.4 49.6c3.2 1.6 6.4 1.6 11.2 3.2C704 80 590.4 296 561.6 481.6s108.8 414.4 88 454.4c-20.8 40-88 54.4-124.8 25.6-4.8-3.2-11.2-12.8-19.2-24 38.4 17.6 94.4 1.6 112-33.6 20.8-40-116.8-268.8-88-454.4 24-153.6 105.6-329.6 92.8-400z" fill="#307013" p-id="1896"></path><path d="M649.6 70.4c-72-27.2-94.4 3.2-108.8 72s-54.4 0-72 32c-22.4 92.8-41.6 193.6-46.4 284.8-12.8 252.8 68.8 451.2 108.8 505.6-1.6-1.6-3.2-1.6-4.8-3.2-33.6-27.2-134.4-240-120-518.4 4.8-91.2 24-192 46.4-284.8 17.6-32 57.6 36.8 72-32 14.4-68.8 36.8-99.2 107.2-72 8 3.2 14.4 8 17.6 16z" fill="#64B140" p-id="1897"></path><path d="M568 640c27.2 139.2 96 268.8 81.6 297.6-20.8 40-88 54.4-124.8 25.6-28.8-22.4-104-176-118.4-390.4 54.4 32 108.8 54.4 161.6 67.2z" fill="#FFFFFF" p-id="1898"></path><path d="M651.2 926.4c-9.6-6.4-19.2-14.4-24-16-11.2-6.4-40-99.2-84.8-278.4 8 3.2 16 4.8 25.6 6.4 25.6 128 84.8 246.4 83.2 288z" fill="#EFF2DF" p-id="1899"></path><path d="M648 899.2c4.8 17.6 6.4 30.4 1.6 38.4-20.8 40-88 54.4-124.8 25.6-6.4-4.8-14.4-16-24-32 32-43.2 92.8-59.2 147.2-32z" fill="#D5DBB6" p-id="1900"></path><path d="M451.2 158.4c-22.4 92.8-41.6 193.6-46.4 284.8-14.4 278.4 86.4 491.2 120 518.4 36.8 28.8 104 14.4 124.8-25.6 20.8-40-116.8-268.8-88-454.4S704 80 633.6 52.8s-92.8 3.2-107.2 72c-16 70.4-57.6 1.6-75.2 33.6z m41.6-38.4c19.2-94.4 64-129.6 150.4-96 43.2 16 49.6 57.6 38.4 121.6-3.2 22.4-9.6 46.4-19.2 80-3.2 12.8-8 25.6-12.8 43.2-1.6 4.8-6.4 22.4-6.4 22.4-3.2 9.6-4.8 16-6.4 24-11.2 38.4-20.8 68.8-27.2 97.6-6.4 27.2-12.8 52.8-16 76.8-4.8 30.4-4.8 62.4 0 97.6 6.4 52.8 20.8 107.2 43.2 176 4.8 16 32 89.6 36.8 107.2 12.8 41.6 16 64 6.4 83.2-30.4 57.6-121.6 76.8-172.8 35.2-27.2-20.8-62.4-92.8-88-180.8-33.6-110.4-49.6-235.2-43.2-364.8 4.8-86.4 20.8-184 48-291.2 0-3.2 1.6-4.8 3.2-8 9.6-16 24-25.6 41.6-25.6 6.4 0 11.2 1.6 17.6 3.2 3.2 1.6 4.8 1.6 9.6 3.2-3.2-1.6-3.2-3.2-3.2-4.8z" fill="#333333" p-id="1901"></path><path d="M587.2 905.6c4.8 0 8 3.2 8 8s-3.2 8-8 8c-14.4 0-28.8 6.4-35.2 12.8-4.8 4.8-4.8 6.4 0 8 14.4 4.8 33.6 3.2 59.2-4.8 4.8-1.6 8 1.6 9.6 4.8 1.6 4.8-1.6 8-4.8 9.6-27.2 8-49.6 9.6-67.2 4.8s-19.2-20.8-8-33.6c9.6-11.2 27.2-17.6 46.4-17.6z" fill="#BDC787" p-id="1902"></path></svg>