<?xml version="1.0" standalone="no"?><!DOCTYPE svg PUBLIC "-//W3C//DTD SVG 1.1//EN" "http://www.w3.org/Graphics/SVG/1.1/DTD/svg11.dtd"><svg t="1545201618836" class="icon" style="" viewBox="0 0 1024 1024" version="1.1" xmlns="http://www.w3.org/2000/svg" p-id="13544" xmlns:xlink="http://www.w3.org/1999/xlink" width="64" height="64"><defs><style type="text/css"></style></defs><path d="M583.6 83.9l-60.8 43.9 6.7 253.4H462l-6.8-283.8 94.6-67.6z" fill="#00D1B3" p-id="13545"></path><path d="M549.9 401.9H442.6l-7.5-313.7L555.4 2.3 610.2 90l-67.4 48.6 7.1 263.3z m-68.6-39.6h27.8l-6.5-243.5 54.3-39.2-12.8-20.4-68.9 49.2 6.1 253.9z" fill="#424649" p-id="13546"></path><path d="M531.1 446c-11 0-19.8-8.9-19.8-19.8v-153c0-11 8.9-19.8 19.8-19.8 11 0 19.8 8.9 19.8 19.8v153c0 10.9-8.9 19.8-19.8 19.8z" fill="#424649" p-id="13547"></path><path d="M889.1 708.7c-55-85-358.2-375-358.2-375v-43l-67.6-55.3v116.8S190.6 602.1 130.1 730.6c-15.7 33.4-13.2 72-13.2 72 0 97.6 79.1 176.6 176.6 176.6 28.7 0 55.8-6.9 79.8-19 36 37.2 86.5 60.3 142.4 60.3 54.5 0 103.8-22 139.6-57.5 22.5 10.4 47.6 16.2 74 16.2 97.6 0 176.6-79.1 176.6-176.6 0.1-29.5-3.8-73.9-16.8-93.9z" fill="#FFFFFF" p-id="13548"></path><path d="M889.1 689.8c-55-85-342.3-370.2-342.3-370.2v-43l-14.8-2.5v116.8S259.3 640.8 198.8 769.3c-15.7 33.4-13.2 72-13.2 72 19.7 95.7 33.8 113.4 118.9 120.5 28.6 2.4 44.8-6.6 68.7-18.7 36 37.2 86.5 58.5 142.4 58.5 54.5 0 103.8-22 139.6-57.5 22.5 10.4 47.6 16.2 74 16.2 97.6 0 176.6-79.1 176.6-176.6 0.2-29.6-3.8-73.9-16.7-93.9zM449.6 589.1l-62.2 167.4-0.2 0.4c-7.3 17.1-10.9 35.4-10.9 54.2 0 37.2 14.5 72.1 40.8 98.4 7.3 7.3 7.3 19 0 26.3-3.6 3.6-8.4 5.4-13.2 5.4-4.8 0-9.5-1.8-13.2-5.4C357.4 902.5 339 858.2 339 811c0-23.7 4.6-46.6 13.7-68.3l61.9-166.6c3.6-9.6 14.3-14.5 23.9-11 9.8 3.6 14.7 14.3 11.1 24z" fill="#E4EADC" p-id="13549"></path><path d="M515.9 1023.6c-58.3 0-113-22.7-154.2-63.9-41.2-41.2-63.9-96-63.9-154.2 0-11 8.9-19.8 19.8-19.8s19.8 8.9 19.8 19.8c0 98.4 80.1 178.5 178.5 178.5s178.5-80.1 178.5-178.5c0-23.9-4.6-47.1-13.8-68.9L568.5 511.8c-4.9-9.8-0.9-21.7 8.9-26.6 9.8-4.9 21.7-0.9 26.6 8.9L716.7 720l0.2 0.6c11.4 26.9 17.2 55.5 17.2 84.9 0 58.3-22.7 113-63.9 154.2-41.2 41.3-96 63.9-154.3 63.9z" fill="#424649" p-id="13550"></path><path d="M515.9 1022.8c-30 0-59.2-6-86.5-17.8-22.1-9.5-42.2-22.5-59.9-38.6-24 10.1-49.4 15.1-75.8 15.1-108.1 0-196.2-87.8-196.5-195.9-0.3-6.1-1.6-45.6 15.1-81 56.9-120.9 288.5-339 331.3-378.6V176l107.3 87.8v43.9c44.5 42.8 303.2 292.4 355.1 372.7 18.6 28.8 20 87.3 20 104.6 0 108.3-88.1 196.5-196.5 196.5-24.2 0-47.6-4.3-69.8-12.8-39.8 35-90.3 54.1-143.8 54.1zM377.6 918.3l10.2 10.5c33.9 35 79.4 54.3 128.2 54.3 47.4 0 92-18.4 125.7-51.8l9.8-9.7 12.5 5.8c20.7 9.5 42.8 14.4 65.7 14.4 86.5 0 156.8-70.3 156.8-156.8 0-36.4-5.6-70.6-13.7-83.1-53.1-82.1-352.3-368.5-355.3-371.4l-6.1-5.9v-42.1l-27.9-22.9v83.7l-6.4 5.9c-2.7 2.5-270.5 248.7-328.6 372.2-13.2 28-11.3 61.9-11.3 62.2v1.3c0 86.5 70.3 156.8 156.8 156.8 24.9 0 48.7-5.7 70.8-16.9l12.8-6.5z" fill="#424649" p-id="13551"></path></svg>