<?xml version="1.0" standalone="no"?><!DOCTYPE svg PUBLIC "-//W3C//DTD SVG 1.1//EN" "http://www.w3.org/Graphics/SVG/1.1/DTD/svg11.dtd"><svg t="1545200973377" class="icon" style="" viewBox="0 0 1024 1024" version="1.1" xmlns="http://www.w3.org/2000/svg" p-id="7397" xmlns:xlink="http://www.w3.org/1999/xlink" width="64" height="64"><defs><style type="text/css"></style></defs><path d="M867.155103 539.440127h-126.654615c0-34.91449 28.361623-63.276113 63.276113-63.276113 35.016878-0.102389 63.378502 28.259235 63.378502 63.276113zM685.825012 539.440127h-126.654615c0-34.91449 28.361623-63.276113 63.276113-63.276113s63.378502 28.259235 63.378502 63.276113zM504.494921 539.440127h-126.654615c0-34.91449 28.361623-63.276113 63.276113-63.276113 35.016878-0.102389 63.378502 28.259235 63.378502 63.276113zM323.16483 539.440127h-126.654615c0-34.91449 28.361623-63.276113 63.276113-63.276113 35.016878-0.102389 63.378502 28.259235 63.378502 63.276113z" fill="#BDED69" p-id="7398"></path><path d="M942.103508 475.549682c0.102389 1.331051 0.204777 2.76449 0.204777 4.095542 0 33.071496-26.723407 59.794903-59.794902 59.794903h-15.255892c0-34.91449-28.361623-63.276113-63.276113-63.276113s-63.276113 28.361623-63.276113 63.276113h-54.675476c0-34.91449-28.361623-63.276113-63.276113-63.276113s-63.276113 28.361623-63.276113 63.276113h-54.675477c0-34.91449-28.361623-63.276113-63.276113-63.276113-35.016878 0-63.276113 28.361623-63.276113 63.276113h-54.675476c0-34.91449-28.361623-63.276113-63.276113-63.276113-35.016878 0-63.276113 28.361623-63.276113 63.276113h-54.368311c-16.484554 0-31.433279-6.655255-42.286464-17.508439s-17.508439-25.80191-17.508439-42.286464c0-1.331051 0-2.76449 0.204777-4.095542 2.047771-31.126114 27.952069-55.699362 59.590126-55.699361h740.371478c16.484554 0 31.433279 6.655255 42.286464 17.508439 9.317356 9.829299 15.767834 23.242197 16.791719 38.190922z" fill="#87AA3A" p-id="7399"></path><path d="M882.410994 539.440127h59.794903c-22.218312 36.24554-53.139648 65.426272-89.078023 85.596813-35.938375 20.170541-76.996176 31.228502-119.487418 31.228502h-442.625626c-85.08487 0-164.128818-44.231846-208.667829-116.825315h800.063993z" fill="#9AD14B" p-id="7400"></path><path d="M246.885373 539.440127H82.347001c44.539012 72.491081 123.48057 116.722927 208.667829 116.722927h164.538372c-85.187259 0-164.231206-44.231846-208.667829-116.722927z" fill="#90BC42" p-id="7401"></path><path d="M942.205897 475.447294h-0.204777c-1.023885-14.846337-7.474363-28.259235-17.303662-38.190923-10.853184-10.853184-25.80191-17.508439-42.286464-17.508439h-740.26909c-31.638057 0-57.542355 24.573248-59.590126 55.699362h-0.204777c0-59.590126 48.327387-107.917513 107.917513-107.917513h644.126258c59.590126 0.102389 107.815125 48.429776 107.815125 107.917513z" fill="#9AD14B" p-id="7402"></path><path d="M733.640456 624.32022c-8.498248 0-15.460668-6.860032-15.460668-15.460668 0-8.498248 6.860032-15.460668 15.460668-15.460669 31.023725 0 61.842674-7.986306 88.873246-23.139808 7.474363-4.19793 16.791719-1.535828 20.98965 5.938535s1.535828 16.791719-5.938535 20.989649c-31.638057 17.713216-67.576431 27.132961-103.924361 27.132961z" fill="#FFFFFF" p-id="7403"></path><path d="M273.711168 507.597293m-15.460668 0a15.460668 15.460668 0 1 0 30.921337 0 15.460668 15.460668 0 1 0-30.921337 0Z" fill="#FFFFFF" p-id="7404"></path><path d="M637.80479 507.597293m-15.460669 0a15.460668 15.460668 0 1 0 30.921337 0 15.460668 15.460668 0 1 0-30.921337 0Z" fill="#FFFFFF" p-id="7405"></path><path d="M452.686323 507.597293m-15.460668 0a15.460668 15.460668 0 1 0 30.921337 0 15.460668 15.460668 0 1 0-30.921337 0Z" fill="#FFFFFF" p-id="7406"></path><path d="M820.773097 507.597293m-15.460668 0a15.460668 15.460668 0 1 0 30.921337 0 15.460668 15.460668 0 1 0-30.921337 0Z" fill="#FFFFFF" p-id="7407"></path><path d="M957.564177 475.447294l0.102388 0.102388c0-67.985986-55.289808-123.275793-123.275793-123.275793h-644.228646c-67.985986 0-123.275793 55.289808-123.275793 123.275793l0.102388-0.102388c-0.102389 1.433439-0.102389 2.76449-0.102388 4.19793 0 16.586942 5.426592 31.945222 14.539171 44.436623-5.221815 0.307166-10.034076 3.174045-12.593789 7.883917-2.76449 4.91465-2.559713 10.853184 0.307165 15.563057 23.242197 37.883757 56.006527 69.317036 94.709393 91.023405s82.729934 33.173885 127.064169 33.173885h442.625626c44.436623 0 88.361304-11.467516 127.064169-33.173885s71.467196-53.139648 94.709392-91.023405c2.969267-4.709872 3.071656-10.750796 0.307166-15.563057-2.559713-4.607484-7.371974-7.576751-12.59379-7.883917 9.112579-12.491401 14.539172-27.849681 14.539172-44.436623 0.102389-1.433439 0.102389-2.866879 0-4.19793z m-815.422273-40.238693h740.371479c24.470859 0 44.334235 19.863375 44.334234 44.334234s-19.863375 44.334235-44.334234 44.334235h-1.43344c-7.167197-36.040763-39.112419-63.276113-77.200953-63.276113s-70.033756 27.23535-77.200954 63.276113h-26.928184c-7.167197-36.040763-39.112419-63.276113-77.200953-63.276113s-70.033756 27.23535-77.200954 63.276113h-26.928184c-7.167197-36.040763-39.112419-63.276113-77.200954-63.276113-38.190923 0-70.033756 27.23535-77.200953 63.276113h-26.928184c-7.167197-36.040763-39.112419-63.276113-77.200954-63.276113s-70.033756 27.23535-77.200953 63.276113h-40.44347c-24.470859 0-44.334235-19.863375-44.334235-44.334235-0.204777-24.368471 19.760987-44.334235 44.231846-44.334234z m72.388693 88.770857c6.450478-18.83949 24.368471-32.457165 45.358119-32.457164s38.907642 13.617675 45.35812 32.457164h-90.716239z m181.330091 0c6.450478-18.83949 24.368471-32.457165 45.358119-32.457164s38.907642 13.617675 45.35812 32.457164h-90.716239z m181.330091 0c6.450478-18.83949 24.368471-32.457165 45.35812-32.457164s38.907642 13.617675 45.358119 32.457164h-90.716239z m181.330091 0c6.450478-18.83949 24.368471-32.457165 45.35812-32.457164s38.907642 13.617675 45.358119 32.457164h-90.716239z m75.869902-140.88662c22.935031 0 44.027069 8.39586 60.204457 22.3207-3.890764-0.614331-7.986306-1.023885-12.081846-1.023886h-740.371479c-4.095541 0-8.191083 0.307166-12.081847 1.023886 16.177388-13.92484 37.167037-22.3207 60.204457-22.3207h644.126258z m11.262739 228.428816c-34.19777 19.146656-72.900635 29.180732-112.013055 29.180731h-442.625626c-39.112419 0-77.917673-10.136465-112.013054-29.180731-25.80191-14.436783-48.532164-33.788216-66.9621-56.723247h800.575935c-18.429936 23.03742-41.262579 42.286464-66.9621 56.723247z" fill="#333333" p-id="7408"></path></svg>