<?xml version="1.0" standalone="no"?><!DOCTYPE svg PUBLIC "-//W3C//DTD SVG 1.1//EN" "http://www.w3.org/Graphics/SVG/1.1/DTD/svg11.dtd"><svg t="1545201654734" class="icon" style="" viewBox="0 0 1024 1024" version="1.1" xmlns="http://www.w3.org/2000/svg" p-id="13734" xmlns:xlink="http://www.w3.org/1999/xlink" width="64" height="64"><defs><style type="text/css"></style></defs><path d="M456 88c-12.8 41.6-140.8 105.6-120 243.2s-30.4 233.6 43.2 304 60.8 179.2 115.2 200c56 20.8 91.2 99.2 102.4 99.2 6.4 0-27.2-35.2-38.4-65.6-6.4-19.2-22.4-46.4 8-70.4 30.4-24 137.6-129.6 126.4-273.6S576 358.4 560 267.2 468.8 46.4 456 88z" fill="#DE798D" p-id="13735"></path><path d="M497.6 112c-4.8 0-8 1.6-9.6 8-12.8 41.6-140.8 105.6-120 243.2s-30.4 233.6 43.2 304c54.4 51.2 62.4 124.8 84.8 168-56-20.8-41.6-131.2-115.2-200s-22.4-164.8-43.2-304 107.2-201.6 120-243.2c3.2-17.6 20.8-4.8 40 24z m84.8 798.4c9.6 14.4 19.2 24 14.4 24-6.4 0-20.8-25.6-41.6-51.2 11.2 9.6 19.2 17.6 27.2 27.2z" fill="#EBAEBA" p-id="13736"></path><path d="M459.2 81.6c19.2-16 86.4 102.4 100.8 185.6 16 91.2 123.2 115.2 134.4 257.6s-97.6 249.6-126.4 273.6c-30.4 24-14.4 51.2-8 70.4 9.6 30.4 44.8 65.6 38.4 65.6-8 0-30.4-43.2-64-75.2-8-11.2-17.6-25.6-20.8-40-6.4-19.2-22.4-46.4 8-70.4 30.4-24 137.6-129.6 126.4-273.6S528 310.4 512 219.2c-8-44.8-30.4-99.2-52.8-137.6z m57.6 764.8c-6.4-4.8-12.8-8-20.8-11.2-17.6-6.4-28.8-22.4-36.8-43.2 22.4 14.4 41.6 35.2 57.6 54.4z" fill="#DE798D" p-id="13737"></path><path d="M459.2 81.6c19.2-16 86.4 102.4 100.8 185.6 16 91.2 123.2 115.2 134.4 257.6s-97.6 249.6-126.4 273.6c-30.4 24-14.4 51.2-8 70.4 9.6 30.4 44.8 65.6 38.4 65.6-8 0-30.4-43.2-64-75.2-8-11.2-17.6-25.6-20.8-40-6.4-19.2-22.4-46.4 8-70.4 30.4-24 137.6-129.6 126.4-273.6S528 310.4 512 219.2c-8-44.8-30.4-99.2-52.8-137.6z m57.6 764.8c-6.4-4.8-12.8-8-20.8-11.2-17.6-6.4-28.8-22.4-36.8-43.2 22.4 14.4 41.6 35.2 57.6 54.4z" fill="#BE4B62" p-id="13738"></path><path d="M396.8 641.6c48 12.8 124.8-4.8 139.2-16 14.4-11.2-33.6 64-121.6 43.2-43.2-25.6-48-35.2-17.6-27.2zM446.4 348.8c14.4-8 104-28.8 147.2-12.8 9.6 3.2 22.4 6.4 22.4 25.6-67.2-30.4-176-8-169.6-12.8z" fill="#BE4B62" p-id="13739"></path><path d="M486.4 73.6c11.2 9.6 22.4 25.6 35.2 46.4 25.6 43.2 48 100.8 54.4 145.6 4.8 25.6 16 44.8 40 73.6 3.2 4.8 19.2 22.4 22.4 25.6 44.8 51.2 67.2 94.4 72 160 9.6 118.4-57.6 225.6-132.8 286.4-6.4 4.8-9.6 9.6-11.2 14.4-1.6 6.4 0 14.4 4.8 27.2 0 1.6 1.6 4.8 1.6 4.8 1.6 1.6 1.6 3.2 1.6 6.4 1.6 4.8 4.8 12.8 8 19.2 1.6 4.8 4.8 9.6 8 14.4 3.2 4.8 14.4 24 16 27.2 3.2 4.8 4.8 8 4.8 11.2 1.6 3.2 1.6 6.4 1.6 9.6-1.6 8-8 16-16 16-11.2 0-14.4-3.2-28.8-24 0 0-9.6-14.4-12.8-17.6-4.8-8-9.6-14.4-14.4-19.2-17.6-24-35.2-40-52.8-46.4-27.2-11.2-40-32-56-78.4-1.6-3.2-8-22.4-9.6-28.8-3.2-11.2-8-20.8-11.2-28.8-11.2-27.2-25.6-49.6-44.8-67.2-44.8-41.6-49.6-78.4-44.8-180.8 3.2-59.2 3.2-91.2-3.2-132.8-11.2-72 12.8-128 64-185.6 9.6-11.2 38.4-41.6 38.4-41.6 11.2-11.2 17.6-19.2 19.2-25.6 8-24 28.8-25.6 46.4-11.2z m-40 57.6s-28.8 30.4-38.4 40c-44.8 49.6-64 97.6-56 158.4 6.4 43.2 6.4 76.8 3.2 139.2-4.8 94.4 0 123.2 35.2 155.2 22.4 20.8 38.4 46.4 52.8 78.4 4.8 9.6 8 19.2 11.2 32 1.6 6.4 9.6 25.6 9.6 28.8 12.8 36.8 22.4 52.8 36.8 59.2 11.2 4.8 22.4 11.2 33.6 20.8-1.6-8-1.6-16 1.6-24 3.2-11.2 11.2-22.4 22.4-32 68.8-54.4 129.6-153.6 121.6-259.2-4.8-59.2-24-94.4-64-142.4-3.2-3.2-19.2-20.8-22.4-25.6-28.8-32-41.6-56-48-88-6.4-40-27.2-94.4-51.2-134.4-9.6-16-17.6-28.8-25.6-35.2-4.8 8-12.8 16-22.4 28.8z m158.4 798.4z" fill="#333333" p-id="13740"></path><path d="M436.8 195.2c11.2 0 32 6.4 25.6 19.2-6.4 12.8-25.6 27.2-36.8 19.2s0-38.4 11.2-38.4zM496 278.4c-16 8-35.2 19.2-9.6 19.2s25.6-27.2 9.6-19.2zM404.8 366.4c-20.8 19.2-49.6 35.2-4.8 27.2s25.6-46.4 4.8-27.2zM569.6 537.6c65.6 9.6 46.4 24 27.2 24-19.2 1.6-92.8-32-27.2-24zM419.2 568c0 14.4 30.4 6.4 25.6 0s-25.6-14.4-25.6 0zM560 638.4c17.6 17.6 4.8 32 0 24s-17.6-41.6 0-24z" fill="#81685C" p-id="13741"></path></svg>