<?xml version="1.0" standalone="no"?><!DOCTYPE svg PUBLIC "-//W3C//DTD SVG 1.1//EN" "http://www.w3.org/Graphics/SVG/1.1/DTD/svg11.dtd"><svg t="1545202395231" class="icon" style="" viewBox="0 0 1024 1024" version="1.1" xmlns="http://www.w3.org/2000/svg" p-id="22919" xmlns:xlink="http://www.w3.org/1999/xlink" width="64" height="64"><defs><style type="text/css"></style></defs><path d="M316.861 159.723c-27.904 17.405 4.693 117.49 11.17 130.24 66.756 131.43 138.012 198.447 166.427 222.45 29.96 25.31 60.756 44.842 116.639 53.465 21.386 3.3 39.823-5.09 40.179-3.419 0.797 3.742-89.887 30.186-187.5 54.702-98.33 24.696-126.407 28.026-160.716 58.12-15.006 13.164-53.679 47.087-56.92 99.148-3.815 61.296 44.15 104.98 60.269 119.66 63.515 57.846 144.621 53.994 170.759 51.283 52.828-5.48 95.378-21.006 152.592-58.343 42.423-27.684 112.538-76.354 168.556-158.759 39.584-58.229 65.44-117.259 53.853-186.324-7.54-44.942-33.03-74.242-63.616-109.404C722.358 356.45 637.297 317.04 627.838 323.14c-13.466 8.682 69.627 73.129 71.23 86.003 0.918 7.37-23.036-0.731-35.392-7.266-105.913-56.017-337.305-248.085-346.815-242.153z" fill="#F7931E" p-id="22920"></path><path d="M452.065 959.727c-40.117 0-102.827-8.918-154.474-55.958-16.996-15.478-68.723-62.589-64.519-130.151 3.58-57.506 45.554-94.324 61.355-108.184 31.882-27.964 58.228-34.42 128.645-51.695a6354.754 6354.754 0 0 0 37.511-9.276c46.718-11.738 87.592-22.785 118.858-31.73-39.954-10.497-66.978-27.97-93.432-50.32-35.719-30.175-105.253-99.732-169.65-226.52-0.583-1.144-48.761-120.874-6.43-147.278 10.802-6.725 11.668-7.294 120.853 74.998 71.647 54.002 168.388 126.922 229.282 161.355a3745.91 3745.91 0 0 0-2-1.924c-32.762-31.588-45.983-45.75-44.714-58.766a16.243 16.243 0 0 1 7.39-12.14c24.876-16.066 125.574 51.906 177.69 111.809 31.397 36.095 58.497 67.249 66.655 115.83 13.54 80.745-22.785 147.08-55.94 195.853-54.105 79.594-120.459 128.578-172.227 162.366-57.66 37.623-102.07 54.558-158.399 60.402a257.571 257.571 0 0 1-26.454 1.33z m198.844-410.565a13.134 13.134 0 0 1 7.218 2.065l4.693 2.941 1.259 5.556c3.037 14.256-7.822 17.9-65.983 34.861-36.623 10.683-84.421 23.54-131.132 35.271-13.877 3.484-26.36 6.547-37.656 9.321-67.728 16.61-90.545 22.203-117.614 45.947-14.838 13.01-49.585 43.486-52.487 90.118-3.424 55.032 41.315 95.781 56.016 109.168 57.474 52.334 131.443 50.96 160.595 47.942 51.794-5.37 92.95-21.155 146.789-56.285 49.72-32.451 113.394-79.408 164.878-155.154 45.781-67.338 61.265-120.216 51.771-176.801-6.93-41.3-30.603-68.515-60.568-102.968-42.584-48.945-91.319-80.444-121.22-95.366 6.42 6.502 13.356 13.19 18.77 18.413 26.13 25.188 34.677 34.107 35.821 43.332a15.1 15.1 0 0 1-6.438 14.564c-13.093 9.046-42.341-5.607-48.063-8.631C595.823 380.8 495.573 305.24 415.02 244.525c-38.442-28.974-78.003-58.791-94.21-68.896-2.358 6.953-3.49 21.702 1.606 48.514 5.488 28.884 15.014 55.416 17.29 59.89 62.307 122.685 128.997 189.48 163.2 218.383 29.974 25.317 58.864 42.604 110.188 50.525 12.14 1.866 23.693-0.96 29.9-2.48a33.723 33.723 0 0 1 7.915-1.299z m35.738-136.243zM323.79 170.83l-0.006 0.003z" fill="" p-id="22921"></path><path d="M677.57 354.74l-26.17-13.397c16.525 11.447 27.65 27.597 41.64 41.019 61.406 58.912 100.01 130.765 84.022 200.897-41.734 183.068-182.004 291.08-387.556 343.1l35.558 11.428c140.195 1.446 328.053-110.668 403.352-289.674 13.591-32.31 10.346-32.978 12.378-44.622 3.387-36.198 0.979-73.907-24.204-116.725-19.491-33.142-52.706-68.73-86.184-95.59-18.033-14.47-34.817-23.943-52.837-36.436z" fill="#ED6F26" p-id="22922"></path><path d="M367.764 304.713a6.395 35.669 0 1 0 12.79 0 6.395 35.669 0 1 0-12.79 0Z" fill="" p-id="22923"></path><path d="M374.158 343.656c-8.723 0-9.666-27.235-9.666-38.94 0-11.713 0.943-38.947 9.666-38.947 8.727 0 9.67 27.234 9.67 38.947 0 11.705-0.943 38.94-9.67 38.94z m0-69.173c-1.451 4.57-3.12 14.787-3.12 30.233 0 15.439 1.669 25.655 3.12 30.226 1.451-4.57 3.123-14.78 3.123-30.226s-1.672-25.662-3.123-30.233z" fill="" p-id="22924"></path><path d="M419.936 378.51a6.844 33.621 0 1 0 13.688 0 6.844 33.621 0 1 0-13.688 0Z" fill="" p-id="22925"></path><path d="M426.78 415.406c-9.388 0-10.117-28.239-10.117-36.895s0.729-36.894 10.117-36.894 10.117 28.238 10.117 36.894-0.729 36.895-10.117 36.895z m0-65.862c-1.563 3.874-3.57 13.815-3.57 28.967 0 15.145 2.007 25.093 3.57 28.967 1.566-3.874 3.57-13.815 3.57-28.967s-2.004-25.093-3.57-28.967z" fill="" p-id="22926"></path><path d="M469.498 427.969a7.467 38.263 0 1 0 14.934 0 7.467 38.263 0 1 0-14.934 0Z" fill="" p-id="22927"></path><path d="M476.966 469.504c-9.967 0-10.74-31.793-10.74-41.536s0.773-41.536 10.74-41.536 10.74 31.793 10.74 41.536-0.773 41.536-10.74 41.536z m0-75.336c-1.784 4.034-4.194 15.605-4.194 33.8s2.413 29.766 4.194 33.8c1.78-4.033 4.194-15.605 4.194-33.8s-2.41-29.766-4.194-33.8z" fill="" p-id="22928"></path><path d="M525.552 479.316a6.742 35.363 0 1 0 13.484 0 6.742 35.363 0 1 0-13.484 0Z" fill="" p-id="22929"></path><path d="M532.295 517.951c-9.04 0-10.015-27.017-10.015-38.633s0.975-38.64 10.015-38.64 10.015 27.023 10.015 38.64-0.975 38.633-10.015 38.633z m0-69.084c-1.563 4.2-3.468 14.487-3.468 30.45s1.905 26.25 3.468 30.445c1.563-4.194 3.468-14.48 3.468-30.444s-1.905-26.25-3.468-30.45z" fill="" p-id="22930"></path><path d="M528.325833 834.317703a49.836 7.802 37.21 1 0 9.436334-12.427406 49.836 7.802 37.21 1 0-9.436334 12.427406Z" fill="" p-id="22931"></path><path d="M571.015 862.169c-3.22 0-7.95-1.79-14.794-5.48a243.222 243.222 0 0 1-29.875-19.76c-16.171-12.281-35.43-29.39-36.492-37.189a4.917 4.917 0 0 1 0.895-3.753c2.599-3.394 8.129-2.384 19.119 3.53a242.854 242.854 0 0 1 29.872 19.767c12.719 9.653 41.647 32.969 35.603 40.941a5.055 5.055 0 0 1-4.328 1.944z m-40.712-30.457c19.4 14.73 32.883 21.768 38.42 23.488-3.136-4.878-13.544-15.976-32.94-30.7-19.394-14.73-32.88-21.774-38.417-23.488 3.14 4.872 13.547 15.97 32.937 30.7z" fill="" p-id="22932"></path><path d="M442.722607 874.26625a57.345 9.327 37.21 1 0 11.280786-14.8565 57.345 9.327 37.21 1 0-11.280786 14.8565Z" fill="" p-id="22933"></path><path d="M491.935 905.405c-12.511 0-41.482-21.161-51.193-28.532-11.325-8.599-47.727-37.374-40.66-46.689 7.077-9.34 44.57 18.022 55.898 26.614 11.326 8.6 47.728 37.387 40.664 46.696-1.007 1.33-2.631 1.911-4.709 1.911z m-85.9-70.707c2.512 5.325 16.135 19.857 38.665 36.958 22.526 17.108 40.184 26.327 45.992 27.324-2.516-5.325-16.143-19.857-38.669-36.965-22.533-17.108-40.187-26.327-45.989-27.317z" fill="" p-id="22934"></path><path d="M604.501616 790.811788a49.345 7.89 37.21 1 0 9.542768-12.567576 49.345 7.89 37.21 1 0-9.542768 12.567576Z" fill="" p-id="22935"></path><path d="M646.792 818.318c-3.206 0-7.892-1.751-14.647-5.363a236.394 236.394 0 0 1-29.622-19.538c-12.6-9.564-41.251-32.681-35.159-40.705 2.605-3.433 8.116-2.455 19.036 3.389a236.394 236.394 0 0 1 29.622 19.537c12.6 9.57 41.242 32.688 35.159 40.705a5.115 5.115 0 0 1-4.389 1.975z m-72.916-60.664c2.988 4.789 13.259 15.861 32.604 30.546 19.343 14.692 32.771 21.61 38.186 23.201-2.988-4.788-13.259-15.861-32.601-30.546-19.346-14.692-32.771-21.609-38.19-23.2z" fill="" p-id="22936"></path><path d="M683.352351 741.160075a42.889 8.2 37.21 1 0 9.917705-13.06136 42.889 8.2 37.21 1 0-9.917705 13.06136Z" fill="" p-id="22937"></path><path d="M720.268 764.661c-3.011 0-7.18-1.368-12.76-4.143a195.722 195.722 0 0 1-49.291-37.419c-7.167-7.972-9.222-13.022-6.668-16.385s7.972-2.743 17.568 2.027a172.97 172.97 0 0 1 26.135 16.75c8.624 6.552 36.262 28.577 29.83 37.054a5.626 5.626 0 0 1-4.814 2.116z m-62.767-53.427c1.975 4.034 10.727 14.327 27.835 27.318 17.108 12.997 29.376 18.655 33.788 19.473-1.976-4.034-10.728-14.327-27.836-27.318-17.108-12.997-29.376-18.655-33.787-19.473z" fill="" p-id="22938"></path><path d="M749.236129 693.725161a32.975 7.868 33.931 1 0 8.783742-13.056322 32.975 7.868 33.931 1 0-8.783742 13.056322Z" fill="" p-id="22939"></path><path d="M777.883 709.987c-9.724 0-26.493-10.868-30.476-13.547a108.59 108.59 0 0 1-18.636-15.426c-5.71-6.195-7.41-10.792-5.217-14.052 2.193-3.274 7.096-3.42 14.98-0.46a108.497 108.497 0 0 1 21.314 11.45c3.075 2.07 29.9 20.49 23.859 29.478-1.228 1.816-3.286 2.557-5.824 2.557z m-26.82-18.98c13.663 9.186 23.502 12.478 26.794 12.485-1.253-3.043-8.004-10.92-21.666-20.106-13.656-9.194-23.501-12.48-26.787-12.486 1.246 3.036 7.998 10.92 21.66 20.106z" fill="" p-id="22940"></path></svg>