<?xml version="1.0" standalone="no"?><!DOCTYPE svg PUBLIC "-//W3C//DTD SVG 1.1//EN" "http://www.w3.org/Graphics/SVG/1.1/DTD/svg11.dtd"><svg t="1545202470118" class="icon" style="" viewBox="0 0 1024 1024" version="1.1" xmlns="http://www.w3.org/2000/svg" p-id="2303" xmlns:xlink="http://www.w3.org/1999/xlink" width="64" height="64"><defs><style type="text/css"></style></defs><path d="M333.1 208.6c-119.3 68.9-214.7 223.5-161.6 315.6s234.8 86.8 354.1 17.9 172.9-199.4 119.7-291.5c-53.1-92.1-192.9-110.9-312.2-42z" fill="#FFBF83" p-id="2304"></path><path d="M167.4 412.2c-9.9 56.4 2.6 92.6 37.6 108.3 17.8 8 0-81.2 79.2-108.3 84.7-29 103.6 1.2 123.7-9.3 28.7-15 30.6-85.6 110.1-108.2 57.4-16.2 102.3-7.9 134.7 25.1L388.1 520.5 236 579.4l-41.7-26.5-44-101.4 5.4-39.3h11.7z" fill="#F2A264" p-id="2305"></path><path d="M331.7 603.6c-2.7 0-5.4 0-8.1-0.1-36.1-0.8-68.1-7.2-95-18.8-29.7-12.8-51.8-31.5-65.7-55.5-13.9-24-19-52.5-15.2-84.7 3.4-29.1 13.9-60 31.2-91.7 33.4-61.1 89.2-118.3 149.2-153 59.6-34.4 126.1-48.8 187.3-40.6 62.1 8.4 111.4 39 138.7 86.3s29.2 105.3 5.4 163.3c-23.5 57.2-69.2 107.6-128.8 142-57.7 33.3-131.5 52.8-199 52.8z m6.4-386.4c-57 32.9-110 87.2-141.7 145.2-15.9 29-25.8 58.2-28.9 84.4-3.2 27.8 1 52.1 12.7 72.3 11.7 20.2 30.6 36.1 56.3 47.2 24.2 10.5 54.5 16.4 87.6 17.2 66.1 1.5 139.6-17.2 196.6-50.1 114.3-66 166.4-190.6 116.1-277.8-24.1-41.8-68.2-69-124-76.5-56.9-7.6-118.9 5.9-174.7 38.1z" fill="#333333" p-id="2306"></path><path d="M555.1 711.8c-111-56.6-160.8-181.5-111.1-279s180-130.7 291-74.1S934.7 560 885.1 657.5c-49.7 97.6-218.9 110.9-330 54.3z" fill="#FFD5A6" p-id="2307"></path><path d="M646 340.6c-94.1 33.9-141.2 69-141.2 105.3 0 54.5 78 48.9 124.4 110.7s17.4 127.8 54.1 145.9c36.7 18.1 97.8 13.5 142.2-22.8 29.6-24.2 50.3-59.3 62.2-105.4 6.6 56.5-4.7 99.2-33.9 128.2-43.7 43.5-140 49.1-140 45 0-4.2-30.5 6.8-124.4-15.9-94-22.7-142.2-209.3-157.4-249.5s0.1-49.5 31.1-86 46.2-42.5 88.7-55.4c28.3-8.7 59.7-8.7 94.2-0.1z" fill="#F5B877" p-id="2308"></path><path d="M700.1 755.5c-52.6 0-106.5-12.1-150.5-34.5-55.9-28.5-98.7-74.4-120.6-129.3-22.1-55.4-20.3-113.3 5.1-163.1s71.1-85.3 128.9-100c57.3-14.6 119.7-6.9 175.5 21.5 56.2 28.6 108.4 80.3 139.6 138.2 16.1 30 25.9 59.7 29 88.5 3.4 31.5-1.3 60.3-14.2 85.5s-33.3 45.9-60.8 61.7c-25.1 14.4-55 24-88.7 28.6-14 2-28.6 2.9-43.3 2.9z m-141.3-52.3c52.7 26.9 120.8 38 182.1 29.7 30.7-4.2 58.9-13.2 81.4-26.1 24.1-13.8 41.9-31.8 53-53.4 11-21.6 15.1-46.6 12.1-74.2-2.8-25.9-12.1-53.9-26.8-81.2-29.3-54.5-78.3-103-131-129.9-51.5-26.3-108.9-33.3-161.5-20-52.1 13.3-93.3 45.1-116 89.7-47.2 92.3 0.7 211.4 106.7 265.4z" fill="#333333" p-id="2309"></path><path d="M283.403 776.033c81.271 93.507 236.595 149.249 311.733 83.945s41.535-226.801-39.726-320.408-208.074-116.387-283.212-51.083-70.066 194.039 11.205 287.546z" fill="#FFDEB9" p-id="2310"></path><path d="M429.211 462.155c-56.38 23.636-91.88 72.493-106.483 146.37-21.914 110.918 155.213 282.573 226.705 263.441 47.598-12.795 75.374-27.371 83.15-43.95-26.741 42.036-73.847 59.709-141.406 52.91-101.195-10.133-138.797-36.006-202.06-87.5-63.364-51.506-85.62-186.07-79.04-214.236 6.59-28.266 15.04-56.035 63.261-97.723 32.082-27.799 84.046-34.302 155.873-19.312z" fill="#FDC78D" p-id="2311"></path><path d="M510.7 890.3c-15.7 0-32.3-1.6-49.5-4.9-62.5-11.8-127.2-44.3-173-87-45.5-42.4-75.1-96.7-83.2-152.7-8.2-56.9 6.4-108.8 41.4-146.3 34.9-37.5 85.7-55.7 143-51.5 56.5 4.2 112.7 29.9 158.2 72.3 45.8 42.7 82.8 105 98.9 166.5 8.3 31.9 10.8 61.7 7.3 88.7-3.9 29.7-14.8 54.5-32.6 73.5-17.7 19-41.7 31.7-71 37.6-12.5 2.5-25.7 3.8-39.5 3.8z m-137.2-423c-43.6 0-83.8 15-112.5 45.7-30.7 32.9-43.6 79-36.2 129.8 7.5 51.6 34.8 101.6 77 141 43.2 40.2 104.1 70.9 163 82 29.4 5.5 57.6 5.9 81.4 1.1 25.2-5.1 45.5-15.7 60.4-31.6 14.8-15.9 24-36.9 27.4-62.4 3.1-24.1 0.8-52.1-6.8-81.1-15.2-58-50-116.7-93.2-156.9-47.8-44.6-106.6-67.6-160.5-67.6z" fill="#333333" p-id="2312"></path><path d="M494.611436 599.728653a61.5 15 44.003 1 0 20.840881-21.579103 61.5 15 44.003 1 0-20.840881 21.579103Z" fill="#FFFFFF" p-id="2313"></path><path d="M571.214191 670.332438a21.5 10 57.999 1 0 16.960777-10.598681 21.5 10 57.999 1 0-16.960777 10.598681Z" fill="#FFFFFF" p-id="2314"></path><path d="M715.770035 423.737636a41.5 15 36.001 1 0 17.633981-24.270202 41.5 15 36.001 1 0-17.633981 24.270202Z" fill="#FFFFFF" p-id="2315"></path><path d="M772.90867 462.839183a11.5 10 57.999 1 0 16.960777-10.598681 11.5 10 57.999 1 0-16.960777 10.598681Z" fill="#FFFFFF" p-id="2316"></path></svg>