<?xml version="1.0" standalone="no"?><!DOCTYPE svg PUBLIC "-//W3C//DTD SVG 1.1//EN" "http://www.w3.org/Graphics/SVG/1.1/DTD/svg11.dtd"><svg t="1545201144101" class="icon" style="" viewBox="0 0 1024 1024" version="1.1" xmlns="http://www.w3.org/2000/svg" p-id="8763" xmlns:xlink="http://www.w3.org/1999/xlink" width="64" height="64"><defs><style type="text/css"></style></defs><path d="M219.4 322s1.4 167.5 51.7 295.2c15.6 39.7 32.1 130 10.4 170.3l75.5-15.1C377.3 693 326.6 582 326.6 582c-61.8-131.2-62.8-257.9-62.8-257.9M311.8 245.2s-11.6 105.9 2.6 141.8l70.2-30.3c-17.8-28.6-1.8-97.6-1.8-97.6M375.9 504.8s-35.7 66.3 11.4 243.5c11.2 42.1 25.2 136.5 0 174.3l54-3.7s43.9-97.2 1.5-229.7c-13.7-42.7-29-113.6-11.4-179.2M517.5 488c13.8 182.6-18 270-18 270s9 18.9 15.1 21c5.5 1.9 22.3-6.5 22.3-6.5 29-36.6 26.9-144.7 28.3-194.3 2-74.4-0.9-111.1-0.9-111.1" fill="#FFF6EB" p-id="8764"></path><path d="M751.4 504.5s-24 81.3-70.2 177.1c-24.3 50.3-115.4 149-220 180.4 0 0-9.3 75.7 53.5 85.8 291.6-117.2 311.2-429.2 311.2-429.2" fill="#FFF6EB" p-id="8765"></path><path d="M547.4 469.7s-97.2 73.2-247.3 7.6c0 0-31.5-17.7-12.6-58 0 0 51.1-106.3 210.7-41.6 24.2 9.7 51.9 37.8 49.2 92z" fill="#FFE7CF" p-id="8766"></path><path d="M439.4 360.6s63-97.3 154.7-3.2c0 0 89.6 95.9-46.7 112.3M287.5 240s137.5 35.3 188 16.4c26.7-10 100.7-46.6-12.6-113.6-43.4-25.6-128.9-63.1-199.5 27.8-11.3 14.5-44 46.7 24.1 69.4z" fill="#FFE7CF" p-id="8767"></path><path d="M948.7 474.7c-3.5 25.7-9.3 49.2-94.6 42.9 0 0-241-22.7-228.4-103.5 0 0 69.4-145 247.3-69.4 38.6 16.5 85.3 59.1 75.7 130zM304.8 311.8c-28.7 32.8-148.5-10.6-148.5-10.6s-47.8-12.6 54.3-63.7c19.1-9.6 50.9-20.1 97.7 54.7" fill="#FFE7CF" p-id="8768"></path><path d="M441.2 926.5c-1 0-2.1-0.2-3.1-0.7-3.8-1.7-5.5-6.2-3.8-10 0.1-0.2 10.7-24.2 16.1-63.7 5-36.4 6.4-93.8-14.9-160.6C423.1 653 405.2 578 424 508c1.1-4 5.2-6.4 9.3-5.4 4 1.1 6.4 5.2 5.4 9.3-17.8 66.2-0.5 138 11.3 174.9 22.3 69.8 20.7 129.8 15.4 167.9-5.8 41.5-16.8 66.2-17.2 67.2-1.4 2.9-4.1 4.6-7 4.6zM387.3 930.2c-1.4 0-2.9-0.4-4.2-1.3-3.5-2.3-4.4-7-2.1-10.5 10.1-15.1 14.4-43.1 12.4-80.9-1.8-33.8-8.1-67.2-13.4-87.2-47.3-178-12.3-246.2-10.7-249 2-3.7 6.6-5.1 10.3-3.1 3.7 2 5.1 6.5 3.1 10.2-0.2 0.4-8.5 16.8-11.2 53.9-2.5 34.6-0.5 94.6 23.3 184.1 5.5 20.8 12.1 55.4 13.9 90.3 2.2 41.7-2.8 72-14.9 90.1-1.7 2.2-4.1 3.4-6.5 3.4z" fill="" p-id="8769"></path><path d="M423.2 512.1c-35.2 0-78-6.8-126.1-27.9-0.2-0.1-0.5-0.2-0.7-0.3-1-0.6-9.9-5.7-16.2-16.7-5.9-10.2-10.7-27.3 0.5-51.1 0.6-1.2 14.2-29 48.6-48.4 20.1-11.3 43.1-17.5 68.4-18.3 31.2-1 65.9 6.2 103.3 21.3 15.2 6.1 28.8 17.6 38.2 32.2 11.7 18.3 17 40.9 15.7 67.1-0.1 2.2-1.2 4.3-3 5.7-1 0.8-26.1 19.4-70.2 29.7-15.9 3.8-35.6 6.7-58.5 6.7z m-119.7-41.6c75.1 32.7 136.1 29.1 174 20.4 33.1-7.6 54.9-20.4 62.4-25.3 1.4-57.8-33.6-76.5-44.6-80.9-35.2-14.3-67.7-21.1-96.6-20.3-22.8 0.6-43.4 6-61.3 16-30.6 17-43 41.9-43.1 42.2-15 31.9 6.4 46.2 9.2 47.9z m243.9-0.8zM514.6 955.4c-3.1 0-6-1.9-7.1-5-1.4-3.9 0.6-8.3 4.6-9.7 62.8-22.6 118-58.7 164-107.5 36.9-39.1 68-86.4 92.4-140.5 41.8-92.5 49.8-174 49.8-174.8 0.4-4.2 4.1-7.2 8.2-6.8 4.2 0.4 7.2 4.1 6.8 8.2-0.3 3.4-8.2 84.4-50.9 179.2-25.1 55.7-57.2 104.5-95.2 144.9C639.5 894 582.3 931.5 517.1 955c-0.8 0.2-1.7 0.4-2.5 0.4zM461.2 869.6c-3.3 0-6.3-2.1-7.2-5.4-1.2-4 1.1-8.2 5.1-9.4 57.6-17.3 106.4-53.9 137.2-81.5 42-37.7 67.9-73.7 78.1-94.9 45.4-94.1 69.5-175.1 69.8-176 1.2-4 5.4-6.3 9.4-5.1 4 1.2 6.3 5.4 5.1 9.4-0.2 0.8-24.7 83-70.6 178.2-13.9 28.7-45.2 66.9-81.7 99.6-31.9 28.7-82.7 66.6-143 84.7-0.7 0.3-1.5 0.4-2.2 0.4z" fill="" p-id="8770"></path><path d="M879.8 526.2c-8 0-16.7-0.4-26.2-1.1h-0.2c-7.3-0.7-180.2-17.6-224.7-74.9-9-11.6-12.5-24.1-10.4-37.3 0.1-0.7 0.3-1.4 0.7-2.1 0.7-1.6 18.7-38.4 59.5-66.1 24-16.3 51-25.9 80.2-28.7 36.1-3.4 75.6 3.9 117.4 21.6 13.8 5.9 39.7 19.8 59.1 47.2 18.6 26.2 25.7 56.8 21.1 90.8-1.6 11.8-3.8 28.1-20 38.7-12 8.1-30.2 11.9-56.5 11.9z m-25.1-16.1c36.8 2.7 60.7 0 73.2-8.2 9.7-6.4 11.6-15.7 13.3-28.2 4.1-30.1-2.1-57-18.4-80-17.2-24.3-40.4-36.8-52.7-42-39.2-16.7-76.1-23.6-109.6-20.5-26.6 2.4-51.1 11.1-73 25.8-34.1 22.9-51.3 53.6-54.4 59.5-1 8.6 1.4 16.7 7.6 24.5 16.5 21.2 58.5 39.9 121.4 54 47.5 10.6 90.6 14.9 92.6 15.1z m94-35.4zM536.8 780c-1.7 0-3.3-0.5-4.7-1.6-3.3-2.6-3.8-7.4-1.2-10.6 23.9-30.1 25.4-117 26.2-168.9 0.1-7.6 0.2-14.7 0.4-20.9 2-73.1-0.9-109.9-0.9-110.3-0.3-4.2 2.8-7.8 7-8.1 4.2-0.3 7.8 2.8 8.1 7 0.1 1.5 2.9 37.9 0.9 111.9-0.2 6.1-0.3 13.2-0.4 20.7-1 57.3-2.4 144-29.5 178.1-1.5 1.7-3.7 2.7-5.9 2.7zM499.5 765.6c-0.9 0-1.7-0.1-2.6-0.5-3.9-1.4-6-5.8-4.5-9.7 0.2-0.5 7.9-22.4 13.9-65.7 5.6-40.3 10.7-107.9 3.7-201.1-0.3-4.2 2.8-7.8 7-8.1 4.2-0.3 7.8 2.8 8.1 7C538.8 669.6 508 757 506.7 760.6c-1.2 3.1-4.1 5-7.2 5z" fill="" p-id="8771"></path><path d="M547.4 477.3c-3.8 0-7-2.8-7.5-6.7-0.5-4.2 2.5-7.9 6.6-8.4 38.2-4.6 60.7-15.7 67.1-33 5.2-14.3-1.5-31.3-8.1-43-7.3-13.1-16.2-22.8-16.9-23.6-27.3-28-54.4-40.9-80.4-38.3-38.3 3.8-62.2 40.1-62.5 40.4-2.3 3.5-7 4.5-10.5 2.2s-4.5-7-2.2-10.5c1.1-1.7 28.2-42.7 73.7-47.3 30.8-3.1 62.1 11.4 92.8 42.9l0.1 0.1c1.7 1.8 41.6 45.2 28.2 82.1-8.4 23.1-35.2 37.5-79.5 42.8-0.3 0.3-0.6 0.3-0.9 0.3zM314.4 394.6c-3 0-5.9-1.8-7-4.8-14.7-37.2-3.6-141-3.1-145.4 0.5-4.2 4.2-7.2 8.3-6.7 4.2 0.5 7.2 4.2 6.7 8.3 0 0.3-2.9 26.6-4 57-1.4 39.4 0.7 67.5 6.1 81.2 1.5 3.9-0.4 8.3-4.3 9.8-0.8 0.4-1.8 0.6-2.7 0.6zM384.7 364.3c-2.5 0-5-1.3-6.4-3.6-19.2-30.9-3.4-100.4-2.7-103.3 0.9-4.1 5-6.6 9.1-5.7 4.1 0.9 6.6 5 5.7 9.1-4.2 18.4-12.4 70.6 0.9 91.9 2.2 3.5 1.1 8.2-2.4 10.4-1.4 0.8-2.8 1.2-4.2 1.2z" fill="" p-id="8772"></path><path d="M433.8 269.5c-61 0-143.7-21-148.2-22.2-0.2 0-0.3-0.1-0.5-0.2-26.7-8.9-41.7-20.3-45.9-34.7-5.2-17.7 7.9-33.8 15.7-43.3 0.9-1.1 1.8-2.2 2.5-3.2 32.4-41.7 71.4-62 116.2-60.5 29.2 1 59.6 11.1 93.1 30.8 45.7 27 66.8 52 64.7 76.5-1 11.9-9.4 34.2-53.2 50.7-11.6 4.4-27.1 6.1-44.4 6.1z m-144.2-36.8c6.6 1.7 136.5 34.1 183.2 16.6 12.5-4.7 41.7-17.7 43.5-37.8 1.5-17.6-18.3-39.1-57.3-62.2-31.2-18.4-59.4-27.8-86-28.7-39.6-1.4-74.5 17-103.7 54.7-0.8 1.1-1.8 2.2-2.8 3.4-15.8 19.5-14.1 25.5-12.9 29.6 2.8 9 15.2 17.4 36 24.4zM357 780.1c-0.6 0-1.2-0.1-1.9-0.2-4.1-1-6.5-5.2-5.5-9.2 5.6-21.8 8.8-60.5-7.5-121.2-9.8-36.7-22.2-64-22.3-64.3-32.3-68.5-47.8-135.7-55.2-180.1-8-48.1-8.3-79.6-8.3-80.9 0-4.2 3.3-7.6 7.5-7.6h0.1c4.2 0 7.5 3.4 7.6 7.5 0 1.3 1.7 126.7 62.1 254.7 2.2 4.7 51.5 114.5 30.8 195.6-0.9 3.4-4 5.7-7.4 5.7zM281.5 795.1c-1.2 0-2.4-0.3-3.6-0.9-3.7-2-5.1-6.6-3.1-10.3 8.8-16.4 11.6-45.1 7.9-81-3-29.1-10.3-61.7-18.7-82.9-26.3-66.7-39.1-144.2-45.2-197.4-6.6-57.6-7-100.1-7-100.5 0-4.2 3.3-7.6 7.5-7.6h0.1c4.2 0 7.5 3.3 7.6 7.5 0 1.7 2 167.6 51.2 292.5 15 38.1 34 132.1 10 176.7-1.4 2.4-4 3.9-6.7 3.9z" fill="" p-id="8773"></path><path d="M264.7 331.6c-13.1 0-28.6-1.8-46.4-5.4-32.3-6.5-60.9-16.6-64.3-17.8-5.8-1.6-15.3-6.9-16.4-17.2-1.1-10.5 4.9-28.2 69.6-60.5 25.3-12.7 60.5-17.7 107.5 57.5 2.2 3.5 1.1 8.2-2.4 10.4-3.5 2.2-8.2 1.1-10.4-2.4-19.5-31.2-38.1-50-55.3-55.9-13-4.4-23.4-0.8-32.6 3.9-60.9 30.5-61.4 44-61.3 45.4 0.2 1.9 3.8 3.7 5.6 4.2 0.2 0.1 0.4 0.1 0.6 0.2 0.3 0.1 29.9 10.8 62.6 17.3 40.4 8.1 68 6.5 77.7-4.6 2.8-3.1 7.5-3.5 10.7-0.7 3.1 2.8 3.5 7.5 0.7 10.7-8.7 9.9-24.1 14.9-45.9 14.9z" fill="" p-id="8774"></path></svg>