<?xml version="1.0" standalone="no"?><!DOCTYPE svg PUBLIC "-//W3C//DTD SVG 1.1//EN" "http://www.w3.org/Graphics/SVG/1.1/DTD/svg11.dtd"><svg t="1545202378852" class="icon" style="" viewBox="0 0 1024 1024" version="1.1" xmlns="http://www.w3.org/2000/svg" p-id="22507" xmlns:xlink="http://www.w3.org/1999/xlink" width="64" height="64"><defs><style type="text/css"></style></defs><path d="M686.72 385.92c173.312 30.336 192.896 397.696-30.336 397.696H257.664c-89.344 0-145.28-187.904-35.072-230.528 106.624-41.216 185.216-216.064 464.128-167.168z" fill="#D1744B" p-id="22508"></path><path d="M656.384 807.424H257.664c-61.44 0-105.216-62.208-116.736-123.52-13.184-70.656 15.488-130.688 73.088-152.96 27.264-10.496 53.76-32 84.352-56.704 77.44-62.592 183.424-148.352 392.576-111.744 107.52 18.816 161.792 144.64 152.192 255.488-10.112 115.072-83.456 189.44-186.752 189.44z m-63.232-406.4c-128.896 0-200.448 57.984-264.96 110.08-32.384 26.112-62.848 50.816-97.024 64.128-53.76 20.864-46.848 81.664-43.52 99.84 8.832 47.488 39.552 84.736 70.016 84.736h398.72c117.376 0 136.192-111.744 139.264-146.048 7.552-87.424-33.408-190.592-113.024-204.544-32.64-5.632-62.336-8.192-89.472-8.192z" fill="#262626" p-id="22509"></path><path d="M579.456 553.088s5.632 135.296 213.504 78.976l14.976-59.904c-0.128 0-150.784 40.448-228.48-19.072z" fill="#B55639" p-id="22510"></path><path d="M591.36 558.464s66.944 77.312 173.44-5.248 53.248-181.76 99.456-196.352c42.368-13.312 47.872-27.776 46.464-51.328-1.536-23.552-15.488-35.968-36.352-35.072-9.6 0.384-21.504 1.536-25.344-4.608-8.704-13.44-26.752-26.624-51.072-17.152-32.768 12.8-30.208 44.416-24.192 57.6 6.656 14.848-43.136 90.24-43.136 90.24" fill="#D1744B" p-id="22511"></path><path d="M917.248 306.944c0.256-23.552-22.016-37.376-42.88-36.48-9.6 0.384-21.504 1.536-25.344-4.608-15.872-24.448-28.672-32.896-58.368-20.352-32.384 13.568-12.8 46.72-16.896 60.8-2.56 8.704-5.632 29.44-17.024 49.792 24.448 4.48 55.808 11.904 87.936 24.448 3.2-11.776 8.576-20.224 19.584-23.68 42.368-13.312 52.864-26.368 52.992-49.92z" fill="#FFFFFF" p-id="22512"></path><path d="M854.272 399.616l-14.848-5.76c-25.728-10.112-54.528-18.048-85.376-23.68l-19.584-3.584 9.728-17.408c7.936-14.336 11.52-29.184 13.824-39.04 0.768-3.072 1.408-5.76 1.92-7.808 0.256-1.536-0.512-6.912-1.024-10.496-2.432-16-6.912-45.568 26.112-59.52 37.888-15.872 56.96-2.816 74.752 23.936 2.816 0.384 8.32 0.128 11.52 0l2.432-0.128c16-0.64 32.128 5.248 43.008 15.872 9.6 9.344 14.848 21.76 14.72 34.944-0.384 36.352-24.32 51.328-62.976 63.488-3.584 1.152-7.296 3.072-10.112 13.824l-4.096 15.36zM777.344 345.6c20.864 4.48 40.704 10.112 59.392 16.64 4.224-7.424 11.264-15.232 23.424-19.072 42.752-13.44 42.88-24.192 43.008-36.48 0-5.504-1.92-10.368-6.016-14.208-5.376-5.248-13.824-8.192-22.016-7.936l-2.304 0.128c-11.648 0.512-27.52 1.28-35.584-11.136-14.208-21.504-20.352-23.68-41.088-14.976-11.008 4.608-11.776 10.368-8.96 28.928 1.152 7.936 2.304 15.488 0.256 22.784-0.512 1.664-1.024 3.84-1.536 6.4-1.792 7.168-4.224 17.536-8.576 28.928z" fill="#262626" p-id="22513"></path><path d="M687.104 619.648c-76.544 0-105.088-58.752-105.472-59.52-5.504-11.904-0.384-26.112 11.52-31.616 11.776-5.504 25.856-0.512 31.488 11.264 3.2 6.272 33.024 58.624 129.92 15.488 62.72-27.904 64.64-85.376 66.432-136.192 1.28-36.48 2.56-74.24 36.224-84.864 30.976-9.728 30.592-14.848 29.824-27.136-0.896-13.312-6.528-13.056-11.648-12.928l-2.304 0.128c-12.288 0.64-33.024 1.536-44.032-15.488-12.672-19.712-22.784-14.592-27.648-12.032-14.72 7.552-8.32 24.704-6.016 29.824 4.096 9.216 11.776 26.24-44.8 119.424-6.784 11.264-21.504 14.848-32.64 7.936-11.264-6.784-14.848-21.504-7.936-32.64 19.328-31.872 37.248-67.456 40.192-79.744-11.392-29.952-7.04-68.608 29.696-87.296 30.848-15.744 62.848-6.912 85.12 22.656 2.048 0 4.352-0.128 6.016-0.256l2.56-0.128c34.304-1.28 58.752 21.632 61.056 57.344 2.432 38.912-14.848 60.032-61.568 75.136-3.2 6.272-3.968 27.392-4.352 41.6-1.92 54.912-4.736 137.984-94.592 177.92-34.304 15.232-62.976 21.12-87.04 21.12z" fill="#262626" p-id="22514"></path><path d="M267.452378 657.360236a16.64 7.936 6.534 1 0 1.806119-15.768903 16.64 7.936 6.534 1 0-1.806119 15.768903Z" fill="#D87D59" p-id="22515"></path><path d="M298.300988 700.091753a14.08 7.168 6.534 1 0 1.631334-14.24288 14.08 7.168 6.534 1 0-1.631334 14.24288Z" fill="#D87D59" p-id="22516"></path><path d="M350.336 698.752a11.392 5.76 0 1 0 22.784 0 11.392 5.76 0 1 0-22.784 0Z" fill="#D87D59" p-id="22517"></path><path d="M239.369431 688.978583a14.08 5.248 8.667 1 0 1.581658-10.376145 14.08 5.248 8.667 1 0-1.581658 10.376145Z" fill="#D87D59" p-id="22518"></path><path d="M263.345511 729.626241a11.008 5.632 19.712 1 0 3.799262-10.603929 11.008 5.632 19.712 1 0-3.799262 10.603929Z" fill="#B25639" p-id="22519"></path><path d="M330.88 663.04a11.008 5.632 0 1 0 22.016 0 11.008 5.632 0 1 0-22.016 0Z" fill="#B25639" p-id="22520"></path><path d="M477.996438 497.544734a5.632 11.008 60 1 0 19.066416-11.008 5.632 11.008 60 1 0-19.066416 11.008Z" fill="#B25639" p-id="22521"></path><path d="M516.112265 485.927763a4.096 8.064 60 1 0 13.967258-8.064 4.096 8.064 60 1 0-13.967258 8.064Z" fill="#D87D59" p-id="22522"></path><path d="M620.700597 446.555517a3.84 9.344 72.785 1 0 17.850795-5.530865 3.84 9.344 72.785 1 0-17.850795 5.530865Z" fill="#D87D59" p-id="22523"></path><path d="M671.104 422.528a10.368 4.224 0 1 0 20.736 0 10.368 4.224 0 1 0-20.736 0Z" fill="#D87D59" p-id="22524"></path><path d="M588.339095 460.235091a1.92 6.4 68.218 1 0 11.886112-4.749774 1.92 6.4 68.218 1 0-11.886112 4.749774Z" fill="#D87D59" p-id="22525"></path><path d="M569.322605 444.869265a4.096 10.496 72.785 1 0 20.051578-6.212753 4.096 10.496 72.785 1 0-20.051578 6.212753Z" fill="#B25639" p-id="22526"></path><path d="M634.628097 425.024062a5.376 10.496 80.561 1 0 20.707785-3.442635 5.376 10.496 80.561 1 0-20.707785 3.442635Z" fill="#B25639" p-id="22527"></path><path d="MNaN NaNaNaN NaN NaN 1 0 NaN NaN NaN NaN NaN 1 0 NaN NaNZ" fill="#B25639" p-id="22528"></path><path d="M519.138958 462.05668a3.84 9.344 63.176 1 0 16.677113-8.432986 3.84 9.344 63.176 1 0-16.677113 8.432986Z" fill="#B25639" p-id="22529"></path><path d="M551.573355 469.721482a2.176 5.376 68.218 1 0 9.984334-3.989811 2.176 5.376 68.218 1 0-9.984334 3.989811Z" fill="#B25639" p-id="22530"></path><path d="M385.792 732.16a11.008 5.632 0 1 0 22.016 0 11.008 5.632 0 1 0-22.016 0Z" fill="#B25639" p-id="22531"></path><path d="M322.529667 743.331359a11.008 5.632 6.534 1 0 1.281762-11.190835 11.008 5.632 6.534 1 0-1.281762 11.190835Z" fill="#B25639" p-id="22532"></path></svg>