<?xml version="1.0" standalone="no"?><!DOCTYPE svg PUBLIC "-//W3C//DTD SVG 1.1//EN" "http://www.w3.org/Graphics/SVG/1.1/DTD/svg11.dtd"><svg t="1545202410867" class="icon" style="" viewBox="0 0 1024 1024" version="1.1" xmlns="http://www.w3.org/2000/svg" p-id="24048" xmlns:xlink="http://www.w3.org/1999/xlink" width="64" height="64"><defs><style type="text/css"></style></defs><path d="M688 283.2c1 0.9-98.5 118.1-98.5 118.1-18.8 21.3-16.6 54.1 4.7 72.9 21.3 18.8 54.1 16.6 72.9-4.7 0 0 103.5-113.7 104.5-112.8 23.1 20.3 58.3 18 78.6-5.1 20.3-23.1 18-58.3-5.1-78.6-22.7-20-53.8-24.6-53.8-24.6s-7.1-28.9-29.8-48.9c-23.1-20.3-58.3-18-78.6 5.1-20.3 23.1-18 58.3 5.1 78.6z" fill="#FFFFFF" p-id="24049"></path><path d="M628.2 515.5c-19.5 0-38-7-52.7-19.9-16-14.1-25.6-33.6-27-55-1.4-21.4 5.6-42 19.7-58 31.2-36.7 65.4-77.4 83.6-99.4-17.3-30.3-14.5-69.6 9.8-97.3 30.6-34.8 83.9-38.3 118.7-7.7 16.9 14.8 27 32.9 32.7 46.2 14.3 4.3 34 12.4 51 27.3 34.8 30.6 38.3 83.9 7.7 118.7-24.3 27.7-62.9 35.5-95.3 22.2-19.5 20.8-55.5 60.1-88.2 96-13.8 15.7-33.3 25.2-54.7 26.6-1.8 0.2-3.6 0.3-5.3 0.3z m96.6-301.3c-7.6 0-15.1 3.1-20.5 9.2-9.9 11.3-8.8 28.5 2.5 38.5 21 18.5 5.8 36.9-11.8 58.3-9.2 11.2-21.6 26-34.1 40.8-24.8 29.5-49.7 58.8-49.7 58.8-8.8 10-7.8 24.7 1.8 33.1 9.6 8.5 24.3 7.5 32.8-2.1 0.3-0.4 26.2-28.8 52.3-57.2 13.1-14.2 26.2-28.4 36.1-39 18.9-20.2 35.2-37.7 56.3-19.2 11.3 9.9 28.5 8.8 38.5-2.5 9.9-11.3 8.8-28.5-2.5-38.5-12.4-10.9-30.8-16.4-39.7-17.9l-7.9-1.4-12.7-11-2.3-8.5c-0.2-0.9-5.9-21.4-21.1-34.8-5.2-4.4-11.6-6.6-18-6.6z" fill="#262626" p-id="24050"></path><path d="M619.2 394.4c-30.1-19.8-68.6-22.1-100.7-5.6-39.1 20.1-93.6 43.7-134.2 43.3C264.1 431 60.9 609.9 216.2 776.7c204.6 219.8 561.5-209.5 442.2-356.6l-39.2-25.7z" fill="#D1744B" p-id="24051"></path><path d="M351 866.7c-58 0-111.7-23.4-155.6-70.6-64.2-69-80.6-150-46.2-228.1 43.5-98.7 155.8-164.4 234.2-164.4h2c27.2 0 69.8-14.2 120.2-40.2 41-21.1 90.6-18.4 129.3 7.1l42.9 28.2 2.8 3.4c75.9 93.7-3 269.5-124.4 375-68.6 59.6-139.6 89.6-205.2 89.6z m32.2-406.2c-59 0-149 55.5-182 130.4-25.4 57.6-13.3 113.6 35.8 166.4 105.9 113.8 242.5 11.1 281.8-23.1 107.9-93.8 163.9-231.7 120-293.1L603.6 418c-21.6-14.2-49.3-15.8-72.1-4-59.9 30.8-109.1 46.5-146.2 46.5h-2.1z" fill="#262626" p-id="24052"></path></svg>