<?xml version="1.0" standalone="no"?><!DOCTYPE svg PUBLIC "-//W3C//DTD SVG 1.1//EN" "http://www.w3.org/Graphics/SVG/1.1/DTD/svg11.dtd"><svg t="1545200932802" class="icon" style="" viewBox="0 0 1024 1024" version="1.1" xmlns="http://www.w3.org/2000/svg" p-id="6932" xmlns:xlink="http://www.w3.org/1999/xlink" width="64" height="64"><defs><style type="text/css"></style></defs><path d="M683.34 164L670 158.59c-4.46-1.79-9.35-3.25-13.57-5.52 0.82-2.54 3.44-5.24 5-7.5q2.65-3.91 5.24-7.86 5.19-7.91 10.07-16a316.69 316.69 0 0 0 17.49-33.31q4.08-9.11 7.4-18.53a11.79 11.79 0 0 1 2.42-4.64c1.25-1.24 3.36-1.82 4.79-0.79 1.7 1.21 1.55 3.73 1.18 5.79-2 11.16-4.72 22.18-7.59 33.15-4.52 17.33-9.32 34.6-15 51.57a34.54 34.54 0 0 1-4.09 9.05z" fill="#B7CE72" p-id="6933"></path><path d="M719.07 245.22c2.29-17.63-1.13-33.27-7.88-39.62a3.75 3.75 0 0 1-1.1-2.42c-1.33-16.56-4.66-26.54-14.89-36.52-15.69-15.28-39.15-21.36-39.15-21.36S615 135 573.59 188.26a3.83 3.83 0 0 1-2.82 1.48c-9.89 0.56-24.13 17.54-33.67 41.07a122.72 122.72 0 0 0-7.48 25.77 3.75 3.75 0 0 1-3.19 3.06c-8.49 1.33-17.82 10.28-23 23.14-4.51 11.12-4.77 22.27-1.42 29.53a3.71 3.71 0 0 1-0.12 3.25v0.08a4 4 0 0 1-3.62 2.09c-9 0-19.52 9.35-25.19 23.3-4.69 11.56-4.8 23.16-1 30.38a3.81 3.81 0 0 1 0 3.42l-3 6a4 4 0 0 1-3.23 2.15c-9.71 1.11-22.88 16.46-31.52 37.74-7.17 17.67-9.24 34.57-6.2 44.13a4 4 0 0 1-0.11 2.85q-2.24 4.89-4.45 9.82a3.94 3.94 0 0 1-2.81 2.2c-9.6 2-22.14 17-30.47 37.56-7.86 19.36-9.59 37.79-5.17 46.65a3.76 3.76 0 0 1 0.09 3.08q-1.26 3.12-2.51 6.24a3.83 3.83 0 0 1-3.21 2.38c-7.88 0.81-15.84 7.29-19.81 17.05-4.12 10.15-2.67 20.77 2.93 26.74a3.83 3.83 0 0 1 0.83 4q-2.6 7.11-5.09 14.13a3.78 3.78 0 0 1-2.59 2.4c-7 1.83-13.61 7.9-17.13 16.56-4 10-2.71 20.38 2.65 26.4a3.81 3.81 0 0 1 0.79 3.67q-0.77 2.52-1.52 5a4 4 0 0 1-2.86 2.61c-9.38 2.53-18.56 20.23-21.47 42.62-2.07 15.88-0.47 30.3 3.64 39.06a4 4 0 0 1 0.35 2.25c-0.27 1.75-0.53 3.49-0.78 5.21a3.85 3.85 0 0 1-0.87 1.9c-6.17 7.44-11.36 20.92-13.41 36.72-2.29 17.63-0.07 33.44 5.09 41.73a4.05 4.05 0 0 1 0.62 2.27c-1 24-3.17 51.66 8.76 73.72 10.73 19.86 27.21 24.62 47.17 17s37.55-21.88 53-36.42a4 4 0 0 1 2.08-1c9.6-1.64 22.95-12 34-27.34 6.57-9.14 11.18-18.48 13.54-26.59l4.24-4.8c9-3.51 20.18-13 29.62-26.13 11-15.23 16.5-31 15.13-40.69a4 4 0 0 1 0.52-2.74q5.94-9.55 11.68-19a3.76 3.76 0 0 1 1.18-1.2 50.1 50.1 0 0 0 13.22-12.9c6-8.37 9.1-17.45 9.06-24.85a3.86 3.86 0 0 1 0.49-1.94q4.34-7.64 8.49-15.19a3.86 3.86 0 0 1 3.53-2.07c9.67 0.57 22.91-13.32 31-33.35 6.14-15.12 7.74-29.76 5-38.76a4 4 0 0 1 0.17-2.9q2.82-5.91 5.54-11.75a3.93 3.93 0 0 1 2-1.92c7.05-3 14-10.69 18.21-21 3.8-9.36 4.41-18.79 2.26-25.76a3.92 3.92 0 0 1 0.09-2.7q2-4.79 3.9-9.54a3.93 3.93 0 0 1 1.48-1.77c7-4.66 14-13.88 18.8-25.59 5.3-13 6.38-25.85 3.61-34.11a3.94 3.94 0 0 1 0-2.56q1.89-5.55 3.7-11a3.75 3.75 0 0 1 0.68-1.22 64.68 64.68 0 0 0 11.46-21.75c3-9.38 3.9-18.48 3-25.85a3.79 3.79 0 0 1 0.1-1.46c1.4-5 2.77-10 4.09-14.92 0.18-0.67 0.34-1.31 0.52-2 8.72-4.89 18-21.27 22.82-41.92 4.7-20 3.89-38.28-1.3-46.91a3.78 3.78 0 0 1-0.42-2.6c0.85-4.61 1.6-9 2.28-13.21a3.86 3.86 0 0 1 1-1.94c5.86-6.6 10.66-18.23 12.44-31.91 1.42-10.89 0.64-21-1.74-28.68a3.76 3.76 0 0 1-0.06-2.05 84.52 84.52 0 0 0 1.87-9.46z" fill="#C1E47A" p-id="6934"></path></svg>