<?xml version="1.0" standalone="no"?><!DOCTYPE svg PUBLIC "-//W3C//DTD SVG 1.1//EN" "http://www.w3.org/Graphics/SVG/1.1/DTD/svg11.dtd"><svg t="1545201558234" class="icon" style="" viewBox="0 0 1024 1024" version="1.1" xmlns="http://www.w3.org/2000/svg" p-id="12655" xmlns:xlink="http://www.w3.org/1999/xlink" width="64" height="64"><defs><style type="text/css"></style></defs><path d="M764.8 679.2l-3.7-4.3c-5.1-5.9-8.1-13.3-8.6-21.1-1.3-23.9-13.5-50.7-35.4-72.6-18-18-39.2-29.5-59.5-33.7-4.3-0.9-7.6-4.6-7.8-9.1-1.2-26.3-14.7-55.9-38.9-80.1-22.2-22.2-48.9-35.3-73.5-38.3-4-0.5-7.2-3.5-8.2-7.4-5.2-19.3-16.6-39.2-33.6-56.2-31.8-31.8-73.4-43.9-103-32.7-3.9 1.5-8.3 0.1-10.7-3.3l-14.3-20.3c-2.5-3.6-7.6-4-10.7-0.9L336 320.1c-2.9 2.9-2.7 7.5 0.3 10.2l17.9 16c4.5 4 6.6 10.1 5.3 15.9-1.4 6-1.9 12.4-1.6 18.9-2.2 56.2 41.8 141.3 117.1 216.6 78.3 78.3 167.1 122.7 223.1 116.6 9.7-0.2 18.8-2.4 26.8-6.6l20.1-6.2 15.2-5.5c7.1-2.4 9.4-11.1 4.6-16.8z" fill="#FEBD47" p-id="12656"></path><path d="M708.3 301.6h-11.4c-7.1 0-12.9-5.8-12.9-12.9v-11.4c0-1.4-1.2-2.6-2.6-2.6h-7.7c-1.4 0-2.6 1.2-2.6 2.6v11.4c0 7.1-5.8 12.9-12.9 12.9h-11.4c-1.4 0-2.6 1.2-2.6 2.6v7.7c0 1.4 1.2 2.6 2.6 2.6h11.4c7.1 0 12.9 5.8 12.9 12.9v11.4c0 1.4 1.2 2.6 2.6 2.6h7.7c1.4 0 2.6-1.2 2.6-2.6v-11.4c0-7.1 5.8-12.9 12.9-12.9h11.4c1.4 0 2.6-1.2 2.6-2.6v-7.7c0-1.4-1.1-2.6-2.6-2.6zM299.2 658.2h-7.6c-4.7 0-8.6-3.8-8.6-8.6V642c0-0.9-0.8-1.7-1.7-1.7h-5.1c-0.9 0-1.7 0.8-1.7 1.7v7.6c0 4.7-3.8 8.6-8.6 8.6h-7.6c-0.9 0-1.7 0.8-1.7 1.7v5.1c0 1 0.8 1.7 1.7 1.7h7.6c4.7 0 8.6 3.8 8.6 8.6v7.6c0 0.9 0.8 1.7 1.7 1.7h5.1c0.9 0 1.7-0.8 1.7-1.7v-7.6c0-4.7 3.8-8.6 8.6-8.6h7.6c0.9 0 1.7-0.8 1.7-1.7v-5.1c0.1-0.9-0.7-1.7-1.7-1.7zM486.8 749.3c-10 0-18.2-8.2-18.2-18.2s8.2-18.2 18.2-18.2 18.2 8.2 18.2 18.2-8.2 18.2-18.2 18.2z m0-28.3c-5.6 0-10.1 4.5-10.1 10.1s4.5 10.1 10.1 10.1 10.1-4.5 10.1-10.1-4.6-10.1-10.1-10.1z" fill="#050505" p-id="12657"></path><path d="M722 503.9m-11.1 0a11.1 11.1 0 1 0 22.2 0 11.1 11.1 0 1 0-22.2 0Z" fill="#050505" p-id="12658"></path><path d="M304 497.9m-17.2 0a17.2 17.2 0 1 0 34.4 0 17.2 17.2 0 1 0-34.4 0Z" fill="#050505" p-id="12659"></path><path d="M663.6 719.1c-59.7 0-145.6-46.6-218.6-119.6-74.8-74.8-121.6-162-119.5-222.4-0.3-7.2 0.4-14.2 1.9-20.8 0.7-2.8-0.4-5.9-2.7-8l-17.9-16c-3.1-2.8-5-6.8-5.1-10.9-0.1-4.2 1.5-8.3 4.5-11.2l20.9-20.9c3.2-3.2 7.6-4.8 12.1-4.4 4.5 0.4 8.6 2.7 11.2 6.4l14.3 20.3c0.2 0.3 0.7 0.5 1.1 0.3 33.4-12.7 78.3 1.2 111.7 34.6 17.6 17.6 29.9 38.3 35.7 59.9 0.2 0.7 0.7 1.3 1.3 1.4 27.2 3.3 55.8 18.1 78.3 40.6 24.8 24.8 39.9 56 41.2 85.6 0 0.7 0.6 1.3 1.3 1.4 22.6 4.8 45.2 17.5 63.6 35.9 22.6 22.6 36.4 50.9 37.8 77.9 0.3 5.8 2.7 11.6 6.6 16.3l3.7 4.3c4 4.7 5.4 11.1 3.8 17-1.6 5.9-6 10.8-11.8 12.9l-15.6 5.6-19.4 6c-8.7 4.4-18.6 6.8-29.3 7.1-3.7 0.5-7.4 0.7-11.1 0.7zM318.6 321l17 15.1c6.8 6.1 9.8 15.2 7.8 23.9-1.2 5.2-1.7 10.9-1.4 16.8v0.6c-2.1 55.2 44 139.7 114.7 210.5 74.2 74.3 161.2 120.2 216.3 114.3h0.7c8.6-0.2 16.4-2.1 23.2-5.6l0.7-0.4 20.7-6.4 15.1-5.4c1-0.4 1.4-1.2 1.5-1.7 0.1-0.5 0.2-1.4-0.5-2.2l-3.7-4.3c-6.3-7.4-10-16.6-10.5-26-1.3-22.9-13.3-47.4-33.1-67.2-16.2-16.2-35.9-27.4-55.4-31.5-8-1.7-13.9-8.6-14.3-16.7-1.2-25.5-14.5-52.7-36.5-74.7-20-20-45-33.1-68.7-35.9-7.3-0.9-13.2-6.1-15.2-13.4-5-18.6-16.2-37.2-31.5-52.5-28.4-28.4-67.2-41.1-94.2-30.9-7.4 2.8-15.8 0.3-20.3-6.2l-13.5-19.1-18.9 18.9z" fill="" p-id="12660"></path><path d="M544.9 596.5c-21 0-44.7-10.5-64-29.8-29.2-29.2-38.2-68.4-21.3-93.2l13.6 9.2c-12.2 18-3.9 49.1 19.4 72.3 23.2 23.2 54.3 31.6 72.4 19.4l9.2 13.6c-8.5 5.7-18.6 8.5-29.3 8.5zM661.4 679.9c-13.6 0-28.6-4.2-42.7-12.6-29.3-17.5-44.4-47.2-35.8-70.7l15.4 5.6c-5.7 15.6 7 38 28.8 51s47.6 13.5 58.6 1.2l12.3 10.9c-8.7 9.7-21.9 14.6-36.6 14.6zM430.8 463.7c-21.2 0-43.9-16.1-57.1-41.8-15.6-30.4-12.6-63.6 7.1-79l10.1 12.9c-13.1 10.2-14.2 35.9-2.6 58.5s33.2 36.7 49.1 32L442 462c-3.6 1.1-7.4 1.7-11.2 1.7z" fill="" p-id="12661"></path></svg>