<?xml version="1.0" standalone="no"?><!DOCTYPE svg PUBLIC "-//W3C//DTD SVG 1.1//EN" "http://www.w3.org/Graphics/SVG/1.1/DTD/svg11.dtd"><svg t="1545202660011" class="icon" style="" viewBox="0 0 1024 1024" version="1.1" xmlns="http://www.w3.org/2000/svg" p-id="27239" xmlns:xlink="http://www.w3.org/1999/xlink" width="64" height="64"><defs><style type="text/css"></style></defs><path d="M943.375174 585.975715v113.241717c-143.7535 0-143.7535-34.709713-287.506999-34.709713s-143.7535 34.709713-287.404611 34.709713c-143.7535 0-143.7535-34.709713-287.404611-34.709713v-113.241717c143.7535 0 143.7535 34.709713 287.404611 34.709713 143.7535 0 143.7535-34.709713 287.404611-34.709713s143.855888 34.709713 287.506999 34.709713z" fill="#F95428" p-id="27240"></path><path d="M943.375174 472.631609v113.344106c-143.7535 0-143.7535-34.709713-287.506999-34.709713s-143.7535 34.709713-287.404611 34.709713c-143.7535 0-143.7535-34.709713-287.404611-34.709713v-113.344105c143.7535 0 143.7535 34.709713 287.404611 34.709712 143.7535 0 143.7535-34.709713 287.404611-34.709712s143.855888 34.709713 287.506999 34.709712z" fill="#F7B239" p-id="27241"></path><path d="M943.375174 359.389892v113.241717c-143.7535 0-143.7535-34.709713-287.506999-34.709712s-143.7535 34.709713-287.404611 34.709712c-143.7535 0-143.7535-34.709713-287.404611-34.709712v-113.241717c143.7535 0 143.7535 34.709713 287.404611 34.709712 143.7535 0 143.7535-34.709713 287.404611-34.709712s143.855888 34.709713 287.506999 34.709712z" fill="#F95428" p-id="27242"></path><path d="M893.511959 407.614891m-16.279777 0a16.279777 16.279777 0 1 0 32.559553 0 16.279777 16.279777 0 1 0-32.559553 0Z" fill="#FFFFFF" p-id="27243"></path><path d="M943.375174 343.110116c-69.931368 0-103.92436-8.191083-139.862735-16.894108-36.24554-8.805414-73.719743-17.815605-147.541876-17.815605s-111.296335 9.010191-147.541875 17.815605c-35.938375 8.703025-69.931368 16.894108-139.862735 16.894108s-103.92436-8.191083-139.862736-16.894108c-36.24554-8.805414-73.719743-17.815605-147.541875-17.815605-9.010191 0-16.279777 7.269586-16.279777 16.279777v339.929928c0 9.010191 7.269586 16.279777 16.279777 16.279776 69.931368 0 103.92436 8.191083 139.862735 16.894108 36.24554 8.805414 73.719743 17.815605 147.541876 17.815605s111.296335-9.010191 147.541875-17.815605c35.938375-8.703025 69.931368-16.894108 139.862735-16.894108s103.92436 8.191083 139.862736 16.894108c36.24554 8.805414 73.719743 17.815605 147.541875 17.815605 9.010191 0 16.279777-7.269586 16.279777-16.279777v-339.929928c0-9.010191-7.269586-16.279777-16.279777-16.279776z m-722.453485 14.743948c36.24554 8.805414 73.719743 17.815605 147.541875 17.815605s111.296335-9.010191 147.541875-17.815605c35.938375-8.703025 69.931368-16.894108 139.862736-16.894108s103.92436 8.191083 139.862735 16.894108c33.48105 8.088694 67.985986 16.382165 131.262099 17.610828v80.784552c-59.180572-1.126274-90.511463-8.703025-123.582959-16.689331-36.24554-8.805414-73.719743-17.815605-147.541875-17.815604s-111.193946 9.010191-147.439487 17.713216c-36.040763 8.703025-70.033756 16.894108-139.965124 16.894108s-103.92436-8.191083-139.862735-16.894108c-33.48105-8.088694-68.088374-16.382165-131.262099-17.610828v-80.784552c59.180572 1.228662 90.511463 8.805414 123.582959 16.791719z m706.173708 130.954933v80.784553c-59.180572-1.126274-90.511463-8.703025-123.582958-16.689331-36.24554-8.805414-73.719743-17.815605-147.541876-17.815605s-111.296335 9.010191-147.541875 17.815605c-35.938375 8.703025-69.931368 16.894108-139.862735 16.894108s-103.92436-8.191083-139.862736-16.894108c-33.48105-8.088694-68.088374-16.382165-131.262098-17.610828v-80.784552c59.180572 1.126274 90.511463 8.703025 123.582958 16.689331 36.24554 8.805414 73.719743 17.815605 147.541876 17.815604s111.296335-9.010191 147.541875-17.815604c35.938375-8.703025 69.931368-16.894108 139.862735-16.894108s103.92436 8.191083 139.862736 16.894108c33.48105 7.986306 68.088374 16.382165 131.262098 17.610827z m-123.582958 177.336939c-36.24554-8.805414-73.719743-17.815605-147.541876-17.815605s-111.296335 9.010191-147.541875 17.815605c-35.938375 8.703025-69.931368 16.894108-139.862735 16.894108s-103.92436-8.191083-139.862736-16.894108c-33.48105-8.088694-67.985986-16.382165-131.262098-17.610828v-80.784552c59.180572 1.126274 90.511463 8.703025 123.582958 16.689331 36.24554 8.805414 73.719743 17.815605 147.541876 17.815604s111.296335-9.010191 147.541875-17.815604c35.938375-8.703025 69.931368-16.894108 139.862735-16.894108s103.92436 8.191083 139.862736 16.894108c33.48105 8.088694 68.088374 16.382165 131.262098 17.610827v80.784552c-59.180572-1.126274-90.511463-8.703025-123.582958-16.68933z" fill="#333333" p-id="27244"></path><path d="M893.511959 663.893388c-9.010191 0-16.279777-7.269586-16.279777-16.279777v-187.882957c0-9.010191 7.269586-16.279777 16.279777-16.279776s16.279777 7.269586 16.279776 16.279776v187.882957c0 8.907802-7.269586 16.279777-16.279776 16.279777z" fill="#FFFFFF" p-id="27245"></path></svg>