<?xml version="1.0" standalone="no"?><!DOCTYPE svg PUBLIC "-//W3C//DTD SVG 1.1//EN" "http://www.w3.org/Graphics/SVG/1.1/DTD/svg11.dtd"><svg t="1545200648318" class="icon" style="" viewBox="0 0 1024 1024" version="1.1" xmlns="http://www.w3.org/2000/svg" p-id="6179" xmlns:xlink="http://www.w3.org/1999/xlink" width="64" height="64"><defs><style type="text/css"></style></defs><path d="M864.9 500.3c6.8-8.1-3.1-12.2 1.4-22.5s32.1-2.7 26.3-23.7-22.8-6.7-33.4-8.3c-10.6-1.6-5.1-14.4-17-18.5s-16.9 18.8-26.1 20.2c-9.2 1.4-9.1-18.4-23.9-18.9-14.1-0.4-38.9 50-41.3 55L563.4 508 729 338.6l2.6-2.6s57.4 4.2 69.3-10.1c12-14.3-10.8-20.8-6.2-29.3 4.6-8.5 31-5.6 33-16 1.9-10.4-8.7-9.1-9.8-20.2-1.2-11.2 26.6-18.1 11.2-33.6-15.4-15.4-23.1 5.4-33.2 9.3-10 3.9-11.6-10-23.9-7.7s-5.4 24.7-12.7 30.5c-7.3 5.8-17-11.6-30.1-4.6-13.1 6.9-9.1 67.5-9.1 68L546.8 491.5l41-169.3c3.5-1.7 55.7-27 55.2-41.4-0.4-14.8-20.3-14.7-18.9-23.9 1.4-9.2 24.3-14.2 20.2-26.1-4.1-11.9-16.9-6.4-18.5-17-1.6-10.6 12.7-27.6-8.3-33.4-21-5.8-13.4 21.8-23.7 26.3-10.3 4.5-14.4-5.4-22.5 1.4-8.1 6.8 7.4 28.4 2.3 36.6-5.1 8.2-22-8.4-28.5 9.1-6.2 16.5 22 60.4 24.9 64.8l-48.4 196.8 0.4 0.1-308.4 299.7c-8 8-8 20.9 0 28.9l0.6 0.6c8 8 20.9 8 28.9 0l296.3-312.1 0.1 0.4 214.7-31.6c3 2 48.2 31.4 65.1 25.1 17.4-6.5 0.9-23.4 9.1-28.5 8.1-5.2 29.7 10.4 36.5 2.3z" fill="#A3DA67" p-id="6180"></path><path d="M612.5 179.6c1.5 0 3.3 0.3 5.2 0.8 21 5.8 6.7 22.8 8.3 33.4 1.6 10.6 14.4 5.1 18.5 17s-18.8 16.9-20.2 26.1c-1.4 9.2 18.4 9.1 18.9 23.9 0.4 14.3-51.8 39.7-55.2 41.4l-41 169.3 173-169.3c0-0.5-4-61.1 9.1-68 2.3-1.2 4.4-1.7 6.5-1.7 8.1 0 14.8 7.5 20.2 7.5 1.2 0 2.3-0.4 3.4-1.2 7.3-5.8 0.4-28.2 12.7-30.5 1-0.2 1.9-0.3 2.7-0.3 8.6 0 11.3 8.7 17.9 8.7 1 0 2.1-0.2 3.4-0.7 7.4-2.8 13.5-14.9 22.4-14.9 3.2 0 6.7 1.5 10.8 5.6 15.4 15.4-12.3 22.4-11.2 33.6 1.2 11.2 11.8 9.8 9.8 20.2s-28.3 7.5-33 16c-4.6 8.5 18.1 15 6.2 29.3-7.6 9-33.3 10.7-51.2 10.7-10.4 0-18.2-0.6-18.2-0.6l-2.6 2.6L563.4 508l187.5-24.3c2.4-4.9 27-55 41.1-55h0.2c14.3 0.4 14.7 18.9 23 18.9 0.3 0 0.6 0 0.9-0.1 8.5-1.3 13.4-20.7 23.3-20.7 0.9 0 1.8 0.2 2.8 0.5 11.9 4.1 6.4 16.9 17 18.5 0.6 0.1 1.2 0.1 1.8 0.1 5.8 0 12.9-3.4 19.2-3.4 5.3 0 9.9 2.5 12.4 11.6 5.8 21-21.8 13.4-26.3 23.7-4.5 10.3 5.4 14.4-1.4 22.5-1.5 1.7-3.6 2.4-6.1 2.4-7.6 0-18.7-5.8-26-5.8-1.7 0-3.2 0.3-4.4 1.1-8.2 5.1 8.4 22-9.1 28.5-1.6 0.6-3.5 0.9-5.6 0.9-19.6 0-56.7-24.2-59.4-26L539.5 533l-0.1-0.4-296.3 312.1c-4 4-9.2 6-14.5 6-5.2 0-10.5-2-14.5-6l-0.6-0.6c-8-8-8-20.9 0-28.9l308.7-299.7-0.4-0.1 48.4-196.8c-2.9-4.4-31.1-48.3-24.9-64.8 2.5-6.7 6.5-8.4 10.8-8.4 4.4 0 9 1.7 12.7 1.7 2.1 0 3.9-0.6 5-2.4 5.1-8.2-10.4-29.8-2.3-36.6 2.2-1.9 4.1-2.5 6-2.5 3.5 0 6.7 2.3 11 2.3 1.6 0 3.4-0.3 5.5-1.2 9.4-4.1 4-27.1 18.5-27.1m0-18c-10 0-18.4 4.7-23.7 13.2-2.8 4.6-4.2 9.4-5.2 13.5-1.8-0.4-3.8-0.7-6.1-0.7-6.3 0-12.2 2.3-17.5 6.7-3.8 3.2-10 10.6-8.6 23.9 0.3 3.2 1.1 6.3 1.9 9.3-11.5 1-20.4 8.2-24.8 19.9-4.6 12.2-1.6 28 9.8 51.2 4.4 9 9.3 17.4 12.7 23.1l-45.5 185-304.4 295.5-0.2 0.2c-15 15-15 39.4 0 54.4l0.6 0.6c7.3 7.3 16.9 11.3 27.2 11.3s19.9-4 27.2-11.3l0.3-0.3L547.7 550l202.5-29.8c4.6 2.8 11.4 6.9 19.1 10.9 18.6 9.6 33.1 14.3 44.3 14.3 4.3 0 8.3-0.7 11.9-2 13.7-5.1 18-15.1 19.3-20.6 0.3-1.4 0.6-2.9 0.7-4.2 4.2 1.2 8.7 2.1 13.3 2.1 8.1 0 15.2-3.1 19.9-8.8 7.5-9 7.2-17.9 6-23.6 7.2-1.8 17.2-4.8 23-14.8 4-6.9 4.8-15 2.3-24.2-6.2-22.4-22.9-24.8-29.8-24.8-5.3 0-10.1 1.2-14 2.2-2.6-5.5-7.6-12.8-18.2-16.4-2.8-1-5.7-1.5-8.6-1.5-11.1 0-18.4 6.6-23.5 12.8-4.9-5.4-12.1-10.6-23.3-11h-0.7c-13.2 0-25.3 10.2-40.2 34.1-5 8-9.5 16.2-12.6 22.3l-126.6 16.4 126.2-129.1c3.1 0.1 6.9 0.2 11 0.2 45.4 0 58.8-9.8 65-17.1 9.4-11.2 8.2-22 6.6-27.4-0.4-1.4-0.9-2.8-1.5-4 3-0.7 6.1-1.7 9.1-2.9 12.3-5.3 15.6-14.3 16.5-19.2 2.1-11.5-2.5-19.1-6.4-23.5 5.4-5.1 12.6-12.7 12.7-24.2 0.1-8-3.2-15.4-9.9-22.2-7.2-7.2-15.1-10.9-23.5-10.9-12.2 0-20.3 7.6-25.7 12.8-4-2.9-9.9-5.9-17.9-5.9-2 0-4 0.2-6 0.6-9.5 1.8-16.6 8-20.2 17.4-1 2.8-1.7 5.6-2.1 8.3-3.2-1.1-6.8-1.8-10.7-1.8-5.2 0-10.2 1.3-14.9 3.8-11.9 6.3-17.6 21.1-18.9 49.6-0.5 10-0.3 20-0.1 27.1L579.1 434.8l24.3-100.3c6-3.1 14.6-7.7 23.1-13 24.7-15.3 35-27.7 34.7-41.2-0.3-11.1-5.5-18.4-10.9-23.2 2.1-1.7 4.3-3.6 6.2-5.9 6.5-7.8 8.3-17 5.2-26.1-3.6-10.6-10.9-15.6-16.4-18.2 1.4-5.6 3.3-13.1 1.4-21.1-1.5-6.4-6.6-17.8-24-22.7-3.7-1-7-1.5-10.2-1.5z" fill="#1A1A1A" p-id="6181"></path><path d="M570.2 318.5c-2.9-4.4-31.1-48.3-24.9-64.8 6.5-17.4 23.4-0.9 28.5-9.1 5.1-8.2-10.4-29.8-2.3-36.6 8.1-6.8 12.2 3.1 22.5-1.4s2.7-32.1 23.7-26.3c21 5.8 6.7 22.8 8.3 33.4 1.6 10.6 14.4 5.1 18.5 17s-18.8 16.9-20.2 26.1c-1.4 9.2 18.4 9.1 18.9 23.9 0.4 14.3-51.8 39.7-55.2 41.4l-17.8-3.6zM731.5 336s57.4 4.2 69.3-10.1c12-14.3-10.8-20.8-6.2-29.3 4.6-8.5 31-5.6 33-16 1.9-10.4-8.7-9.1-9.8-20.2-1.2-11.2 26.6-18.1 11.2-33.6-15.4-15.4-23.1 5.4-33.2 9.3-10 3.9-11.6-10-23.9-7.7-12.3 2.3-5.4 24.7-12.7 30.5-7.3 5.8-17-11.6-30.1-4.6-13.1 6.9-9.1 67.5-9.1 68l11.5 13.7z m19.3 147.7c2.4-5 27.2-55.4 41.3-55 14.8 0.4 14.7 20.3 23.9 18.9 9.2-1.4 14.2-24.3 26.1-20.2 11.9 4.1 6.4 16.9 17 18.5 10.6 1.6 27.6-12.7 33.4 8.3s-21.8 13.4-26.3 23.7c-4.5 10.3 5.4 14.4-1.4 22.5-6.8 8.1-28.4-7.4-36.6-2.3-8.2 5.1 8.4 22-9.1 28.5-16.8 6.3-62-23.1-65.1-25.1l-3.2-17.8z" fill="#69BC4B" p-id="6182"></path><path d="M775.3 467.5c14.6-17.4-13.2-25.4-7.5-35.8 5.7-10.4 37.9-6.8 40.3-19.6 2.4-12.7-10.6-11.1-12-24.7-1.4-13.7 32.5-22.1 13.7-41-18.8-18.8-28.3 6.6-40.5 11.3-12.3 4.7-14.1-12.3-29.2-9.4-15.1 2.8-6.6 30.2-15.5 37.2-9 7.1-20.7-14.1-36.8-5.7-15.1 8-10.1 76.1-9.5 84L292.3 827c-10.4 10.4-26.6 11.9-38.8 3.8-10.1-6.8-23.7-5.5-32.3 3.2l-8.4 8.4v0.1l27 18.6c23.5 16.2 55.3 13.3 75.5-6.9l373.9-377.5c12 1.1 72.9 6.5 86.1-9.2z" fill="#A3DA67" p-id="6183"></path><path d="M796.5 339.5c3.9 0 8.2 1.9 13.2 6.9 18.8 18.8-15.1 27.3-13.7 41 1.4 13.7 14.4 12 12 24.7-2.4 12.7-34.6 9.2-40.3 19.6-5.7 10.4 22.1 18.4 7.5 35.8-7.4 8.8-29.9 11-50.4 11-15.9 0-30.5-1.3-35.7-1.8L315.4 854.2c-11.5 11.5-26.6 17.4-41.9 17.4-11.7 0-23.4-3.4-33.6-10.5l-27-18.6v-0.1l8.4-8.4c4.9-4.9 11.5-7.5 18.1-7.5 4.9 0 9.9 1.4 14.2 4.3 5.2 3.5 11.1 5.2 17.1 5.2 7.9 0 15.8-3.1 21.7-9l385.9-363.2c-0.6-7.9-5.6-76 9.5-84 2.7-1.5 5.4-2 7.9-2 9.9 0 18 9.2 24.7 9.2 1.4 0 2.8-0.4 4.1-1.5 9-7.1 0.5-34.4 15.5-37.2 1.2-0.2 2.3-0.3 3.3-0.3 10.5 0 13.8 10.6 21.8 10.6 1.2 0 2.6-0.3 4.1-0.8 9-3.6 16.5-18.3 27.3-18.3m0-18c-13.6 0-22.9 9-29.1 15-0.6 0.6-1.3 1.3-2 1.9-4.5-3.6-11.7-8.5-22.2-8.5-2.2 0-4.4 0.2-6.6 0.6-10.1 1.9-17.8 8.6-21.6 18.8-1.8 4.8-2.5 9.7-3 14.3-4.6-2.1-10.1-3.8-16.4-3.8-5.6 0-11.1 1.4-16.3 4.1-13.2 7-19.2 24.2-20.2 57.4-0.4 13.1 0.1 26.2 0.6 35.2L280 813.9l-0.4 0.4c-2.4 2.4-5.6 3.7-9 3.7-2.5 0-4.9-0.7-7-2.1-7.2-4.8-15.6-7.4-24.2-7.4-11.6 0-22.6 4.5-30.8 12.8l-8.4 8.4c-3.7 3.7-5.6 8.9-5.2 14.2 0.4 5.3 3.2 10.1 7.5 13.2 0.1 0.1 0.2 0.1 0.3 0.2l27 18.6c13 8.9 28.1 13.6 43.8 13.6 20.7 0 40.1-8 54.7-22.6l0.1-0.1 367.9-371.5c7.4 0.6 17.8 1.2 28.9 1.2 34.3 0 54-5.4 64.2-17.5 9.8-11.7 9.4-22.7 7.3-29.8-1-3.3-2.4-6.2-4-8.7 5.2-1.1 10.5-2.4 15.5-4.5 12.6-5.4 16.7-14.2 17.8-20.6 2.8-15.3-5.2-23.9-9.6-28.1 0.5-0.5 1-1 1.5-1.4 6.2-5.8 15.6-14.6 15.8-28.1 0.1-8.6-3.6-16.8-11-24.2-8.3-8-17-12.1-26.2-12.1z" fill="#1A1A1A" p-id="6184"></path><path d="M678.2 463.8c-0.6-7.9-5.6-76 9.5-84 16-8.5 27.8 12.7 36.8 5.7 9-7.1 0.5-34.4 15.5-37.2 15.1-2.8 17 14.1 29.2 9.4 12.3-4.7 21.7-30.2 40.5-11.3 18.8 18.8-15.1 27.3-13.7 41 1.4 13.7 14.4 12 12 24.7-2.4 12.7-34.6 9.2-40.3 19.6-5.7 10.4 22.1 18.4 7.5 35.8-13.2 15.7-74.1 10.4-86 9.2l-11-12.9z" fill="#69BC4B" p-id="6185"></path><path d="M587.8 279.9c17.4-14.6 25.4 13.2 35.8 7.5 10.4-5.7 6.8-37.9 19.6-40.3 12.7-2.4 11.1 10.6 24.7 12 13.7 1.4 22.1-32.5 41-13.7 18.8 18.8-6.6 28.3-11.3 40.5-4.7 12.3 12.3 14.1 9.4 29.2-2.8 15.1-30.2 6.6-37.2 15.5-7.1 9 14.1 20.7 5.7 36.8-8 15.1-76.1 10.1-84 9.5l-363.3 386c-10.4 10.4-11.9 26.6-3.8 38.8 6.8 10.1 5.5 23.7-3.2 32.3l-8.4 8.4h-0.1l-18.6-27c-16.2-23.5-13.3-55.3 6.9-75.5L578.6 366c-1.2-12-6.6-72.9 9.2-86.1z" fill="#A3DA67" p-id="6186"></path><path d="M732.4 267.4c2.5-8.3 2.6-21.1-10.9-34.6-7.3-7.3-15.3-11-23.8-11-13.7 0-22.6 9.5-28.5 15.8-0.4 0.4-0.9 1-1.4 1.5-3.6-3.8-10.4-10.2-21.9-10.2-2 0-4.1 0.2-6.2 0.6-6.4 1.2-15.1 5.2-20.6 17.8-2.1 5-3.4 10.3-4.5 15.5-4.5-2.8-10.2-5.2-17-5.2-7.6 0-14.8 2.9-21.5 8.5-11.1 9.3-16.6 27.3-17.4 56.8-0.4 13.7 0.4 27.1 1.1 36.2l-242 239.8c-3.6 3.6-3.5 9.4 0.2 12.8l0.1 0.1c3.5 3.3 9 3.2 12.4-0.2L578.6 366c-1.2-11.9-6.5-72.9 9.2-86.1 3.7-3.1 7-4.3 10-4.3 9.7 0 16 12.6 23 12.6 0.9 0 1.9-0.2 2.9-0.8 10.4-5.7 6.8-37.9 19.6-40.3 1.1-0.2 2-0.3 2.9-0.3 9.7 0 9.3 11 21.8 12.3h0.8c10.2 0 17.7-19.4 29.1-19.4 3.3 0 6.9 1.6 11 5.7 18.8 18.8-6.6 28.3-11.3 40.5-4.7 12.3 12.3 14.1 9.4 29.2-2.8 15.1-30.2 6.6-37.2 15.5-7.1 9 14.1 20.7 5.7 36.8-4.6 8.8-29.6 10.7-51.2 10.7-15.6 0-29.5-1-32.8-1.3L228.2 762.9c-10.4 10.4-11.9 26.6-3.8 38.8 6.8 10.1 5.5 23.7-3.2 32.3l-8.4 8.4-18.6-27c-16.2-23.5-13.3-55.3 6.9-75.5l93.2-92.3c3.7-3.7 3.5-9.8-0.6-13.2l-0.1-0.1c-3.5-3-8.7-2.7-12 0.5l-93.2 92.3-0.1 0.1c-26.4 26.4-30.1 67.8-9 98.5l18.6 27c0.1 0.1 0.1 0.2 0.2 0.3 3.4 4.7 8.9 7.5 14.6 7.5 4.7 0 9.2-1.8 12.6-5.1l0.2-0.2 8.4-8.4c14.7-14.7 16.9-37.8 5.4-55-3.4-5-2.7-11.7 1.6-16l0.4-0.4 357.3-379.7c6.9 0.4 15.9 0.8 25.5 0.8 13.9 0 25.7-0.8 34.9-2.3 10.7-1.8 25.6-5.6 32.2-18 6.8-12.9 3.9-24.6 0.3-32.7 4.6-0.5 9.5-1.2 14.3-3 10.2-3.8 16.9-11.5 18.8-21.6 2.6-14.1-3.6-23.5-7.8-28.8 0.7-0.7 1.3-1.4 1.9-2 4.9-5.4 11.1-11.7 13.7-20.7z" fill="#1A1A1A" p-id="6187"></path><path d="M578.6 366c-1.2-11.9-6.5-72.9 9.2-86 17.4-14.6 25.4 13.2 35.8 7.5 10.4-5.7 6.8-37.9 19.6-40.3 12.7-2.4 11.1 10.6 24.7 12 13.7 1.4 22.1-32.5 41-13.7 18.8 18.8-6.6 28.3-11.3 40.5-4.7 12.3 12.3 14.1 9.4 29.2-2.8 15.1-30.2 6.6-37.2 15.5-7.1 9 14.1 20.7 5.7 36.8-8 15.1-76.1 10.1-84 9.5l-12.9-11z" fill="#69BC4B" p-id="6188"></path></svg>