<?xml version="1.0" standalone="no"?><!DOCTYPE svg PUBLIC "-//W3C//DTD SVG 1.1//EN" "http://www.w3.org/Graphics/SVG/1.1/DTD/svg11.dtd"><svg t="1545201704510" class="icon" style="" viewBox="0 0 1024 1024" version="1.1" xmlns="http://www.w3.org/2000/svg" p-id="2152" xmlns:xlink="http://www.w3.org/1999/xlink" width="64" height="64"><defs><style type="text/css"></style></defs><path d="M400 83.2c48-52.8 184-51.2 222.4 0 17.6 24 8 184 12.8 342.4 4.8 158.4 25.6 356.8 12.8 419.2-25.6 118.4-228.8 188.8-265.6 86.4-17.6-49.6-3.2-284.8 0-473.6 1.6-196.8-6.4-348.8 17.6-374.4z" fill="#CDA17E" p-id="2153"></path><path d="M537.6 46.4c-36.8 3.2-70.4 16-89.6 36.8-24 25.6-16 177.6-19.2 372.8-3.2 190.4-17.6 424 0 473.6 9.6 27.2 32 41.6 57.6 48-48 8-91.2-4.8-105.6-48-17.6-49.6-3.2-284.8 0-473.6 3.2-195.2-4.8-347.2 19.2-372.8 27.2-30.4 86.4-43.2 137.6-36.8z" fill="#E1C6B1" p-id="2154"></path><path d="M531.2 44.8c38.4 3.2 75.2 16 91.2 36.8 17.6 24 8 184 12.8 342.4 4.8 158.4 25.6 356.8 12.8 419.2-20.8 102.4-174.4 168-241.6 120 72-3.2 161.6-59.2 177.6-136 12.8-62.4-6.4-260.8-12.8-419.2-4.8-158.4 4.8-318.4-12.8-340.8-6.4-9.6-16-16-27.2-22.4z" fill="#B7835A" p-id="2155"></path><path d="M398.4 312c0 68.8 0 100.8-1.6 144 0 33.6-1.6 68.8-3.2 113.6 0 12.8 0 24-1.6 41.6-6.4 212.8-6.4 284.8 3.2 312 30.4 83.2 212.8 22.4 235.2-84.8 6.4-33.6 4.8-88-4.8-260.8-1.6-17.6-1.6-30.4-3.2-41.6-3.2-44.8-4.8-80-4.8-112v-4.8c-1.6-44.8-1.6-83.2-1.6-158.4 0-118.4-1.6-161.6-8-169.6-32-43.2-156.8-43.2-196.8 1.6-9.6 12.8-12.8 64-12.8 219.2z m-9.6-240C441.6 12.8 590.4 14.4 635.2 73.6c12.8 17.6 14.4 49.6 14.4 188.8 0 75.2 0 112 1.6 156.8v4.8c1.6 32 3.2 67.2 4.8 112 0 12.8 1.6 24 3.2 41.6 11.2 179.2 12.8 232 4.8 270.4-28.8 132.8-252.8 208-296 88-12.8-33.6-12.8-100.8-4.8-324.8 0-17.6 1.6-30.4 1.6-41.6 1.6-44.8 1.6-80 3.2-113.6 0-43.2 1.6-75.2 1.6-144-3.2-177.6 0-219.2 19.2-240z" fill="#333333" p-id="2156"></path><path d="M508.8 745.6c89.6-20.8 153.6 27.2 137.6 99.2-25.6 118.4-228.8 188.8-265.6 86.4-20.8-59.2 40-164.8 128-185.6z" fill="#FCF8F3" p-id="2157"></path><path d="M588.8 745.6c44.8 12.8 68.8 51.2 59.2 97.6-20.8 99.2-164.8 163.2-235.2 123.2l176-220.8z" fill="#F6EDE2" p-id="2158"></path><path d="M513.6 760c-75.2 17.6-136 112-116.8 164.8 30.4 83.2 212.8 22.4 235.2-84.8 12.8-59.2-41.6-97.6-118.4-80z m-8-30.4c97.6-24 174.4 33.6 156.8 118.4-28.8 132.8-252.8 208-296 88-27.2-72 46.4-184 139.2-206.4z" fill="#333333" p-id="2159"></path><path d="M476.8 145.6m-16 0a16 16 0 1 0 32 0 16 16 0 1 0-32 0Z" fill="#6C4935" p-id="2160"></path><path d="M588.8 209.6m-16 0a16 16 0 1 0 32 0 16 16 0 1 0-32 0Z" fill="#6C4935" p-id="2161"></path><path d="M444.8 289.6m-16 0a16 16 0 1 0 32 0 16 16 0 1 0-32 0Z" fill="#6C4935" p-id="2162"></path><path d="M476.8 353.6m-16 0a16 16 0 1 0 32 0 16 16 0 1 0-32 0Z" fill="#6C4935" p-id="2163"></path><path d="M556.8 497.6m-16 0a16 16 0 1 0 32 0 16 16 0 1 0-32 0Z" fill="#6C4935" p-id="2164"></path><path d="M412.8 577.6m-16 0a16 16 0 1 0 32 0 16 16 0 1 0-32 0Z" fill="#6C4935" p-id="2165"></path><path d="M588.8 401.6m-16 0a16 16 0 1 0 32 0 16 16 0 1 0-32 0Z" fill="#6C4935" p-id="2166"></path><path d="M604.8 625.6m-16 0a16 16 0 1 0 32 0 16 16 0 1 0-32 0Z" fill="#6C4935" p-id="2167"></path><path d="M460.8 673.6m-16 0a16 16 0 1 0 32 0 16 16 0 1 0-32 0Z" fill="#6C4935" p-id="2168"></path><path d="M480 153.6c-1.6 0-3.2-3.2-3.2-4.8 0-1.6 3.2-3.2 4.8-3.2 16 3.2 24 9.6 33.6 28.8v1.6c6.4 12.8 11.2 17.6 19.2 22.4 1.6 1.6 3.2 3.2 1.6 4.8s-3.2 3.2-4.8 1.6c-11.2-4.8-16-11.2-24-25.6v-1.6c-8-16-14.4-22.4-27.2-24zM580.8 217.6c0-1.6 0-4.8 3.2-4.8s4.8 0 4.8 3.2c1.6 3.2 1.6 6.4 4.8 11.2 11.2 32 12.8 40 0 54.4-1.6 1.6-3.2 3.2-6.4 4.8-16 12.8-24 30.4-24 54.4 0 1.6-1.6 3.2-4.8 3.2-1.6 0-3.2-1.6-3.2-4.8 1.6-25.6 9.6-44.8 27.2-59.2l4.8-4.8c9.6-11.2 9.6-17.6-1.6-46.4-1.6-3.2-3.2-8-4.8-11.2zM553.6 491.2c1.6-1.6 4.8 0 4.8 1.6 1.6 1.6 0 4.8-1.6 4.8-4.8 1.6-6.4 6.4-8 19.2-1.6 8-1.6 9.6-1.6 12.8-3.2 11.2-6.4 20.8-16 27.2-17.6 14.4-24 32-24 54.4 0 1.6-1.6 3.2-3.2 3.2s-3.2-1.6-3.2-3.2c0-25.6 6.4-44.8 27.2-60.8 6.4-4.8 9.6-12.8 12.8-22.4 0-3.2 1.6-4.8 1.6-11.2 1.6-16 4.8-22.4 11.2-25.6zM419.2 584c-1.6-1.6-3.2-3.2-1.6-4.8 1.6-1.6 3.2-3.2 4.8-1.6 20.8 9.6 32 27.2 32 40 0 1.6-1.6 3.2-3.2 3.2s-3.2-1.6-3.2-3.2c-1.6-11.2-11.2-24-28.8-33.6zM480 358.4c1.6 0 4.8 0 4.8 1.6s0 4.8-1.6 4.8c-35.2 14.4-49.6 25.6-49.6 40 0 4.8 0 6.4 20.8 32 12.8 17.6 20.8 30.4 20.8 43.2v3.2c0 1.6-1.6 3.2-3.2 3.2s-3.2-1.6-3.2-3.2V480c-1.6-11.2-8-22.4-19.2-40-22.4-28.8-22.4-28.8-22.4-36.8-3.2-16 14.4-28.8 52.8-44.8zM608 628.8c1.6 0 3.2 1.6 3.2 3.2s-1.6 3.2-3.2 3.2c-25.6 0-48 16-76.8 54.4-1.6 1.6-3.2 1.6-4.8 1.6-1.6-1.6-1.6-3.2-1.6-4.8 30.4-40 54.4-57.6 83.2-57.6z" fill="#6C4935" p-id="2169"></path></svg>