<?xml version="1.0" standalone="no"?><!DOCTYPE svg PUBLIC "-//W3C//DTD SVG 1.1//EN" "http://www.w3.org/Graphics/SVG/1.1/DTD/svg11.dtd"><svg t="1545203343589" class="icon" style="" viewBox="0 0 1024 1024" version="1.1" xmlns="http://www.w3.org/2000/svg" p-id="33736" xmlns:xlink="http://www.w3.org/1999/xlink" width="64" height="64"><defs><style type="text/css"></style></defs><path d="M603.9 315.4c0.5-16 1.7-35.7 4.6-51.3 11.5-62.3 51.8-139 51.8-139l-89.2 46-53.7-140L466.6 172 364 121.2s49.6 89 58.5 130.4c3.2 14.9 4.6 42 5.2 63.4-176.5 8.2-318.3 155.1-318.3 333.5v14.4c0 183.6 150.2 333.9 333.9 333.9H581c183.6 0 333.9-150.2 333.9-333.9v-14.4c0-175.9-137.9-321.2-311-333.1z" fill="#FFFFFF" p-id="33737"></path><path d="M607.1 318.1c0.5-16 3.1-55.8 5.9-71.4 11.5-62.3 23.8-109.1 23.8-109.1l-75.3 33.7-43.7-122.9-35.7 130.9-61.5-27.8s46.6 37.9 55.5 79.3c3.2 14.9 9.3 67.9 9.9 89.2-146.7 2-272.3 150-272.3 328.4v14.4c0 183.6 150.2 333.9 333.9 333.9l89.1-0.6C771.5 968.3 916.3 844.6 916.3 661v-14.4c0.1-175.8-136.2-316.6-309.2-328.5z" fill="#F45454" p-id="33738"></path><path d="M581 1018.6H443.3c-47.7 0-94-9.4-137.8-28-42.2-17.9-80.1-43.5-112.7-76.2-32.6-32.6-58.2-70.5-76.2-112.7-18.6-43.7-28-90.1-28-137.8v-14.4c0-91.5 35.1-178.5 98.8-245 58.7-61.2 135.7-99 218.8-107.7-0.9-18.1-2.3-31.9-4-39.8-6.7-31.5-42.9-100.6-56.3-124.6-4.4-8-3.2-17.9 3.1-24.5 6.3-6.6 16.1-8.3 24.3-4.3l81.7 40.5 42.9-119c2.9-8.2 10.7-13.6 19.3-13.7 8.6-0.1 16.5 5.2 19.6 13.3L582.2 143l68.5-35.4c8.1-4.2 17.9-2.6 24.3 3.8 6.4 6.4 7.9 16.3 3.7 24.3-0.4 0.7-38.9 74.7-49.7 133.1-1.4 7.7-2.5 17.5-3.3 28.8 175.4 22.2 310 173 310 351.8V664c0 47.7-9.4 94-28 137.8-17.9 42.2-43.5 80.1-76.2 112.7-32.6 32.6-70.5 58.2-112.7 76.2-43.8 18.5-90.1 27.9-137.8 27.9zM411.7 169.1c13.1 27.2 26.7 58.3 31.2 79.2 2.8 13.3 4.8 35.9 5.7 67.1 0.3 11.3-8.5 20.9-19.8 21.4-80.2 3.7-155.2 38-211.3 96.5-56.2 58.7-87.2 135.5-87.2 216.2V664c0 83.3 32.7 161.8 92 221.1 59.3 59.3 137.8 92 221.1 92H581c83.3 0 161.8-32.7 221.1-92 59.3-59.3 92-137.8 92-221.1v-14.4c0-163.9-128.1-301.1-291.6-312.3-11.1-0.8-19.7-10.2-19.4-21.4 0.7-22.1 2.3-40.5 4.9-54.5 5.5-29.9 17.1-62.4 28.1-89.1l-35.5 18.3c-5.3 2.7-11.4 3.1-16.9 1-5.5-2.1-9.9-6.5-12-12L518 91.8l-31.9 88.4c-2 5.6-6.3 10-11.8 12.2-5.5 2.2-11.7 2-17-0.7l-45.6-22.6z" fill="#424649" p-id="33739"></path><path d="M820.5 676.9c-11.5 0-20.8-9.3-20.8-20.8v-5.6c0-11.5 9.3-20.8 20.8-20.8s20.8 9.3 20.8 20.8v5.6c0 11.5-9.3 20.8-20.8 20.8z" fill="#424649" p-id="33740"></path><path d="M820.5 682.4c-11.5 0-20.8-9.3-20.8-20.8v-5.5c0-11.5 9.3-20.8 20.8-20.8s20.8 9.3 20.8 20.8v5.5c0 11.5-9.3 20.8-20.8 20.8zM564.5 938.5c-11.5 0-20.8-9.3-20.8-20.8s9.3-20.8 20.8-20.8c98.5 0 187.4-62.5 221.2-155.4 3.9-10.8 15.9-16.4 26.6-12.4 10.8 3.9 16.4 15.9 12.4 26.6C785 865 680.4 938.5 564.5 938.5z" fill="#424649" p-id="33741"></path></svg>