<?xml version="1.0" standalone="no"?><!DOCTYPE svg PUBLIC "-//W3C//DTD SVG 1.1//EN" "http://www.w3.org/Graphics/SVG/1.1/DTD/svg11.dtd"><svg t="1545201469741" class="icon" style="" viewBox="0 0 1024 1024" version="1.1" xmlns="http://www.w3.org/2000/svg" p-id="11710" xmlns:xlink="http://www.w3.org/1999/xlink" width="64" height="64"><defs><style type="text/css"></style></defs><path d="M209.5 730.7s-38.8-21.3-48.5-6.8c-9.7 14.5 7.8 30 7.8 30s-24.2 7.5-19.4 22.2 29.7 11.8 29.7 11.8-9.4 25.2 11 28.1c20.4 2.9 37.5-35.2 37.5-35.2s-6.2-44.5-18.1-50.1z" fill="#F1E37C" p-id="11711"></path><path d="M172.9 718.9c15 0 36.6 11.9 36.6 11.9 11.9 5.6 18.1 50.1 18.1 50.1s-15.9 35.3-35.2 35.3c-0.7 0-1.5-0.1-2.2-0.2-20.4-2.9-11-28.1-11-28.1s-2 0.2-5 0.2c-7.5 0-21.3-1.5-24.8-12-4.8-14.7 19.4-22.2 19.4-22.2s-17.4-15.5-7.8-30c2.5-3.7 6.8-5 11.9-5m0-18c-15.8 0-23.6 8.2-26.9 13.1-6.7 10.1-7.7 22.2-3 33.9-3.5 3-6.7 6.6-8.9 10.9-3.7 7.2-4.4 15.2-1.8 23 3.8 11.6 13.3 19.5 26.9 22.7 0.5 4.7 1.8 9.6 4.5 14.2 4.9 8.3 13.4 13.7 23.8 15.1 1.6 0.2 3.2 0.3 4.8 0.3 14.1 0 27.4-8.5 39.5-25.1 7.3-10 11.7-19.8 12.2-20.8 1.4-3.1 1.9-6.5 1.4-9.8-0.1-0.5-1.7-12.3-5-24.9-5.5-21.6-12.5-33.6-22.6-38.7-5.1-2.8-26.7-13.9-44.9-13.9z" fill="#1A1A1A" p-id="11712"></path><path d="M875.616 214.895l18.446 10.65-43.45 75.256-18.446-10.65z" fill="#3BBC56" p-id="11713"></path><path d="M875.6 214.9l18.5 10.7-43.4 75.2-18.5-10.7 43.4-75.2m0-18c-6.2 0-12.3 3.2-15.6 9l-43.4 75.2c-5 8.6-2 19.6 6.6 24.6l18.5 10.7c2.8 1.6 5.9 2.4 9 2.4 1.6 0 3.1-0.2 4.7-0.6 4.6-1.2 8.5-4.3 10.9-8.4l43.4-75.2c2.4-4.1 3-9 1.8-13.7-1.2-4.6-4.3-8.5-8.4-10.9l-18.5-10.7c-2.8-1.6-5.9-2.4-9-2.4z" fill="#1A1A1A" p-id="11714"></path><path d="M866.9 322c-35.4-54.5-120.6-76.1-209.1 87.3-68.3 126.2-267.9 200.6-368 216.9-100.1 16.3-130.6 203.7 50.6 190.5s317.4-112.6 397.5-195.6 164.4-244.6 129-299.1z" fill="#83CC8E" p-id="11715"></path><path d="M866.9 322c-9.5-14.7-22.6-26.9-38.4-33.9-7.2-3.1-24.4 15.5-28.9 20.2-9.8 10.3-18.4 21.9-26.7 33.5-16.7 23.4-31.3 48.3-45.8 73.2-64.6 110.9-158.5 205.2-282.9 244.3-43.4 13.6-87.7 24.1-132.7 31.1-20.6 3.2-41.4 5-62 8.5-9.6 1.6-37.9 3.3-39.5 17-6.1 53 29.1 108.1 130.2 100.8 168-12.2 325.1-103.6 430-233.6 34.8-43.2 64.1-92.7 84.8-144.2 13.2-32 33.3-84 11.9-116.9z" fill="#46C373" p-id="11716"></path><path d="M866.9 322c-42.9 71.3-49.6 118.8-144.7 235.2-140.7 172-266.9 196.5-367.3 210.3-70.8 9.7-103 3.9-133.4 4.7 17.5 28.9 55 49.2 118.9 44.6 181.2-13.2 317.4-112.6 397.5-195.6s164.4-244.7 129-299.2z" fill="#46C373" p-id="11717"></path><path d="M866.9 322c-6.7 48.9-24.1 139.9-119.3 256.3-140.6 172-274.6 203.3-375 217.1-70.8 9.7-87.4 4.5-122.6 4.8 20.9 12.6 50.5 19.4 90.5 16.5C521.7 803.5 657.9 704.1 738 621.1S902.3 376.5 866.9 322z" fill="#3D9950" p-id="11718"></path><path d="M882 312.2c-19.9-30.6-50-48.2-82.6-48.2-38 0-96.2 23.7-157.4 136.8C574.7 525 373.7 594.3 286.9 608.5c-28.8 4.7-54.5 21.4-72.4 47-16.6 23.8-24.9 53.3-22.6 81.1 1.1 13.4 4.5 26 10.2 37.5 6.1 12.4 14.6 23.2 25.4 32.2 23.2 19.3 55.3 29.2 95.3 29.2 6.1 0 12.5-0.2 19-0.7 38.6-2.8 76.7-9.5 114-20.1 4.7-1.3 7.5-6.2 6.2-10.9v-0.2c-1.3-4.8-6.2-7.6-11-6.2-34.7 9.8-71.5 16.6-110.5 19.4-6.1 0.4-12 0.7-17.7 0.7-161.3 0-129.5-175.5-32.9-191.2 100.1-16.3 299.7-90.7 368-216.9C709.1 314.6 759.4 282 799.4 282c29 0 52.7 17.1 67.5 40 35.4 54.5-49 216.2-129 299.2-53.2 55.2-131.4 117.6-231 157.2-4.5 1.8-6.7 6.8-5.1 11.3 0 0.1 0 0.1 0.1 0.2 1.7 4.7 7 7.1 11.6 5.2 24.5-9.7 48.6-21.1 72.2-34.2 74.9-41.4 131.1-92 165.1-127.2C792 591 834.6 527.7 862 468.5c23.1-49.8 45.3-117.4 20-156.3z" fill="#1A1A1A" p-id="11719"></path><path d="M882 312.2c-12-18.5-28-32.5-46.3-40.6-2.9-1.2-5.9-1.9-9.1-1.9-12.8 0-25 10.2-39.6 25.6l-0.6 0.6c-10.6 11.1-19.8 23.6-28.3 35.4-17.5 24.4-32.3 49.9-46.7 74.6-49 84-136 193.2-272.8 236.2-42.4 13.3-86.1 23.6-130.1 30.5-9.2 1.4-18.7 2.6-27.9 3.8-11.2 1.4-22.8 2.8-34.3 4.8-1 0.2-2.6 0.4-4.3 0.6-6.4 0.9-16 2.2-24.7 5.1-19.2 6.6-24.4 18.3-25.3 26.9-3.6 31.2 5.1 60.3 24.5 82 16.1 18 47.5 39.5 105.9 39.5 6.1 0 12.5-0.2 19-0.7 38.1-2.8 76.3-9.6 114-20.2 4.7-1.3 7.4-6.2 6.2-10.9v-0.2c-1.3-4.8-6.2-7.6-11-6.2-36 10.2-72.9 16.8-110.4 19.6-6.1 0.4-12 0.7-17.7 0.7-87.5 0-118.2-51.7-112.5-101.4 1.6-13.6 29.8-15.3 39.5-17 20.5-3.5 41.4-5.3 62-8.5 44.9-7.1 89.3-17.5 132.7-31.1 124.5-39.2 218.3-133.5 283-244.4 14.5-24.9 29-49.7 45.8-73.2 8.3-11.5 16.9-23.2 26.7-33.5 4.1-4.4 19.1-20.6 27-20.6 0.7 0 1.3 0.1 1.8 0.4 15.8 6.9 28.9 19.2 38.4 33.9 21.4 32.9 1.2 84.8-11.7 117-20.7 51.5-50 101-84.8 144.2-69.1 85.7-160.9 154.5-263.6 195-4.5 1.8-6.7 6.8-5.1 11.3 0 0.1 0 0.1 0.1 0.2 1.7 4.7 7 7.1 11.6 5.2 25.3-10 50.1-21.7 74.3-35.1 37.4-20.7 73.3-45.4 106.4-73.3 33-27.8 63.3-58.8 90.2-92.1 36.1-44.7 66.3-96.2 87.5-148.8 13.1-32.1 37.2-91.9 10.2-133.4z" fill="#1A1A1A" p-id="11720"></path><path d="M882 312.2c-3.3-5.1-9-8.2-15.1-8.2-0.5 0-1.1 0-1.7 0.1-5.7 0.6-10.9 3.9-13.9 8.8-13.6 22.6-23.8 43.3-33.7 63.2-22.1 44.7-45 90.9-109.5 169.7-131.8 161.1-248.1 189-355.9 203.9-27.5 3.8-51.5 5.5-75.6 5.5-10.4 0-19.5-0.3-28.2-0.6-7.4-0.3-14.4-0.5-21.3-0.5-2.1 0-4 0-5.9 0.1-5.3 0.1-10.4 2.4-13.8 6.5-5 6-5.5 14.4-1.6 20.8 10.2 16.9 25.1 30.1 44.2 39.3 20.1 9.7 44.5 14.6 72.5 14.6 6.1 0 12.5-0.2 19-0.7 38.6-2.8 76.7-9.5 114-20.1 4.7-1.3 7.5-6.2 6.2-10.9v-0.2c-1.3-4.8-6.2-7.6-11-6.2-34.7 9.8-71.5 16.6-110.5 19.4-6.1 0.4-12 0.7-17.7 0.7-53.2 0-85.4-19.1-101.2-45.2 1.9 0 3.9-0.1 5.9-0.1 14.3 0 29.6 1.1 49.5 1.1 20 0 44.8-1.1 78-5.7 100.4-13.8 226.6-38.3 367.3-210.3C817.4 440.8 824.1 393.3 866.9 322c35.4 54.5-49 216.2-129 299.2-53.2 55.2-131.4 117.6-231 157.2-4.5 1.8-6.7 6.8-5.1 11.3 0 0.1 0 0.1 0.1 0.2 1.7 4.7 7 7.1 11.6 5.2 24.5-9.7 48.6-21.1 72.2-34.2 74.9-41.4 131.1-92 165.1-127.2C792 591 834.6 527.7 862 468.5c23.1-49.8 45.3-117.4 20-156.3z" fill="#1A1A1A" p-id="11721"></path></svg>