<?xml version="1.0" standalone="no"?><!DOCTYPE svg PUBLIC "-//W3C//DTD SVG 1.1//EN" "http://www.w3.org/Graphics/SVG/1.1/DTD/svg11.dtd"><svg t="1545199139516" class="icon" style="" viewBox="0 0 1024 1024" version="1.1" xmlns="http://www.w3.org/2000/svg" p-id="12908" xmlns:xlink="http://www.w3.org/1999/xlink" width="64" height="64"><defs><style type="text/css"></style></defs><path d="M512 912c220.8 0 400-164.8 400-368 0-238.4-139.2-336-400-336-126.4 0-224 24-291.2 73.6-9.6 6.4-17.6 14.4-25.6 20.8-8 8-16 16-22.4 24C132.8 380.8 112 451.2 112 544c0 203.2 179.2 368 400 368z" fill="#FF684A" p-id="12909"></path><path d="M260.8 830.4C169.6 763.2 112 659.2 112 544c0-92.8 20.8-163.2 62.4-216 6.4-8 14.4-17.6 22.4-24 8-8 16-14.4 25.6-20.8C288 232 385.6 208 512 208c14.4 0 28.8 0 43.2 1.6-116.8 4.8-209.6 30.4-275.2 80-9.6 8-19.2 14.4-27.2 24-8 8-16 17.6-24 27.2C184 398.4 160 475.2 160 576c0 96 38.4 185.6 100.8 254.4z" fill="#FFA492" p-id="12910"></path><path d="M254.4 846.4c36.8 8 73.6 12.8 113.6 12.8 246.4 0 446.4-184 446.4-412.8 0-84.8-16-152-44.8-204.8C865.6 291.2 928 384 928 544c0 212.8-185.6 384-416 384-97.6 0-187.2-30.4-257.6-81.6z" fill="#ED5234" p-id="12911"></path><path d="M512 944C273.6 944 80 764.8 80 544c0-99.2 24-177.6 68.8-236.8 8-9.6 16-19.2 25.6-27.2 8-8 17.6-16 28.8-24 73.6-56 177.6-80 310.4-80 276.8 0 432 110.4 432 368C944 764.8 750.4 944 512 944z m0-32c220.8 0 400-164.8 400-368 0-238.4-139.2-336-400-336-126.4 0-224 24-291.2 73.6-9.6 6.4-17.6 14.4-25.6 20.8-8 8-16 16-22.4 24C132.8 380.8 112 451.2 112 544c0 203.2 179.2 368 400 368z" fill="#333333" p-id="12912"></path><path d="M716.8 376c-17.6-17.6-54.4-25.6-96 8 52.8 38.4 4.8 128-9.6 107.2-14.4-19.2-51.2-115.2-129.6-56-56-84.8-180.8 57.6-153.6-8 19.2-43.2 56-70.4 112-81.6-62.4-22.4-78.4-126.4-62.4-105.6 16 22.4 84.8 67.2 118.4 70.4-22.4-56 60.8-107.2 56-70.4-6.4 38.4 4.8 83.2 46.4 83.2 89.6-25.6 136 68.8 118.4 52.8z" fill="#7EB35E" p-id="12913"></path><path d="M603.2 337.6h-4.8c-48 0-68.8-41.6-64-92.8-1.6 1.6-4.8 3.2-6.4 4.8-16 14.4-24 35.2-17.6 51.2 4.8 11.2-4.8 24-16 22.4-24-1.6-65.6-24-96-46.4 11.2 24 27.2 43.2 48 51.2 16 4.8 14.4 27.2-1.6 30.4-44.8 9.6-75.2 28.8-92.8 57.6 4.8-1.6 8-4.8 11.2-4.8 19.2-9.6 35.2-16 51.2-19.2 28.8-4.8 52.8 1.6 72 20.8 46.4-28.8 86.4-11.2 116.8 32 4.8 6.4 11.2 17.6 16 25.6 3.2-4.8 4.8-11.2 8-17.6 6.4-24 1.6-46.4-14.4-57.6-8-6.4-8-19.2 0-25.6 19.2-16 40-24 59.2-25.6-20.8-9.6-43.2-12.8-68.8-6.4z m-214.4-94.4z m339.2 120z m-19.2-28.8c11.2 9.6 19.2 20.8 24 28.8 3.2 6.4 4.8 11.2 3.2 17.6-3.2 11.2-14.4 16-22.4 11.2-3.2-1.6-4.8-3.2-8-4.8-12.8-12.8-35.2-14.4-60.8-1.6 16 20.8 19.2 49.6 11.2 76.8-4.8 14.4-11.2 27.2-17.6 35.2-11.2 12.8-28.8 17.6-40 1.6-1.6-3.2-17.6-28.8-22.4-36.8-25.6-35.2-49.6-44.8-84.8-17.6-8 4.8-17.6 3.2-22.4-3.2-11.2-17.6-27.2-24-49.6-19.2-12.8 1.6-25.6 8-43.2 16-4.8 3.2-22.4 11.2-22.4 11.2-8 4.8-14.4 6.4-19.2 8-27.2 8-32-14.4-22.4-38.4 16-38.4 46.4-65.6 88-81.6-16-14.4-28.8-35.2-36.8-57.6-4.8-14.4-8-27.2-8-36.8 0-8 1.6-14.4 8-19.2 11.2-9.6 20.8-3.2 27.2 4.8 12.8 16 54.4 44.8 84.8 57.6 1.6-22.4 12.8-43.2 30.4-59.2 11.2-9.6 24-16 33.6-16 17.6-1.6 28.8 12.8 25.6 32-6.4 36.8 4.8 64 28.8 64 46.4-11.2 84.8 0 115.2 27.2z" fill="#1A1A1A" p-id="12914"></path><path d="M397.08757 580.451605a48 32 14.999 1 0 16.56334-61.819541 48 32 14.999 1 0-16.56334 61.819541Z" fill="#FFFFFF" p-id="12915"></path></svg>