<?xml version="1.0" standalone="no"?><!DOCTYPE svg PUBLIC "-//W3C//DTD SVG 1.1//EN" "http://www.w3.org/Graphics/SVG/1.1/DTD/svg11.dtd"><svg t="1545200764289" class="icon" style="" viewBox="0 0 1024 1024" version="1.1" xmlns="http://www.w3.org/2000/svg" p-id="1500" xmlns:xlink="http://www.w3.org/1999/xlink" width="64" height="64"><defs><style type="text/css"></style></defs><path d="M646.4 126.4c136 24 243.2 152 243.2 308.8 0 84.8-24 121.6-108.8 192-4.8 3.2-27.2 28.8-33.6 33.6-43.2 36.8-70.4 60.8-91.2 92.8-91.2 136-318.4 192-449.6 97.6-89.6-64-92.8-118.4-44.8-204.8 14.4-25.6 17.6-32 20.8-41.6 6.4-19.2 8-35.2 4.8-83.2-4.8-78.4 0-120 30.4-172.8 27.2-48 59.2-70.4 100.8-94.4 8-4.8 16-6.4 32-14.4 27.2-14.4 40-24 54.4-35.2 8-6.4 12.8-8 16-11.2 78.4-64 131.2-83.2 225.6-67.2z" fill="#E3B163" p-id="1501"></path><path d="M433.6 236.8c44.8 4.8 70.4 36.8 78.4 92.8-40-41.6-80-60.8-120-56l41.6-36.8zM201.6 521.6c9.6 48 40 76.8 91.2 84.8 76.8 12.8 118.4 1.6 118.4 8s-52.8 43.2-118.4 43.2c-43.2 0-76.8-9.6-102.4-30.4l11.2-105.6z" fill="#D0973E" p-id="1502"></path><path d="M894.4 392c-38.4-102.4-128-177.6-228.8-195.2-96-16-152-1.6-232 62.4-4.8 3.2-6.4 4.8-14.4 12.8-14.4 12.8-27.2 19.2-56 33.6-16 8-22.4 11.2-30.4 16-41.6 24-70.4 51.2-97.6 99.2-30.4 52.8-35.2 94.4-30.4 172.8 3.2 46.4-48 80-54.4 99.2-3.2 11.2 0 17.6-14.4 41.6-1.6 3.2-3.2 6.4-4.8 8 0-27.2 11.2-57.6 30.4-94.4 14.4-25.6 17.6-32 20.8-41.6 6.4-19.2 8-35.2 4.8-83.2-4.8-78.4 0-120 30.4-172.8 27.2-48 60.8-68.8 100.8-92.8 8-4.8 14.4-8 32-16 27.2-14.4 44.8-25.6 59.2-36.8 8-6.4 11.2-8 14.4-11.2 80-65.6 129.6-83.2 225.6-67.2 121.6 22.4 225.6 129.6 244.8 265.6z" fill="#EED0A1" p-id="1503"></path><path d="M780.8 190.4c67.2 57.6 112 147.2 112 246.4 0 84.8-20.8 121.6-105.6 192-4.8 3.2-27.2 24-33.6 28.8-43.2 36.8-76.8 64-99.2 97.6-91.2 136-316.8 192-449.6 97.6-46.4-33.6-70.4-64-75.2-97.6 132.8 86.4 360 35.2 449.6-99.2 22.4-32 48-59.2 91.2-94.4 6.4-4.8 28.8-24 33.6-27.2 84.8-70.4 108.8-116.8 108.8-201.6 1.6-51.2-11.2-99.2-32-142.4z" fill="#D0973E" p-id="1504"></path><path d="M646.4 121.6c136 22.4 254.4 158.4 254.4 313.6 0 84.8-33.6 134.4-118.4 204.8-4.8 3.2-27.2 22.4-33.6 27.2-43.2 36.8-68.8 62.4-91.2 96-91.2 136-324.8 187.2-456 92.8-89.6-64-91.2-116.8-44.8-203.2 14.4-25.6 17.6-32 20.8-41.6 6.4-19.2 8-36.8 4.8-83.2-4.8-78.4 0-120 28.8-171.2 27.2-46.4 56-75.2 97.6-97.6 8-4.8 14.4-8 30.4-16 28.8-14.4 41.6-22.4 56-33.6 8-6.4 11.2-9.6 14.4-12.8 80-67.2 142.4-91.2 236.8-75.2z m-6.4 32c-83.2-14.4-137.6 6.4-209.6 67.2-4.8 3.2-6.4 4.8-14.4 12.8-17.6 14.4-32 22.4-62.4 38.4-16 8-20.8 11.2-28.8 14.4-36.8 20.8-60.8 44.8-86.4 86.4-25.6 44.8-30.4 81.6-25.6 153.6 3.2 52.8 3.2 72-6.4 96-4.8 12.8-8 19.2-22.4 46.4-40 73.6-38.4 108.8 35.2 161.6 115.2 83.2 329.6 36.8 409.6-84.8 24-35.2 52.8-64 97.6-102.4 6.4-4.8 28.8-24 33.6-27.2 78.4-65.6 107.2-107.2 107.2-180.8 0-139.2-107.2-260.8-227.2-281.6z" fill="#333333" p-id="1505"></path><path d="M692.8 337.6m-24 0a24 24 0 1 0 48 0 24 24 0 1 0-48 0Z" fill="#B0701D" p-id="1506"></path><path d="M315.2 419.2m-16 0a16 16 0 1 0 32 0 16 16 0 1 0-32 0Z" fill="#B0701D" p-id="1507"></path><path d="M441.6 724.8m-32 0a32 32 0 1 0 64 0 32 32 0 1 0-64 0Z" fill="#B0701D" p-id="1508"></path></svg>