<?xml version="1.0" standalone="no"?><!DOCTYPE svg PUBLIC "-//W3C//DTD SVG 1.1//EN" "http://www.w3.org/Graphics/SVG/1.1/DTD/svg11.dtd"><svg t="1545202460749" class="icon" style="" viewBox="0 0 1024 1024" version="1.1" xmlns="http://www.w3.org/2000/svg" p-id="2129" xmlns:xlink="http://www.w3.org/1999/xlink" width="64" height="64"><defs><style type="text/css"></style></defs><path d="M374.056571 567.924585c3.205716 36.65274 17.785178 64.779761 42.396412 74.955081 21.674548 8.900223 47.234811 2.21644 71.76597-15.868699 5.362653-5.731663 9.815834-12.113604 13.078882-19.291522 22.601772-49.372157-14.780738-118.268296-86.789379-171.184415-24.204776 42.233503-37.779633 87.669318-40.451885 131.389555z m50.07442 250.213913c-62.132948 5.548578-125.230903-14.772301-172.610829-61.458944-88.861938-87.781809-88.526156-235.649782 0.869998-330.229576 60.559665-64.014506 146.256635-87.29517 222.939597-68.366266-3.817627 3.647701-7.567773 7.508583-11.21915 11.385108-12.909874 13.749733-24.499558 28.113549-34.769052 43.091449 23.086447 2.542822 46.368595 8.964008 68.780536 19.600967 104.252979 49.417166 151.36824 171.28805 105.113514 272.194543-32.765438 71.352828-103.566402 113.090983-179.104614 113.782719z" fill="#FF7136" p-id="2130"></path><path d="M272.89452 447.213196c-79.491619 168.843515-56.117387 276.323305 70.252752 322.257476 218.642327 79.582994 332.425361-209.881202 152.644864-324.516418s38.49284-13.545157 78.611115 41.913513c26.750731 36.939523 43.541767 82.426237 50.274339 136.444497-16.198945 97.162154-63.381877 160.460424-141.564437 189.993579-117.258197 44.200964-205.844066-33.817455-263.523562-89.627632-57.679495-55.810177-32.817694-102.191971-30.506787-162.168881 1.469544-39.962113 15.212803-78.790232 41.14665-116.59877l39.974665-35.685938 2.690401 37.988574z" fill="#FF955B" p-id="2131"></path><path d="M498.508101 647.067474c-15.691045 13.410485-29.351804 31.901122-40.88351 55.487553-12.874285 26.309937-13.031617 61.822544-0.258817 106.470339-19.539374-27.495142-29.341737-54.460559-29.422732-80.79748-0.120866-19.053488 6.101863-40.443383 18.569418-64.185331-18.720986 0.578515-36.283125 2.150546-52.686416 4.716091-23.89009 3.80967-57.405223 23.00305-100.561043 57.67891 7.186796-26.198282 22.860965-47.812407 47.022508-64.842376 7.748748-5.454989 16.573218-10.030874 26.702234-13.893907-5.014821-4.135405-9.00484-9.627194-12.100111-16.293474-15.999632-4.457777-31.251136-7.885843-45.868923-10.201073-23.902058-3.785714-61.716403 4.197101-113.427391 23.849676 14.926041-22.643836 36.549962-38.354534 64.772994-47.147738 22.680324-7.038673 50.779441-6.739318 84.510533 0.830586-15.708547-15.24505-29.499383-29.173899-41.403795-41.589011-17.209712-17.912728-49.225539-24.805974-95.964355-20.565325 21.730355-20.857413 46.895543-27.603769 75.563046-20.025888 21.76442 5.775815 44.367152 19.682881 67.579374 41.887447l1.533057-9.679345c-7.976675-28.903679-21.674882-51.727551-41.063335-68.669152-21.607379-18.912989-50.63867-26.750982-87.109517-23.415211 18.870048-18.779278 42.532233-24.346235 71.215379-16.867123s50.098815 25.045533 64.475831 52.533011l-2.616737 36.338033 14.140526 32.816087c1.018996 32.560277 9.08738 54.492472 24.319564 65.713459 7.87329 5.904346 19.79794 8.602997 35.758307 8.194723 2.152363-0.165332 4.289082-0.231895 6.524571-0.282815 13.423664-1.012542 29.281273-3.968256 47.687239-8.950264-5.871221 3.828676-11.695512 7.361045-17.275336 10.628395l28.149118 4.458382c-2.055745-6.197896-3.934504-12.873992-5.60499-20.225827l22.448721-33.703189c-1.065279 20.789304 2.522312 41.606826 10.695292 62.239383 8.157337 20.731326 27.313895 33.383845 57.256496 38.02504-23.95941 7.443565-42.955232 6.561099-57.283773-2.694327-10.014917-6.44604-18.53481-19.135068-25.393427-37.838259z m-38.826887-5.44085c-1.326017 0.701198-2.750803 1.386753-4.07682 2.087951l1.543187 1.763115c0.91039-1.27326 1.722011-2.562163 2.533633-3.851066z" fill="#E55F26" p-id="2132"></path><path d="M403.866212 829.103384c-25.614253-0.007039-50.769019-4.193655-74.856041-12.564757-31.86829-11.020985-60.239799-28.777884-84.501364-52.667348-44.911624-44.372019-69.58209-104.673744-69.400237-169.74645 0.166209-64.973936 25.066649-126.941574 69.95981-174.504312 30.41771-32.238532 68.353819-55.692777 109.798989-68.061605 40.264852-11.948293 82.770413-13.113301 122.718114-3.242579l17.543739 4.297353-13.018459 12.517576c-3.703215 3.564575-7.338948 7.342332-10.959038 11.02132-8.639506 9.161274-16.748972 18.811484-24.297113 28.753092 18.984168 3.513029 37.561606 9.594048 55.368526 17.982946 52.729378 25.057188 93.243335 68.428945 114.080217 122.251192 20.821239 53.921017 19.332688 111.901998-4.174566 163.155672-16.674118 36.23774-43.358244 66.637697-77.285015 87.79081-32.798292 20.420629-70.998814 31.480921-110.35359 31.930007-6.800325 0.745372-13.735614 1.064381-20.623972 1.087083z m18.751669-467.421324c-20.748201-0.046304-41.586274 3.0318-61.874675 9.031865-38.034272 11.289117-72.943823 32.894052-100.932497 62.581157-85.515953 90.537019-86.015228 232.405552-1.097298 316.322803 22.058282 21.819307 47.950755 37.968607 77.032966 48.042089 28.02704 9.703866 57.533462 13.263512 87.71347 10.65256l0.821438-0.07239c35.902774-0.38835 70.59363-10.384575 100.365364-28.955893 30.556976-19.054427 54.63508-46.424756 69.643933-79.180127 43.928447-95.807628-1.052851-211.97446-100.222608-258.966579-20.909857-9.892819-42.991135-16.225052-65.583739-18.689657l-16.619542-1.822305 9.374747-13.803409c10.155082-14.894775 21.645997-29.274234 34.196991-42.675822-10.978984-1.637654-21.885578-2.45387-32.81855-2.464292z m14.020453 295.025536c-8.401178-0.014411-16.453292-1.59348-23.974448-4.607152-27.184132-11.190306-44.855796-41.528274-48.563334-83.322821l-0.088034-0.722669 0.010735-0.707025c2.803226-45.825669 17.236634-92.846693 41.665328-135.854704l5.593315-9.74499 9.063424 6.700324c36.996917 27.22275 65.34635 58.543185 81.863156 90.419432 17.5867 34.070632 20.394271 66.205466 8.148794 93.019983-3.700145 8.019908-8.72048 15.425733-14.930949 22.03558l-0.603348 0.613164-0.686474 0.498752c-19.481375 14.328854-39.18299 21.738062-57.498165 21.672126z m-52.537709-88.91338c3.165532 33.710227 16.280942 57.656751 36.157099 65.765904 17.30326 7.094167 39.062458 2.035778 61.274084-14.189316 4.400424-4.770353 7.990146-10.175341 10.623466-15.934301 12.198546-26.51821 2.542802-55.687828-7.678864-75.531153-13.577049-26.145817-37.05736-53.050184-66.840163-76.599168-19.492402 37.411312-30.990356 77.405024-33.535622 116.488034z" fill="#333333" p-id="2133"></path><path d="M383.110513 616.235724c-3.23882-0.006746-6.440526-1.526312-8.305479-4.454101-25.377784-37.937028-55.502905-63.160174-89.679073-74.951677-32.741566-11.260545-61.452615-3.86084-87.838597 22.73897-3.864558 3.944007-10.243429 3.946158-14.187436 0.081601s-3.946158-10.243429-0.081601-14.187436c31.914886-32.102649 68.419776-41.406573 108.547534-27.558718 38.313724 13.155554 71.962317 41.062939 99.786931 82.728642 3.013066 4.62833 1.829991 10.819479-2.798339 13.832545-1.601772 1.163755-3.520402 1.771093-5.44394 1.770174z" fill="#333333" p-id="2134"></path><path d="M383.110513 616.235724c-3.23882-0.006746-6.440526-1.526312-8.305479-4.454101-25.377784-37.937028-55.502905-63.160174-89.679073-74.951677-32.741566-11.260545-61.452615-3.86084-87.838597 22.73897-3.864558 3.944007-10.243429 3.946158-14.187436 0.081601s-3.946158-10.243429-0.081601-14.187436c31.914886-32.102649 68.419776-41.406573 108.547534-27.558718 38.313724 13.155554 71.962317 41.062939 99.786931 82.728642 3.013066 4.62833 1.829991 10.819479-2.798339 13.832545-1.601772 1.163755-3.520402 1.771093-5.44394 1.770174z" fill="#333333" p-id="2135"></path><path d="M196.714132 649.486275c-3.23882-0.006746-6.341757-1.510668-8.321123-4.355332-3.127478-4.545204-1.92876-10.835123 2.699571-13.848188 44.115291-29.866555 76.770954-45.551188 99.818135-47.874417 23.161594-2.406355 55.842424 5.40219 100.215404 23.769789 5.130152 2.128741 7.544778 7.978492 5.416037 13.108644-2.128741 5.130152-7.978492 7.544778-13.108644 5.416036-40.563017-16.852942-70.95652-24.400455-90.406003-22.418625-19.449482 1.98183-49.973333 16.991644-90.687542 44.561975-1.79931 1.132469-3.702296 1.641037-5.625835 1.640118zM263.301264 766.037739c-1.414051-0.021471-2.87994-0.354891-4.200129-0.968974-5.000097-2.310635-7.185897-8.326637-4.875262-13.326734 16.096229-34.506831 38.765191-61.290374 67.403537-79.737464 28.180697-18.114588 60.008176-30.488011 94.598425-36.652803 5.417561-0.96438 10.609368 2.692824 11.573748 8.110386 0.96438 5.417561-2.692824 10.609368-8.110385 11.573748-31.980237 5.666958-61.332668 17.116185-87.256407 33.765804-25.382964 16.431529-45.591602 40.466107-60.121335 71.474926-1.680908 3.581138-5.263884 5.747306-9.012192 5.761111zM444.973053 817.592189c-3.140051 0.008897-6.242988-1.495025-8.222354-4.339688-16.899913-24.343437-22.459206-53.16798-16.704255-85.667835 5.697285-31.496523 21.537391-63.107771 47.265116-93.8617 3.500769-4.204119 9.874732-4.814526 14.078851-1.313757 4.204119 3.500769 4.814526 9.874732 1.313757 14.078851-23.480583 28.072446-37.915536 56.565114-42.867763 84.636015-4.957135 27.462644-0.528473 50.640801 13.410214 70.667858 3.127478 4.545204 2.043172 10.751997-2.502033 13.879475-1.830596 1.330006-3.847995 1.9217-5.771533 1.920781zM546.879098 708.591832c-8.20364 0.016876-15.71498-1.780283-22.632788-5.407119-23.014371-11.947332-35.508952-40.452866-37.229459-84.565107-0.241711-5.505595 4.044301-10.192823 9.648665-10.418891 5.505595-0.241711 10.192823 4.044301 10.41889 9.648665 1.427877 36.371158 10.275676 59.135526 26.455365 67.570435 19.729539 10.313354 50.837106-7.742649 73.371417-24.726607 4.378954-3.356302 10.715802-2.453891 13.957693 2.008188 3.356302 4.378954 2.453891 10.715802-2.008189 13.957693-28.301855 21.436534-52.137956 31.937024-71.981594 31.932743zM559.839829 599.273446c-0.410719 0.036195-0.805794-0.026379-1.216513 0.009816-23.893161-0.645663-45.936718-20.640201-67.305164-60.878361-2.57106-4.862062-0.696603-10.943708 4.165459-13.514768 4.862062-2.57106 10.943708-0.696603 13.514768 4.16546 12.003494 22.656702 30.503341 49.68346 50.253119 50.280354 0.197538 0.031287 0.395075 0.062574 0.509488-0.020552 13.875486-0.029762 23.879961-15.25213 29.753312-45.303315 1.057927-5.400999 6.372731-8.912817 11.77373-7.85489 5.400999 1.057927 8.912817 6.372731 7.854889 11.77373-3.934483 19.727388-9.587302 34.322786-17.281141 44.545057-8.328475 11.032974-19.477385 16.860648-32.021947 16.797469z" fill="#333333" p-id="2136"></path><path d="M443.969911 254.230344l60.647699-63.291837c0.717761-0.69629 1.835505-0.72175 2.646207-0.087115 0.530039 0.488936 0.701198 1.326017 0.492925 2.001756l-17.438495 47.456284c3.712112-0.424524 7.392938-0.651511 10.844939-0.712247l57.355202-59.763457c0.717761-0.69629 1.835505-0.72175 2.646207-0.087115 0.530039 0.488936 0.701198 1.326017 0.492925 2.001756l-25.965113 70.607456c1.543187 1.763115 2.971962 3.609354 4.270681 5.637489l37.876898-40.979271c0.733404-0.795059 1.851148-0.820519 2.646207-0.087114 0.530039 0.488936 0.701198 1.326017 0.492925 2.001755l-43.098718 111.024774c-6.518117 19.419427-16.645588 41.810817-30.184875 67.205456-26.594548 49.650982-67.936626 107.394576-123.927464 173.246425-0.634635 0.810702-1.866792 0.919287-2.661851 0.185883-0.363788-0.260111-0.498752-0.686474-0.64936-1.014067-10.626578-53.723792-27.858387-90.674364-51.762909-111.064896-23.291358-19.787184-52.105479-25.160865-86.556775-16.037916-0.951493 0.254284-1.975377-0.312869-2.229661-1.264363-0.11932-0.525131-0.02546-1.117744 0.349064-1.564658 56.082548-72.823333 105.500362-124.023037 148.154672-153.614755 19.553765-13.507416 38.258794-24.21311 55.55867-31.800223z" fill="#FF824D" p-id="2137"></path><path d="M529.300044 258.835616c-46.753771 122.595452-79.357866 193.568848-97.994182 212.790133-18.537546 19.236927-42.860745 26.420381-72.886471 21.664773l24.709732 65.167777 78.004927-82.10823 117.555298-241.685853-49.389304 24.1714z" fill="#E55F26" p-id="2138"></path><path d="M382.276106 581.10366c-2.729332-0.027298-5.416642-0.959158-7.651212-2.831777-2.052675-1.742563-3.403233-4.082647-3.999835-6.708303-10.113101-51.212549-26.378693-86.592636-48.412434-105.370661-20.791769-17.670097-46.180267-22.29872-77.465134-13.990462-6.33286 1.629383-12.824305-2.132417-14.453688-8.465277-0.965299-3.494023-0.142023-7.41349 2.037638-10.308154 56.457072-73.270246 107.081582-125.69628 150.406722-155.687982 19.096116-13.174914 37.702376-23.896251 55.475545-31.914635l59.310946-61.883614c2.184569-2.286408 5.117266-3.543105 8.27296-3.650771 3.155695-0.107666 6.206793 1.084306 8.493201 3.268875 3.429611 3.276853 4.570977 8.216214 2.962459 12.618789l-7.272072 19.704998 41.459874-43.145438c2.184569-2.286408 5.117266-3.543105 8.27296-3.650771 3.254463-0.092023 6.206793 1.084306 8.493201 3.268874 3.429611 3.276853 4.570977 8.216214 2.962459 12.618789l-14.929403 40.563936 14.407969-15.537388c4.400424-4.770353 11.94397-5.09427 16.714322-0.693846 3.627149 3.30814 4.737228 8.445038 2.998655 13.029508l-42.968663 110.84288c-6.648172 19.601322-16.983916 42.66845-30.798959 68.525646-26.771534 50.129183-68.893946 108.964142-125.113609 174.982241-2.507254 3.045271-5.866313 4.436932-9.203902 4.414543z m-109.230748-152.869532c23.493177-0.025167 44.352115 7.632164 62.098612 22.795008 23.275714 19.885953 40.228698 52.843749 51.528863 100.396943 49.972999-59.818971 87.684252-113.176552 112.025831-158.830769 13.362302-24.916438 23.344074-47.027165 29.539505-65.687729l0.176986-0.4782 27.686205-71.246081-17.830521 19.247662-6.945418-11.12345c-0.883092-1.456073-1.979366-2.844664-3.106926-4.035717l-4.146454-4.504101 14.606719-39.805073-33.356235 34.810511-4.257795 0.034357c-3.041282 0.024541-6.311389 0.215332-9.612783 0.603661l-16.210662 1.988577 9.635465-26.316683-35.150635 36.551235-1.851148 0.820519c-17.102338 7.6184-35.25095 18.007235-53.988186 30.834005-38.322287 26.531723-82.938774 71.708366-132.788463 134.584263 4.2216-0.445076 8.099963-0.640776 11.94704-0.638938z" fill="#333333" p-id="2139"></path><path d="M499.573804 285.12305a20.4 20.4 0 1 0-6.382527 40.297684 20.4 20.4 0 1 0 6.382527-40.297684Z" fill="#493939" p-id="2140"></path><path d="M496.33443 335.677712c-1.611588-0.052757-3.124408-0.089872-4.803478-0.35581-8.000276-1.267119-15.104885-5.632267-19.843032-12.153767-4.738147-6.5215-6.694204-14.627291-5.427086-22.627567 2.628099-16.593164 18.188169-27.898217 34.781334-25.270117 8.000276 1.267119 15.104885 5.632267 19.843032 12.153767 4.738147 6.5215 6.694204 14.627291 5.427086 22.627566-2.263392 14.929737-15.296575 25.622544-29.977856 25.625928z m-0.016896-40.805021c-5.063589 0.007978-9.489473 3.660587-10.302933 8.796567-0.438017 2.765527 0.241711 5.505595 1.80545 7.778197 1.662508 2.288246 4.074063 3.682664 6.740822 4.105036 5.629824 0.891676 11.007201-3.015217 11.898877-8.64504 0.438017-2.765527-0.241711-5.505595-1.80545-7.778197-1.662508-2.288246-4.074063-3.682664-6.740822-4.105037-0.478201-0.176986-0.987688-0.156434-1.595944-0.151526z" fill="#333333" p-id="2141"></path><path d="M507.144439 293.16841a6.8 6.8 0 1 0-2.127509 13.432561 6.8 6.8 0 1 0 2.127509-13.432561Z" fill="#FFFFFF" p-id="2142"></path><path d="M492.470441 292.729487a4.9 4.9 0 1 0-1.533058 9.679346 4.9 4.9 0 1 0 1.533058-9.679346Z" fill="#FFFFFF" p-id="2143"></path><path d="M437.369453 236.856909a20.4 20.4 0 1 0-6.382526 40.297684 20.4 20.4 0 1 0 6.382526-40.297684Z" fill="#493939" p-id="2144"></path><path d="M434.236329 287.437512c-1.627232 0.046011-3.223176-0.105515-4.803478-0.35581-8.000276-1.267119-15.104885-5.632267-19.843032-12.153768-4.738147-6.5215-6.694204-14.627291-5.427085-22.627566 2.628099-16.593164 18.188169-27.898217 34.781333-25.270117 16.593164 2.628099 27.898217 18.188169 25.270118 34.781333-1.267119 8.000276-5.632267 15.104885-12.153767 19.843032-5.262965 3.823768-11.445217 5.780744-17.824089 5.782896z m-0.016896-40.805021c-5.063589 0.007978-9.489473 3.660587-10.302933 8.796567-0.438017 2.765527 0.241711 5.505595 1.80545 7.778197 1.662508 2.288246 4.074063 3.682664 6.740822 4.105036 2.765527 0.438017 5.505595-0.241711 7.679428-1.821093 2.288246-1.662508 3.682664-4.074063 4.12068-6.83959 0.891676-5.629824-3.015217-11.007201-8.64504-11.898878-0.296307-0.04693-0.88892-0.140791-1.398407-0.120239z" fill="#333333" p-id="2145"></path><path d="M443.015427 244.639956a6.8 6.8 0 1 0-2.127509 13.432562 6.8 6.8 0 1 0 2.127509-13.432562Z" fill="#FFFFFF" p-id="2146"></path><path d="M430.250446 244.562115a4.9 4.9 0 1 0-1.533058 9.679346 4.9 4.9 0 1 0 1.533058-9.679346Z" fill="#FFFFFF" p-id="2147"></path><path d="M354.816388 398.417848c6.854315 5.945449 28.706141-8.007961 48.773989-31.15362s46.741845-64.988076 39.88753-70.933525c-6.854315-5.945449-44.555459 26.253211-64.623306 49.39887-20.083491 23.244427-30.892527 46.742826-24.038213 52.688275z" fill="#FFA57E" p-id="2148"></path><path d="M564.258657 256.737517c-1.512819-0.037114-3.176246-0.401821-4.67833-1.145961-4.854397-2.591298-6.743892-8.560369-4.235719-13.529179 49.480053-94.422107 88.556902-133.388887 122.691966-122.616358 28.152188 8.913715 36.119046 36.600881 29.297877 59.212198-6.227637 20.781639-22.671719 32.554158-39.24832 27.903751-5.338425-1.453003-8.408237-7.001539-6.955235-12.339964 1.453003-5.338425 7.001539-8.408237 12.339964-6.955235 4.647043 1.343498 11.449206-3.248949 14.729735-14.372713 2.994039-9.954182 2.878081-28.399413-16.208845-34.45988-12.724617-4.040312-42.538686 5.209622-98.965369 112.807249-1.680908 3.581138-5.133828 5.565412-8.767724 5.496092zM503.208448 204.949565c-2.219845-0.047849-4.345829-0.688312-6.232252-2.20205-4.318531-3.417644-5.043351-9.708481-1.625707-14.027013 41.354964-52.071748 45.075348-69.808116 44.687937-75.033047-0.34048-5.521238 3.846763-10.224109 9.368001-10.56459 5.521238-0.34048 10.224109 3.846763 10.56459 9.368002 0.629121 10.730527-3.690621 31.611854-48.983453 88.72971-2.002674 2.416463-4.836603 3.688804-7.779116 3.728988z" fill="#333333" p-id="2149"></path><path d="M342.600873 405.392793a14.6 14.6 0 1 0-4.567886 28.8405 14.6 14.6 0 1 0 4.567886-28.8405Z" fill="#FFA57E" p-id="2150"></path><path d="M500.335437 653.788238c-1.285025 36.770215 9.757943 66.464371 32.945669 79.5632 20.428325 11.475345 46.612614 7.956395 73.164945-7.004344 6.021194-5.035397 11.218946-10.827062 15.332439-17.553812 28.450254-46.249681-0.353411-119.215624-65.348894-180.609086-29.130328 39.188697-48.113669 82.535355-56.094159 125.604042z m19.180204 254.547519c-62.34602-2.064882-122.49716-29.923998-163.834253-82.036806-77.501663-97.957043-59.051685-244.654345 41.135939-327.758196 67.909668-56.156985 155.777502-68.724159 229.60959-40.687171-4.233714 3.15526-8.42643 6.530335-12.523019 9.932974-14.489317 12.073926-27.743122 24.91825-39.761416 38.532971 22.604472 5.337399 44.930532 14.548102 65.879099 27.837103 97.453456 61.75406 129.365202 188.458443 71.157844 282.97576-41.216932 66.827872-116.576757 99.626451-191.663784 91.203365z" fill="#FF7136" p-id="2151"></path><path d="M414.610887 521.744187c-99.475949 157.89739-89.374436 267.424644 30.455791 328.417074 207.313873 105.635591 355.525598-167.804319 191.055675-303.494792s39.85666-8.753096 72.917188 51.18138c22.04954 39.924276 33.171982 87.118251 33.2712 141.554362-27.919289 94.463767-82.464644 151.540069-163.66363 171.325031-121.674789 29.608881-200.160861-58.747593-250.636436-121.075005s-20.119007-105.429718-10.515979-164.677941c6.328747-39.485149 24.701523-76.348967 55.049764-110.715145l44.025722-30.548255-1.959295 38.033291z" fill="#FF955B" p-id="2152"></path><path d="M614.186668 747.60416c-17.208413 11.398268-33.020789 28.086251-47.341002 50.091511-15.984697 24.544846-20.468755 59.773573-13.232358 105.645183-16.042916-29.671448-22.485956-57.630476-19.356683-83.780957 2.202071-18.926196 10.985189-39.398295 26.253228-61.44386-18.651946-1.707311-36.274762-2.287285-52.868446-1.739921-24.176299 0.869804-59.7807 15.835652-106.840767 44.993672 10.325994-25.127154 28.517429-44.66997 54.574306-58.628449 8.355786-4.469993 17.67214-7.936338 28.196442-10.53616-4.473462-4.715733-7.764459-10.652848-10.024244-17.646658-15.337107-6.374414-30.057152-11.635618-44.283825-15.715051-23.262533-6.670424-61.767876-3.355521-115.488465 9.848583 17.574374-20.656026 40.951766-33.614326 70.03605-38.902464 23.369066-4.222172 51.222255-0.500627 83.779381 11.123638-13.733554-17.045806-25.724095-32.551512-36.026752-46.324866-14.898421-19.876545-45.835531-30.620158-92.742768-32.107147 24.110259-18.053681 49.910044-21.682886 77.440352-10.667799 20.898296 8.385179 41.637707 24.943163 61.970852 49.811078l2.701246-9.420364c-4.394745-29.660348-15.209318-53.983485-32.388592-73.161665-19.141408-21.405292-47.001093-32.722886-83.606619-33.856657 21.018012-16.33962 45.182264-18.981387 72.740136-8.062426 27.434182 10.987523 46.673103 30.964357 57.593074 59.999065l-7.025725 35.748275 10.03585 34.294777c-2.956699 32.441762 2.378682 55.193767 16.129834 68.187451 7.095045 6.819849 18.601928 10.951634 34.493085 12.491481 2.156468 0.098208 4.285373 0.292541 6.510403 0.514439 13.447004 0.630938 29.546624-0.370187 48.422549-3.071938-6.294056 3.084616-12.505422 5.880853-18.441844 8.443839L612.791325 741.586434c-1.285088-6.40223-2.336232-13.257527-3.098303-20.758143l26.388777-30.716159c-3.590918 20.504519-2.567085 41.604087 3.030498 63.078888s23.041834 36.463734 52.195628 44.719419c-24.687963 4.468164-43.434647 1.277268-56.528432-9.655381-9.154693-7.618503-16.064676-21.251263-20.592825-40.650898z m-37.846841-10.228228c-1.401588 0.534371-2.899301 1.041178-4.300889 1.575549l1.316815 1.93804c1.031212-1.056694 2.021425-2.333204 2.984074-3.513589z" fill="#E55F26" p-id="2153"></path><path d="M542.911136 919.621625c-8.008117-0.007632-16.002106-0.427332-24.050528-1.382791-32.965473-1.130302-64.413553-9.003564-93.506669-23.275587-30.287628-14.822604-56.283639-35.904763-77.452968-62.5729-39.16927-49.514627-56.306915-112.373446-48.19605-176.938946 8.083301-64.469374 40.350092-122.940514 90.705067-164.677627 34.188432-28.167554 74.700124-46.823727 117.343749-54.049464 41.420854-6.952181 83.751565-2.928381 122.198563 11.737167l16.889255 6.403365-14.446931 10.837721c-4.110024 3.086697-8.17905 6.39321-12.220512 9.603597-9.691587 8.040096-18.916671 16.63008-27.620126 25.577698 18.414532 5.800432 36.112407 14.100144 52.764248 24.59663 49.282639 31.29651 84.208922 79.28239 98.331207 135.242832 14.094721 56.056568 5.551162 113.42396-24.027123 161.430782-20.966101 33.935566-51.156151 60.856949-87.407953 77.717757-27.800583 13.14639-58.314713 19.793035-89.303229 19.749766z m4.359035-466.156603c-12.060239-0.02523-24.203863 0.96593-36.23862 3.028606-39.126567 6.569758-76.408887 23.759249-107.806885 49.814109-95.912217 79.440396-113.697196 220.190617-39.639171 313.831254 19.234759 24.344898 42.966128 43.529322 70.603915 57.071947 26.635527 13.047172 55.488201 20.176213 85.761447 21.262741l0.824137 0.028258c35.682488 3.989992 71.332997-1.70397 103.146091-16.508599 32.65136-15.18844 59.885593-39.420372 78.774448-70.102471 55.277024-89.739961 24.788185-210.522744-67.915477-269.250344-19.548367-12.36735-40.693349-21.343415-62.817191-26.542995l-16.27358-3.834134 10.987082-12.558027c11.922168-13.642284 25.052283-26.418045 39.142967-38.190158-18.964419-5.33393-38.673059-8.072453-58.549163-8.050187z m13.027498 296.683896c-11.552044 0.016463-22.332304-2.658607-31.901147-8.107207-25.61775-14.419808-39.460424-46.685275-38.046853-88.620128l0.000694-0.72801 0.09682-0.700447c8.367076-45.142464 28.423321-90.054011 57.911284-129.764337l6.739239-8.990699 8.179302 7.754935c33.403529 31.528626 57.724649 66.07053 70.233604 99.722068 13.303446 35.959954 12.173838 68.197417-3.24823 93.319714-4.649946 7.509195-10.535403 14.247993-17.505118 20.051705l-0.673577 0.535064-0.742139 0.411375c-17.742784 9.99668-35.12377 15.103667-51.043879 15.115967z m-49.977157-95.266015c-0.966307 33.844737 9.132996 59.211134 27.872742 69.682137 16.309722 9.150025 38.523193 6.78112 62.546599-6.616119 4.948984-4.198519 9.170651-9.125742 12.486183-14.520854 15.339377-24.833919 9.310487-54.96285 1.583305-75.903973-10.289474-27.605556-30.315949-57.170912-57.006856-84.173977-23.933965 34.853053-40.220222 73.147411-47.481973 111.532786z" fill="#333333" p-id="2154"></path><path d="M504.642887 702.981183c-3.640053-0.003469-7.209463-2.06728-8.936958-5.47547-20.565261-40.747025-47.391906-69.45349-79.876307-85.322128-31.1252-15.166804-60.524039-11.321252-89.955046 11.864645-4.316406 3.443638-10.647992 2.668384-14.091629-1.648021s-2.668384-10.647992 1.648021-14.09163c35.589326-27.973914 72.955977-32.759661 111.097-14.124683 36.42488 17.726762 66.421607 49.526863 88.961049 94.272963 2.426555 4.961031 0.497787 10.961852-4.463243 13.388408-1.360589 0.754187-2.899301 1.041178-4.382887 1.135916z" fill="#333333" p-id="2155"></path><path d="M504.642887 702.981183c-3.640053-0.003469-7.209463-2.06728-8.936958-5.47547-20.565261-40.747025-47.391906-69.45349-79.876307-85.322128-31.1252-15.166804-60.524039-11.321252-89.955046 11.864645-4.316406 3.443638-10.647992 2.668384-14.091629-1.648021s-2.668384-10.647992 1.648021-14.09163c35.589326-27.973914 72.955977-32.759661 111.097-14.124683 36.42488 17.726762 66.421607 49.526863 88.961049 94.272963 2.426555 4.961031 0.497787 10.961852-4.463243 13.388408-1.360589 0.754187-2.899301 1.041178-4.382887 1.135916z" fill="#333333" p-id="2156"></path><path d="M507.462525 713.464486c-1.675837 0.039611-3.406108-0.456536-4.929998-1.309624-38.20681-21.670711-67.453954-32.866003-86.999987-33.26924-19.546033-0.403238-51.6716 10.774773-95.44231 33.177785-4.892469 2.550245-10.989416 0.593914-13.415971-4.367118-2.550245-4.892469-0.593914-10.989416 4.367117-13.415971 47.42628-24.267633 81.653882-35.883194 104.908531-35.352798 23.186086 0.406707 54.767822 12.167402 96.571604 35.805798 4.832485 2.738082 6.516206 8.838498 3.778125 13.670983-1.98112 3.281031-5.320747 5.132217-8.837111 5.060185zM367.470405 837.065523c-1.771964 0.012047-3.598361-0.511664-5.286939-1.516006-4.681231-2.902771-6.117573-9.140312-3.214803-13.821542 20.181575-32.287986 45.945659-56.109237 76.618674-70.928689 30.178255-14.545202 63.276438-22.947601 98.360156-24.85095 5.494708-0.296957 10.202115 3.965709 10.499072 9.460417s-3.965709 10.202115-9.460417 10.499071c-32.43249 1.727307-62.961442 9.514032-90.721027 22.880238-27.196263 13.215646-50.183347 34.60826-68.383802 63.615215-1.870865 2.896526-5.059239 4.583023-8.410914 4.662246zM541.505132 910.375915c-3.640053-0.003469-7.044774-1.916027-8.868396-5.35178-13.807225-26.221566-15.812251-55.508762-6.139461-87.065016 9.493279-30.567428 29.067758-60.012628 58.351673-87.4019 3.987028-3.746145 10.387871-3.575212 14.134016 0.411815 3.746145 3.987028 3.575212 10.387871-0.411815 14.134016-26.726733 25.001635-44.526473 51.522744-52.862769 78.780885-8.267039 26.653819-6.696095 50.198927 4.69801 71.775404 2.550245 4.892469 0.717604 10.920854-4.174865 13.471099-1.580405 0.795185-3.146681 1.178303-4.726393 1.245477zM662.157412 815.039c-11.236102 0.003028-20.917282-2.877036-29.167228-8.571628-21.386811-14.663025-30.314309-44.478789-26.646062-88.471901 0.431054-5.494014 5.256348-9.62397 10.846488-9.165353 5.494014 0.431054 9.62397 5.256348 9.165353 10.846488-3.015296 36.274068 2.992275 59.947029 18.023406 70.290873 18.325597 12.640906 51.401766-1.489452 75.837933-15.600572 4.755344-2.797625 10.934982-1.129672 13.608918 3.694234 2.797625 4.755344 1.129672 10.934982-3.694235 13.608918-27.033656 15.550931-49.55449 23.345288-67.974573 23.368941zM685.679433 707.975073a56 56 0 0 1-6.002208-0.472747c-23.636378-3.552694-43.078905-26.08463-59.384277-68.627019-1.959359-5.139155 0.642292-10.94703 5.781447-12.906389 5.139155-1.959359 10.94703 0.642292 12.906389 5.781447 9.152864 23.95068 24.221083 53.030549 43.750906 56.029886 13.953811 2.128652 25.931106-11.705885 35.629378-41.174232 1.708258-5.231812 7.411428-8.069742 12.64324-6.361484 5.231812 1.708258 8.069742 7.411428 6.361484 12.643241-6.30932 19.10085-13.698735 32.898551-22.581007 42.106984-8.46951 8.494551-18.377444 12.935593-29.105352 12.980313z" fill="#333333" p-id="2157"></path><path d="M607.929801 351.048645l67.908975-55.428974c0.797267-0.603627 1.909782-0.492678 2.637099 0.236026 0.466502 0.549887 0.534371 1.401588 0.245298 2.046907l-23.091977 44.977334c3.736179 0.031033 7.417231 0.254318 10.850903 0.614728l64.238582-52.424274c0.797267-0.603627 1.909782-0.492678 2.637099 0.236026 0.466502 0.549887 0.534371 1.401588 0.245299 2.046907L699.224621 360.270133c1.316815 1.93804 2.50994 3.944642 3.551812 6.115933l42.588686-36.057785c0.824831-0.699753 1.937346-0.588804 2.637099 0.236026 0.466502 0.549887 0.534371 1.401588 0.245298 2.046907l-56.307983 104.9448c-8.836164 18.480319-21.616971 39.470579-38.150167 63.025906-32.447249 46.039831-80.518343 98.314681-144.117155 156.852113-0.728704 0.727317-1.96491 0.684931-2.664663-0.1399-0.329377-0.302507-0.411375-0.742139-0.520936-1.085645-4.000086-54.618397-16.60031-93.393574-37.841671-116.545348-20.706296-22.478196-48.650754-31.32338-83.957063-26.466989-0.97539 0.136431-1.922523-0.551275-2.058955-1.526665-0.054434-0.535758 0.110949-1.112515 0.537146-1.510455 64.539449-65.445775 119.828584-110.241328 165.771279-134.414222 21.054154-11.023729 40.896891-19.273928 58.992453-24.696164z" fill="#FF824D" p-id="2158"></path><path d="M692.062654 366.018718c-61.345902 115.983793-102.356453 182.454724-123.196341 199.26154-20.743762 16.83438-45.761102 21.000037-74.983458 12.620661l16.583595 67.693385 87.429966-71.989798 146.133155-225.557977-51.966917 17.972189z" fill="#E55F26" p-id="2159"></path><path d="M508.288473 668.064427c-3.227985 0.01066-6.38602-1.311012-8.677531-3.840631-1.82501-1.979732-2.880316-4.466965-3.152484-7.145757-3.824044-51.967169-15.629082-89.161941-35.210123-110.485236-18.483347-20.072266-43.118516-27.760467-75.182712-23.326805-3.145987 0.450292-6.249589-0.335621-8.802608-2.316047-2.580584-1.8843-4.15752-4.729168-4.607812-7.875156-0.532289-3.58562 0.762512-7.375539 3.278697-9.982993 64.965646-65.843715 121.601935-111.709397 168.259205-136.197539 20.559394-10.74948 40.333569-19.123369 58.951455-24.915979l66.410566-54.194157c2.446928-2.003133 5.510918-2.893057 8.656212-2.615339 3.145294 0.277719 6.028385 1.832642 8.031518 4.27957 3.0047 3.670392 3.535601 8.712033 1.402534 12.885764l-9.619302 18.671877 46.408944-37.771151c5.04511-4.170955 12.516775-3.380879 16.68773 1.664231 3.0047 3.670392 3.535601 8.712033 1.402534 12.885763l-19.761622 38.442142 16.138978-13.473432c2.446928-2.003133 5.538482-2.989183 8.683776-2.711465 3.145294 0.277719 6.055949 1.736515 8.059082 4.183444 3.196952 3.72552 3.672726 8.959413 1.388405 13.297831l-56.156729 104.780112c-8.987418 18.645008-22.057297 40.280587-38.920564 64.261417-32.681194 46.492898-81.659809 99.75588-145.506003 158.430437-2.350802 2.030697-5.250103 3.071875-8.162146 3.069099z m8.143602-12.437112z m-111.074548-153.565148c28.542976 0.590381 52.214108 10.914987 70.601329 30.959689 20.678733 22.574322 33.488807 57.352505 38.909466 105.928389 56.890607-53.282913 100.823419-101.646929 130.547408-143.994355 16.299251-23.10226 28.90124-43.831704 37.324642-61.598142l0.233945-0.453067 36.16255-67.340923-20.043315 16.931199-5.538041-11.886972c-0.699059-1.552841-1.617935-3.064684-2.591937-4.384274l-3.566635-4.975854 19.34886-37.72826-37.322372 30.38981-4.230245-0.484794c-3.021604-0.346281-6.194461-0.527874-9.614698-0.572341l-16.332177-0.001829 12.77084-24.946255-39.343103 31.995003-1.937346 0.588804c-17.90331 5.477363-37.182725 13.577002-57.343485 24.024669-41.105353 21.814901-90.894924 61.217423-148.035686 117.549503z" fill="#333333" p-id="2160"></path><path d="M659.319376 388.43897a20.4 20.4 0 1 0-11.246004 39.219477 20.4 20.4 0 1 0 11.246004-39.219477Z" fill="#493939" p-id="2161"></path><path d="M653.782807 438.425269c-2.815916 0.024788-5.617704-0.362491-8.405363-1.16184-7.78622-2.232663-14.305895-7.431108-18.213954-14.481432-3.908059-7.050325-4.861689-15.334079-2.629026-23.120299s7.431108-14.305895 14.481433-18.213954c7.050325-3.908059 15.334079-4.861689 23.120299-2.629026s14.209769 7.403544 18.213954 14.481432c3.908059 7.050325 4.861689 15.334079 2.629025 23.120299s-7.431108 14.305895-14.481432 18.213954c-4.576526 2.53681-9.618861 3.795722-14.714936 3.790866zM653.725535 397.629108c-1.771964 0.012047-3.46193 0.463727-5.042335 1.258913-2.473798 1.371249-4.151717 3.594892-4.923502 6.286424-0.771785 2.691533-0.431054 5.494014 0.844069 7.940249 1.371249 2.473798 3.594892 4.151717 6.190298 4.895938 2.691533 0.771785 5.494014 0.431054 7.844123-0.871633 2.473798-1.371249 4.151717-3.594892 4.923501-6.286424 0.771785-2.691533 0.431054-5.494014-0.844068-7.940249-1.371249-2.473798-3.594892-4.151717-6.190299-4.895938-0.865136-0.248074-1.853961-0.427585-2.801787-0.38728z" fill="#333333" p-id="2162"></path><path d="M665.854335 397.346304a6.8 6.8 0 1 0-3.748668 13.073159 6.8 6.8 0 1 0 3.748668-13.073159Z" fill="#FFFFFF" p-id="2163"></path><path d="M651.341969 395.123027a4.9 4.9 0 1 0-2.701246 9.420365 4.9 4.9 0 1 0 2.701246-9.420365Z" fill="#FFFFFF" p-id="2164"></path><path d="M603.556976 332.979358a20.4 20.4 0 1 0-11.246004 39.219477 20.4 20.4 0 1 0 11.246004-39.219477Z" fill="#493939" p-id="2165"></path><path d="M597.902888 383.045352c-2.815916 0.024788-5.617704-0.362491-8.405363-1.16184-16.149196-4.630708-25.473688-21.452535-20.84298-37.601731 2.232663-7.78622 7.431108-14.305895 14.481432-18.213954 7.050325-3.908059 15.334079-4.861689 23.120299-2.629026s14.209769 7.403544 18.213954 14.481432c3.908059 7.050325 4.861689 15.334079 2.629026 23.120299s-7.431108 14.305895-14.481432 18.213954c-4.548963 2.440684-9.618861 3.795722-14.714936 3.790866z m-0.029709-40.892287c-1.771964 0.012047-3.46193 0.463727-5.042335 1.258912-2.473798 1.371249-4.151717 3.594892-4.923501 6.286425-1.571133 5.479192 1.651301 11.292617 7.130493 12.86375 2.691533 0.771785 5.494014 0.431054 7.844122-0.871633 2.473798-1.371249 4.151717-3.594892 4.923502-6.286424 0.771785-2.691533 0.431054-5.494014-0.844069-7.940249-1.371249-2.473798-3.594892-4.151717-6.190298-4.895937-0.961262-0.275637-1.881525-0.331459-2.897914-0.414844z" fill="#333333" p-id="2166"></path><path d="M608.213588 341.391777a6.8 6.8 0 1 0-3.748668 13.073159 6.8 6.8 0 1 0 3.748668-13.073159Z" fill="#FFFFFF" p-id="2167"></path><path d="M595.552005 339.759542a4.9 4.9 0 1 0-2.701246 9.420364 4.9 4.9 0 1 0 2.701246-9.420364Z" fill="#FFFFFF" p-id="2168"></path><path d="M501.868779 483.296316c6.078656 6.736464 29.468095-4.449873 52.207106-24.977352 22.739011-20.527479 54.313492-58.807266 48.234836-65.54373-6.078656-6.736464-47.422811 20.627579-70.161821 41.155058-22.835137 20.499915-36.358776 42.62956-30.280121 49.366024z" fill="#FFA57E" p-id="2169"></path><path d="M728.252591 368.239027c-1.964216-0.04308-3.982865-0.621919-5.643881-1.722386-4.502414-3.163585-5.650377-9.318435-2.555354-13.944539 60.618397-87.688197 104.152828-121.602255 136.720614-106.750006 26.856037 12.278162 31.389295 40.729868 21.863343 62.341352-8.713862 19.867778-26.470081 29.548516-42.356381 22.912594-5.121557-2.092762-7.492291-7.974057-5.399528-13.095613 2.092762-5.121557 7.974057-7.492291 13.095613-5.399528 4.448674 1.899816 11.759813-1.829425 16.371536-12.470479 4.184831-9.515103 6.317646-27.836978-11.888424-36.178383-12.13738-5.560936-42.856503-0.013371-111.975442 99.905557-1.870865 2.896526-5.004111 4.390771-8.232096 4.401431zM673.872678 309.369382c-2.5961-0.01621-5.136379-0.952683-7.153641-2.987544-3.869835-3.918466-3.822592-10.250746 0.095874-14.120581 47.39266-46.643711 53.246832-63.794474 53.499068-69.027673 0.334928-5.521578 5.064095-9.679098 10.585674-9.34417 5.521578 0.334928 9.679098 5.064095 9.34417 10.585673-0.68329 10.727214-7.515628 30.92645-59.431769 82.098751-1.759916 1.784011-4.343275 2.811754-6.939376 2.795544z" fill="#333333" p-id="2170"></path><path d="M488.859855 488.68013a14.6 14.6 0 1 0-8.048611 28.068842 14.6 14.6 0 1 0 8.048611-28.068842Z" fill="#FFA57E" p-id="2171"></path></svg>