<?xml version="1.0" standalone="no"?><!DOCTYPE svg PUBLIC "-//W3C//DTD SVG 1.1//EN" "http://www.w3.org/Graphics/SVG/1.1/DTD/svg11.dtd"><svg t="1545202686723" class="icon" style="" viewBox="0 0 1024 1024" version="1.1" xmlns="http://www.w3.org/2000/svg" p-id="28156" xmlns:xlink="http://www.w3.org/1999/xlink" width="64" height="64"><defs><style type="text/css"></style></defs><path d="M857.233 351.972l18.22-2.56c8.418-1.184 16.211 4.689 17.394 13.106l3.772 26.836c1.183 8.418-4.69 16.21-13.107 17.394l-18.22 2.56-8.059-57.336z" fill="#B8462B" p-id="28157"></path><path d="M849.05 430.98l-13.39-95.264 37.136-5.219c18.815-2.644 36.321 10.548 38.965 29.363l3.772 26.836c2.644 18.815-10.548 36.322-29.363 38.966l-37.12 5.318z m9.2-78.242l7.821 55.653 17.33-2.435c7.922-1.114 13.454-8.455 12.34-16.377l-3.771-26.837c-1.113-7.922-8.455-13.454-16.377-12.34l-17.344 2.336z" fill="#333333" p-id="28158"></path><path d="M580.75 307.816l183.794-25.83c35.155-4.941 69.909 10.977 89.06 40.903 14.233 22.236 23.006 45.138 26.346 68.904s1.22 48.2-6.333 73.497c-10.175 33.946-39.18 58.926-74.335 63.867l-376.599 52.927 158.068-274.268z" fill="#D34F30" p-id="28159"></path><path d="M529.918 515.916c118.436-16.645 222.493-9.861 281.916-52.648 39.706-28.604 50.573-74.867 32.673-139l36.994 75.689c3.213 23.582-1.799 44.685-15.035 63.308-19.792 28.027-11.62 35.16-68.772 55.31-38.101 13.433-87.318 20.35-147.635 20.85L520.027 561.94l-66.445 8.632c2.598-29.65 28.11-47.878 76.336-54.656z" fill="#B13D21" p-id="28160"></path><path d="M420.913 583.14l159.203-276.244 184.19-25.887c35.353-4.968 70.657 11.277 89.921 41.288 14.233 22.235 23.16 45.52 26.501 69.286 3.34 23.766 1.177 48.609-6.376 73.906-10.246 34.159-39.705 59.505-75.058 64.474L420.913 583.14z m171.705-257.704L458.73 557.629l337.88-47.486c27.628-3.882 50.697-23.686 58.762-50.368 6.641-22.443 8.586-44.528 5.664-65.324-2.937-20.894-10.88-41.49-23.55-61.218-15.12-23.525-42.641-36.117-70.369-32.22l-174.499 24.423z" fill="#333333" p-id="28161"></path><path d="M599.243844 325.005322a63.5 145.3 36 1 0-170.810395 235.100338 63.5 145.3 36 1 0 170.810395-235.100338Z" fill="#FEB19D" p-id="28162"></path><path d="M446.86 584.598c-11.382 0.012-21.309-2.997-29.642-9.052-19.012-13.812-25.686-41.034-18.806-76.703 6.358-33.08 23.596-70.246 48.694-104.791 25.099-34.545 55.119-62.424 84.615-78.694 31.797-17.565 59.83-19.57 78.761-5.816 19.012 13.813 25.686 41.034 18.807 76.703-6.359 33.08-23.596 70.246-48.695 104.791-25.098 34.545-55.119 62.424-84.615 78.694-17.912 9.853-34.6 14.787-49.12 14.868z m133.866-264.043c-11.102-0.032-24.62 4.114-39.358 12.319-26.997 14.871-54.687 40.735-78.081 72.934s-39.435 66.526-45.236 96.797c-5.207 27.243-1.212 47.944 10.923 56.761 12.216 8.876 33.14 6.278 57.358-7.151 26.997-14.872 54.688-40.735 78.082-72.934 23.394-32.2 39.434-66.527 45.235-96.798 5.207-27.242 1.213-47.944-10.923-56.761-4.773-3.468-10.92-5.215-18-5.167z" fill="#333333" p-id="28163"></path><path d="M473.591 492.558c-42.46 58.58-94.977 93.024-117.243 76.866-50.178-36.573-23.792-85.219 18.655-143.897s81.973-114.422 137.32-74.133c26.33 19.223 3.729 82.585-38.732 141.164z" fill="#D34F30" p-id="28164"></path><path d="M369.886 592.464c-9.39 0.007-17.827-2.544-24.703-7.637-29.692-21.577-40.701-49.618-32.832-83.442 5.412-23.28 18.648-47.66 47.248-87.023 20.301-27.998 27.876-38.05 38.922-50.71 16.178-18.532 30.56-30.45 45.424-37.487 26.503-12.611 53.224-9.298 79.655 9.91 13.723 9.988 27.124 31.33 13.501 76.668-8.18 27.304-25.238 59.693-47.993 91.065-35.608 49.134-77.927 82.852-110.438 87.926-3.07 0.431-5.955 0.736-8.784 0.73zM475.397 338.71c-7.679-0.032-15.192 1.832-22.866 5.435-12.303 5.87-24.672 16.292-38.936 32.637-10.62 12.095-18.025 21.921-37.801 49.34-26.813 36.992-39.111 59.422-43.91 79.89-6.054 25.894 1.89 45.782 25.074 62.72 4.716 3.376 10.935 4.522 18.547 3.351 27.063-4.308 65.276-35.631 97.423-79.936 21.478-29.678 37.528-59.906 45.094-85.104 5.63-18.867 9.221-43.608-6.084-54.787-12.594-9.136-24.633-13.604-36.54-13.546z" fill="#333333" p-id="28165"></path><path d="M452.493 473.206c-42.46 58.58-94.879 93.01-117.158 76.753s-5.85-76.834 36.596-135.512 94.879-93.01 117.144-76.852c22.28 16.258 5.864 76.933-36.582 135.611z" fill="#FEB19D" p-id="28166"></path><path d="M348.873 572.999c-9.39 0.007-17.828-2.544-24.703-7.637-16.886-12.37-21.936-36.805-14.015-68.819 6.924-28.34 23.475-61.465 46.471-93.275 35.609-49.134 77.829-82.838 110.325-88.011 12.846-2.007 24.38 0.31 33.388 6.92 16.886 12.371 21.936 36.806 14.015 68.82-6.924 28.34-23.475 61.465-46.471 93.275-35.609 49.134-77.829 82.838-110.325 88.011-2.957 0.517-5.857 0.722-8.685 0.716z m126.859-238.376c-1.81 0.053-3.72 0.12-5.686 0.497-27.064 4.308-65.277 35.631-97.324 79.922-21.465 29.777-36.85 60.417-43.203 86.353-3.326 13.697-6.96 38.14 6.425 47.872 4.716 3.377 10.936 4.522 18.547 3.351 27.064-4.308 65.276-35.631 97.324-79.922 21.578-29.692 36.85-60.417 43.217-86.254 3.326-13.696 6.96-38.14-6.425-47.872-3.502-2.638-7.826-3.95-12.875-3.947z" fill="#333333" p-id="28167"></path><path d="M368.274 507.36c-42.46 58.58-94.978 93.023-117.244 76.865-50.178-36.573-23.791-85.218 18.656-143.897s81.973-114.422 137.319-74.132c26.331 19.222 3.73 82.584-38.731 141.164z" fill="#D34F30" p-id="28168"></path><path d="M264.47 607.279c-9.39 0.007-17.828-2.544-24.703-7.636-29.692-21.578-40.702-49.619-32.833-83.443 5.413-23.28 18.649-47.66 47.249-87.023 20.3-27.997 27.875-38.05 38.921-50.71 16.178-18.532 30.56-30.45 45.425-37.487 26.503-12.61 53.224-9.298 79.654 9.911 13.724 9.987 27.125 31.33 13.502 76.667-8.18 27.304-25.238 59.693-47.993 91.066-35.609 49.134-77.928 82.851-110.438 87.925-2.971 0.418-5.956 0.736-8.784 0.73zM370.08 353.51c-7.68-0.031-15.193 1.832-22.866 5.435-12.303 5.87-24.673 16.293-38.937 32.637-10.62 12.096-17.925 21.908-37.8 49.341-26.814 36.992-39.112 59.421-43.91 79.888-6.055 25.895 1.89 45.783 25.073 62.721 4.716 3.377 10.936 4.522 18.547 3.352 27.064-4.309 65.276-35.632 97.423-79.937l8.09 5.83-8.09-5.83c21.479-29.678 37.528-59.906 45.095-85.104 5.629-18.867 9.22-43.608-6.084-54.786-12.594-9.137-24.633-13.605-36.541-13.547z" fill="#333333" p-id="28169"></path><path d="M347.175 488.008c-42.446 58.678-94.879 93.01-117.144 76.851s-5.85-76.834 36.596-135.512 94.88-93.01 117.145-76.851 5.85 76.833-36.597 135.512z" fill="#FEB19D" p-id="28170"></path><path d="M243.555 587.8c-9.39 0.007-17.827-2.544-24.703-7.636-16.886-12.37-21.936-36.806-14.014-68.82 6.923-28.339 23.474-61.465 46.47-93.275 35.61-49.134 77.83-82.838 110.326-88.01 12.845-2.008 24.38 0.31 33.388 6.92 16.886 12.37 21.936 36.805 14.014 68.82-6.923 28.339-23.474 61.465-46.47 93.275-35.61 49.134-77.83 82.837-110.326 88.01-2.957 0.517-5.856 0.723-8.685 0.716z m126.86-238.375c-1.81 0.052-3.72 0.119-5.687 0.496-27.064 4.309-65.276 35.632-97.324 79.923-21.578 29.692-36.85 60.416-43.216 86.254-3.326 13.696-6.96 38.14 6.425 47.871 4.716 3.377 10.936 4.522 18.547 3.352 27.063-4.309 65.276-35.632 97.324-79.923l8.09 5.83-8.09-5.83c21.577-29.692 36.85-60.416 43.216-86.254 3.326-13.696 6.96-38.14-6.425-47.872-3.487-2.539-7.812-3.85-12.86-3.847z" fill="#333333" p-id="28171"></path><path d="M231.852 543.035c-56.175 45.594-115.817 65.272-133.142 43.901-39.003-48.313-0.925-88.472 55.262-134.165s108.795-89.307 151.827-36.066c20.57 25.296-17.66 80.65-73.947 126.33z" fill="#D34F30" p-id="28172"></path><path d="M121.518 614.521c-2.419 0.006-4.825-0.088-7.108-0.369-12.927-1.385-23.569-6.621-30.558-15.338-23.096-28.527-26.473-58.462-10.118-89.097 11.254-21.086 30.349-41.209 68.162-71.829 26.856-21.79 36.774-29.538 50.72-38.908 20.423-13.714 37.4-21.503 53.58-24.453 28.863-5.322 53.816 4.794 74.375 30.189 10.67 13.199 18.09 37.283-6.802 77.55-14.968 24.256-39.828 51.126-69.927 75.54-43.757 35.533-89.69 56.793-122.324 56.715z m139.218-221.383c-3.523-0.03-7.094 0.338-10.702 1.003-13.403 2.485-28.05 9.351-46.057 21.447-13.39 8.935-22.985 16.522-49.284 37.876-35.473 28.792-53.157 47.274-63.09 65.802-12.55 23.445-10.023 44.712 7.986 67.073 3.681 4.482 9.393 7.198 17.048 8.037 27.256 2.843 72.274-17.522 114.792-51.997 28.428-23.108 51.754-48.152 65.585-70.533 10.32-16.768 20.193-39.736 8.303-54.495-13.22-16.232-27.861-24.175-44.581-24.213z" fill="#333333" p-id="28173"></path><path d="M216.593 518.795c-56.188 45.693-115.719 65.284-133.044 43.913s14.236-75.73 70.423-121.423 115.719-65.284 133.043-43.913c17.313 21.47-14.247 75.829-70.422 121.423z" fill="#FEB19D" p-id="28174"></path><path d="M106.246 590.38c-2.418 0.006-4.825-0.088-7.009-0.356-12.927-1.386-23.469-6.61-30.459-15.327-13.109-16.319-11.662-41.228 4.275-70.101 14.023-25.582 38.583-53.295 69.03-78.07 47.111-38.243 96.616-59.871 129.344-56.457 12.927 1.385 23.47 6.61 30.459 15.326 13.109 16.32 11.662 41.229-4.275 70.101-14.022 25.582-38.583 53.296-69.029 78.07l-6.305-7.726 6.305 7.726c-43.769 35.631-89.789 56.78-122.336 56.814z m157.732-200.673c-27.511 0.048-69.553 19.973-109.396 52.358-28.528 23.096-51.232 48.82-64.068 72.13-15.826 28.786-10.749 42.406-6.184 47.904 3.68 4.482 9.392 7.198 17.047 8.037 1.687 0.207 3.498 0.228 5.31 0.249 27.51-0.048 69.552-19.973 109.396-52.358 28.527-23.096 51.231-48.82 64.068-72.13 15.826-28.786 10.748-42.406 6.184-47.903-3.682-4.482-9.393-7.199-17.048-8.038-1.7-0.108-3.498-0.228-5.31-0.249z" fill="#333333" p-id="28175"></path><path d="M216.593 518.795c-56.188 45.693-115.719 65.284-133.044 43.913s14.236-75.73 70.423-121.423 115.719-65.284 133.043-43.913c17.313 21.47-14.247 75.829-70.422 121.423z" fill="#FEB19D" p-id="28176"></path><path d="M106.246 590.38c-2.418 0.006-4.825-0.088-7.009-0.356-12.927-1.386-23.469-6.61-30.459-15.327-13.109-16.319-11.662-41.228 4.275-70.101 14.023-25.582 38.583-53.295 69.03-78.07 47.111-38.243 96.616-59.871 129.344-56.457 12.927 1.385 23.47 6.61 30.459 15.326 13.109 16.32 11.662 41.229-4.275 70.101-14.022 25.582-38.583 53.296-69.029 78.07l-6.305-7.726 6.305 7.726c-43.769 35.631-89.789 56.78-122.336 56.814z m157.732-200.673c-27.511 0.048-69.553 19.973-109.396 52.358-28.528 23.096-51.232 48.82-64.068 72.13-15.826 28.786-10.749 42.406-6.184 47.904 3.68 4.482 9.392 7.198 17.047 8.037 1.687 0.207 3.498 0.228 5.31 0.249 27.51-0.048 69.552-19.973 109.396-52.358 28.527-23.096 51.231-48.82 64.068-72.13 15.826-28.786 10.748-42.406 6.184-47.903-3.682-4.482-9.393-7.199-17.048-8.038-1.7-0.108-3.498-0.228-5.31-0.249z" fill="#333333" p-id="28177"></path><path d="M745.472 739.517c-72.302 2.606-131.777-17.572-132.752-45.066-2.074-62.057 52.505-71.213 124.877-73.891s140.633-5.85 142.96 62.568c1.063 32.584-62.713 53.712-135.085 56.39z" fill="#D34F30" p-id="28178"></path><path d="M732.725 758.764c-54.88-0.032-101.559-12.301-123.846-33.128-9.49-8.887-14.838-19.473-15.174-30.64-1.277-36.683 14.041-62.622 45.54-77.246 21.677-10.067 49.037-14.646 97.664-16.344 34.561-1.24 47.146-1.46 63.923-0.55 24.563 1.34 42.808 5.335 57.506 12.717 26.254 13.12 40.095 36.216 41.23 68.87 0.58 16.963-7.989 40.663-52.102 57.84-26.552 10.364-62.577 16.863-101.308 18.246-4.522 0.22-9.047 0.3-13.433 0.235z m12.73-20.237l0.386 9.965-0.386-9.965c36.61-1.346 70.311-7.309 94.826-16.86 18.333-7.18 40.04-19.581 39.427-38.524-0.861-25.02-10.703-41.892-30.109-51.596-12.2-6.081-28.028-9.412-49.69-10.59-16.07-0.921-28.3-0.637-62.153 0.59-45.658 1.646-70.904 5.764-89.986 14.584-24.134 11.17-34.914 29.676-33.989 58.372 0.243 5.795 3.17 11.402 8.778 16.679 19.913 18.535 68.264 29.36 122.896 27.345z" fill="#333333" p-id="28179"></path><path d="M747.802 710.905c-72.372 2.678-131.706-17.503-132.681-44.997s56.944-51.913 129.316-54.59 131.706 17.502 132.68 44.996c0.906 27.566-57.013 51.985-129.315 54.591z" fill="#FEB19D" p-id="28180"></path><path d="M734.843 730.226c-54.808 0.037-101.417-12.303-123.632-33.061-9.49-8.887-14.766-19.403-15.102-30.571-0.648-20.922 15.498-39.945 45.602-53.413 26.594-11.992 62.888-19.344 102.112-20.806 60.641-2.19 113.194 10.33 137.277 32.752 9.49 8.887 14.766 19.403 15.102 30.571 0.648 20.922-15.498 39.945-45.602 53.413-26.595 11.992-62.888 19.344-102.113 20.806-4.591 0.293-9.116 0.372-13.644 0.31z m22.55-118.074c-4.244-0.067-8.555 0.079-12.867 0.225-36.682 1.276-70.296 8.157-94.576 19.048-12.84 5.811-34.339 17.997-33.767 34.536 0.242 5.795 3.169 11.401 8.777 16.678 20.058 18.674 68.266 29.502 122.899 27.487 36.682-1.277 70.296-8.157 94.576-19.048 12.84-5.811 34.339-17.997 33.767-34.536-0.242-5.795-3.169-11.401-8.777-16.678-18.405-17.218-60.81-27.722-110.031-27.712z" fill="#333333" p-id="28181"></path><path d="M747.802 710.905c-72.372 2.678-131.706-17.503-132.681-44.997s56.944-51.913 129.316-54.59 131.706 17.502 132.68 44.996c0.906 27.566-57.013 51.985-129.315 54.591z" fill="#FEB19D" p-id="28182"></path><path d="M734.843 730.226c-54.808 0.037-101.417-12.303-123.632-33.061-9.49-8.887-14.766-19.403-15.102-30.571-0.648-20.922 15.498-39.945 45.602-53.413 26.594-11.992 62.888-19.344 102.112-20.806 60.641-2.19 113.194 10.33 137.277 32.752 9.49 8.887 14.766 19.403 15.102 30.571 0.648 20.922-15.498 39.945-45.602 53.413-26.595 11.992-62.888 19.344-102.113 20.806-4.591 0.293-9.116 0.372-13.644 0.31z m22.55-118.074c-4.244-0.067-8.555 0.079-12.867 0.225-36.682 1.276-70.296 8.157-94.576 19.048-12.84 5.811-34.339 17.997-33.767 34.536 0.242 5.795 3.169 11.401 8.777 16.678 20.058 18.674 68.266 29.502 122.899 27.487 36.682-1.277 70.296-8.157 94.576-19.048 12.84-5.811 34.339-17.997 33.767-34.536-0.242-5.795-3.169-11.401-8.777-16.678-18.405-17.218-60.81-27.722-110.031-27.712z" fill="#333333" p-id="28183"></path><path d="M525.873 771.712c-72.303 2.606-131.778-17.572-132.753-45.066-2.074-62.057 52.505-71.214 124.877-73.891s140.634-5.85 142.96 62.568c1.205 32.582-62.64 53.781-135.084 56.39z" fill="#D34F30" p-id="28184"></path><path d="M513.197 791.028c-54.88-0.032-101.558-12.3-123.846-33.128-9.49-8.887-14.837-19.472-15.174-30.64-1.277-36.683 14.041-62.622 45.54-77.245 21.677-10.067 49.037-14.647 97.664-16.344 34.561-1.24 47.146-1.46 63.923-0.55 24.563 1.339 42.809 5.335 57.506 12.716 26.255 13.12 40.095 36.217 41.23 68.87 0.58 16.963-7.988 40.663-52.102 57.84-26.552 10.365-62.577 16.863-101.308 18.247-4.594 0.15-9.05 0.158-13.433 0.234z m47.654-138.456c-10.183 0.037-22.696 0.326-42.767 1.1-45.658 1.646-70.904 5.764-89.986 14.584-24.133 11.171-34.914 29.676-33.988 58.373 0.242 5.795 3.169 11.401 8.777 16.678 20.058 18.674 68.266 29.502 122.97 27.557 36.611-1.346 70.312-7.31 94.827-16.86 18.333-7.18 40.04-19.582 39.427-38.525-0.862-25.02-10.703-41.892-30.11-51.596-12.199-6.081-28.028-9.412-49.689-10.59-6.586-0.52-12.53-0.7-19.46-0.72z" fill="#333333" p-id="28185"></path><path d="M528.274 743.17c-72.372 2.677-131.706-17.504-132.68-44.997-0.904-27.424 56.943-51.914 129.315-54.591s131.706 17.503 132.681 44.996c0.906 27.566-57.013 51.986-129.316 54.592z" fill="#FEB19D" p-id="28186"></path><path d="M515.316 762.49c-54.809 0.038-101.418-12.303-123.633-33.06-9.49-8.887-14.766-19.404-15.102-30.572-0.648-20.922 15.498-39.945 45.602-53.412 26.594-11.992 62.888-19.344 102.113-20.807 60.568-2.26 113.193 10.33 137.276 32.752 9.49 8.887 14.766 19.403 15.102 30.571 0.648 20.923-15.498 39.946-45.602 53.413-26.594 11.992-62.888 19.344-102.113 20.807-4.594 0.15-9.188 0.301-13.643 0.309z m22.478-118.143c-4.245-0.067-8.556 0.079-12.868 0.225-36.682 1.276-70.296 8.157-94.575 19.048-12.84 5.811-34.34 17.997-33.768 34.536 0.242 5.794 3.17 11.401 8.778 16.678 20.057 18.674 68.266 29.502 122.898 27.487 36.682-1.277 70.296-8.158 94.576-19.048 12.84-5.811 34.34-17.997 33.768-34.536-0.243-5.795-3.17-11.401-8.778-16.678-18.405-17.218-60.74-27.795-110.031-27.712z" fill="#333333" p-id="28187"></path><path d="M528.274 743.17c-72.372 2.677-131.706-17.504-132.68-44.997-0.904-27.424 56.943-51.914 129.315-54.591s131.706 17.503 132.681 44.996c0.906 27.566-57.013 51.986-129.316 54.592z" fill="#FEB19D" p-id="28188"></path><path d="M515.316 762.49c-54.809 0.038-101.418-12.303-123.633-33.06-9.49-8.887-14.766-19.404-15.102-30.572-0.648-20.922 15.498-39.945 45.602-53.412 26.594-11.992 62.888-19.344 102.113-20.807 60.568-2.26 113.193 10.33 137.276 32.752 9.49 8.887 14.766 19.403 15.102 30.571 0.648 20.923-15.498 39.946-45.602 53.413-26.594 11.992-62.888 19.344-102.113 20.807-4.594 0.15-9.188 0.301-13.643 0.309z m22.478-118.143c-4.245-0.067-8.556 0.079-12.868 0.225-36.682 1.276-70.296 8.157-94.575 19.048-12.84 5.811-34.34 17.997-33.768 34.536 0.242 5.794 3.17 11.401 8.778 16.678 20.057 18.674 68.266 29.502 122.898 27.487 36.682-1.277 70.296-8.158 94.576-19.048 12.84-5.811 34.34-17.997 33.768-34.536-0.243-5.795-3.17-11.401-8.778-16.678-18.405-17.218-60.74-27.795-110.031-27.712z" fill="#333333" p-id="28189"></path><path d="M656.684 676.59c-72.302 2.606-131.778-17.572-132.753-45.066-2.073-62.057 52.506-71.213 124.878-73.891s140.633-5.85 142.96 62.568c1.063 32.584-62.782 53.784-135.085 56.39z" fill="#D34F30" p-id="28190"></path><path d="M643.867 695.909c-54.88-0.032-101.558-12.3-123.845-33.128-9.49-8.887-14.838-19.473-15.175-30.64-1.276-36.683 14.042-62.622 45.54-77.246 21.678-10.067 49.038-14.646 97.664-16.344 34.562-1.24 47.146-1.459 63.923-0.55 24.564 1.34 42.809 5.335 57.506 12.717 26.255 13.12 40.095 36.216 41.23 68.87 0.58 16.963-7.988 40.663-52.101 57.84-26.552 10.364-62.577 16.863-101.309 18.246a425.47 425.47 0 0 1-13.433 0.235z m12.73-20.236l0.387 9.965-0.386-9.965c36.61-1.347 70.31-7.31 94.826-16.86 18.333-7.18 40.04-19.582 39.426-38.525-0.86-25.02-10.703-41.892-30.108-51.596-12.2-6.081-28.029-9.412-49.69-10.59-16.07-0.921-28.3-0.637-62.154 0.59-45.657 1.646-70.904 5.764-89.986 14.584-24.133 11.17-34.913 29.676-33.988 58.372 0.242 5.795 3.17 11.402 8.777 16.679 20.055 18.532 68.264 29.36 122.897 27.346z" fill="#333333" p-id="28191"></path><path d="M658.944 648.05c-72.302 2.606-131.706-17.503-132.54-44.999s56.945-51.913 129.317-54.591 131.706 17.503 132.68 44.997c0.834 27.496-57.085 51.916-129.457 54.593z" fill="#FEB19D" p-id="28192"></path><path d="M646.055 667.3c-54.808 0.037-101.417-12.304-123.632-33.062-9.49-8.887-14.766-19.403-15.102-30.57-0.648-20.923 15.498-39.946 45.602-53.414 26.594-11.991 62.887-19.344 102.112-20.806 60.641-2.19 113.194 10.33 137.277 32.752 9.49 8.887 14.696 19.475 15.102 30.571 0.648 20.922-15.498 39.945-45.603 53.413-26.594 11.992-62.887 19.344-102.112 20.806l-0.386-9.965 0.386 9.965c-4.592 0.293-9.116 0.372-13.644 0.31z m22.55-118.075c-4.244-0.067-8.555 0.079-12.867 0.225-36.682 1.277-70.296 8.157-94.576 19.048-12.84 5.811-34.339 17.997-33.767 34.536 0.242 5.795 3.169 11.401 8.777 16.678 20.058 18.674 68.266 29.502 122.899 27.487 36.682-1.276 70.296-8.157 94.576-19.048 12.84-5.811 34.339-17.997 33.767-34.536-0.242-5.795-3.169-11.401-8.777-16.678-18.406-17.218-60.81-27.722-110.032-27.712z" fill="#333333" p-id="28193"></path><path d="M658.944 648.05c-72.302 2.606-131.706-17.503-132.54-44.999s56.945-51.913 129.317-54.591 131.706 17.503 132.68 44.997c0.834 27.496-57.085 51.916-129.457 54.593z" fill="#FEB19D" p-id="28194"></path><path d="M646.055 667.3c-54.808 0.037-101.417-12.304-123.632-33.062-9.49-8.887-14.766-19.403-15.102-30.57-0.648-20.923 15.498-39.946 45.602-53.414 26.594-11.991 62.887-19.344 102.112-20.806 60.641-2.19 113.194 10.33 137.277 32.752 9.49 8.887 14.696 19.475 15.102 30.571 0.648 20.922-15.498 39.945-45.603 53.413-26.594 11.992-62.887 19.344-102.112 20.806l-0.386-9.965 0.386 9.965c-4.592 0.293-9.116 0.372-13.644 0.31z m22.55-118.075c-4.244-0.067-8.555 0.079-12.867 0.225-36.682 1.277-70.296 8.157-94.576 19.048-12.84 5.811-34.339 17.997-33.767 34.536 0.242 5.795 3.169 11.401 8.777 16.678 20.058 18.674 68.266 29.502 122.899 27.487 36.682-1.276 70.296-8.157 94.576-19.048 12.84-5.811 34.339-17.997 33.767-34.536-0.242-5.795-3.169-11.401-8.777-16.678-18.406-17.218-60.81-27.722-110.032-27.712z" fill="#333333" p-id="28195"></path></svg>