<?xml version="1.0" standalone="no"?><!DOCTYPE svg PUBLIC "-//W3C//DTD SVG 1.1//EN" "http://www.w3.org/Graphics/SVG/1.1/DTD/svg11.dtd"><svg t="1545199808802" class="icon" style="" viewBox="0 0 1024 1024" version="1.1" xmlns="http://www.w3.org/2000/svg" p-id="16383" xmlns:xlink="http://www.w3.org/1999/xlink" width="64" height="64"><defs><style type="text/css"></style></defs><path d="M332.1 557.2c-1-6.5 23.7-13 29.1-16.9 43-31.3 78.3-38.5 88.8-85.5 17.5-78.7 14.4-96.8 20.7-170.2 1.7-20.3-27.5-20.4-26.6 0 2.4 45.1 2.4 34.3 0 79.5-2.4 46.1 0.5 98.1-39.8 128.7-10.7 7.8-51.9 23.5-63.5 30.8-1-0.5-1.6-23-2.4-23.5C282 471 288 384.4 322 361.1c8.7-6.3 8.3-17 3.4-23.8 0-0.5-0.5-1.4-1-1.9-50.5-54.4-59.2-103.4-23.3-163.1 30.6-50 80.6-54.4 133.5-52.9 63.6 1 97.6 28.2 116.5 88.4 8.3 26.7 24.6 54.9 10 81.1-10.7 18.5 7.8 33-8.2 47.1-7.8 6.8-11.8 16.5-5.5 21.8 0 0.5-9.5 0.5-9.5 1 21.4 30.1 31.1 62.6 29.6 99 0 2.4-29.5 4.9-28.5 6.8-7.8 15-7.3 31.1-13.1 47.1-8.3 22.8-25.2 38.4-46.6 47.1-1.9-1-3.9-1.9-6.3-1.9-44.3-3.7-78.6-1.2-114.8 17.3-10.7 5.5-23.7-1.1-25.5-13.1l-0.6-3.9z" fill="#6C9A35" p-id="16384"></path><path d="M484.5 661.6c-10.5-1.6-16.3-13-11.5-22.5 16.3-31.9 18.5-62.2 15.2-101.1 0-2.1-0.9-3.8-1.7-5.6 7.7-18.8 21.4-33.8 41.5-41 14.1-5.1 28.2-4.7 41.5-11.5 1.7 0.9 3.8 1.3 6 1.3 32.1-1.3 60.7 7.3 87.2 26.1 0.4 0 0.4 0.4 0.9 0.4 4.7 5.6 13.3 7.3 19.2 0.4 12.4-14.1 25.2-29.5 41.5-38.9 23.1-12.8 47.9-7.3 71.4 0 53 16.7 77 46.6 77.8 102.6 1.3 46.6-2.6 90.6-46.6 117.6-52.6 31.6-97.1 9-143.7-20.5-0.4-0.4-1.3-0.9-1.7-0.9-6-4.3-15.4-4.7-21 3-20.5 29.9-131.3 50.5-133.8-5.6 0-0.9 0-1.3-0.4-2.1 6.4-10.3 13.3-20.1 20.1-29.5 26.9-35.5 72.7-32.9 113.3-35.1 39.8-2.1 79.5-2.1 119.3 0 18 0.9 18-26.9 0-27.8-65-3-137.2-6.2-201 8.6-44.8 10.4-47.7 38.5-75.3 76.4-3.4 4.7-9.2 7.1-14.9 6.2l-3.3-0.5z" fill="#6C9A35" p-id="16385"></path><path d="M874.5 573.7c-0.5-30.4-7.8-53.2-22.8-70.3 4.5 12.4 7.1 26.2 7.8 41.7 3 61.6-3.8 119.3-61.1 151.8-6.3 3.8-12.5 7-18.7 9.7 15.5-0.6 31.5-5.1 48.4-15.2 43.8-27 47.7-71 46.4-117.7z" fill="#53801E" p-id="16386"></path><path d="M735.2 284.4c47.5 40.6 38.1 100.9 8.6 148.8 0 0 0 0.4-0.4 0.4-4.3 0.4-8.6 1.3-12.4 2.1-24.4 6.8-43.6 24.8-60.7 43.6-21-13.7-44.5-22.2-69.3-25.2 20.5-20.1 38.9-43.6 57.7-62.9 12.4-12.8-7.3-32.5-19.7-19.7-19.2 19.7-38.1 39.8-57.3 59.4-1.7 1.7-3.4 3.4-4.7 5.1-0.9-26.5-3.4-53-7.3-79.5 9.4-14.5 10.3-33.8 11.5-53 0-4.3 0.4-8.6 0.9-12.8 1.7-0.9 3.4-1.7 4.7-3.4 41.1-46.1 103.1-41.8 148.4-2.9z" fill="#6C9A35" p-id="16387"></path><path d="M724.3 437.9c9 1.7 17.7 4.1 26.1 6.8 24-45.7 31.7-117 0.4-154-0.2-0.3-23.3-23.3-30-18.3-1.7 1.3 9.4 23.6 13.4 34.1 21.5 43.5 12.8 88.4-9.9 131.4z" fill="#53801E" p-id="16388"></path><path d="M325.1 335.3c4.9 6.8 5.3 17.5-3.4 23.8-34 23.3-40 109.9 16.3 139 0.9 0.4 1.5 23 2.4 23.5 4.9-3.1 15.2-7.7 26.2-12.6-35.6-29.1-37.8-97.7-8.9-134.9 5.7-7.4 4.7-18-2.4-24.1-38.2-33.1-53.3-81-42.7-137.4 8.5-45.7 35-76.3 71.2-93.5-33.1 4.4-62.5 17.4-83.1 51.1-35.8 59.8-27.1 108.8 23.4 163.2 0.5 0.5 1 1.4 1 1.9zM600.5 503.6c22.4 2.7 43.7 9.9 63.1 21.4 3.7 2.2 8.4 1.5 11.3-1.6 15.8-16.7 33.6-32 55.6-38.1 3.8-0.9 8.1-1.7 12.4-2.1 0.4 0 0.4-0.4 0.4-0.4l12.3-0.6c7-0.3 14 0.4 20.8 2.1 13.3 2.6 25.7 6.4 37.6 10.7 22 7.9 40.2 18.3 54.2 31.8-10.8-28.6-33.6-46.6-70.4-58.2-4.1-1.3-8.3-2.5-12.5-3.6l-10.3-2.6-20.3-1.3c-10.5 0-21 2-31.2 7.7-16.3 9.4-29.1 24.8-41.5 38.9-6 6.8-14.5 5.1-19.2-0.4-0.4 0-0.4-0.4-0.9-0.4-14.1-10-28.7-17.1-44.2-21.3l-22.8-5.3c-8.9-0.9-17.8-2.8-26.6-1.7l-21 7.6c-6.7 1.3-13.4 2.5-20.2 5-20 7.2-33.7 22.2-41.4 40.9 7.1-6.2 15.2-11.4 24.3-15.3 10.3-4.3 19.2-6.3 29.5-9.7 3-0.9 5.6-0.7 8.1-2l14.4-1.3c13-2.4 25.9-2.4 38.5-0.2z" fill="#A6C285" p-id="16389"></path><path d="M900.4 560.1c-2.6-59-33.4-94.9-88.5-114.6-12-4.3-24.4-8.1-37.6-10.7 32.1-60.7 31.2-131.3-27.4-177-50.5-38.9-115.4-44.5-164.2-6 0-21-1.7-41.9-9.4-60.7-26.5-65.8-104.3-96.2-170.6-92.3-69.3 4.3-125.7 38.9-139 109.9-12 63.3 8.6 115.9 57.7 148.8-42.8 32.5-44 119.3-0.4 150.1 14.5 10.3 28.6-13.7 14.1-23.9-29.9-21-21.8-98.8 13.7-109 2.6-0.9 4.3-1.7 5.6-3.4 10.3-3.4 15.8-18.8 3.4-24.8-27.4-13.3-50.9-27.4-62-57.7-8.1-22.7-9.4-48.7-5.6-72.7 10.3-58.6 55.2-85.5 112-89.4 51.7-3.4 109.9 15.8 138.1 62 13.3 21.4 12.8 45.3 12.8 69.7 0 23.5 6.8 78.7-18.8 91.1-14.1 6.8-4.7 26.9 9 25.7 3.4 26.9 5.1 53.9 5.1 81.2-2.6 1.3-5.1 2.1-8.1 3-10.3 3.4-19.2 3.4-29.5 7.7-25.7 11.1-43.2 32.1-52.6 57.3l-0.4 0.4c-70.6 57.7-149.7 103.5-221.9 159.1-32.1 24.8-64.1 50.5-80.8 83.4-0.9-8.1-1.3-15.8-1.3-23.1-1.3-34.2 3.8-68.8 27.4-95.4 41.9-46.6 114.2-81.2 171-104.3 44.9-18.4 80-33.8 97.9-82.5 21-55.6 16.7-122.7 20.5-181.3 1.3-18-26.5-18-27.8 0-2.6 35.9-4.3 71.8-7.3 107.8-3 35.9-7.7 77.8-37.2 103-24.4 21-62 28.6-91.1 42.3-29.5 14.1-58.2 30.4-85.5 48.3-47 31.6-86.4 63.3-94.9 122.3-7.3 50 0.4 119.7 26.1 163.8 1.3 2.1 2.6 3.8 4.3 4.7 0 0.4 0.4 0.9 0.4 0.9 2.1 4.3 6 7.7 12 7.7h2.1c26.9 10.7 49.2 30.4 77.4 39.3 24.8 7.7 51.7 8.6 77 2.1 55.2-13.7 92.8-62.9 124-107.3 18-25.7 26.9-53.4 38.5-82.5 5.1-12.8 11.1-25.7 17.5-38.5 30.4 47.9 126.1 38.9 166.8 0.4 53.9 33.4 107.3 53 166.3 17.1 57.4-32.7 64.2-90.4 61.2-152z m-165-275.8c47.5 40.6 38.1 100.9 8.6 148.8 0 0 0 0.4-0.4 0.4-4.3 0.4-8.6 1.3-12.4 2.1-24.4 6.8-43.6 24.8-60.7 43.6-21-13.7-44.5-22.2-69.3-25.2 20.5-20.1 38.9-43.6 57.7-62.9 12.4-12.8-7.3-32.5-19.7-19.7-19.2 19.7-38.1 39.8-57.3 59.4-1.7 1.7-3.4 3.4-4.7 5.1-0.9-26.5-3.4-53-7.3-79.5 9.4-14.5 10.3-33.8 11.5-53 0-4.3 0.4-8.6 0.9-12.8 1.7-0.9 3.4-1.7 4.7-3.4 41-46 103-41.8 148.4-2.9zM175.2 841.5c-23.5-82.5 78.7-136.8 135.1-175.7 50.5-34.6 101.8-68.4 150.1-106 0.4 33.8-6.4 62-27.4 92.8-22.2 32.9-42.8 66.3-62.4 100.9-18 31.2-36.8 77.8-71 93.6-34.2 15.8-83.4 10.7-121.9 9h-0.4l-2.6-5.1c1.4-3.5 1.4-6.5 0.5-9.5zM826 689.7c-52.6 31.6-97.1 9-143.7-20.5-0.4-0.4-1.3-0.9-1.7-0.9-6-4.3-15.4-4.7-21 3-20.5 29.9-131.3 50.5-133.8-5.6 0-0.9 0-1.3-0.4-2.1 6.4-10.3 13.3-20.1 20.1-29.5 26.9-35.5 72.7-32.9 113.3-35.1 39.8-2.1 79.5-2.1 119.3 0 18 0.9 18-26.9 0-27.8-65-3-137.3-6.4-201 8.6-53.4 12.8-81.2 75.7-103 121-14.5 30.4-22.2 63.7-40.6 92.4-17.1 27.4-39.3 55.6-63.3 77-30.4 27.4-73.5 38.1-112.9 25.2-8.1-2.6-15.4-6-22.7-9.8 26.9 0 53.5-2.6 75.7-12.4 35.1-15.8 53.9-52.6 72.3-84.2 25.2-43.2 50.5-85.9 78.2-127.4 26.5-39.3 30.4-76.5 26.5-123.1 0-2.1-0.9-3.8-1.7-5.6 7.7-18.8 21.4-33.8 41.5-41 14.1-5.1 28.2-4.7 41.5-11.5 1.7 0.9 3.8 1.3 6 1.3 32.1-1.3 60.7 7.3 87.2 26.1 0.4 0 0.4 0.4 0.9 0.4 4.7 5.6 13.3 7.3 19.2 0.4 12.4-14.1 25.2-29.5 41.5-38.9 23.1-12.8 47.9-7.3 71.4 0 53 16.7 77 46.6 77.8 102.6 1.3 46.4-2.6 90.5-46.6 117.4z m0 0" fill="#333333" p-id="16390"></path><path d="M731.1 435.7c3.8-0.9 8.1-1.7 12.4-2.1 0.4 0 0.4-0.4 0.4-0.4 4.3-7 8.2-14.3 11.5-21.7-10.5 0-21 2-31.2 7.7-16.3 9.4-29.1 24.8-41.5 38.9-6 6.8-14.5 5.1-19.2-0.4-0.4 0-0.4-0.4-0.9-0.4-14.1-10-28.7-17.1-44.2-21.3-5.7 6.2-11.5 12.4-17.4 18.2 24.8 3 48.3 11.5 69.3 25.2 17.2-18.9 36.4-36.9 60.8-43.7zM486.6 482.3c7.1-6.2 15.2-11.4 24.3-15.3 10.3-4.3 19.2-4.3 29.5-7.7 3-0.9 5.6-1.7 8.1-3 0-6.6-0.1-13.2-0.3-19.8-6.7 1.3-13.4 2.5-20.2 5-20 7.1-33.7 22-41.4 40.8z" fill="#53801E" p-id="16391"></path><path d="M577.2 436.1c1.3-1.7 3-3.4 4.7-5.1-1.6 0-3.3 0-4.9 0.1 0 1.6 0.1 3.3 0.2 5zM774.3 434.9c13.3 2.6 25.7 6.4 37.6 10.7 22 7.9 40.2 18.3 54.2 31.8-10.8-28.6-33.6-46.6-70.4-58.2-4.1-1.3-8.3-2.5-12.5-3.6-2.6 6.5-5.6 12.9-8.9 19.3z" fill="#6C9A35" p-id="16392"></path></svg>