<?xml version="1.0" standalone="no"?><!DOCTYPE svg PUBLIC "-//W3C//DTD SVG 1.1//EN" "http://www.w3.org/Graphics/SVG/1.1/DTD/svg11.dtd"><svg t="1545202578047" class="icon" style="" viewBox="0 0 1024 1024" version="1.1" xmlns="http://www.w3.org/2000/svg" p-id="25967" xmlns:xlink="http://www.w3.org/1999/xlink" width="64" height="64"><defs><style type="text/css"></style></defs><path d="M512 512m-512 0a512 512 0 1 0 1024 0 512 512 0 1 0-1024 0Z" fill="#EDEDEE" p-id="25968"></path><path d="M512 512m-388.414 0a388.414 388.414 0 1 0 776.828 0 388.414 388.414 0 1 0-776.828 0Z" fill="#DCDBDE" p-id="25969"></path><path d="M703.192 759.176c-7.272 20.57-26.888 35.306-49.95 35.306 0 29.252-23.714 52.966-52.966 52.966-8.748 0-16.878-2.324-24.15-6.08-11.134 24.37-35.582 41.39-64.126 41.39s-52.992-17.02-64.126-41.39c-7.272 3.756-15.4 6.08-24.15 6.08-29.252 0-52.966-23.714-52.966-52.966-23.082 0-42.714-14.764-49.97-35.364l49.97-88.222H653.24l49.952 88.28zM878.458 522.196c23.38-11.508 39.612-35.34 39.612-63.162 0-28.546-17.018-52.992-41.39-64.126 3.758-7.272 6.08-15.4 6.08-24.15 0-29.252-23.714-52.966-52.966-52.966-6.348 0-12.352 1.3-17.992 3.348 0.072-1.128 0.338-2.2 0.338-3.348 0-29.252-23.714-52.966-52.966-52.966s-52.966 23.714-52.966 52.966l35.308 361.308a70.27 70.27 0 0 0 35.312 9.45c39.002 0 70.62-31.618 70.62-70.62 29.252 0 52.966-23.714 52.966-52.966 0-17.632-8.706-33.14-21.956-42.768z" fill="#8CE16E" p-id="25970"></path><path d="M264.828 776.828v52.966c0 6.914-7.484 17.742-12.482 22.828a17.65 17.65 0 0 0 0 24.966 17.59 17.59 0 0 0 12.482 5.172 17.592 17.592 0 0 0 12.482-5.172c2.346-2.328 22.828-23.518 22.828-47.794v-52.966h-35.31zM771.708 852.674c-5.052-5.138-12.536-15.964-12.536-22.878v-52.966h-35.31v52.966c0 24.276 20.482 45.466 22.828 47.792a17.47 17.47 0 0 0 12.45 5.156c4.5 0 9-1.706 12.45-5.138 6.892-6.846 6.928-18.002 0.118-24.932z" fill="#963C2D" p-id="25971"></path><path d="M264.83 264.828c-29.252 0-52.966 23.714-52.966 52.966 0 1.148 0.264 2.218 0.338 3.348-5.64-2.048-11.644-3.348-17.992-3.348-29.252 0-52.966 23.714-52.966 52.966 0 8.748 2.324 16.878 6.08 24.15-24.372 11.134-41.39 35.582-41.39 64.126 0 27.822 16.232 51.65 39.614 63.162-13.25 9.626-21.958 25.136-21.958 42.77 0 29.252 23.714 52.966 52.966 52.966 0 39.002 31.618 70.62 70.62 70.62 12.864 0 24.924-3.44 35.312-9.45l35.308-361.308c0-29.256-23.714-52.968-52.966-52.968z" fill="#8CE16E" p-id="25972"></path><path d="M300.138 494.344h-88.276a17.646 17.646 0 0 1-17.656-17.656 17.646 17.646 0 0 1 17.656-17.656h88.276a17.646 17.646 0 0 1 17.656 17.656 17.646 17.646 0 0 1-17.656 17.656zM317.81 441.38a17.52 17.52 0 0 1-4.292-0.534l-70.62-17.656c-9.466-2.362-15.224-11.948-12.844-21.396 2.362-9.484 11.912-15.276 21.396-12.844l70.62 17.656c9.466 2.362 15.224 11.948 12.844 21.396a17.632 17.632 0 0 1-17.104 13.378zM706.192 441.38a17.632 17.632 0 0 1-17.104-13.38c-2.38-9.448 3.378-19.034 12.844-21.396l70.62-17.656c9.414-2.414 19.034 3.378 21.396 12.844 2.38 9.448-3.378 19.034-12.844 21.396l-70.62 17.656a17.45 17.45 0 0 1-4.292 0.536zM247.154 564.966a17.632 17.632 0 0 1-17.104-13.38c-2.38-9.448 3.378-19.034 12.844-21.396l63.964-16c9.396-2.414 19.034 3.362 21.396 12.844 2.38 9.448-3.378 19.034-12.844 21.396l-63.964 16a17.402 17.402 0 0 1-4.292 0.536zM812.138 494.344h-88.276a17.646 17.646 0 0 1-17.656-17.656 17.646 17.646 0 0 1 17.656-17.656h88.276a17.646 17.646 0 0 1 17.656 17.656 17.646 17.646 0 0 1-17.656 17.656zM776.846 564.966a17.52 17.52 0 0 1-4.292-0.534l-63.964-16c-9.466-2.362-15.224-11.948-12.844-21.396 2.362-9.484 11.93-15.276 21.396-12.844l63.964 16c9.466 2.362 15.224 11.948 12.844 21.396a17.632 17.632 0 0 1-17.104 13.378zM586.758 758.14a17.632 17.632 0 0 1-17.104-13.38l-8.312-33.242c-2.38-9.448 3.378-19.034 12.844-21.396 9.448-2.38 19.034 3.362 21.396 12.844l8.312 33.242c2.38 9.448-3.378 19.034-12.844 21.396a17.51 17.51 0 0 1-4.292 0.536zM512 812.138a17.646 17.646 0 0 1-17.656-17.656v-70.62a17.646 17.646 0 0 1 17.656-17.656 17.646 17.646 0 0 1 17.656 17.656v70.62a17.646 17.646 0 0 1-17.656 17.656zM437.19 758.122a17.106 17.106 0 0 1-4.242-0.516c-9.466-2.328-15.258-11.898-12.914-21.362l9.294-37.724c2.346-9.466 11.966-15.326 21.362-12.914 9.466 2.328 15.258 11.898 12.914 21.362l-9.294 37.724a17.648 17.648 0 0 1-17.12 13.43z" fill="#7DC86E" p-id="25973"></path><path d="M739.656 548.242c-8.484-16.948-15.794-31.586-15.794-53.896V282.482c0-87.62-71.276-158.896-158.896-158.896h-105.932c-87.62 0-158.896 71.276-158.896 158.896v211.862c0 22.31-7.312 36.948-15.792 53.896-9.156 18.292-19.518 39.036-19.518 69.69v158.896a17.646 17.646 0 0 0 17.656 17.656c34.966 0 56.552-26.966 75.586-50.758 16.104-20.138 30-37.518 48-37.518 24.414 0 39.43 8.706 55.344 17.948 14.742 8.534 29.966 17.362 50.586 17.362s35.844-8.828 50.586-17.362c15.914-9.24 30.932-17.948 55.344-17.948 18 0 31.896 17.38 48 37.518 19.034 23.792 40.62 50.758 75.586 50.758a17.646 17.646 0 0 0 17.656-17.656v-158.896c0-30.652-10.36-51.396-19.516-69.688z" fill="#B4563C" p-id="25974"></path><path d="M729.048 524.472c2.846 8.11 6.566 15.694 10.608 23.77 9.154 18.292 19.516 39.036 19.516 69.69v158.896c0 9.948-8.284 17.736-18.234 17.652-34.626-0.296-56.08-27.094-75.008-50.756-16.104-20.138-30-37.518-48-37.518v-41.368c0-18.73 7.44-36.692 20.686-49.936l90.432-90.43zM388.414 494.344V282.482c0-87.62 71.276-158.896 158.896-158.896h-88.276c-87.758 0-158.896 71.142-158.896 158.896v211.862c0 11.676-2.062 21.222-5.186 30.124-2.846 8.11-6.566 15.694-10.608 23.77-9.154 18.296-19.516 39.038-19.516 69.692v158.896c0 9.948 8.282 17.736 18.234 17.65 34.626-0.294 56.08-27.094 75.008-50.756 16.104-20.138 30-37.518 48-37.518v-41.368c0-18.73-7.44-36.692-20.686-49.936l-20.592-20.592c-4.596-4.596-6.516-11.434-4.438-17.594 3.558-10.544 7.964-19.878 12.268-28.474 8.482-16.946 15.792-31.582 15.792-53.894z" fill="#A54A34" p-id="25975"></path><path d="M512 670.896m-35.31 0a35.31 35.31 0 1 0 70.62 0 35.31 35.31 0 1 0-70.62 0Z" fill="#A54A34" p-id="25976"></path></svg>