<?xml version="1.0" standalone="no"?><!DOCTYPE svg PUBLIC "-//W3C//DTD SVG 1.1//EN" "http://www.w3.org/Graphics/SVG/1.1/DTD/svg11.dtd"><svg t="1545201498540" class="icon" style="" viewBox="0 0 1024 1024" version="1.1" xmlns="http://www.w3.org/2000/svg" p-id="1487" xmlns:xlink="http://www.w3.org/1999/xlink" width="64" height="64"><defs><style type="text/css"></style></defs><path d="M266.074 568.812c-104.188 14.542-144.22-42.597-152.982-104.973s13.7-129.27 117.975-143.861c232.1-32.39 596.621-65.022 612.081 44.755S498.398 536.41 266.074 568.812z" fill="#5F8D19" p-id="1488"></path><path d="M234.852 571.134c-33.378-0.013-60.556-8.686-81.037-25.96-21.75-18.273-35.805-46.416-40.723-81.335-4.932-35.142 0.822-66.177 16.605-89.839 19.443-29.123 53.522-47.297 101.42-53.936 156.04-21.73 286.367-32.197 387.338-30.91 142.302 1.674 217.978 27.148 224.78 75.53 3.522 25.101-12.718 49.373-48.277 71.982-32.629 20.685-82.192 40.64-147.39 59.114-93.739 26.639-214.88 49.815-381.494 73.032a230.915 230.915 0 0 1-31.222 2.322z m366.971-264.987c-97.666 0.038-221.507 10.338-368.299 30.887-42.74 5.97-72.849 21.622-89.458 46.453-13.443 20.117-18.185 47.103-13.918 77.895 4.304 30.655 16.346 55.11 34.747 70.583 22.783 19.062 55.98 25.76 98.858 19.827 165.634-23.114 286.156-46.163 379.103-72.575 123.433-35.006 188.561-74.802 183.322-112.076-2.56-18.036-20.895-32.392-54.543-42.872-35.747-11.116-87.36-17.113-153.45-17.984-5.385-0.125-10.805-0.113-16.362-0.138z" fill="#333333" p-id="1489"></path><path d="M331.8 540c83.9 0 235.3-33.3 305.3-45 103.6-17.3 237.8-127.5 237.8-139.7 0-12.5-130.9 63.6-262.1 67.5-94.6 2.8-184.1-33.1-263.6-36-188.4-6.9-220.8 27.8-220.8 64.9s21 88.3 203.4 88.3z" fill="#468B39" p-id="1490"></path><path d="M331.8 548.6c-83.4 0-140.5-10.3-174.7-31.6-25.2-15.6-37.4-37-37.4-65.4 0-16 5.3-28.9 16.3-39.4 28.6-27.6 96.4-38.4 213.5-34.1 35.5 1.3 72.2 8.9 111.1 16.9 49 10.1 99.8 20.6 152 19.1 85.3-2.5 172.5-36.9 219.3-55.4 33.6-13.3 41-15.9 47.3-11.6 2.7 1.8 4.3 4.8 4.3 8.1s0 8.9-25.6 31c-16.1 13.9-36.8 29.6-58.3 44-34.2 23-100.6 63-161.1 73.1-16.2 2.7-36.5 6.5-60.1 11-76.6 14.6-181.5 34.3-246.6 34.3z m-27.7-154.1c-82.9 0-135.4 10.1-156.2 30.1-7.5 7.2-11 15.8-11 27 0 28.9 15.6 42.3 29.3 50.8 30.9 19.2 86.6 29 165.6 29 63.6 0 167.5-19.6 243.4-33.8 23.6-4.4 44-8.3 60.4-11 55.5-9.3 117.5-46.1 149.6-67.2 28.3-18.7 51-36.6 65.2-49.2-3.9 1.5-8.1 3.2-12.2 4.8-47.8 18.9-136.8 53.9-225.1 56.6-54.2 1.6-105.9-9.1-156-19.4-38.2-7.9-74.2-15.3-108.3-16.6-15.7-0.8-30.7-1.1-44.7-1.1z m562.6-41.3z" fill="#333333" p-id="1491"></path><path d="M362.3 280c83.9 0 207.8 24.6 277.8 36.3 103.6 17.3 202.3-2.3 202.3 9.8 0 12.5-98.4 80.1-229.6 76.2-94.6-2.8-184.1 33.1-263.6 36-188.4 6.9-220.8-27.8-220.8-64.9S179.9 280 362.3 280z" fill="#468B39" p-id="1492"></path><path d="M302.8 447.9c-88.8 0-142.3-11.3-166.8-35-10.9-10.5-16.3-23.4-16.3-39.4 0-12.1 5.2-43.1 53.2-68.3 42.8-22.5 106.5-33.8 189.4-33.8 71 0 169.3 17.2 241.2 29.8 13.7 2.4 26.7 4.7 38.1 6.6 58.1 9.7 115.2 7.6 153.1 6.2 35.6-1.3 47.1-1.4 53.1 4.3 2.2 2.1 3.3 4.8 3.3 7.8 0 4.4-2.5 8.8-8.2 14.3-11.5 11.2-39.7 29.8-81.1 45.4-33.2 12.5-86.1 27-149.2 25.1-52.2-1.5-102.9 8.9-152 19.1-38.9 8-75.6 15.6-111.1 16.9-16.5 0.7-32.1 1-46.7 1z m59.5-159.3c-79 0-141.7 11-181.4 31.9-39.7 20.8-44 44-44 53 0 11.2 3.5 19.8 11 27 24.3 23.4 91.9 33.3 200.9 29.3 34.1-1.3 70.1-8.7 108.3-16.6 50-10.3 101.8-21 156-19.4 66.3 2 120.8-14.7 154.9-28.9 30.5-12.8 50.7-26.2 60.1-34.2-8.4-0.2-21.2 0.2-32.9 0.7-38.5 1.4-96.7 3.5-156.5-6.5-11.4-1.9-24.4-4.2-38.2-6.6-71.2-12.6-168.7-29.7-238.2-29.7z m471.8 35.7z" fill="#333333" p-id="1493"></path><path d="M333.5 317.8c83.9 0 212.9 0 296.2 23.6C776 383 840.9 484.2 840.9 499.1c0 15.4-114-34.8-245.2-39.5-94.6-3.5-167.1 35.9-246.6 39.5-188.4 8.5-220.8-34.3-220.8-79.9s22.8-101.4 205.2-101.4z" fill="#70B434" p-id="1494"></path><path d="M835.3 510.6c-8.8 0-23.2-3.5-50.2-10.4-45.7-11.7-114.8-29.3-189.6-32.1-52-1.9-97.5 9.6-141.5 20.6-35.3 8.9-68.7 17.3-104.3 18.9-57.5 2.6-104.3 0.5-139.2-6.2-32-6.1-54.8-16.1-69.7-30.4-14-13.4-20.8-30.4-20.8-52 0-20.9 3.9-51.5 37.9-74.9 34.2-23.6 91.8-35.1 175.8-35.1 85.2 0 214 0 298.5 24 79.6 22.6 133.2 61.8 164.1 90.8 33.5 31.4 53.5 62.8 53.5 75.1 0 3.4-1.5 6.6-4.2 8.7-2.8 2.1-5.8 3-10.3 3z m-251.4-59.9c4 0 8.1 0.1 12.2 0.2 76.7 2.8 146.8 20.7 193.2 32.6 15.6 4 31.6 8.1 40.6 9.4-5.3-10.6-19.4-32.3-47.2-57.9-29.3-27.1-80.1-63.9-155.4-85.3-82.2-23.3-209.6-23.3-293.8-23.3-79.4 0-135.2 10.8-166.1 32-27 18.6-30.4 42.2-30.4 60.7 0 16.9 4.9 29.4 15.5 39.5 27 25.8 93 36.5 196.3 31.8 33.9-1.5 66.4-9.7 100.9-18.4 41.8-10.4 84.9-21.3 134.2-21.3z" fill="#333333" p-id="1495"></path><path d="M118.9 435.7a49.5 21.9 90 1 0 43.8 0 49.5 21.9 90 1 0-43.8 0Z" fill="#5A9329" p-id="1496"></path><path d="M140.8 493.8c-5.5 0-15.8-2.5-23.4-19.6-4.6-10.4-7.2-24.1-7.2-38.5s2.5-28 7.2-38.5c7.6-17.1 17.9-19.6 23.4-19.6s15.8 2.5 23.4 19.6c4.6 10.4 7.2 24.1 7.2 38.5s-2.5 28-7.2 38.5c-7.6 17-17.9 19.6-23.4 19.6z m0-98.9c-3.9 0-13.3 14.3-13.3 40.9s9.5 40.9 13.3 40.9 13.3-14.3 13.3-40.9-9.4-40.9-13.3-40.9z" fill="#333333" p-id="1497"></path><path d="M110.3 434a36.6 13.3 90 1 0 26.6 0 36.6 13.3 90 1 0-26.6 0Z" fill="#70B434" p-id="1498"></path><path d="M123.6 479.2c-10 0-15.3-10.3-17.5-16.4-2.9-7.8-4.4-18.1-4.4-28.8 0-22.5 6.8-45.2 21.9-45.2 10 0 15.3 10.3 17.5 16.4 2.9 7.8 4.4 18.1 4.4 28.8 0 22.5-6.7 45.2-21.9 45.2z m0-71.3c-2.2 4.1-4.7 13.3-4.7 26.1s2.6 22 4.7 26.1c2.2-4.1 4.7-13.3 4.7-26.1s-2.5-21.9-4.7-26.1z" fill="#333333" p-id="1499"></path><path d="M777 552.5c97.5 39.5 103.6 109 80 167.4-23.6 58.4-76.5 105.1-174.1 65.6-217.2-88-549.2-242-507.7-344.8S559.6 464.4 777 552.5z" fill="#FFD622" p-id="1500"></path><path d="M181.6 485.7l9.1-14.6c7.8 4.9 15.6 9.8 23.3 14.6l-9.1 14.6c-7.7-4.8-15.5-9.7-23.3-14.6z m35.1 21.9l9.1-14.6c7.9 4.9 15.7 9.7 23.4 14.4l-9 14.7c-7.8-4.8-15.6-9.6-23.5-14.5z m35.2 21.6l9-14.7c7.9 4.8 15.7 9.6 23.5 14.3l-8.9 14.7c-7.8-4.6-15.7-9.4-23.6-14.3z m35.3 21.5l8.9-14.7c8 4.8 15.8 9.5 23.6 14.1l-8.8 14.8c-7.8-4.7-15.7-9.4-23.7-14.2z m35.5 21.1l8.8-14.8c8 4.7 15.9 9.4 23.7 13.9l-8.7 14.9c-7.8-4.6-15.8-9.2-23.8-14z m35.8 21l8.6-14.9c8 4.7 16 9.2 23.8 13.7l-8.5 14.9c-7.9-4.5-15.9-9.1-23.9-13.7z m35.8 20.5l8.5-15c8.1 4.6 16.1 9.1 23.9 13.4l-8.4 15c-7.8-4.3-15.8-8.8-24-13.4z m36.2 20.2l8.3-15.1c8.2 4.5 16.2 8.9 24.1 13.1l-8.2 15.1c-7.9-4.2-16-8.6-24.2-13.1z m36.4 19.7L475 638c8.2 4.4 16.3 8.6 24.3 12.8l-7.9 15.3c-8.1-4.2-16.2-8.5-24.5-12.9z m36.7 19.2l7.9-15.3c8.3 4.3 16.5 8.4 24.5 12.4l-7.7 15.4c-8.1-4-16.3-8.2-24.7-12.5z m37 18.6l7.6-15.5c8.4 4.1 16.7 8.1 24.7 11.8l-7.3 15.6c-8.1-3.8-16.5-7.8-25-11.9z m37.6 17.8l7.2-15.6c8.5 3.9 16.9 7.6 25 11.2l-6.9 15.8c-8.3-3.7-16.7-7.5-25.3-11.4z m38 16.7l6.7-15.9c8.7 3.7 17.1 7.1 25.3 10.3l-6.3 16c-8.3-3.2-16.9-6.6-25.7-10.4z m38.7 15.4l6-16.1c8.9 3.3 17.4 6.3 25.7 9l-5.4 16.3c-8.4-2.7-17.2-5.8-26.3-9.2z m39.6 13.5l5-16.5c9.1 2.8 17.8 5.1 26.1 7.1l-3.9 16.7c-8.7-2-17.7-4.5-27.2-7.3z m40.9 10.2l3.3-16.9c0.1 0 0.1 0 0.3 0.1 8.5 1.6 17 2.4 25.3 2.2l0.3 17.2c-9.6 0.2-19.2-0.6-28.9-2.5-0.2 0-0.2 0-0.3-0.1z m43.9 1.5L777 749c8.4-1.1 16.7-3.1 24.9-6.1l5.8 16.2c-9.3 3.4-18.8 5.7-28.4 7zM208.4 431l3.2-14.6c9.1 2 18 4 26.9 6l-3.8 16.8c-1.7-0.4-3.3-0.8-5-1.1l-4.7 14.3h0.1l-0.2 0.4-0.5 1.5c-0.1 0-0.2-0.1-0.3-0.1l-7.7 13c-7.8-4.7-15.7-9.4-23.7-14.2l7-11.7 3.9-12c1.6 0.6 3.2 1.2 4.8 1.7z m631.2 298.4l6.6 9.5c-8.2 5.7-16.5 10.6-25 14.6l-7.4-15.5c1.7-0.8 3.4-1.7 5.1-2.6-8.3-1.9-16.8-4.1-25.6-6.4l4.4-16.6c9.1 2.4 17.9 4.6 26.4 6.6l-3.6 15.6c5.3-2.8 10.5-6.1 15.7-9.7l0.4 0.6 0.7-3.5c1.2 0.2 2.3 0.5 3.5 0.7l-1.2 6.7zM248.2 442.2l3.8-16.8c9.1 2.1 18 4.1 26.9 6.2l-3.9 16.8c-8.8-2.1-17.8-4.1-26.8-6.2z m40.2 9.3l3.9-16.8c9.1 2.1 18 4.2 26.8 6.3l-4 16.7c-8.8-2-17.7-4.1-26.7-6.2z m40.1 9.5l4-16.7c9 2.2 18 4.4 26.8 6.5l-4.1 16.7c-8.8-2.1-17.7-4.3-26.7-6.5z m40 9.8l4.2-16.7c9 2.3 18 4.5 26.7 6.8l-4.3 16.7c-8.7-2.3-17.6-4.5-26.6-6.8z m39.9 10.2l4.3-16.7c9 2.3 17.9 4.7 26.7 7L435 488c-8.7-2.3-17.6-4.6-26.6-7z m39.9 10.6l4.5-16.6c9 2.4 17.9 4.9 26.6 7.3l-4.6 16.6c-8.7-2.5-17.5-4.9-26.5-7.3z m39.7 11l4.7-16.6c9 2.6 17.9 5.1 26.5 7.7l-4.8 16.5c-8.7-2.5-17.4-5.1-26.4-7.6z m39.5 11.5l4.9-16.5c9 2.7 17.8 5.4 26.4 8.1l-5.1 16.4c-8.5-2.7-17.3-5.3-26.2-8z m39.3 12.1l5.2-16.4c9 2.9 17.8 5.7 26.3 8.5l-5.4 16.3c-8.5-2.7-17.1-5.6-26.1-8.4z m39.1 12.8l5.6-16.3c9 3.1 17.7 6.1 26.1 9.1l-5.8 16.2c-8.4-2.9-17-5.9-25.9-9z m38.7 13.8l6-16.1c8.9 3.3 17.6 6.6 25.9 9.9l-6.3 16c-8.3-3.3-16.8-6.5-25.6-9.8z m38.1 14.9l6.6-15.9c8.9 3.7 17.4 7.3 25.5 11l-7 15.7c-8-3.6-16.3-7.2-25.1-10.8z m37.5 16.4l7.3-15.6c8.9 4.2 17.2 8.3 25 12.5l-8.1 15.2c-7.5-4-15.6-8-24.2-12.1z m36.1 18.6l8.5-14.9c3 1.7 5.8 3.4 8.6 5.1 5.3 3.2 10.4 6.5 15.3 9.9l-9.8 14.2c-4.6-3.2-9.4-6.3-14.4-9.3-2.6-1.7-5.4-3.3-8.2-5z m33.4 22.1l10.5-13.6c7.8 6.1 15 12.4 21.5 18.9l-12.2 12.1c-6-6-12.6-11.8-19.8-17.4z m28.7 27.1l13.1-11.1c6.4 7.6 12.1 15.4 16.8 23.6l-14.8 8.7c-4.3-7.4-9.3-14.4-15.1-21.2z m21.1 32.6l15.6-7.2c0.4 0.9 0.9 1.9 1.3 2.8l-15.8 6.9c-0.4-0.9-0.7-1.7-1.1-2.5zM228.2 474.2l8.7-14.8c8 4.7 15.9 9.3 23.7 13.9l-8.6 14.9c-7.9-4.6-15.8-9.3-23.8-14z m35.7 20.9l8.6-14.9c8 4.6 15.9 9.2 23.8 13.6l-8.5 15c-7.8-4.5-15.8-9.1-23.9-13.7z m36 20.5l8.4-15c8.1 4.5 16 9 24 13.4l-8.3 15c-8-4.4-16-8.9-24.1-13.4z m36.2 20l8.3-15.1c8.1 4.4 16.1 8.8 24.1 13.1l-8.1 15.2c-8.1-4.3-16.2-8.7-24.3-13.2z m36.4 19.7l8.1-15.2c8.2 4.3 16.3 8.6 24.3 12.8l-7.9 15.3c-8.1-4.3-16.2-8.5-24.5-12.9z m36.8 19.2l7.9-15.3c8.2 4.2 16.4 8.4 24.5 12.4L434 587c-8.3-4.1-16.5-8.3-24.7-12.5z m36.9 18.6l7.6-15.4c8.3 4.1 16.5 8.1 24.7 12l-7.5 15.5c-8.1-3.9-16.4-8-24.8-12.1z m37.3 18.1l7.4-15.5c8.4 4 16.6 7.8 24.9 11.6l-7.2 15.6c-8.3-3.9-16.6-7.7-25.1-11.7z m37.6 17.4l7.1-15.7c8.4 3.8 16.8 7.5 25.1 11.1l-6.9 15.8c-8.3-3.7-16.7-7.4-25.3-11.2z m38 16.6l6.7-15.8c5.2 2.2 10.3 4.4 15.4 6.5 3.3 1.4 6.6 2.7 9.9 4.1l-6.5 15.9c-3.3-1.4-6.6-2.7-9.9-4.1-5.2-2.2-10.3-4.3-15.6-6.6z m38.3 15.9l6.5-15.9c8.6 3.5 17.1 6.9 25.5 10.2l-6.3 16c-8.5-3.4-17-6.8-25.7-10.3z m38.5 15.3l6.2-16c8.7 3.4 17.2 6.6 25.6 9.7l-6 16.1c-8.4-3.2-17-6.5-25.8-9.8z m38.8 14.6l5.9-16.2c8.8 3.2 17.4 6.3 25.8 9.2l-5.7 16.2c-8.4-2.9-17.1-6-26-9.2z m39.2 13.7l5.5-16.3c8.9 3 17.5 5.9 26 8.5l-5.2 16.4c-8.6-2.6-17.4-5.5-26.3-8.6z m39.5 12.8l5-16.4c9 2.7 17.7 5.3 26.2 7.7l-4.6 16.6c-8.6-2.5-17.5-5.1-26.6-7.9zM237.5 458.6l5.4-16.3c8.8 2.9 17.5 5.8 26.2 8.7l-5.4 16.3c-8.7-2.9-17.4-5.8-26.2-8.7z m39.1 13l5.5-16.3c8.8 2.9 17.5 5.9 26.1 8.8l-5.5 16.3c-8.7-2.9-17.3-5.9-26.1-8.8z m39.1 13.2l5.6-16.3c8.8 3 17.5 6 26.1 9l-5.6 16.3-26.1-9z m39 13.5l5.7-16.2c8.8 3.1 17.4 6.1 26 9.2l-5.8 16.2c-8.6-3.1-17.2-6.1-25.9-9.2z m38.8 13.8l5.8-16.2c8.7 3.1 17.4 6.2 25.9 9.3l-5.9 16.2c-8.4-3.1-17.1-6.2-25.8-9.3z m38.8 14l5.9-16.2c8.7 3.2 17.3 6.4 25.9 9.5l-6 16.1c-8.5-3.1-17.1-6.2-25.8-9.4z m38.6 14.3l6-16.1c8.7 3.3 17.3 6.5 25.8 9.8l-6.1 16.1c-8.4-3.3-17-6.5-25.7-9.8z m38.6 14.7l6.2-16.1c8.7 3.3 17.2 6.7 25.7 10l-6.3 16c-8.5-3.3-17-6.6-25.6-9.9z m38.3 15l6.4-16c8.7 3.4 17.2 6.9 25.6 10.3l-6.5 15.9c-8.4-3.4-16.9-6.8-25.5-10.2z m38.2 15.4l6.5-15.9c3.8 1.6 7.7 3.2 11.5 4.7 4.7 2 9.4 3.9 14 5.9l-6.7 15.9c-4.6-1.9-9.2-3.9-14-5.8-3.7-1.6-7.5-3.2-11.3-4.8z m38 15.9l6.7-15.8c8.7 3.7 17.2 7.3 25.4 10.9l-6.9 15.8c-8.1-3.6-16.5-7.2-25.2-10.9z m37.8 16.4l7-15.7c8.7 3.8 17.1 7.6 25.2 11.3l-7.2 15.6c-8.1-3.6-16.4-7.4-25-11.2z m37.4 17l7.3-15.6c8.7 4.1 17 8 25 11.9l-7.5 15.5c-7.9-3.9-16.2-7.8-24.8-11.8z m37 17.8l7.7-15.4c8.7 4.3 16.9 8.6 24.7 12.7l-8.1 15.2c-7.6-4-15.7-8.2-24.3-12.5z m36.3 19l8.3-15.1c8.7 4.8 16.8 9.5 24.1 14l-9 14.7c-7.1-4.3-14.9-8.9-23.4-13.6z m34.9 20.8l9.4-14.4c8.8 5.8 16.5 11.3 23 16.6L829 708c-6.1-4.9-13.3-10.1-21.6-15.6z m31.2 24.2l12.1-12.2c1.3 1.3 2.5 2.6 3.7 3.8l-12.7 11.6c-0.9-1-2-2.1-3.1-3.2z" fill="#F5A623" p-id="1501"></path><path d="M245.5 410.1c1.7 21.8-0.3 40.9-6.1 57.3s-17.9 27.9-36.2 34.7l-26.5-54.5 34.1-32.1 34.7-5.4z" fill="#FFFBCA" p-id="1502"></path><path d="M749.8 800.2c-20.4 0-42.8-4.9-66.9-14.7-146-59.2-264.1-115.3-350.9-166.9-122.4-72.7-175.2-132.5-156.9-177.9 9.5-23.5 35.7-36.4 77.8-38.2 38.6-1.6 91.5 5.9 157.2 22.5 94.5 23.8 211 64.3 366.9 127.5 44.8 18.1 73.5 43.9 85.4 76.6 9.7 26.7 7.8 58.1-5.4 90.8-13.3 32.9-33.8 56.9-59.3 69.5-14.5 7.2-30.5 10.8-47.9 10.8zM263.3 419.5c-40 0-64.8 9.2-72.2 27.6-6.8 16.9 1.9 38.5 25.8 64.4C242.3 539 284 570 340.8 603.8c86.1 51.1 203.3 106.9 348.5 165.7 40 16.2 73.9 17.7 100.7 4.5 21.7-10.7 39.3-31.7 51-60.5 11.6-28.7 13.4-55.9 5.2-78.5-10.2-27.9-35.6-50.3-75.7-66.6-155.1-62.8-270.9-103.1-364.6-126.7-58.8-14.8-106.8-22.2-142.6-22.2z" fill="#333333" p-id="1503"></path><path d="M814 760.9c2-7.1 23.3 38.7-121.1 0-77.4-20.7-230.1-86.7-353.3-131-106.6-38.3-155.5 28.5-159.3 37.9-3.8 9.4 63.9-21.3 170.1 24.3C470.7 743.6 607.3 805.3 676.3 818 814 843.3 812 767.9 814 760.9z" fill="#8BBF20" p-id="1504"></path><path d="M727.1 831.7c-15.7 0-33.1-1.8-52.4-5.3-60.7-11.2-171.4-59-278.5-105.3-16.2-7-33-14.3-49.1-21.2-74.2-31.8-129.2-25.4-152.6-22.6-11.3 1.3-17 2-20.9-3.1-2.1-2.7-2.5-6.3-1.2-9.6 2-4.9 15.5-26.3 45.2-41.3 24.5-12.3 66.1-22.6 125-1.5 48.4 17.4 101.3 38.1 152.5 58.1 79 30.9 153.6 60.1 200.2 72.6 76.9 20.6 101.9 15.9 109.5 12.4 0.1-0.9 0.2-1.6 0.3-2.3 0.2-1.7 0.4-3 0.7-4.2 1.5-5.1 6.5-8 11.5-6.6 5.8 1.6 9 8.7 7.1 15.7-0.6 2.3-1.8 4.8-4 7.2-2.6 11.1-8.9 27.1-25.9 39.5-16.3 11.6-38.8 17.5-67.4 17.5zM231.5 657.6c30.2 0 72.1 4.9 122.4 26.5 16.2 6.9 33 14.2 49.2 21.2 106.2 45.9 216 93.4 274.8 104.2 49.5 9.1 85.3 6 106.4-9.3 6.7-4.9 11.2-10.5 14.2-16-2.1 0.3-4.3 0.5-6.7 0.7-22.4 1.5-56.4-3.8-101.1-15.8-47.5-12.7-122.5-42.1-202-73.2-51.1-20-103.8-40.7-152-58-41.9-15.1-80.4-14.9-111.2 0.5-13.1 6.5-22.5 14.7-28.6 21.2 8.6-0.9 20.3-2 34.6-2z" fill="#333333" p-id="1505"></path><path d="M814 717.8c2-7.1 23.3 38.7-121.1 0-77.4-20.7-224.1-79.5-347.3-123.8-106.6-38.3-180-19.5-182.9-8.7-2.9 10.9 41.7-12.3 147.9 33.2C430.8 670 600.8 764.2 677.4 784.8c144.4 38.7 134.6-59.9 136.6-67z" fill="#8FD015" p-id="1506"></path><path d="M736.5 802.3c-17.8 0-38.3-3.1-61.2-9.2-47.1-12.6-126.8-51.6-211.2-92.9-53.8-26.3-109.4-53.5-156.7-73.8-70.1-30-111.7-29.5-131.8-29.2-9.7 0.1-15.6 0.2-19.4-4.7-1.2-1.5-3-4.8-1.7-9.5 1.1-4.1 4.3-7.5 9.9-10.4 23.2-12.1 93.8-19.3 184.3 13.2 39.7 14.2 82.1 30.1 123.1 45.5 88.1 33 171.4 64.1 223.5 78.1 78.1 20.9 102.7 15.7 109.8 12.2v-0.1c0.2-2.9 0.3-4.6 0.7-6.2 1.5-5.1 6.5-8 11.5-6.6 5.8 1.6 9 8.7 7.1 15.7-0.5 1.8-1.3 3.7-2.6 5.5-1.4 15-6.4 40.4-29.4 57-14.3 10.3-32.9 15.4-55.9 15.4zM202.6 580.8c24.8 2 61.8 8.6 111.5 29.8 47.7 20.5 103.5 47.8 157.5 74.1 83.6 40.9 162.6 79.5 208.1 91.7 47.3 12.7 81.8 11.5 102.4-3.4 12.3-8.9 17.9-21.5 20.4-32.6-3.2 0.7-6.7 1.2-10.8 1.4-22.4 1.5-56.4-3.8-101.1-15.8-52.9-14.2-136.5-45.5-225-78.6-41-15.3-83.4-31.2-122.9-45.4-61.9-22.1-110.4-24.3-140.1-21.2z m-32.4 8.5z" fill="#333333" p-id="1507"></path><path d="M857.2 693.5c-3.3 6.6-26.1-38.4-88.5-90.5-77.3-64.6-218.2-86.7-338.4-138.4-104.1-44.7-69.9-109.9-64.7-119.7 5.3-10-28.9 51.2 79.9 90.3 123.1 44.3 300.3 78.1 357.5 116.2 100.3 66.7 57.5 135.6 54.2 142.1z" fill="#AAD015" p-id="1508"></path><path d="M856.1 702.8c-5.8 0-9.6-4.8-19.7-17.3-13.4-16.7-35.9-44.7-73.1-75.8-47.8-39.9-121.6-63.5-199.7-88.5-45.4-14.5-92.4-29.5-136.6-48.6-40.4-17.3-65.7-39.9-75.2-67-7.2-20.4-4.9-43.4 6.4-64.7l0.2-0.4c3.9-7.3 10.4-5 11.2-4.7 2.7 1.1 6.7 4.5 5 10.8-3.1 11.5-7 51.3 74 80.5 49.5 17.8 107.6 33.9 163.8 49.4 82.4 22.8 160.3 44.3 195.6 67.7 42.8 28.5 66.2 61.1 69.5 96.8 1.7 18.9-2.3 37.5-12 55.4-0.2 0.4-0.3 0.6-0.5 0.8-1.5 3-4.3 5-7.6 5.3-0.5 0.2-0.9 0.3-1.3 0.3z m-6.6-13.2zM365.3 389.4c0.5 3.5 1.4 7 2.6 10.5 7.9 22.4 30 41.5 65.8 56.9 43.5 18.7 90.1 33.6 135.1 48 79.8 25.5 155.1 49.6 205.5 91.7 38.5 32.2 62.6 62.2 75.5 78.3 1.5 1.9 3 3.7 4.4 5.4 5.2-12.3 7.2-24.8 6-37.5-2.8-30.3-23.6-58.6-61.9-84.1-33-21.9-109.5-43.1-190.6-65.5-56.5-15.6-115-31.8-165.1-49.8-38.3-13.8-64.2-31.9-77.3-53.9z" fill="#333333" p-id="1509"></path><path d="M858.198974 655.958374a21.1 57.6 21 1 0-41.283988 107.548465 21.1 57.6 21 1 0 41.283988-107.548465Z" fill="#ACD50F" p-id="1510"></path><path d="M818.918 781.096a22.908 22.908 0 0 1-8.193-1.538c-10.736-4.121-17.234-15.935-18.107-33.194-0.821-14.882 2.513-32.776 9.286-50.42 6.773-17.645 16.362-33.138 26.837-43.685 12.291-12.206 24.931-16.673 35.668-12.551 10.736 4.12 17.234 15.934 18.107 33.193 0.82 14.883-2.513 32.777-9.286 50.422-6.774 17.644-16.362 33.137-26.838 43.683-9.248 9.304-18.672 14.041-27.474 14.09z m37.28-125.58c-3.956-0.02-9.611 3.272-15.344 8.998-8.717 8.758-17.087 22.47-22.892 37.593-5.842 15.218-8.797 31.007-8.142 43.255 0.58 9.65 3.277 16.576 7.105 18.045 3.92 1.505 10.56-1.838 17.354-8.655 8.718-8.758 17.087-22.47 22.893-37.593 12.615-32.862 8.972-58.254 0.944-61.336-0.467-0.18-1.192-0.244-1.918-0.308z" fill="#333333" p-id="1511"></path><path d="M870.889361 677.272793a15.2 41.6 21 1 0-29.816213 77.673891 15.2 41.6 21 1 0 29.816213-77.673891Z" fill="#D4FD3A" p-id="1512"></path><path d="M842.135 772.4c-2.47 0.016-4.89-0.377-7.317-1.309-9.242-3.547-14.856-13.2-15.942-27.114-0.87-11.687 1.498-25.668 6.766-39.391 5.268-13.724 12.863-25.697 21.33-33.801 10.117-9.613 20.748-13.03 29.99-9.483 17.271 6.63 21.181 35.231 9.176 66.506-10.357 26.98-28.237 44.54-44.003 44.592z m27.471-95.283c-2.34-0.042-6.252 1.777-10.78 6.037-6.58 6.258-12.79 16.3-17.09 27.502-4.3 11.203-6.404 22.821-5.702 31.874 0.55 7.495 2.93 11.622 4.984 12.41 5.041 1.936 19.852-9.303 29.098-33.39 4.3-11.202 6.404-22.82 5.702-31.873-0.55-7.495-2.93-11.622-4.984-12.41-0.28-0.108-0.69-0.158-1.228-0.15z" fill="#333333" p-id="1513"></path></svg>