<?xml version="1.0" standalone="no"?><!DOCTYPE svg PUBLIC "-//W3C//DTD SVG 1.1//EN" "http://www.w3.org/Graphics/SVG/1.1/DTD/svg11.dtd"><svg t="1545202061156" class="icon" style="" viewBox="0 0 1046 1024" version="1.1" xmlns="http://www.w3.org/2000/svg" p-id="21428" xmlns:xlink="http://www.w3.org/1999/xlink" width="65.375" height="64"><defs><style type="text/css"></style></defs><path d="M644.493356 44.717454s-63.585357 16.721046-107.081022 70.270284-30.178172 63.567903-97.132174 113.76595-133.838187 60.216712-187.369971 137.171923-90.342522 117.117141-123.802068 140.540569-66.919093 26.757165-76.972667 90.342522-23.405974 113.76595-16.721046 127.135805 210.828307 277.729947 277.747401 287.766065 163.963997-26.774619 170.648924-40.144474 53.531784-73.604021 90.342522-130.486996 76.955212-130.486996 147.225496-180.685044 143.874306-107.063568 153.910424-147.225496 40.144474-70.270284 70.270285-107.063568 100.37864-130.521904 100.37864-130.521904-16.7385-107.063568-36.810738-123.802068S744.802179 17.942835 721.378751 11.257907 644.493356 44.717454 644.493356 44.717454z" fill="#FFC4C0" p-id="21429"></path><path d="M731.886131 96.783092c13.300039-21.276571 18.920265-48.871534 21.224209-71.893518-16.511597-7.400547-28.34549-12.409879-32.656657-13.631667-23.423428-6.684928-76.955212 33.459547-76.955212 33.459547s-63.585357 16.721046-107.081022 70.270284-30.108356 63.567903-97.027449 113.76595-133.838187 60.216712-187.387425 137.171923-90.325067 117.204411-123.802069 140.540569-66.919093 26.757165-76.955212 90.342522-23.423428 113.76595-16.721046 127.135805c1.466146 2.949746 12.462241 17.995197 29.427645 39.777938 16.913042-12.497149 32.133034-29.794182 47.335572-51.926005 30.614525-44.525458 55.661186-122.440647 94.618781-158.623037s83.500507-77.915189 100.186644-83.483052 102.979304-44.525458 128.025966-86.275712 61.211596-119.665442 94.61878-141.919444 94.618781-66.796915 94.618781-66.796915 80.707848-33.38973 108.529714-77.915188zM968.267269 280.452789c-11.135728 19.408981-44.508004 64.004256-64.004255 75.139984s-66.796915 80.690394-80.707848 100.186645-91.791213 125.215852-91.791214 125.215852l-94.61878 108.547168s-94.618781 75.052713-136.369035 128.008511-66.796915 102.979304-86.275711 125.233306c-12.322608 14.085474-26.879344 40.406286-45.066537 68.420148 55.015384-7.121281 109.297695-29.672003 114.254665-39.65576 6.684928-13.369855 53.531784-73.604021 90.342522-130.486996s76.920304-130.486996 147.260405-180.685043 143.874306-107.063568 153.910424-147.225496 40.144474-70.25283 70.270284-107.063568 100.37864-130.50445 100.37864-130.50445-16.7385-107.063568-36.810737-123.802068l-1.745412 45.17126s-27.891683 64.02171-39.027411 83.500507z" fill="#FFFFFF" p-id="21430"></path><path d="M255.0745 899.183865s44.525458 87.270597 74.214915 81.632916 81.632916-61.229051 98.336508-103.904372 87.183326-120.59051 131.726239-155.830378 140.994376-127.991057 161.398241-170.683832 53.81105-137.294103 53.81105-137.294103-155.847831 152.060287-189.237562 189.237562-102.054236 66.779461-137.294102 92.768644S371.964737 776.743218 371.964737 776.743218zM800.376095 72.260054s45.799609 19.635884 58.872745 27.472784 11.781531 36.653651 11.78153 36.65365-61.490862 89.016009-68.071065 94.252245-102.07169 140.016945-143.944122 160.961888-86.362982 31.417415-117.762943 68.071065a388.877778 388.877778 0 0 1-65.400585 60.111987s60.199258-117.780397 81.126746-151.850838 2.618118-26.181179 36.653651-89.016008 0-57.598594 60.181803-96.835454 81.126747-31.417415 91.599219-65.418039 54.963022-44.40328 54.963021-44.40328z" fill="#EA6E68" p-id="21431"></path><path d="M145.619717 732.200305c11.135728-22.254002 22.254002-89.016009 57.511324-126.158374s77.915189-94.618781 118.688011-111.304919 74.214915-50.093322 94.618781-64.946778 25.97173 0 63.079187-68.629597 79.782779-96.486372 79.782779-96.486372-29.672003 63.079187-55.661186 100.186645-63.079187 92.768644-74.214915 98.336508-44.525458 20.403865-70.497188 37.107458-44.473096 20.403865-70.497188 53.793596-72.364779 76.065052-77.932643 87.270596-12.985865 42.675322-38.957594 66.796915zM251.374226 837.954814s90.901053-64.929324 118.688012-92.75119 22.271456-35.257321 63.096641-68.647051 74.197461-44.525458 102.036782-61.229051 103.886918-96.468917 111.304918-103.904372-76.065052 46.393049-107.604645 66.796915-126.158374 89.016009-126.158375 89.016008l-46.340686 44.542913s-35.257321 38.957594-40.825185 44.525458-68.559781 53.828504-68.559781 53.828504zM789.362546 450.211554s-7.418001-48.243186 27.926591-98.336509 48.225732-57.511323 64.929324-77.915188 38.957594-55.661186 44.525458-85.350644 14.836001-46.375595 14.836002-46.375595 14.853456 37.107458 1.86759 64.929324-18.553729 42.675322-37.107457 64.929324-18.553729 7.435455-48.243186 61.229051-68.734322 116.890237-68.734322 116.890237z" fill="#FCD5D4" p-id="21432"></path><path d="M154.434048 786.936423c9.739399 11.135728 38.957594 30.614525 47.300663 20.944944s33.407184-30.614525 57.057516-61.229051 25.046661-30.614525 59.832721-50.093322 54.264857-12.514604 82.034361-50.093323 26.442991-75.052713 26.442991-75.052713a236.224051 236.224051 0 0 1-40.353924 47.318118c-25.046661 22.254002-48.696993 51.489652-82.034361 58.436391s-62.62538 27.629871-68.193244 34.611519-25.046661 37.578719-25.046661 37.578719z" fill="#EA6E68" p-id="21433"></path><path d="M268.531626 923.305458s73.743654-69.57212 93.222451-95.997657 34.78606-62.607926 102.979304-109.960951 76.518859-37.561265 114.097578-75.139984a522.052709 522.052709 0 0 0 59.832721-70.968449s-72.364779 100.186645-102.979304 121.061772a926.272658 926.272658 0 0 0-93.222451 70.968449c-38.957594 33.38973-61.229051 62.607926-61.229051 62.607926s-48.696993 55.661186-70.968449 80.707847-31.993401 33.38973-31.993401 33.389731zM301.921356 965.038257s107.150838-105.737055 128.008511-146.090979l20.944943-40.353924s1.39633 61.229051-36.164935 94.618781-51.489652 45.921788-64.02171 61.229051-32.063217 31.993401-32.063217 31.993401zM823.729707 85.647363s-27.420421 61.089418-53.933229 98.249238q-2.28649 3.159196-4.520617 6.108942c-27.821866 36.182389-64.004256 69.57212-79.311518 105.754509S642.835214 359.764307 642.835214 359.764307s20.944943 5.567864 45.921788-34.786059 18.082468-40.353924 34.78606-68.193245 55.643732-40.33647 75.139984-79.311518a703.209013 703.209013 0 0 0 31.9934-75.139983l2.79266-16.686139zM569.09156 336.113976a388.493788 388.493788 0 0 1 64.004256-75.052713c38.957594-34.87333 45.921788-36.252206 65.400585-57.197149a243.397694 243.397694 0 0 0 30.614525-40.353924s-19.496251 64.004256-40.353924 76.536313-20.944943 12.514604-41.750253 31.993401-26.442991 23.667786-48.696993 51.489652a373.710149 373.710149 0 0 1-41.331355 44.403279z" fill="#FFA4A4" p-id="21434"></path><path d="M693.36489 10.50738a21.328934 21.328934 0 0 1 5.829676 0.750527c23.423428 6.684928 267.676374 123.802068 287.766065 140.523115s36.793284 123.802068 36.793283 123.802068-70.322647 93.693712-100.46591 130.50445-60.216712 66.919093-70.252831 107.063568-83.657594 97.044903-153.927878 147.225496-110.467121 123.802068-147.225496 180.685043-83.64014 117.117141-90.342522 130.486996a15.586529 15.586529 0 0 1-4.223897 4.258806c-17.576298 13.509488-84.565208 37.613627-141.727449 37.613627a168.536976 168.536976 0 0 1-24.66267-1.745412c-52.362358-7.854354-188.504489-171.207456-248.668838-248.459389-0.191995 0.157087-0.366537 0.331628-0.558532 0.471262-16.965404-21.782741-27.926591-36.828192-29.427645-39.777938-6.684928-13.369855 6.702382-63.567903 16.7385-127.135805s43.495665-66.919093 76.955212-90.342522 70.270284-63.567903 123.802069-140.540569 120.433423-86.991331 187.369971-137.171923 53.531784-60.234166 97.044903-113.76595 107.063568-70.270284 107.063568-70.270285 41.889886-31.295236 67.704529-33.913353a34.314799 34.314799 0 0 1 4.346075-0.29672m0-10.472472a43.932018 43.932018 0 0 0-5.532955 0.366537c-25.814642 2.775205-62.346114 28.310582-71.195353 34.786059-11.676806 3.490824-69.257945 22.445997-110.519484 73.307301a376.624987 376.624987 0 0 0-31.539593 45.083991c-13.160406 21.416204-21.852557 35.554041-63.655173 66.919093-22.88235 17.157399-46.131237 29.672003-68.629598 41.889886-43.635298 23.545607-84.896836 45.782155-121.061771 97.743069-49.779148 71.561889-87.148418 114.097578-121.201405 137.887542-6.772198 4.74752-13.736392 8.72706-20.473682 12.566966-25.640101 14.66146-52.152909 29.811636-60.827605 84.722295C15.603983 614.594449 12.217884 632.834004 9.215775 648.926702c-8.447794 45.502889-12.217884 67.913978-6.300937 79.817688 2.984654 5.986763 24.121593 33.285006 30.527255 41.52335l6.266028 8.046349 0.610895-0.436353c20.944943 26.65244 70.183014 87.933853 121.533032 142.87942 60.181803 64.4057 101.897149 97.568527 127.519796 101.408434a176.77532 176.77532 0 0 0 26.181179 1.832682c57.87786 0 127.415071-23.894689 148.063294-39.74303a23.38852 23.38852 0 0 0 7.226006-7.871807c2.687934-5.375869 14.748731-22.131823 28.72948-41.540804 18.222101-25.343381 40.92991-56.865521 61.089418-87.951308 5.114057-7.906716 10.21066-15.987973 15.586528-24.523037 32.831198-52.152909 70.043381-111.270011 128.93358-153.334438 75.681061-54.10777 147.190588-109.960952 157.994688-153.194806 7.784537-31.173057 28.869113-56.167356 53.287426-85.106286 4.869699-5.777313 9.896486-11.746622 14.923272-17.873018 29.898906-36.653651 99.942287-129.91101 100.640452-130.905895l2.653026-3.490823-0.680711-4.36353c-0.174541-1.117064-4.311167-27.490238-11.013549-56.376806-12.706599-54.805935-22.88235-68.402694-29.427645-73.865833-13.718938-11.414994-105.806871-56.533892-144.764466-75.401795C785.732089 37.910347 715.06036 5.04424 701.969771 1.309059a31.417415 31.417415 0 0 0-8.72706-1.151972z" fill="" p-id="21435"></path></svg>