<?xml version="1.0" standalone="no"?><!DOCTYPE svg PUBLIC "-//W3C//DTD SVG 1.1//EN" "http://www.w3.org/Graphics/SVG/1.1/DTD/svg11.dtd"><svg t="1545201670124" class="icon" style="" viewBox="0 0 1024 1024" version="1.1" xmlns="http://www.w3.org/2000/svg" p-id="13907" xmlns:xlink="http://www.w3.org/1999/xlink" width="64" height="64"><defs><style type="text/css"></style></defs><path d="M132.4 816.8c51.3-12.2 193 82.6 323.2-21.3C585.8 691.6 715.1 687.3 743 569.6 770.8 452 891.2 400.8 880.5 330.9c-10.7-69.9 22-116.1-3.7-87-15.9 17.8-35.1 51-77.7 34.2-42.5-16.6-216.4-65.1-357.5 31.5S340.3 531.9 255.7 602.5C171 673 81.1 829.1 132.4 816.8z m0 0" fill="#76518B" p-id="13908"></path><path d="M132.5 760.2c1.9 4.5 6.4 6.3 13.9 4.5 51.3-12.2 193 82.6 323.2-21.3 130.2-103.9 223.3-118 251.2-235.6 20.7-87.4 128.5-128.4 159.7-177.3 0.1 0.1 0 0.3 0.1 0.4C888.5 382.5 820 422.6 775 488c-16 23.2-24.6 50.8-32 81.7-27.9 117.6-157.2 122-287.4 225.9s-271.9 9.2-323.2 21.3c-21.9 5.2-18-20.3 0.1-56.7z m773.1-564.4" fill="#512E6B" p-id="13909"></path><path d="M123.2 816.9c-28.8-10.5 54.1-149.2 132.4-214.5 84.6-70.6 44.7-196 185.9-292.7C582.7 213 756.4 261.5 799 278.2c42.5 16.6 61.8-16.4 77.7-34.2 25.8-29 18.7-20.8 6.8 32.5-7.2 15.3-16.6 33-27.7 45.6-15.9 17.8-25.1 13.5-67.6-3.2-42.5-16.6-226.4-27.7-367.5 68.9-141.2 96.7-101.4 222.2-186 292.8-41.7 34.8-84.8 90.3-111.5 136.3z m756.3-514.2c-0.7 9.5-0.5 19 0.9 28.2 3.4 22.1-6.4 42.3-22.2 63.5-0.8-31.5 10.2-64.6 21.3-91.7z m0 0" fill="#DE798D" p-id="13910"></path><path d="M123.2 816.9c-28.8-10.5 54.1-149.2 132.4-214.5 84.6-70.6 44.7-196 185.9-292.7C582.7 213 756.4 261.5 799 278.2c42.5 16.6 61.8-16.4 77.7-34.2 25.8-29 18.7-20.8 6.8 32.5-7.2 15.3-16.6 33-27.7 45.6-15.9 17.8-28.1 24.8-70.6 8-42.5-16.6-223.4-38.9-364.5 57.7-141.2 96.7-101.4 222.2-186 292.8-41.7 34.8-84.8 90.3-111.5 136.3z m756.3-514.2" fill="#BB92C5" p-id="13911"></path><path d="M738.6 547.2c-15.5-56.7-79-126.4-99.6-134.3-20.4-8 86.2-3.8 116.6 99.9-1 60.7-6.6 72.2-17 34.4zM407.2 671.1c-16.1-9.5-92.1-90.4-101.1-144.2-2-12.3-6.3-26.9 13.8-38.5 7.8 88.8 95.7 187.8 87.3 182.7z m0 0" fill="#512E6B" p-id="13912"></path><path d="M99.4 795c3-16.3 12.6-38.5 27.1-63.8 29.9-52.1 75.4-108.7 116.9-143.4 23.4-19.6 36.8-43.3 51.5-85.5 2.4-6.9 11-32.9 13.1-38.6 26.5-76.9 57.4-124.8 122.8-169.7 117.4-80.5 267.7-75.7 375.1-33.6 8.8 3.5 15.7 4 21.6 2.4 8.1-2.1 15.2-8.1 25.8-20.8 0.9-1.1 3.9-4.7 4.4-5.3 1.8-2.1 3.2-3.8 4.6-5.4 4.6-5.1 9.5-12.1 14.9-20.6 3.1-4.9 4.5-11.8 9.7-16.3 38.2-33.6 43.1 18.6 40.4 24.3-4.7 9.7-8.6 18.3-12.1 26.8-13.7 33.1-19.5 60.5-16.2 82.8 5.2 34.3-9.1 60.5-47.6 104.2l-24 27.1c-9.2 10.7-16.8 19.8-23.6 28.9-21.5 28.5-35.5 55.7-42.7 85.9-16.6 70.4-50.2 97.9-159.6 154.1-63.1 32.3-96 51.8-134.4 82.4-67.9 54.2-139.7 63.3-228.5 44.9-16.5-3.4-65.4-15.8-65.4-15.8-19.1-4.4-30.4-5.7-36.7-4.2-27.7 6.2-41.9-14.2-37.1-40.8z m82.8 7.4c0.7 0.2 49 12.3 64.5 15.6 78.8 16.3 139.4 8.7 197-37.3 40.9-32.7 75.6-53.1 140.8-86.5 99.6-51 126.8-73.3 139.9-128.8 8.5-35.9 24.8-67.6 49.3-100 7.5-9.9 15.5-19.7 25.3-31 5.1-5.9 22-24.8 24-27.2 31.1-35.5 41.4-54.2 38.5-73.3-2.2-14.8-1.7-30.4 1.2-47-7.7 6.2-15.8 10.3-25.5 13-14 3.7-29.1 2.5-45.1-3.8-96.9-38-234.9-42.3-339.8 29.5-57.7 39.4-84.2 80.7-108.3 150.6-1.9 5.5-10.6 31.6-13.1 38.8-16.8 48.4-33.3 77.4-63.1 102.4-37.8 31.5-80.5 84.6-108.2 133-10.8 18.9-18.4 35.4-21.6 46.6 11.7-1 25.3 1.1 44.2 5.4z m729.9-641.2s0.1-0.2 0 0c0.1-0.2 0-0.1 0 0z" fill="#333333" p-id="13913"></path><path d="M351.3 773.5c-6.7-11.6-12.3-37.5 5.2-38 17.5-0.4 42.7 10.3 42.1 26-0.5 15.8-40.6 23.5-47.3 12zM305.6 662.6C324 674 346.3 687.5 331 661c-15.3-26.5-43.6-9.7-25.4 1.6zM502 611.4c31.6 9.3 66.8 29.9 31.5-10.9s-63.1 1.6-31.5 10.9zM433.5 494.9c-30.1-73.1-2.1-62.3 9.4-42.3 11.7 19.9 20.7 115.4-9.4 42.3zM649.9 568.2c15.3-8.8-11.5-35.2-15.1-26.2s-0.3 35 15.1 26.2zM551 421.3c7.2-27.8 29.6-24.3 25.1-14.5s-32.4 42.4-25.1 14.5z" fill="#9B857C" p-id="13914"></path></svg>