<?xml version="1.0" standalone="no"?><!DOCTYPE svg PUBLIC "-//W3C//DTD SVG 1.1//EN" "http://www.w3.org/Graphics/SVG/1.1/DTD/svg11.dtd"><svg t="1545364532983" class="icon" style="" viewBox="0 0 1024 1024" version="1.1" xmlns="http://www.w3.org/2000/svg" p-id="45179" xmlns:xlink="http://www.w3.org/1999/xlink" width="64" height="64"><defs><style type="text/css"></style></defs><path d="M87.254746 265.381015a4.74702 4.74702 0 0 1-4.74702-4.747019V221.075497A121.614128 121.614128 0 0 1 204.121854 99.461369h615.756292A121.614128 121.614128 0 0 1 941.492274 221.075497v39.558499a4.74702 4.74702 0 0 1-4.74702 4.747019z" fill="#FDCA89" p-id="45180"></path><path d="M819.878146 122.066225A99.23532 99.23532 0 0 1 918.887417 221.075497v22.604856H105.112583v-22.604856A99.23532 99.23532 0 0 1 204.121854 122.066225h615.756292m0-45.209713H204.121854A144.218985 144.218985 0 0 0 59.90287 221.075497v39.558499a27.351876 27.351876 0 0 0 27.351876 27.351876h849.490508A27.351876 27.351876 0 0 0 964.09713 260.633996V221.075497a144.218985 144.218985 0 0 0-144.218984-144.218985z" fill="#5C2D51" p-id="45181"></path><path d="M231.247682 820.556291A148.966004 148.966004 0 0 1 82.507726 671.816336V323.249448h858.984548v348.566888a148.966004 148.966004 0 0 1-148.739956 148.739955z" fill="#F05071" p-id="45182"></path><path d="M918.887417 345.854305v325.962031a126.135099 126.135099 0 0 1-126.135099 126.135099H231.247682A126.135099 126.135099 0 0 1 105.112583 671.816336V345.854305h813.774834m45.209713-45.209713H59.90287v371.171744a171.344812 171.344812 0 0 0 171.344812 171.344812h561.504636A171.344812 171.344812 0 0 0 964.09713 671.816336V300.644592z" fill="#5C2D51" p-id="45183"></path><path d="M389.029581 22.604857l245.940838 0 0 76.404415-245.940838 0 0-76.404415Z" fill="#FDCA89" p-id="45184"></path><path d="M602.419426 45.209713a9.946137 9.946137 0 0 1 9.946137 9.946137v11.302428a9.946137 9.946137 0 0 1-9.946137 9.946137h-180.838852a9.946137 9.946137 0 0 1-9.946137-9.946137v-11.302428A9.946137 9.946137 0 0 1 421.580574 45.209713h180.838852m0-45.209713h-180.838852a55.15585 55.15585 0 0 0-55.15585 55.15585v11.302428A55.15585 55.15585 0 0 0 421.580574 121.614128h180.838852a55.15585 55.15585 0 0 0 55.15585-55.15585v-11.302428A55.15585 55.15585 0 0 0 602.419426 0z" fill="#5C2D51" p-id="45185"></path><path d="M172.927152 1001.395143a45.209713 45.209713 0 0 1 0-90.419426h678.145696a45.209713 45.209713 0 0 1 0 90.419426z" fill="#9FDBAD" p-id="45186"></path><path d="M851.072848 933.580574a22.604857 22.604857 0 0 1 0 45.209713H172.927152a22.604857 22.604857 0 0 1 0-45.209713h678.145696m0-45.209713H172.927152a67.81457 67.81457 0 0 0-67.814569 67.814569 67.81457 67.81457 0 0 0 67.814569 67.81457h678.145696a67.81457 67.81457 0 0 0 67.814569-67.81457 67.81457 67.81457 0 0 0-67.814569-67.814569z" fill="#5C2D51" p-id="45187"></path><path d="M37.298013 267.86755l949.403974 0 0 97.879028-949.403974 0 0-97.879028Z" fill="#FDCA89" p-id="45188"></path><path d="M964.09713 290.472406v52.669316H59.90287v-52.669316h904.19426m15.8234-45.209713H44.07947A29.386313 29.386313 0 0 0 14.693157 274.422958v84.542163a29.386313 29.386313 0 0 0 29.386313 29.386314h935.84106a29.386313 29.386313 0 0 0 29.386313-29.386314v-84.542163a29.386313 29.386313 0 0 0-29.386313-29.160265z" fill="#5C2D51" p-id="45189"></path></svg>