<?xml version="1.0" standalone="no"?><!DOCTYPE svg PUBLIC "-//W3C//DTD SVG 1.1//EN" "http://www.w3.org/Graphics/SVG/1.1/DTD/svg11.dtd"><svg t="1545201292290" class="icon" style="" viewBox="0 0 1024 1024" version="1.1" xmlns="http://www.w3.org/2000/svg" p-id="10058" xmlns:xlink="http://www.w3.org/1999/xlink" width="64" height="64"><defs><style type="text/css"></style></defs><path d="M512 864c238.4 0 432-156.8 432-352S750.4 160 512 160 80 316.8 80 512c0 89.6 41.6 172.8 110.4 235.2C270.4 819.2 384 864 512 864z" fill="#A6CA7A" p-id="10059"></path><path d="M188.8 745.6C260.8 790.4 350.4 816 448 816c238.4 0 432-156.8 432-352 0-89.6-41.6-171.2-108.8-233.6C876.8 294.4 944 396.8 944 512c0 195.2-193.6 352-432 352-128 0-241.6-44.8-323.2-118.4 1.6 1.6 0 0 0 0z" fill="#729844" p-id="10060"></path><path d="M321.6 457.6l-3.2-16c64-12.8 187.2 16 227.2 56l-11.2 11.2c-35.2-35.2-153.6-62.4-212.8-51.2z" fill="#EAF2E0" p-id="10061"></path><path d="M572.8 860.8c43.2 0 24-1.6 62.4-11.2-6.4-115.2-19.2-203.2-40-262.4-20.8-59.2-59.2-128-116.8-206.4l-14.4 9.6c65.6 102.4 100.8 192 107.2 268.8 8 78.4 8 145.6 1.6 201.6z" fill="#EAF2E0" p-id="10062"></path><path d="M572.8 860.8c1.6-19.2 3.2-38.4 4.8-60.8 19.2-4.8 36.8-11.2 54.4-17.6 1.6 20.8 3.2 43.2 4.8 67.2-20.8 4.8-41.6 8-64 11.2z" fill="#9BB977" p-id="10063"></path><path d="M523.2 444.8h-16c0-35.2 30.4-73.6 67.2-88l6.4 14.4c-32 12.8-57.6 46.4-57.6 73.6zM268.8 560l-4.8-16c99.2-28.8 276.8 28.8 324.8 99.2l-12.8 9.6c-43.2-64-214.4-120-307.2-92.8zM248 670.4l-3.2-16c108.8-25.6 304 51.2 353.6 126.4l-12.8 9.6c-48-68.8-235.2-144-337.6-120zM584 566.4l-16-4.8c24-75.2 97.6-148.8 172.8-158.4l1.6 16c-67.2 8-137.6 76.8-158.4 147.2z" fill="#EAF2E0" p-id="10064"></path><path d="M512 880c-128 0-248-44.8-332.8-121.6C105.6 691.2 64 604.8 64 512 64 307.2 265.6 144 512 144s448 163.2 448 368-201.6 368-448 368z m0-32c230.4 0 416-152 416-336S742.4 176 512 176 96 328 96 512c0 83.2 38.4 161.6 105.6 224 78.4 70.4 190.4 112 310.4 112z" fill="#333333" p-id="10065"></path><path d="M616 734.4l-16-3.2c22.4-104 134.4-238.4 244.8-243.2l1.6 16c-102.4 4.8-209.6 132.8-230.4 230.4z" fill="#EAF2E0" p-id="10066"></path><path d="M396.8 417.6C624 339.2 750.4 160 512 160S80 316.8 80 512c0 89.6 41.6 172.8 110.4 235.2 80 72 0-259.2 206.4-329.6z" fill="#8CB35D" p-id="10067"></path><path d="M200 753.6c-3.2-1.6-6.4-3.2-9.6-6.4C121.6 684.8 80 601.6 80 512c0-195.2 193.6-352 432-352 86.4 0 124.8 24 128 57.6-19.2-6.4-46.4-9.6-80-9.6-238.4 0-432 156.8-432 352 0 72 25.6 137.6 72 193.6z" fill="#BAD19D" p-id="10068"></path><path d="M401.6 432c-65.6 22.4-104 73.6-128 153.6-4.8 19.2-9.6 38.4-14.4 62.4-1.6 12.8-9.6 54.4-9.6 56-4.8 30.4-9.6 46.4-17.6 57.6-12.8 19.2-33.6 16-52.8-1.6C105.6 691.2 64 604.8 64 512 64 307.2 265.6 144 512 144c121.6 0 171.2 49.6 131.2 123.2-33.6 60.8-128 126.4-241.6 164.8zM219.2 697.6c0-1.6 6.4-43.2 9.6-56 4.8-24 9.6-44.8 14.4-65.6 25.6-88 70.4-147.2 148.8-174.4 105.6-36.8 193.6-97.6 224-150.4 25.6-46.4-3.2-75.2-102.4-75.2C281.6 176 96 328 96 512c0 83.2 38.4 161.6 105.6 224 3.2 3.2 4.8 4.8 6.4 4.8 3.2-6.4 6.4-19.2 11.2-43.2z" fill="#333333" p-id="10069"></path><path d="M609.6 361.6C848 361.6 944 707.2 944 512S750.4 160 512 160c-67.2 0-131.2 12.8-188.8 35.2-144 57.6 48 166.4 286.4 166.4z" fill="#8CB35D" p-id="10070"></path><path d="M299.2 284.8c-38.4-30.4-36.8-64 24-88C380.8 172.8 444.8 160 512 160c222.4 0 406.4 137.6 428.8 313.6C888 329.6 723.2 224 528 224c-67.2 0-131.2 12.8-188.8 35.2-19.2 8-32 16-40 25.6z" fill="#BAD19D" p-id="10071"></path><path d="M704 196.8c142.4 57.6 240 177.6 240 315.2 0 89.6-20.8 64-67.2 11.2 1.6-11.2 3.2-24 3.2-43.2 0-116.8-68.8-219.2-176-283.2z" fill="#729844" p-id="10072"></path><path d="M609.6 377.6c-115.2 0-228.8-25.6-294.4-64-75.2-43.2-80-100.8 1.6-132.8C377.6 156.8 443.2 144 512 144c246.4 0 448 163.2 448 368 0 32-3.2 51.2-9.6 62.4-11.2 17.6-28.8 16-44.8 1.6-11.2-8-70.4-78.4-91.2-99.2-64-62.4-128-99.2-204.8-99.2zM928 512c0-184-185.6-336-416-336-64 0-126.4 11.2-182.4 33.6-54.4 20.8-51.2 44.8 1.6 76.8 60.8 35.2 169.6 59.2 278.4 59.2 86.4 0 158.4 40 227.2 108.8 20.8 20.8 76.8 86.4 88 96 1.6-6.4 3.2-19.2 3.2-38.4z" fill="#333333" p-id="10073"></path></svg>