<?xml version="1.0" standalone="no"?><!DOCTYPE svg PUBLIC "-//W3C//DTD SVG 1.1//EN" "http://www.w3.org/Graphics/SVG/1.1/DTD/svg11.dtd"><svg t="1545208822400" class="icon" style="" viewBox="0 0 1024 1024" version="1.1" xmlns="http://www.w3.org/2000/svg" p-id="27635" xmlns:xlink="http://www.w3.org/1999/xlink" width="64" height="64"><defs><style type="text/css"></style></defs><path d="M736.256 324.096c-78.848-55.296-119.808-118.784-139.264-156.672-7.168-14.336-44.032-2.56-66.56 6.656-11.776 4.608-25.088 4.608-36.864 0-23.04-9.216-59.392-20.992-66.56-6.656-18.944 38.4-59.904 101.888-139.264 156.672C115.2 444.416-29.184 863.744 512 863.744s396.8-419.328 224.256-539.648z" fill="#FCFBE2" p-id="27636"></path><path d="M136.704 652.288s6.144 225.792 375.296 225.792 375.296-225.792 375.296-225.792-97.28 163.328-375.296 163.328-375.296-163.328-375.296-163.328z" fill="#EDE6AB" p-id="27637"></path><path d="M288.256 455.168c-2.048 0-4.096-0.512-6.144-1.024-9.216-3.584-13.312-13.312-10.24-22.528C305.152 344.064 413.184 288.768 417.792 286.72c8.704-4.096 18.944-1.024 23.04 7.68 4.096 8.704 1.024 18.944-7.68 23.552-1.024 0.512-100.352 50.688-128.512 125.952-2.56 7.168-9.216 11.264-16.384 11.264zM414.72 474.112c-2.048 0-3.584-0.512-5.632-1.024-9.216-3.072-13.824-12.8-11.264-22.016 23.04-69.12 53.248-104.448 54.272-105.984 6.144-7.168 17.408-8.192 24.576-1.536 7.168 6.144 8.192 17.408 1.536 24.576-0.512 0.512-27.136 32.256-47.616 94.208-2.048 7.168-8.704 11.776-15.872 11.776zM734.208 464.384c-7.68 0-14.336-5.12-16.896-12.8-26.112-92.672-111.104-133.632-112.128-134.144-8.704-4.096-12.288-14.336-8.192-23.04 4.096-8.704 14.336-12.288 23.04-8.192 4.096 2.048 99.84 47.616 130.56 156.16 2.56 9.216-2.56 18.944-11.776 21.504-1.536 0.512-3.072 0.512-4.608 0.512zM617.984 474.112c-7.68 0-14.336-5.12-16.896-12.288-18.432-62.976-47.104-96.256-47.616-96.768-6.144-7.168-5.632-17.92 1.536-24.576 7.168-6.144 17.92-5.632 24.576 1.536 1.536 1.536 34.304 39.424 54.784 110.08 2.56 9.216-2.56 18.944-11.776 21.504-1.536 0-3.072 0.512-4.608 0.512z" fill="#262626" p-id="27638"></path><path d="M581.632 160.256c7.68 0 13.312 2.048 15.872 6.656 18.944 38.4 59.904 101.888 139.264 156.672 172.544 120.32 317.44 539.648-224.256 539.648S115.2 444.416 287.744 324.096c78.848-55.296 119.808-118.784 139.264-156.672 2.56-4.608 8.192-6.656 15.872-6.656 14.848 0 35.84 7.168 51.2 13.312 6.144 2.56 12.288 3.584 18.432 3.584s12.288-1.024 18.432-3.584c14.336-6.656 35.84-13.824 50.688-13.824m0-57.856c-18.944 0-41.472 5.12-69.632 16.384C483.84 107.52 461.312 102.4 442.368 102.4c-43.52 0-61.44 27.136-67.584 38.912-14.848 29.184-49.664 86.016-120.32 135.168-119.808 83.968-216.576 275.456-168.448 428.032C117.248 803.328 216.576 921.6 512 921.6s394.752-118.272 425.984-217.088c47.616-152.064-48.64-344.064-168.448-428.032-70.656-49.152-105.472-105.984-120.32-135.168-6.144-11.776-24.576-38.912-67.584-38.912z" fill="#262626" p-id="27639"></path></svg>