<?xml version="1.0" standalone="no"?><!DOCTYPE svg PUBLIC "-//W3C//DTD SVG 1.1//EN" "http://www.w3.org/Graphics/SVG/1.1/DTD/svg11.dtd"><svg t="1545199995044" class="icon" style="" viewBox="0 0 1024 1024" version="1.1" xmlns="http://www.w3.org/2000/svg" p-id="17069" xmlns:xlink="http://www.w3.org/1999/xlink" width="64" height="64"><defs><style type="text/css"></style></defs><path d="M800.768 568.832c16.896-11.776 33.28-25.088 49.664-38.4C885.76 501.248 925.184 474.624 944.64 432.128c34.304-73.728 20.992-178.688-23.552-244.736-21.504-31.744-56.832-52.224-92.16-63.488-23.04-7.68-45.056-9.728-69.12-9.728-23.552 0-50.176-3.584-73.216 2.56-90.112 24.576-159.232 129.024-159.744 218.624v1.536c-17.408 7.68-32.256 19.968-43.52 35.84-8.704-11.264-18.944-22.016-29.184-33.28 28.16-71.168 30.72-180.224-19.456-240.64-55.296-66.56-171.008-99.84-253.952-72.704-38.912 12.8-76.8 41.984-102.4 73.728-26.624 34.304-27.648 68.096-26.112 110.592 3.072 91.136 31.744 169.984 102.912 226.816-2.56 42.496-3.072 87.04 19.968 124.928 22.016 35.84 58.88 49.664 97.792 59.904 19.968 5.12 28.16-25.6 8.704-30.72-35.84-9.728-69.12-21.504-84.992-57.856-12.8-30.208-11.264-62.976-9.216-94.72 2.56-6.656 2.048-15.36-5.632-20.48-64.512-46.592-93.184-114.688-97.28-192.512-2.048-38.4-5.632-75.776 19.968-107.52 20.992-26.112 52.224-49.664 84.48-60.928 67.072-23.04 163.328 3.072 211.968 52.736 46.592 47.616 49.152 143.36 27.648 206.848-14.336-6.144-30.72 12.8-17.92 26.112 22.016 21.504 51.2 43.52 65.024 71.168C491.52 445.44 482.816 481.28 466.432 509.952c-25.088 44.544-70.144 79.872-118.272 97.792 6.144-49.152 4.096-102.4 1.536-152.576 15.872-7.168 29.696-16.896 40.96-30.208 13.312-15.36-9.216-38.4-22.528-22.528-6.144 7.168-12.8 12.8-20.48 17.92-4.096-57.856-19.456-112.64-45.568-164.864-9.216-18.432-36.864-2.048-27.648 15.872 10.752 20.992 18.944 43.008 25.6 65.024-8.192-2.048-14.848-7.168-21.504-12.8-8.704-7.68-18.944-16.384-22.016-27.648-5.12-19.968-35.84-11.264-30.72 8.704 4.608 18.432 18.944 32.768 33.28 44.544 14.336 11.776 30.208 20.48 49.152 20.48 5.12 24.576 7.68 49.152 8.704 74.752 1.536 56.832 7.168 119.296-3.072 175.104-10.24 58.368-58.88 99.84-97.792 140.8-44.544 46.592-88.576 93.184-133.12 139.776-14.336 14.848 8.192 37.376 22.528 22.528 53.248-55.808 107.008-111.616 159.744-167.936 31.232-33.28 62.464-67.584 75.776-111.616 68.096-18.944 134.144-70.656 162.304-136.192 17.408-40.96 13.312-74.24-1.536-103.936 0 0 0-0.512 0.512-0.512 14.336-29.696 43.52-45.568 76.288-42.496 20.48 2.048 20.48-29.696 0-31.744-7.168-0.512-13.824-0.512-20.48 0 4.608-77.824 73.728-179.712 157.696-181.76 80.384-2.048 157.696 9.728 193.536 90.624 26.624 59.904 31.744 150.016-9.216 205.312-19.456 26.112-48.64 46.08-73.728 66.56-28.672 23.552-58.88 48.64-93.696 62.976-3.072 1.024-5.12 3.072-6.656 5.12-12.8 4.608-25.088 11.264-36.864 19.968-20.992-19.968-44.544-38.4-72.704-46.592-18.432-5.12-37.376-6.144-55.808-4.608C598.528 506.88 636.928 467.456 675.328 429.056c2.56 1.024 5.632 1.536 9.216 1.024 17.408-3.072 38.912 6.656 55.296 10.752 19.968 5.12 28.672-25.6 8.704-30.72-14.336-3.584-29.184-8.704-43.52-10.752 11.264-11.776 23.04-23.04 34.816-34.304 14.848-14.336-8.192-36.864-22.528-22.528-69.632 69.12-138.752 140.288-207.36 210.944-4.096 1.536-6.656 4.608-7.68 8.192-129.536 132.608-259.072 265.216-398.336 387.072-15.36 13.824 7.168 36.352 22.528 22.528 139.264-122.368 269.824-255.488 399.36-388.608 27.136-4.608 55.808-8.704 82.944-0.512 26.112 7.68 46.592 26.624 65.536 45.056 1.024 1.024 2.048 2.048 3.584 2.56 5.632 5.632 15.36 8.192 22.528 1.024 59.904-56.32 146.432-19.456 201.216 25.6 54.272 45.056 90.112 110.592 65.536 181.76-9.728 28.672-23.552 55.296-47.616 74.752-30.208 24.576-68.608 22.016-105.472 22.016-78.848-1.024-130.048-37.376-186.368-88.576-2.048-2.048-4.608-3.072-7.168-4.096-4.608-4.096-10.752-5.632-17.408-1.024-34.816 23.552-66.56 24.064-101.888 1.536-22.528-14.336-39.424-33.792-52.736-56.32 45.568-16.896 94.208-24.576 142.848-26.624 22.016-1.024 44.544-1.024 66.048 1.024l1.536 30.72c0.512 8.704 7.168 15.872 15.872 15.872 8.192 0 16.384-7.168 15.872-15.872-0.512-8.192-0.512-16.384-1.024-24.576 26.624 7.68 50.176 22.016 68.096 48.128 11.776 16.896 39.424 1.024 27.648-15.872-12.8-18.432-28.16-32.768-45.568-43.52 4.608-4.096 9.728-6.656 15.872-7.68 8.704-1.024 15.872-6.656 15.872-15.872 0-7.68-7.168-16.896-15.872-15.872-17.92 2.048-34.304 10.752-45.568 24.576-28.16-11.264-59.392-15.872-91.136-16.896 2.048-11.776 8.704-21.504 18.432-29.184 6.656-5.632 5.632-16.896 0-22.528-6.656-6.656-15.872-5.632-22.528 0-16.384 12.8-26.112 32.256-28.16 52.736-43.52 2.56-87.04 11.776-123.904 23.04-126.976 37.376-221.696 144.384-317.44 230.4-15.36 13.824 7.168 36.352 22.528 22.528 77.824-69.632 155.136-156.672 250.88-201.728 19.968 35.328 48.64 64 85.504 81.92 39.936 18.944 71.68 14.848 106.496-6.656 31.744 28.672 64.512 57.344 103.424 74.752 41.984 18.432 89.088 19.456 134.144 17.92 84.992-3.072 141.824-64.512 156.16-147.456 20.992-112.64-91.648-235.52-203.776-250.88z" fill="#73BA2D" p-id="17070"></path></svg>