<?xml version="1.0" standalone="no"?><!DOCTYPE svg PUBLIC "-//W3C//DTD SVG 1.1//EN" "http://www.w3.org/Graphics/SVG/1.1/DTD/svg11.dtd"><svg t="1545199699770" class="icon" style="" viewBox="0 0 1024 1024" version="1.1" xmlns="http://www.w3.org/2000/svg" p-id="15464" xmlns:xlink="http://www.w3.org/1999/xlink" width="64" height="64"><defs><style type="text/css"></style></defs><path d="M723.6 273.5L691.4 222.9l-41.9 25.3-31.9-2.2-18.9-11.3-36.8 36.5-50.6-11.7-46.8 93.2-81.8 36.6-44.4 76.7-81.9 79-64.9 83.9 15.3 88.2 41.9 34.6" fill="#A5DC69" p-id="15465"></path><path d="M256.4 711.5l25.6 85.1 19.7-23.5 36.6-135.5-41 9.9-40.9 52.2" fill="#E4FF43" p-id="15466"></path><path d="M754.5 335l11.7-48.6-123.3 9.4-24.1 30.9-56.7 8.3-63.7 48.4L439 514.6l-122.4 86-34.6 46.9-25.6 58.1" fill="#E4FF43" p-id="15467"></path><path d="M818.3 389.3l6.7-70.2-36.3 12.4-54.3 8.2-59 41.3-33 31.9h-28.6l-41.1 48.4-108.2 109.2-73.5 67.1-21.6 87.5-45 27.9-25.5 47.1 25.5 42.9" fill="#A5DC69" p-id="15468"></path><path d="M803.9 397.1c-19.7-12.9-27.2 23.2-36.2 24.8s-38.9-3.6-33.5 20.1c5.3 23.8-15.4 8.8-26.1 18.1-10.6 9.3-43.7-9.3-44.2 15s-22 6.6-29.4 22.1c-7.4 15.6-26 54.3-50.5 61.5-24.5 7.2-51.6 20.1-58.6 49.6-6.9 29.4-41.3 26-69 62.5s-22 64-22.7 85.4c-0.7 21.3-30.7 39.4-49.4 37.6s-0.3 27.1-15.9 38.1c-9.6 6.8-16.4 17.5-14.3 30.6 51.6 26.1 124.2 29 178.5-23.8 69.1-67 115.9-192 155.6-200 39.7-8 82.8-42.8 89.7-61.9 6.9-19.1 1.1-37.2 16-43.9 14.9-6.7 30.8-24.6 15.5-50.3-15.3-25.8 20.3-27 24.2-41.2 2.9-10.6-10.7-29.5-15.2-43.6-5 2.1-9.9 2.3-14.5-0.7z" fill="#A5DC69" p-id="15469"></path><path d="M729.3 331.3c-11.9 7.4-44.4-12.6-58-7.1-13.7 5.5-10 39.3-37.9 28.4-27.9-10.9-43.5 6.6-48.2 21.5-4.7 15-23.6 11.9-41.7 21.1-18.2 9.1-41 55.3-49.6 92.9-22.2 97.8-121.1 99.7-178.7 173.9-37.5 48.4-35.1 103.3-14.3 146.3-1.6-12.6 5.2-22.9 14.4-29.4 15.6-11-2.8-39.9 15.9-38.1 18.7 1.8 48.7-16.3 49.4-37.6 0.7-21.3-5-48.9 22.7-85.4s62.1-33 69-62.5c6.9-29.4 34.1-42.3 58.6-49.6 24.5-7.2 43.1-46 50.5-61.5 7.4-15.6 28.8 2.1 29.4-22.1 0.5-24.3 33.5-5.7 44.2-15 10.6-9.3 31.4 5.7 26.1-18.1-5.3-23.8 24.5-18.6 33.5-20.1 8.9-1.5 16.3-36.4 35.2-25.4l0.4-0.4c3-8 8.9-16.6 12.2-24.7-13.4 0.8-25.6 8.2-33.1 12.9z" fill="#E4FF43" p-id="15470"></path><path d="M690 283.4c-18.8 18.2-24.8-12.1-46.6-12.1-27.3 0-27.3 57.5-53.7 31.9-19.6-19-51.3-4.7-61.3 46.7-0.9 4.4-2.2 8.8-4 13.2 14.9-4.9 28.6-4.9 32.4-17.3 4.7-15 20.3-32.4 48.2-21.5s24.2-22.8 37.9-28.4c13.7-5.5 46.1 14.5 58 7.1 6.1-3.8 15.4-9.5 25.9-11.9 0 0-0.6-7.9-3.2-17.5-13.2-2-26 2.4-33.6 9.8zM444.9 420.7c-67.9 5.1-29.7 59.1-70 98.1-31.8 30.9-65.1 35.6-114.6 88.3-58.7 62.5-36.1 131.5 3.4 177.4l46.1 44.7 0.1-0.2c-47.9-41.4-77.4-125.3-23-195.5 57.5-74.2 156.5-76.1 178.7-173.9 3.8-16.7 10.4-35.2 18.2-51.3-11.7 6.9-24.9 11.4-38.9 12.4z" fill="#A5DC69" p-id="15471"></path><path d="M324.4 843c93.9-67 182.4-140.7 264.8-220.6l139.7-135.5-202.2 250c-41.4 51.2-90 96.5-144.5 134.5L324.4 843z" fill="#F3FFD7" p-id="15472"></path><path d="M837.3 408.4c-2.6-5.4-7-14.3-7.1-17.7 6.2-13.2 21.1-46-5.2-71.5-18.1-17.6-38.6-3.3-50.9 5.3 1.3-3.2 2.5-6.4 3.1-9.8 2.2-11.4-1.7-21.4-11-28.2-9.5-6.9-19.1-9.5-28.2-9.7-2.4-11.5-7.8-27.7-19.1-38.6-24.4-23.7-58.7-19.7-76.5-2.5-1 1-1.7 1.5-2.2 1.8-1.4-0.8-3.7-2.8-5.3-4.2-6.3-5.4-15.9-13.5-30-13.5-19.8 0-29.9 17.2-36.5 28.5-1.7 2.9-4 6.9-5.7 9-0.6-0.4-1.3-1.1-2.2-1.9C549.4 244.6 535 241 521 245.4c-21.3 6.7-37.3 29.9-43.9 63.6-6 30.7-38.1 57.8-71.5 60.3-50 3.8-55.1 33.5-59.2 57.3-2.8 16.1-5.4 31.3-19 44.5-12.2 11.8-24.7 19.6-39.3 28.5-21.4 13.2-45.7 28.1-75.8 60.2-70.1 74.7-35 159.3 16.3 209.1 0 0 77.8 75.5 79.8 77.4 27.1 26.3 67.4 43.9 107.7 47.1 4.5 0.4 9 0.5 13.4 0.5 42.3 0 81.8-16 112.4-45.7 14.8-14.3 29.7-32.2 45.7-54.8 4.2-5.9 2.8-14.2-3.1-18.4-5.9-4.2-14.2-2.8-18.4 3.1-15 21.2-28.9 37.9-42.5 51.1-34.5 33.5-75.4 42.1-112.4 37.3 46.8-35.3 89.1-76.1 125.7-121.5L675 574.5c13.8-5.2 30.1-2.3 41.3 8.5 5.2 5.1 13.6 4.9 18.6-0.3 5.1-5.2 4.9-13.6-0.3-18.6-10.3-10-23.3-15.9-36.8-17.7l41.3-51.1c4.4-5.4 3.8-13.3-1.4-18-5.1-4.7-13.1-4.6-18.1 0.3L638 556.7c-1.1-19-9.3-36.8-23.3-50.3-5.2-5.1-13.6-4.9-18.6 0.3-5.1 5.2-4.9 13.6 0.3 18.6 10 9.7 15.4 22.4 15.4 36 0 12.2-4.4 23.7-12.5 32.9L580 613c-9 8.7-18.1 17.4-27.2 26 0.2-2.2 0.3-4.4 0.3-6.6 0-25.6-10.3-49.7-28.9-67.7-5.2-5.1-13.6-4.9-18.6 0.3-5.1 5.2-4.9 13.6 0.3 18.6 13.5 13.1 20.9 30.4 20.9 48.8s-7.4 35.7-20.9 48.8c-0.7 0.7-1.3 1.5-1.9 2.3-56.7 50.2-116.2 97.7-177.6 142-0.1 0-0.1-0.1-0.2-0.1-1.7-1.2-3.3-2.5-4.9-3.8-5.2-6.5-7.8-12.6-7.3-18 0.5-6.9 5.9-11.7 9.1-13.9 13.4-9.4 12.8-24.9 12.4-34.2 0-0.4 0-0.9-0.1-1.4 13.6-0.4 29.1-6.9 41.1-17.4 10.9-9.6 17.1-21.3 17.5-33.1 0.1-3.7 0.1-7.4 0-11.2-0.3-18.5-0.5-39.5 20-66.6 11.5-15.2 24.1-22.3 36.3-29.3 14.8-8.4 30.1-17.1 35.1-38.2 4.4-18.6 20.1-31.3 49.5-40 16-4.7 29-18.2 39.7-34.2l0.6-0.9c7-10.6 13-22.3 18.2-33.2 1-0.2 2.8-0.3 4.1-0.4 7.1-0.5 26.1-1.7 26.7-27.4v-0.2c2.6-0.3 7.3 0.1 10.3 0.4 9.8 0.8 20.9 1.8 29.3-5.4 1-0.4 4.2-0.4 6.2-0.4 6 0 14.9 0.1 21-7.5 5.9-7.3 4.7-16.7 3.2-23.1-0.2-1-0.3-1.7-0.3-2.2 2.9-1.3 10.9-1.5 14-1.5 3.5-0.1 6.4-0.1 9.2-0.6 9-1.5 13.8-9.3 18.5-16.8 1.9-3.1 5.4-8.7 7.6-10.3 0.2 0.1 0.4 0.2 0.7 0.4 16.8 11 33.4-0.6 45.5-9.1 5.1-3.5 10.3-7.2 14.2-8.5 2.1-0.7 2.3-0.5 3.3 0.5 11 10.7 7.7 24.5-0.6 42.1-5.8 12.3 1 26.3 7.6 39.8 2.6 5.4 6.9 14.2 7.2 17.9-1.3 1.3-4.7 3.4-7.1 4.8-6.1 3.7-13 7.9-17.4 15-4 6.5-6.9 17.3 1.8 31.9 4.1 6.9 5.3 13 3.7 18.2-2 6.4-8.2 11.1-13.3 13.4-16.3 7.3-18.1 22.3-19.5 34.4-0.7 5.7-1.4 11.5-3.4 17-4.9 13.4-42.8 46-79.9 53.5-20.1 4.1-38.2 26.3-59.3 58.5-4 6.1-2.3 14.2 3.8 18.2s14.2 2.3 18.2-3.8c7.2-11 29-44.4 42.4-47.1 43-8.7 90.6-45.9 99.5-70.3 3-8.4 4-16.4 4.8-22.8 1.3-10.8 2.1-12.6 4.2-13.5 13.5-6.1 23.6-16.8 27.6-29.5 2.7-8.7 3.9-22.6-6.2-39.6-1.7-2.8-1.9-4.3-1.9-4.7 0.9-1.6 5.9-4.6 8.6-6.2 7.2-4.4 16.1-9.8 18.9-20.1 2.9-11.6-3.3-24.3-9.3-36.6zM231.5 577.8c27.7-29.5 50.4-43.5 70.4-55.8 15.2-9.4 29.5-18.2 43.8-32 19.8-19.2 23.6-41.2 26.6-58.9 3.9-22.9 5.7-33.3 35.2-35.5 45.2-3.4 87.1-39.2 95.4-81.5 5.4-27.8 17-40.7 25.9-43.5 4.7-1.5 9.2-0.2 13.3 3.7 3 2.9 12.1 11.7 24.2 10.1 12.5-1.7 19.1-12.9 24.8-22.8 5.1-8.8 9.4-15.5 13.8-15.5 4.2 0 7.6 2.7 12.9 7.2 7.6 6.5 23.5 20 42.9 1.2 7.8-7.6 26-10.9 39.8 2.5 6.2 6 9.8 16.7 11.6 25.1-7.4 3.1-13.6 6.8-17.6 9.4-3.5 0.5-13.3-2.5-19.2-4.3-13-3.9-26.4-7.9-37.3-3.5-9.9 4-14.1 13.2-17.5 20.7-1.3 2.8-3.7 8.1-5.1 8.9-0.4 0.1-2.1 0.1-5.5-1.2-18.5-7.2-32.3-4-40.6 0-11.7 5.6-20.8 16.5-24.9 29.8-0.7 2.2-3.7 3.2-13 5.6-6.3 1.6-14.2 3.6-22 7.6-25.7 13-48.9 68.4-56.5 101.8-11.9 52.6-48 74.4-89.9 99.6-30.2 18.2-61.4 37-86.3 69.2-25.7 33.1-36.2 71.9-30.5 112.1 0.7 4.7 1.6 9.3 2.7 14l-1.7-1.7c-15.7-15.1-89.2-94-15.7-172.3z m350.6 69.7l-65.6 81.2C476.6 778 430 821.6 377.8 858.5c-11.3-4.1-21.7-9.3-31-15.3 82.6-60 161.6-125.7 235.3-195.7zM713 351.1c-0.9 1.5-2.2 3.5-3.2 4.9-0.9 0-1.8 0-2.6 0.1-10.3 0.2-25.8 0.5-34.6 11.7-3.3 4.2-6.7 11.5-4.6 22.6-5.9 0-14 0.6-20.9 6.2-2.1 0.4-7.3 0-10.5-0.3-9.8-0.8-22-1.9-30.8 6-5.2 4.6-7.9 11.2-8.1 19.4 0 0.6 0 1.1-0.1 1.5-0.7 0.1-1.4 0.1-2 0.1-3.7 0.2-9.7 0.6-15.4 3.7-3.9-9.3-10.2-17.5-18.4-23.9-5.7-4.5-14-3.5-18.5 2.3-4.5 5.7-3.5 14 2.3 18.5 7.3 5.7 11.9 13.9 12.9 22.9 0.7 6.9-0.7 13.7-4 19.7-1 1.5-1.9 3-2.9 4.4-0.3 0.3-0.5 0.7-0.8 1-0.6 0.7-1.1 1.4-1.5 2.2-7.7 10.5-15.1 16.8-21.9 18.9-14.3 4.2-57.7 17-67.6 59.2-2.2 9.5-8.9 13.6-22.4 21.3-13.1 7.5-29.5 16.8-44.3 36.2-26 34.3-25.7 62.4-25.4 82.9 0 3.6 0.1 6.9 0 10-0.1 4.3-3.3 9.5-8.6 14.2-8.9 7.8-20.3 11.4-26.5 10.8-8.7-0.8-14.1 2.3-17.1 5.2-7.1 6.7-6.7 16.1-6.4 23.7 0.2 4.2 0.4 10.5-1.2 11.6-7.4 5.2-12.9 11.7-16.3 19-10-16.2-16.8-34.6-19.4-53.1-4.7-33 4.1-64.9 25.3-92.3 21.9-28.2 51-45.8 79.1-62.7 43.1-26 87.6-52.8 102-116.4 8.6-38.1 30.7-78 42.6-84.1 5.3-2.7 11.1-4.2 16.7-5.6 11.8-3 26.5-6.8 31.6-23.3 0.7-2.4 3.7-10.4 11.2-13.9 5.3-2.5 11.9-2.3 19.7 0.8 29.2 11.4 39.7-11.5 44.1-21.2 1.1-2.4 2.7-5.9 3.8-7.2 3.7-0.4 13.5 2.6 19.5 4.4 14.3 4.3 29 8.7 40.2 1.7 7.7-4.8 14.8-8.5 21.4-10.1 0.4-0.1 0.8-0.2 1.1-0.3 7.2-1.6 13.9-0.6 20.2 4 0.5 0.3 0.7 0.6 0.8 0.7 0.4 2.7-4.3 11.4-6.6 15.5-0.7 1.4-1.5 2.8-2.2 4.2-1.9 0-3.6 0.2-5.1 0.6-12.4 2.6-19.4 14-24.6 22.3z" fill="" p-id="15473"></path><path d="M266.1 610.3c23.4-24.9 40.7-35.6 60.8-47.9 3.2-2 6.5-4 9.8-6.1 6.2-3.9 8-12 4.1-18.2-3.9-6.2-12-8-18.2-4.1-3.2 2-6.4 4-9.6 5.9-20.7 12.8-40.3 24.8-66.1 52.3-14.7 15.6-23.3 32.7-25.6 50.7-0.9 7.2 4.2 13.8 11.4 14.7 0.6 0.1 1.1 0.1 1.7 0.1 6.5 0 12.2-4.9 13-11.5 1.6-12.3 7.9-24.5 18.7-35.9zM369.3 527.9c3.3 0 6.6-1.2 9.2-3.7l0.2-0.2c5.2-5.1 5.4-13.4 0.3-18.6-5.1-5.2-13.4-5.4-18.6-0.3l-0.2 0.2c-5.2 5.1-5.4 13.4-0.3 18.6 2.5 2.7 6 4 9.4 4zM652.6 693.5c-2.9 4.4-44.1 67.7-62.4 95.8-5.2 8.1-9.1 13-9.1 13L563.3 783l71.9-110.6" fill="" p-id="15474"></path></svg>