<?xml version="1.0" standalone="no"?><!DOCTYPE svg PUBLIC "-//W3C//DTD SVG 1.1//EN" "http://www.w3.org/Graphics/SVG/1.1/DTD/svg11.dtd"><svg t="1545199620495" class="icon" style="" viewBox="0 0 1024 1024" version="1.1" xmlns="http://www.w3.org/2000/svg" p-id="1029" xmlns:xlink="http://www.w3.org/1999/xlink" width="64" height="64"><defs><style type="text/css"></style></defs><path d="M325.418 846.785c20.602-10.948 41.475-26.243 80.624-59.956 47.291-40.725 70.947-61.087 104.573-93.669 0 0 188.328-182.425 230.074-274.256 2.044-4.501 3.761-8.241 5.436-11.818 5.186-11.198 9.251-19.742 9.871-21.036 9.785-20.45 28.972-48.575 35.984-58.706 9.48-13.742 17.21-25.004 28.407-39.475 44.008-57.086 64.892-65.925 73.611-100.497 2.424-9.589 7.73-30.658-3.12-41.768-13.894-14.231-45.422-3.055-49.063-1.718-41.214 15.133-36.507 49.846-89.147 90.234-6.981 5.348-3.369 1.913-48.922 32.615-20.275 13.665-36.822 25.004-47.835 32.615-4.936 3.153-12.122 7.795-20.656 13.536-100.257 67.186-150.876 125.023-230.478 204.983-142.178 142.982-178.293 157.333-207.788 235.848-8.338 22.21-34.104 90.876-6.522 116.434 33.125 30.68 124.936-18.091 134.949-23.363z" fill="#40873D" p-id="1030"></path><path d="M257.558 879.205c40.703-3.837 76.612-33.353 148.429-92.408 37.278-30.647 74.123-64.925 80.45-70.741 7.784-7.207 15.655-14.677 24.167-22.917 25.287-23.776 60.369-58.402 99.387-102.693 98.909-112.314 175.869-233.163 167.977-239.403-5.436-4.262-47.052 49.063-159.997 164.085-142.396 145.048-213.593 217.507-294.564 261.787-74.568 40.747-144.689 61.815-140.667 82.624 2.892 14.948 42.845 22.689 74.818 19.666z" fill="#30662E" p-id="1031"></path><path d="M425.326 488.829c0 0 0 0 0 0 0 9.007 7.301 16.307 16.307 16.307 9.007 0 16.307-7.301 16.307-16.307 0 0 0 0 0 0 0 0 0 0 0 0 0-9.007-7.301-16.307-16.307-16.307-9.007 0-16.307 7.301-16.307 16.307s0 0 0 0z" fill="#30662E" p-id="1032"></path><path d="M418.847 668.938c0 0 0 0 0 0 0 9.007 7.301 16.307 16.307 16.307 9.007 0 16.307-7.301 16.307-16.307 0 0 0 0 0 0 0 0 0 0 0 0 0-9.007-7.301-16.307-16.307-16.307-9.007 0-16.307 7.301-16.307 16.307s0 0 0 0z" fill="#30662E" p-id="1033"></path><path d="M501.472 526.52c0 9.007 7.301 16.307 16.307 16.307s16.307-7.301 16.307-16.307c0 0 0 0 0 0 0-9.007-7.301-16.307-16.307-16.307-9.007 0-16.307 7.301-16.307 16.307 0 0 0 0 0 0z" fill="#30662E" p-id="1034"></path><path d="M441.634 589.368c0 0 0 0 0 0 0 9.007 7.301 16.307 16.307 16.307 9.007 0 16.307-7.301 16.307-16.307 0 0 0 0 0 0 0 0 0 0 0 0 0-9.007-7.301-16.307-16.307-16.307-9.007 0-16.307 7.301-16.307 16.307s0 0 0 0z" fill="#30662E" p-id="1035"></path><path d="M612.36 481.74c0 9.007 7.301 16.307 16.307 16.307s16.307-7.301 16.307-16.307c0-9.007-7.301-16.307-16.307-16.307-9.007 0-16.307 7.301-16.307 16.307z" fill="#30662E" p-id="1036"></path><path d="M563.439 595.891c0 9.007 7.301 16.307 16.307 16.307s16.307-7.301 16.307-16.307c0-9.007-7.301-16.307-16.307-16.307-9.007 0-16.307 7.301-16.307 16.307z" fill="#30662E" p-id="1037"></path><path d="M622.504 400.203c0 9.007 7.301 16.307 16.307 16.307s16.307-7.301 16.307-16.307c0-9.007-7.301-16.307-16.307-16.307-9.007 0-16.307 7.301-16.307 16.307z" fill="#30662E" p-id="1038"></path><path d="M339.843 749.18c0 0 0 0 0 0 0 9.007 7.301 16.307 16.307 16.307 9.007 0 16.307-7.301 16.307-16.307 0 0 0 0 0 0 0 0 0 0 0 0 0-9.007-7.301-16.307-16.307-16.307-9.007 0-16.307 7.301-16.307 16.307s0 0 0 0z" fill="#30662E" p-id="1039"></path><path d="M339.843 628.506c0 0 0 0 0 0 0 9.007 7.301 16.307 16.307 16.307 9.007 0 16.307-7.301 16.307-16.307 0 0 0 0 0 0 0 0 0 0 0 0 0-9.007-7.301-16.307-16.307-16.307-9.007 0-16.307 7.301-16.307 16.307s0 0 0 0z" fill="#30662E" p-id="1040"></path><path d="M234.259 906.046c-9.47 0-37.627-0.109-58.792-20.178-2.033-1.924-19.971-19.796-23.004-52.944-2.294-25.157 8.577-59.402 33.245-104.715 18.243-33.505 44.171-73.274 77.047-118.196 55.565-75.917 112.923-141.689 113.499-142.342 13.045-14.938 26.386-30.126 39.757-45.127 14.938-16.742 28.114-31.278 33.343-37.007 17.514-19.146 31.331-34.267 43.987-47.433 3.963-4.121 9.524-6.682 15.682-6.682 12.008 0 21.744 9.736 21.744 21.744 0 5.85-2.311 11.161-6.068 15.069-12.267 12.767-25.933 27.715-43.229 46.632-5.153 5.632-18.176 20.025-32.974 36.626-13.264 14.872-26.538 29.94-39.453 44.78-0.587 0.674-56.88 65.228-111.346 139.657-31.702 43.323-56.532 81.406-73.839 113.195-26.374 48.422-28.897 70.817-28.091 79.852 1.456 15.926 8.827 24.439 9.785 25.548 8.697 8.046 22.764 8.056 28.809 8.034 12.143 0 35.963-6.055 80.45-34.909 30.604-19.83 66.556-47.638 106.856-82.624 69.176-60.086 127.426-120.881 128.002-121.49 127.1-134.209 165.335-190.165 175.032-213.462 0.555-1.348 13.938-33.376 37.605-75.797 5.643-10.121 12.188-20.514 19.993-31.766 17.492-25.211 34.333-44.824 49.205-62.131 28.897-33.637 42.693-50.835 40.715-73.861-1.088-12.774-5.317-22.591-11.883-27.657-11.328-8.697-30.44-4.424-36.682-3.012-16.568 3.74-24.896 12.938-43.802 35.224-14.437 17.025-34.213 40.334-66.491 67.762-13.633 11.589-24.581 19.776-28.657 22.764-29.581 21.678-48.312 30.158-66.426 38.355-5.272 2.392-10.252 4.643-15.471 7.219-2.808 1.417-6.121 2.247-9.626 2.247-12.009 0-21.746-9.736-21.746-21.746 0-8.503 4.881-15.866 11.992-19.441 5.984-2.948 11.541-5.492 16.91-7.896 16.829-7.611 32.723-14.807 58.706-33.822 3.697-2.707 13.633-10.154 26.201-20.83 29.571-25.135 47.27-45.987 61.489-62.751 20.102-23.7 35.984-42.399 67.403-49.509 30.049-6.784 54.542-3.087 72.839 10.98 11.556 8.904 25.907 26.255 28.668 58.37 3.632 42.268-20.494 70.361-51.097 105.933-14.133 16.503-30.245 35.213-46.454 58.576-7.088 10.219-12.73 19.166-17.742 28.158-22.461 40.225-34.909 70.056-35.431 71.306-7.611 18.482-24.167 43.486-50.477 76.644-30.712 38.703-75.524 89.201-133.187 150.093-0.664 0.696-60.305 62.958-131.002 124.348-99.333 86.267-169.933 128.208-215.843 128.208zM205.699 854.635zM205.363 854.308l0.163 0.152z" fill="#000000" p-id="1041"></path><path d="M546.969 339.083c-0.005 0-0.008 0-0.014 0-12.008 0-21.743-9.735-21.743-21.743 0-6.785 3.107-12.845 7.977-16.831l0.571-0.466c3.747-3.154 8.628-5.069 13.955-5.069 12.008 0 21.743 9.735 21.743 21.743 0 6.908-3.222 13.064-8.246 17.047l-0.523 0.427c-3.702 3.045-8.49 4.892-13.71 4.892-0.004 0-0.008 0-0.010 0z" fill="#000000" p-id="1042"></path><path d="M108.28 854.113c-2.468 8.415 11.014 21.157 22.156 27.049 16.633 8.796 26.092 1.304 41.584 7.479 27.178 10.871 29.071 46.422 37.736 45.204 9.513-1.348 22.656-46.541 2.055-73.676-26.972-35.517-98.616-22.764-103.53-6.055z" fill="#FADC4A" p-id="1043"></path><path d="M185.413 876.812c-13.763-9.622-37.897 4.501-40.681 8.774 9.078 0.956 16.818-1.088 27.288 3.055 9.502 3.794 15.906 10.61 20.602 17.829 3.718-1.61 3.958-21.852-7.207-29.657z" fill="#D6BC40" p-id="1044"></path></svg>