<?xml version="1.0" standalone="no"?><!DOCTYPE svg PUBLIC "-//W3C//DTD SVG 1.1//EN" "http://www.w3.org/Graphics/SVG/1.1/DTD/svg11.dtd"><svg t="1545203885564" class="icon" style="" viewBox="0 0 1710 1024" version="1.1" xmlns="http://www.w3.org/2000/svg" p-id="36365" xmlns:xlink="http://www.w3.org/1999/xlink" width="106.875" height="64"><defs><style type="text/css"></style></defs><path d="M104.342774 316.607117v206.384895l422.530138 471.285403 16.244009-219.398693L104.342774 316.607117z" fill="#D6CFB9" p-id="36366"></path><path d="M526.872912 994.277415l698.794481-238.896151 14.640523-204.75817-697.190995 224.255628-16.244009 219.398693z" fill="#F9F6EF" p-id="36367"></path><path d="M104.319535 316.607117c0 76.432825 328.273057 438.774147 438.774147 458.271605 36.810458 6.506899 290.742193-67.137255 385.161946-97.603486 79.872186-25.562818 291.25345-45.153232 312.029049-126.745098 16.778504-65.905592-112.755265-144.848221-177.150327-206.384895-46.47785-44.502542-183.099492-196.694263-266.503994-217.771968-89.144517-22.541757-273.708061 47.593319-360.784314 71.506173-85.984023 23.703704-331.526507 66.718954-331.526507 118.727669z" fill="#EFEBDC" p-id="36368"></path><path d="M711.970951 312.493827l31.000727 463.732753-54.797386 162.974582 248.21496-84.636166-181.867829-561.545388-42.550472 19.474219z" fill="#A59C83" p-id="36369"></path><path d="M780.386347 22.890341l-90.748003 185.376907 172.293392 609.06899 111.058823-189.908497L780.386347 22.890341z" fill="#D6CFB9" p-id="36370"></path><path d="M861.931736 817.336238l732.653594 92.676834 103.180828-177.498911-724.775599-105.08642-111.058823 189.908497z" fill="#F9F6EF" p-id="36371"></path><path d="M780.386347 22.890341c-33.603486 68.671024 101.925926 538.445897 192.604212 604.5374 30.210603 22.007262 290.649237 67.532317 388.810458 81.754539 83.03268 12.061002 281.423384 87.494553 335.965141 23.35512 44.153958-51.822803-37.577342-179.660131-68.345679-263.250545-22.239651-60.421206-77.989833-257.161946-143.639796-312.772694-70.158315-59.445171-266.759622-77.594771-355.555556-94.419753-87.541031-16.592593-326.971678-85.914306-349.83878-39.204067z" fill="#EFEBDC" p-id="36372"></path></svg>