<?xml version="1.0" standalone="no"?><!DOCTYPE svg PUBLIC "-//W3C//DTD SVG 1.1//EN" "http://www.w3.org/Graphics/SVG/1.1/DTD/svg11.dtd"><svg t="1545203913479" class="icon" style="" viewBox="0 0 1024 1024" version="1.1" xmlns="http://www.w3.org/2000/svg" p-id="36505" xmlns:xlink="http://www.w3.org/1999/xlink" width="64" height="64"><defs><style type="text/css"></style></defs><path d="M396.1 227.5l-45.9 47.8-57.1 12.1c-18 10.4-12.9 54.2-1.3 74.1l222.7 385.7c11.5 19.9 23.2 20.8 54.1 20.6l59.4-10.1c15.1-2.6 28.6-10.8 37.8-23.2l35.1-34c15.2-19.7 32.3-29.5 29.4-39.2L480 227.6c-11.5-20-65.9-10.5-83.9-0.1z m113 107.1c-3.6 2.1-8.1 0.8-10.1-2.7s-0.8-8.1 2.7-10.1c3.6-2.1 8.1-0.8 10.1 2.7 2.1 3.5 0.8 8-2.7 10.1z m-24.6-42.7c-3.6 2.1-8.1 0.8-10.1-2.7-2.1-3.6-0.8-8.1 2.7-10.1s8.1-0.8 10.1 2.7 0.8 8-2.7 10.1zM461 251.3c-3.6 2.1-8.1 0.8-10.1-2.7-2.1-3.6-0.8-8.1 2.7-10.1 3.6-2.1 8.1-0.8 10.1 2.7 2.1 3.5 0.8 8-2.7 10.1z" fill="#FFCD5C" p-id="36506"></path><path d="M419.9 287.7c-3.2-5.6-10.4-7.5-16-4.3s-7.5 10.4-4.3 16l69.2 119.9c3.2 5.6 10.4 7.5 16 4.3s7.5-10.4 4.3-16l-69.2-119.9zM561.8 533.6c-3.2-5.6-10.4-7.5-16-4.3s-7.5 10.4-4.3 16l69.2 119.9c3.2 5.6 10.4 7.5 16 4.3s7.5-10.4 4.3-16l-69.2-119.9z" fill="#353535" p-id="36507"></path><path d="M698.1 729.1l36.5-45.4c4.7-2.5 10.2-4.8 15.5-7.1 14.9-6.3 28.9-12.2 33.2-25.2 2.3-7 1.3-14.4-3.2-22.1l-277-479.9c-18.8-32.6-94.8-12.6-116.6 0-0.9 0.5-1.7 1.1-2.4 1.8l-27.5 27.2-43.4-75.6c-3.2-5.6-10.4-7.5-16-4.3s-7.5 10.4-4.3 16l46.5 80.9-10.4 10.2-65 15.6c-1.1 0.3-2.2 0.7-3.1 1.2-30.6 17.7-23.2 75.6-9.1 100l246.4 426.8c16.3 28.3 36.5 28.7 73.8 26.8 0.6 0 1.2-0.1 1.7-0.2l71.3-14.4c6.3-1.3 12.5-3.2 18.3-5.8l95.3 165.5c3.2 5.6 10.4 7.5 16 4.3s7.5-10.4 4.3-16l-95.5-165.8c5.4-4.2 10.3-9.1 14.7-14.5z m-57.8 9.4l-70.4 14.2c-36.8 1.8-42.6 0-51.4-15.2L272 310.7c-11-19-12.9-57.7-0.6-67.2l66.3-15.8c2.1-0.5 4-1.6 5.5-3.1l56.3-55.6c9.2-4.9 28.5-10.9 47.9-13 21-2.3 33 1.1 35.3 5.1L759.8 641c1.1 2 1.2 2.9 1.2 2.9-1.3 3.1-13.6 8.3-20.1 11.1-6.7 2.8-13.5 5.7-19.9 9.4-1.3 0.7-2.4 1.7-3.3 2.8l-37.9 47.2c-10 12.4-24 20.9-39.5 24.1z" fill="#353535" p-id="36508"></path></svg>