<?xml version="1.0" standalone="no"?><!DOCTYPE svg PUBLIC "-//W3C//DTD SVG 1.1//EN" "http://www.w3.org/Graphics/SVG/1.1/DTD/svg11.dtd"><svg t="1545199934483" class="icon" style="" viewBox="0 0 1024 1024" version="1.1" xmlns="http://www.w3.org/2000/svg" p-id="16866" xmlns:xlink="http://www.w3.org/1999/xlink" width="64" height="64"><defs><style type="text/css"></style></defs><path d="M670.8 440.1c-197.2 204.7-183 311.7-222.2 358.4-39.2 46.7-25.1 81.4-25.1 81.4S407 789.5 500.2 624s197.5-233.8 197.5-233.8" fill="#FFFFF5" p-id="16867"></path><path d="M423.4 889.9c-4 0-7.7-2.4-9.3-6.2-0.4-1-5.9-15.2-1.4-37.2 2.7-41.4 17.4-118.4 78.7-227.4C540.2 532.6 592 472.9 626.8 438c38-38.1 64.3-55.4 65.4-56.1 4.6-3 10.8-1.7 13.8 2.9s1.7 10.8-2.9 13.8c-0.2 0.2-26.1 17.3-62.8 54.1-33.8 33.9-84.1 92.1-131.5 176.2-38.3 68.3-57.4 123.1-66.8 161.8 9.9-12.5 16.3-30.3 25-54.6 11.2-31.2 25.1-70 54.2-120.1 34.3-59.2 80.8-119 142.4-182.9 3.8-4 10.2-4.1 14.1-0.3 4 3.8 4.1 10.2 0.3 14.1-136.9 142.2-170.2 234.7-192.2 296-9.4 26.1-16.8 46.7-29.6 62-14.1 16.8-20.6 31.6-23.4 43.3-1.2 19.5 0.5 29.8 0.5 29.9 0.9 5-2.2 9.9-7.1 11.3-0.9 0.4-1.9 0.5-2.8 0.5z m9.4-13.6z" fill="#603434" p-id="16868"></path><path d="M683.8 425s-12-79.9 67.7-65.2 65.8 51.6 48.8 62.5" fill="#F7DD9C" p-id="16869"></path><path d="M683.8 435c-4.9 0-9.1-3.5-9.9-8.5-0.2-1.7-5.8-40.8 17.6-63.4 14.1-13.6 34.9-18 61.8-13.1 52.3 9.6 66.7 29.1 69.5 43.7 3.1 16-6.3 30.1-17.1 37-4.7 3-10.8 1.6-13.8-3-3-4.7-1.6-10.8 3-13.8 4.1-2.6 9.7-9.1 8.3-16.3-2.3-11.7-22.3-22.1-53.5-27.9-20.1-3.7-35-1.1-44.2 7.7-16 15.4-11.8 45.9-11.8 46.2 0.8 5.5-3 10.5-8.4 11.3-0.5 0-1 0.1-1.5 0.1z" fill="#603434" p-id="16870"></path><path d="M671.2 437.4s15.7-79.5 101.9-33.4c43.9 23.5 56.1 46.6 51.2 62.6-4.4 14.3-29.2 23-49.3 20.1-32.8-4.7-42-39.1-84.6-47.6-8.3-1.6-15.2-1.8-19.2-1.7z" fill="#F7DD9C" p-id="16871"></path><path d="M782.8 497.2c-3.1 0-6.2-0.2-9.2-0.6-18.5-2.7-30.5-13.2-42.1-23.3-12-10.5-23.3-20.4-43-24.3-5.6-1.1-11.3-1.6-17.1-1.5-3 0-5.9-1.3-7.8-3.6-1.9-2.3-2.7-5.4-2.1-8.4 0.3-1.5 7.4-36 37.1-50.1 21.4-10.1 48.1-6.8 79.3 9.9 61.2 32.8 59.6 62.9 56 74.3-5.5 17.6-29.5 27.6-51.1 27.6z m-98-69.1c2.5 0.3 5 0.7 7.4 1.2 24.9 4.9 39.5 17.7 52.3 28.9 10.7 9.4 19.2 16.8 31.8 18.6 16.9 2.4 35.9-5.3 38.3-13.1 3.2-10.3-7.1-29.7-46.4-50.8-25.2-13.5-45.8-16.7-61.1-9.5-11.7 5.5-18.5 16.3-22.3 24.7z" fill="#603434" p-id="16872"></path><path d="M337 279c-8.8 346.2 91.9 424 95.2 497.9 3.3 73.9 73.7 118.7 73.7 118.7s-118.3-89.7-170.7-311.3-14.9-371-14.9-371" fill="#FFFFF5" p-id="16873"></path><path d="M505.9 905.6c-1.8 0-3.7-0.5-5.4-1.6-2.1-1.3-36-23.3-58.5-61.8-3.3-4.2-6.6-8.7-10-13.4-33.5-46.5-79.2-126.2-106.6-242.3-27.3-115.6-30-211.4-27.3-271.4 2.8-65.3 12.1-102.8 12.5-104.4 1.3-5.4 6.8-8.6 12.1-7.3 5.4 1.3 8.6 6.8 7.3 12.1-0.1 0.4-9.2 37.6-12 101.1-2.5 58.6 0.1 152.1 26.9 265.2 20 84.8 50 149.5 77.4 195.4-0.9-20.2-10-41.4-22.7-70.7-15.6-36.1-34.9-81.1-50.1-148.8-17.8-79.7-25.2-171-22.5-278.9 0.1-5.5 4.8-9.9 10.2-9.7 5.5 0.1 9.9 4.7 9.7 10.2-6 240.7 40.4 348.3 71.1 419.5 13 30.1 23.2 53.9 24.3 77.8 0.9 21.1 7.9 39.8 17.2 55.5 29.5 37.8 52.3 55.4 52.6 55.6 4.3 3.2 5.2 9.3 2.1 13.7-2 2.7-5.1 4.2-8.3 4.2z" fill="#603434" p-id="16874"></path><path d="M336.1 249.8s-68.1-51.6 3-99.3 87.9-9.6 83.1 11.2" fill="#F7DD9C" p-id="16875"></path><path d="M336.1 259.8c-2.1 0-4.2-0.7-6-2-1.4-1.1-34.3-26.4-33.3-60.5 0.6-20.5 13-39.1 36.8-55.1 46.4-31.2 71.4-27.1 84.3-18.3 14 9.6 17.2 27.1 14.2 40-1.3 5.4-6.6 8.7-12 7.5-5.4-1.2-8.7-6.6-7.5-12 1.5-6.4-0.1-15-6-19-5.1-3.5-21.3-8.7-61.8 18.4-18.1 12.2-27.6 25.3-28 39-0.7 23.8 25.2 43.9 25.4 44.1 4.4 3.3 5.2 9.6 1.9 14-2 2.5-5 3.9-8 3.9z" fill="#603434" p-id="16876"></path><path d="M335.7 268.5s-46.9-71.7 52.4-100.5c50.6-14.6 76.9-6.2 85 9.5 7.2 14.1-5.1 39-22.5 51.6-28.3 20.6-60.7 1.5-99.2 26.6-7.4 4.8-12.7 9.8-15.7 12.8z" fill="#F7DD9C" p-id="16877"></path><path d="M335.7 278.5c-0.3 0-0.7 0-1-0.1-3-0.3-5.7-1.9-7.4-4.5-0.9-1.3-20.9-32.5-8.9-64.9 8.6-23.3 31.1-40.4 66.9-50.7 70.1-20.3 91 3.4 96.7 14.5 10 19.6-5.4 49.6-25.5 64.2-15.9 11.6-32.6 12.5-48.8 13.4-16.2 0.9-32.9 1.8-50.8 13.5-5.1 3.3-9.8 7.2-14.1 11.5-1.9 2-4.5 3.1-7.1 3.1zM434 170.3c-11.1 0-25.3 2.1-43.1 7.3-29.2 8.5-47.3 21.4-53.7 38.4-5 13.4-1.8 27.2 1.7 36.4 2.3-1.8 4.7-3.5 7.1-5.1 22.4-14.6 42.7-15.7 60.6-16.7 15.1-0.8 27-1.5 38.1-9.6 15.2-11.1 23.5-31 19.5-38.9-3.4-6.7-12.9-11.8-30.2-11.8z" fill="#603434" p-id="16878"></path><path d="M649.7 338c-160.6 244-114.4 386.5-127 438.7-14.4 59.3 1.7 118.1 1.7 118.1s-56.7-158.7-1.4-340.4 142.4-270.9 142.4-270.9" fill="#FFFFF5" p-id="16879"></path><path d="M524.3 904.8c-4.1 0-8-2.6-9.4-6.6-0.6-1.7-14.6-41.5-21.9-104.2-6.7-57.9-8.7-146.9 20.3-242.4 28.8-94.9 66.5-164.5 93-206.1 28.9-45.4 50.8-68 51.8-68.9 3.9-4 10.2-4 14.1-0.2 4 3.9 4 10.2 0.2 14.1-0.2 0.2-21.7 22.5-49.6 66.3-25.7 40.5-62.3 108.1-90.4 200.5-26.2 86.2-26.2 167-20.8 222.8 0.4-1.9 0.9-3.9 1.3-5.8 2.5-10.3 2.4-25.7 2.3-45.3-0.2-36.9-0.4-87.4 15.4-153.5 18.6-77.9 55.8-159.6 110.6-243 3-4.6 9.2-5.9 13.9-2.9s5.9 9.2 2.9 13.9C534.5 531.3 535 659.9 535.3 728.9c0.1 20.9 0.2 37.4-2.9 50.1-13.6 55.9 1.5 112.6 1.6 113.1 1.4 5.2-1.5 10.6-6.7 12.2-1 0.3-2 0.5-3 0.5z" fill="#603434" p-id="16880"></path><path d="M654 304.2s-28.5-74.5 50.6-77.1 73.8 35.9 59.9 49.9" fill="#F7DD9C" p-id="16881"></path><path d="M654 314.2c-4 0-7.8-2.4-9.3-6.4-0.6-1.6-14.4-38.4 3.4-65.2 10.6-16 29.5-24.6 56.2-25.5 51.9-1.7 69.9 14 75.8 27.5 6.5 14.8 0.4 30.5-8.4 39.5-3.9 3.9-10.2 4-14.1 0.1-3.9-3.9-4-10.2-0.1-14.1 3.3-3.4 7.2-10.8 4.3-17.4-4.7-10.7-25.9-16.5-56.8-15.5-19.8 0.7-33.3 6.2-40.2 16.5-12 18.1-1.5 46.7-1.4 47 2 5.2-0.6 10.9-5.8 12.9-1.2 0.4-2.4 0.6-3.6 0.6z" fill="#603434" p-id="16882"></path><path d="M651.7 331.7s-7.9-80.7 87.9-61.3c48.8 9.9 67.2 28.5 67.1 45.2-0.1 14.9-21.4 30.4-41.4 33.4-32.7 4.9-51.5-25.4-94.8-21.2-8.3 0.8-14.9 2.7-18.8 3.9z" fill="#F7DD9C" p-id="16883"></path><path d="M758.2 359.5c-14.5 0-26.6-5.5-38.4-10.9-14.5-6.6-28.2-12.8-48.2-10.9-5.7 0.6-11.3 1.7-16.8 3.5-2.9 0.9-6 0.5-8.5-1.2s-4.2-4.4-4.5-7.4c-0.1-1.5-3.3-36.7 21.1-58.7 17.6-15.9 44.1-20.4 78.8-13.4 68 13.8 75.2 43.1 75.1 55-0.2 21.1-26.4 39.7-49.9 43.2-3.1 0.6-6 0.8-8.7 0.8z m-79.4-42.1c20.5 0 35.6 6.9 49.2 13 12.9 5.9 23.2 10.5 35.8 8.6 16.9-2.5 32.8-15.4 32.9-23.6 0.1-10.8-15.3-26.4-59-35.3-28.1-5.7-48.8-2.8-61.4 8.6-9.6 8.6-13 21-14.1 30 2.5-0.4 5-0.8 7.5-1 3.1-0.1 6.2-0.3 9.1-0.3z" fill="#603434" p-id="16884"></path><path d="M544.6 282.1C390.1 618.9 438 698.1 426.5 754.2c-13 63.7 6.4 125.7 6.4 125.7s-58.5-160.1-6.8-355.7 133-300.7 133-300.7" fill="#FFFFF5" p-id="16885"></path><path d="M432.9 889.9c-4.1 0-7.9-2.5-9.4-6.6-0.6-1.7-15.1-41.8-23.3-106.7-7.6-59.7-10.9-152.4 16.2-255 26.9-102 62-179.1 86.7-225.8 26.9-50.9 47.2-77.3 48-78.4 3.4-4.4 9.7-5.2 14-1.8 4.4 3.4 5.2 9.7 1.8 14-0.2 0.2-12.1 15.7-29.4 45.4 2.9-2.9 7.3-3.8 11.2-2 5 2.3 7.2 8.2 4.9 13.3-119.7 260.9-117 363.6-115.5 425 0.5 17.6 0.8 31.5-1.9 44.9-12.3 60.3 6 120.1 6.2 120.7 1.6 5.2-1.2 10.7-6.3 12.4-1 0.4-2.1 0.6-3.2 0.6z m101.4-609.2c-4.3 7.5-8.9 15.9-13.7 25-24.1 45.7-58.4 121.2-84.7 221-22.7 85.9-23.4 164.8-18.4 222 1.6-10.4 1.3-22.3 0.9-36.9-0.8-30.8-1.9-73 12.5-141.1 16.9-80.2 50.8-175.1 103.4-290z" fill="#603434" p-id="16886"></path><path d="M547.9 245.9s-33.3-78.2 50.9-84.1 80 35.3 65.8 50.8" fill="#F7DD9C" p-id="16887"></path><path d="M547.9 255.9c-3.9 0-7.6-2.3-9.2-6.1-0.7-1.6-16.7-40 1.1-69 10.6-17.3 30.2-27 58.3-29 54.9-3.9 74.4 12 81.1 25.9 7.3 15.2 1.6 31.9-7.3 41.6-3.7 4.1-10.1 4.3-14.1 0.6-4.1-3.7-4.3-10.1-0.6-14.1 3.5-3.8 7.5-12.2 4-19.4-2.7-5.5-14-18-61.7-14.7-21.3 1.5-35.6 8-42.6 19.4-12.4 20.1 0.1 50.5 0.2 50.8 2.1 5.1-0.2 10.9-5.3 13.1-1.3 0.7-2.6 0.9-3.9 0.9z" fill="#603434" p-id="16888"></path><path d="M544.3 279.2s-2.9-105.3 98.3-80.8c51.6 12.5 59 42.9 58.2 60.7-0.7 15.9-19.3 29.6-40.8 32-35 3.9-49.4-18-95.6-15.3-8.8 0.6-16 2.3-20.1 3.4z" fill="#F7DD9C" p-id="16889"></path><path d="M651.9 301.6c-14.5 0-25.9-3.9-37.1-7.7-13.6-4.6-27.7-9.4-49.7-8.1-6.1 0.4-12.2 1.4-18.1 3-3 0.8-6.1 0.2-8.6-1.6s-4-4.7-4.1-7.8c-0.1-2.1-1.1-52.4 31.9-79.1 19.4-15.7 46-19.7 78.8-11.8 61.7 14.9 66.6 54.5 65.9 70.9-0.9 20.6-22.3 38.5-49.7 41.5-3.2 0.5-6.3 0.7-9.3 0.7z m-79.4-36c21.2 0 35.8 5 48.8 9.4 12.9 4.4 23.1 7.8 37.7 6.2 16.8-1.9 31.4-12.2 31.9-22.6 0.6-14.1-5.1-39.5-50.6-50.5-26.4-6.4-47.1-3.8-61.5 7.8-16.8 13.5-22.1 36.7-23.8 50.8 2.9-0.4 5.9-0.7 8.9-0.9 3-0.1 5.8-0.2 8.6-0.2z" fill="#603434" p-id="16890"></path><path d="M439 343.3c-65.7 331.8-6.4 392-4.6 444.1 2 59.3 32.4 110.2 32.4 110.2S380.9 768 385.2 583.3c4.3-184.6 54.2-295.1 54.2-295.1" fill="#FFFFF5" p-id="16891"></path><path d="M466.8 907.6c-3.2 0-6.4-1.6-8.3-4.5-0.9-1.4-22.3-34-43.4-89.9C395.7 761.7 373 680 375.3 583c2.3-96.3 17-172.3 29-219.1 13.1-51 25.5-78.8 26-80 2.3-5 8.2-7.3 13.2-5s7.3 8.2 5 13.2c-0.2 0.4-6.8 15.3-15.2 42.8 2.2-1.5 4.9-2.2 7.7-1.6 5.4 1.1 8.9 6.3 7.9 11.8C398 602 422.1 692.5 436.5 746.6c4.2 15.6 7.4 27.9 7.9 40.5 1.9 55.9 30.7 105 31 105.5 2.8 4.7 1.3 10.7-3.3 13.6-1.7 0.9-3.5 1.4-5.3 1.4z m-42.5-540.9C411.2 417 397.4 491 395.2 583.6c-1.8 75.9 12.2 142.1 27.6 190.9-1.3-6.8-3.3-14.2-5.6-22.7-7.3-27.2-17.2-64.5-18.8-128.1-1.8-69.9 6.7-154.1 25.9-257z" fill="#603434" p-id="16892"></path><path d="M434.3 310.5s-46.1-62.3 27.3-85.4 78.5 14.4 69.2 31.2" fill="#F7DD9C" p-id="16893"></path><path d="M434.3 320.5c-3.1 0-6.1-1.4-8-4.1-1-1.3-23.6-32.3-13.8-62.3 5.8-17.9 21.3-30.9 46.2-38.7 48.4-15.2 69.4-5.1 78.5 6.1 10 12.3 8.4 28.7 2.4 39.5-2.7 4.8-8.8 6.6-13.6 3.9-4.8-2.7-6.6-8.8-3.9-13.6 2.2-4 3.9-11.8-0.5-17.1-2.7-3.3-14.7-12.9-57 0.4-18.3 5.8-29.5 14.4-33.2 25.8-6.5 19.9 10.7 43.9 10.9 44.2 3.3 4.4 2.3 10.7-2.1 14-1.8 1.2-3.8 1.9-5.9 1.9z" fill="#603434" p-id="16894"></path><path d="M438.2 340.8s-25-92.9 70.1-92.6c48.4 0.1 61.5 25.6 64.6 41.5 2.7 14.3-10.9 30.4-29.4 37.1-30.3 10.9-47.7-5.5-88.1 6.7-7.9 2.4-13.8 5.4-17.2 7.3z" fill="#F7DD9C" p-id="16895"></path><path d="M438.2 350.8c-1.3 0-2.7-0.3-3.9-0.8-2.8-1.2-5-3.6-5.8-6.6-0.5-1.9-12.2-46.7 11.7-77.7 14-18.3 36.8-27.5 67.8-27.5h0.4c58.6 0.1 71.5 34.8 74.4 49.6 3.6 18.9-11.8 39.7-35.8 48.4-16.7 6-30.1 4.8-43.1 3.5-13-1.2-26.4-2.5-45.5 3.3-5.3 1.6-10.4 3.8-15.3 6.5a10 10 0 0 1-4.9 1.3z m69.7-92.6c-24.4 0-41.9 6.6-51.9 19.7-11.5 15-11.6 35.5-10.2 48.4 2.2-0.9 4.5-1.6 6.7-2.3 22.9-6.9 39-5.4 53.2-4.1 12.3 1.1 22 2 34.4-2.5 13.9-5 24.6-17.1 23-25.8-2.4-12.4-12.7-33.3-54.8-33.4h-0.4z" fill="#603434" p-id="16896"></path><path d="M402.3 898h144.5c31.2 0 57.9-22.3 63.4-53 16.3-91.2 32.7-182.5 49-273.7 1.7-9.7-5.6-18.7-15.4-18.9-53-1.1-121.2-8.1-197.3-30.4-52.9-15.5-98.1-35.1-135-54.2-10.9-5.7-23.9 2.7-23.3 15l28.5 336.6a86.33 86.33 0 0 0 26.4 55c16 15.1 37.2 23.6 59.2 23.6z m113.9-140.2h-99.1c-6.6 0-12-5.4-12-12v-99.1c0-6.6 5.4-12 12-12h99.1c6.6 0 12 5.4 12 12v99.1c0 6.6-5.4 12-12 12z" fill="#FEFFE3" p-id="16897"></path><path d="M546.9 908H402.3c-24.7 0-48.2-9.4-66.1-26.4-17-16.2-27.5-38-29.5-61.4l-28.5-336.6v-0.4c-0.5-9.4 4-18.1 11.9-23.2 7.9-5.1 17.6-5.5 26-1.2 42.5 22.1 87.3 40.1 133.2 53.5 63.1 18.5 128.6 28.6 194.7 30 7.6 0.2 14.8 3.6 19.6 9.5 4.8 5.9 6.8 13.6 5.5 21.1l-49 273.7c-6.4 35.6-37.2 61.4-73.2 61.4zM298.2 482.1l28.5 336.4c1.6 18.5 9.8 35.8 23.3 48.6 14.2 13.5 32.7 20.9 52.3 20.9h144.5c26.4 0 48.9-18.8 53.5-44.8l49-273.7c0.4-2.4-0.6-4.1-1.3-4.9-0.7-0.8-2.1-2.2-4.5-2.2-67.8-1.4-135.1-11.8-199.9-30.8-47.1-13.8-93.1-32.3-136.8-55-2.8-1.4-5.1-0.3-6 0.3-0.7 0.6-2.7 2.2-2.6 5.2z m218 285.7h-99.1c-12.1 0-22-9.9-22-22v-99.1c0-12.1 9.9-22 22-22h99.1c12.1 0 22 9.9 22 22v99.1c0 12.1-9.9 22-22 22z m-99.1-123.1c-1.1 0-2 0.9-2 2v99.1c0 1.1 0.9 2 2 2h99.1c1.1 0 2-0.9 2-2v-99.1c0-1.1-0.9-2-2-2h-99.1z" fill="#603434" p-id="16898"></path><path d="M610.2 845c16.3-91.2 32.7-182.5 49-273.7 1.7-9.7-5.6-18.7-15.4-18.9-5.2-0.1-10.5-0.3-15.9-0.5-9 58-41 253.4-68.5 285.1-28.4 32.8-172.1 23.9-241.5-9.4 3.3 17.8 12.1 34.2 25.3 46.7 16 15.2 37.2 23.7 59.2 23.7h144.5c31.1 0 57.8-22.3 63.3-53z" fill="#F7DD9C" p-id="16899"></path><path d="M546.9 908H402.3c-24.7 0-48.2-9.4-66.1-26.4-17-16.2-27.5-38-29.5-61.4l-28.5-336.6v-0.4c-0.5-9.4 4-18.1 11.9-23.2 7.9-5.1 17.6-5.5 26-1.2 42.5 22.1 87.3 40.1 133.2 53.5 63.1 18.5 128.6 28.6 194.7 30 7.6 0.2 14.8 3.6 19.6 9.5 4.8 5.9 6.8 13.6 5.5 21.1l-49 273.7c-6.4 35.6-37.2 61.4-73.2 61.4zM298.2 482.1l28.5 336.4c1.6 18.5 9.8 35.8 23.3 48.6 14.2 13.5 32.7 20.9 52.3 20.9h144.5c26.4 0 48.9-18.8 53.5-44.8l49-273.7c0.4-2.4-0.6-4.1-1.3-4.9-0.7-0.8-2.1-2.2-4.5-2.2-67.8-1.4-135.1-11.8-199.9-30.8-47.1-13.8-93.1-32.3-136.8-55-2.8-1.4-5.1-0.3-6 0.3-0.7 0.6-2.7 2.2-2.6 5.2z m218 285.7h-99.1c-12.1 0-22-9.9-22-22v-99.1c0-12.1 9.9-22 22-22h99.1c12.1 0 22 9.9 22 22v99.1c0 12.1-9.9 22-22 22z m-99.1-123.1c-1.1 0-2 0.9-2 2v99.1c0 1.1 0.9 2 2 2h99.1c1.1 0 2-0.9 2-2v-99.1c0-1.1-0.9-2-2-2h-99.1z" fill="#603434" p-id="16900"></path></svg>