<?xml version="1.0" standalone="no"?><!DOCTYPE svg PUBLIC "-//W3C//DTD SVG 1.1//EN" "http://www.w3.org/Graphics/SVG/1.1/DTD/svg11.dtd"><svg t="1545199477520" class="icon" style="" viewBox="0 0 1024 1024" version="1.1" xmlns="http://www.w3.org/2000/svg" p-id="1242" xmlns:xlink="http://www.w3.org/1999/xlink" width="64" height="64"><defs><style type="text/css"></style></defs><path d="M310.4 576c16-158.4 56-332.8 86.4-361.6 35.2-33.6 185.6-4.8 206.4 36.8 8 16 8 22.4 0 84.8-8 68.8-8 116.8 8 171.2 4.8 17.6 32 99.2 33.6 104 11.2 33.6 19.2 60.8 25.6 88 17.6 72 22.4 129.6 9.6 172.8-16 56-59.2 86.4-128 86.4-105.6 0-177.6-49.6-214.4-137.6-28.8-67.2-36.8-153.6-27.2-244.8z m32 3.2C321.6 784 382.4 928 552 928c56 0 86.4-20.8 97.6-62.4 11.2-36.8 6.4-89.6-9.6-156.8-6.4-25.6-14.4-54.4-25.6-86.4-1.6-4.8-28.8-88-33.6-105.6-17.6-59.2-17.6-110.4-9.6-184 6.4-51.2 6.4-60.8 3.2-67.2-11.2-22.4-137.6-46.4-156.8-27.2-22.4 20.8-60.8 192-75.2 340.8z" fill="#333333" p-id="1243"></path><path d="M342.4 579.2C321.6 784 382.4 928 552 928c56 0 86.4-20.8 97.6-62.4 11.2-36.8 6.4-89.6-9.6-156.8-6.4-25.6-14.4-54.4-25.6-86.4-1.6-4.8-28.8-88-33.6-105.6-17.6-59.2-17.6-110.4-9.6-184 6.4-51.2 6.4-60.8 3.2-67.2-11.2-22.4-137.6-46.4-156.8-27.2-22.4 20.8-60.8 192-75.2 340.8z" fill="#965681" p-id="1244"></path><path d="M464 232c-9.6 1.6-17.6 3.2-20.8 6.4-24 22.4-65.6 208-81.6 368-9.6 91.2-3.2 171.2 19.2 233.6-38.4-62.4-49.6-152-38.4-260.8 14.4-148.8 54.4-320 76.8-340.8 4.8-6.4 24-8 44.8-6.4z" fill="#C099B3" p-id="1245"></path><path d="M428.8 233.6c36.8-8 134.4 12.8 145.6 32 3.2 6.4 3.2 16-3.2 67.2-8 73.6-8 124.8 9.6 184 4.8 17.6 33.6 100.8 33.6 105.6 11.2 32 19.2 60.8 25.6 86.4 16 67.2 20.8 118.4 9.6 156.8-11.2 41.6-41.6 62.4-97.6 62.4-9.6 0-17.6 0-25.6-1.6 41.6-4.8 65.6-25.6 75.2-62.4 11.2-36.8 6.4-89.6-9.6-156.8-6.4-25.6-14.4-54.4-25.6-86.4-1.6-4.8-28.8-88-33.6-105.6-17.6-59.2-17.6-110.4-9.6-184 6.4-51.2 6.4-60.8 3.2-67.2-8-12.8-56-25.6-97.6-30.4z" fill="#7F3868" p-id="1246"></path><path d="M308.8 396.8c-17.6 0-22.4-22.4-6.4-30.4 17.6-8 28.8-27.2 41.6-67.2 1.6-4.8 6.4-19.2 6.4-17.6 11.2-32 17.6-48 28.8-59.2l9.6-9.6c11.2-9.6 19.2-14.4 40-24 16-8 24-12.8 30.4-22.4 4.8-8 11.2-17.6 17.6-32 1.6-3.2 6.4-14.4 8-19.2 19.2-41.6 35.2-59.2 65.6-44.8 16 8 25.6 19.2 25.6 35.2 0 6.4-1.6 11.2-3.2 17.6 0 3.2-1.6 4.8-3.2 8 0 1.6-1.6 6.4-3.2 8-4.8 14.4-8 25.6-6.4 35.2 0 9.6 3.2 19.2 9.6 28.8 3.2 6.4 8 11.2 14.4 19.2 3.2 3.2 16 20.8 19.2 24 9.6 12.8 14.4 25.6 17.6 48 9.6 52.8 17.6 76.8 48 123.2 8 11.2-3.2 27.2-16 24-48-9.6-100.8-56-126.4-107.2-4.8 9.6-9.6 20.8-11.2 35.2-1.6 14.4-3.2 28.8-1.6 49.6v16c0 3.2 0 4.8-1.6 8-1.6 8-6.4 12.8-16 12.8-20.8 0-72-52.8-97.6-104-20.8 30.4-56 44.8-89.6 44.8zM592 302.4c-3.2-19.2-6.4-27.2-12.8-35.2-3.2-4.8-16-20.8-19.2-24-6.4-9.6-12.8-16-16-24-8-14.4-12.8-28.8-14.4-44.8 0-16 1.6-28.8 8-48s6.4-20.8 6.4-24c0-1.6 0-3.2-6.4-4.8-4.8-1.6-11.2 3.2-22.4 30.4-1.6 3.2-6.4 16-8 17.6-8 16-12.8 27.2-20.8 38.4-11.2 14.4-22.4 22.4-43.2 32-19.2 9.6-25.6 12.8-33.6 19.2-3.2 1.6-4.8 4.8-8 6.4-8 8-12.8 20.8-22.4 48l-6.4 19.2c-4.8 16-11.2 30.4-17.6 41.6 14.4-8 25.6-20.8 32-36.8 6.4-14.4 27.2-12.8 30.4 3.2 6.4 25.6 22.4 52.8 46.4 78.4 6.4 6.4 11.2 12.8 17.6 17.6 0-17.6 0-30.4 3.2-46.4 4.8-32 17.6-56 38.4-72 8-6.4 20.8-1.6 24 8 11.2 33.6 38.4 68.8 68.8 89.6-11.2-27.2-17.6-51.2-24-89.6z m-89.6 126.4s1.6 0 0 0c1.6 0 1.6 0 0 0z" fill="#333333" p-id="1247"></path><path d="M592 302.4c-3.2-19.2-6.4-27.2-12.8-35.2-3.2-4.8-16-20.8-19.2-24-6.4-9.6-12.8-16-16-24-8-14.4-12.8-28.8-14.4-44.8 0-16 1.6-28.8 8-48s6.4-20.8 6.4-24c0-1.6 0-3.2-6.4-4.8-4.8-1.6-11.2 3.2-22.4 30.4-1.6 3.2-6.4 16-8 17.6-8 16-12.8 27.2-20.8 38.4-11.2 14.4-22.4 22.4-43.2 32-19.2 9.6-25.6 12.8-33.6 19.2-3.2 1.6-4.8 4.8-8 6.4-8 8-12.8 20.8-22.4 48l-6.4 19.2c-4.8 16-11.2 30.4-17.6 41.6 14.4-8 25.6-20.8 32-36.8 6.4-14.4 27.2-12.8 30.4 3.2 6.4 25.6 22.4 52.8 46.4 78.4 6.4 6.4 11.2 12.8 17.6 17.6 0-17.6 0-30.4 3.2-46.4 4.8-32 17.6-56 38.4-72 8-6.4 20.8-1.6 24 8 11.2 33.6 38.4 68.8 68.8 89.6-11.2-27.2-17.6-51.2-24-89.6z" fill="#C1D395" p-id="1248"></path><path d="M566.4 339.2c-3.2-11.2-4.8-24-8-36.8-3.2-19.2-6.4-27.2-12.8-35.2-3.2-4.8-16-20.8-19.2-24-6.4-9.6-12.8-16-16-24-8-14.4-12.8-28.8-14.4-44.8v-9.6c3.2-4.8 6.4-11.2 9.6-19.2 1.6-1.6 8-14.4 9.6-17.6 12.8-27.2 17.6-32 24-28.8 4.8 3.2 6.4 3.2 6.4 4.8 0 3.2 0 4.8-6.4 24s-9.6 32-8 48c0 16 4.8 30.4 14.4 44.8 4.8 6.4 9.6 14.4 16 24 3.2 3.2 16 20.8 19.2 24 6.4 8 8 16 12.8 35.2 6.4 38.4 12.8 64 27.2 91.2-22.4-16-40-35.2-54.4-56z" fill="#A9C170" p-id="1249"></path><path d="M395.2 816c0-9.6 6.4-16 16-16s16 6.4 16 16 12.8 25.6 22.4 25.6c9.6 0 16 6.4 16 16s-6.4 16-16 16c-27.2-1.6-54.4-32-54.4-57.6z" fill="#FFFFFF" p-id="1250"></path></svg>