<?xml version="1.0" standalone="no"?><!DOCTYPE svg PUBLIC "-//W3C//DTD SVG 1.1//EN" "http://www.w3.org/Graphics/SVG/1.1/DTD/svg11.dtd"><svg t="1545294536726" class="icon" style="" viewBox="0 0 1024 1024" version="1.1" xmlns="http://www.w3.org/2000/svg" p-id="5491" xmlns:xlink="http://www.w3.org/1999/xlink" width="64" height="64"><defs><style type="text/css"></style></defs><path d="M994.304 516.096c0 268.288-217.6 485.888-485.888 485.888S23.04 784.384 23.04 516.096 240.128 30.208 508.416 30.208s485.888 217.6 485.888 485.888" fill="#E0D5C2" p-id="5492"></path><path d="M982.016 516.096c0 261.632-211.968 473.6-473.6 473.6S34.816 777.728 34.816 516.096 246.784 42.496 508.416 42.496s473.6 211.968 473.6 473.6" fill="#D2BEAE" p-id="5493"></path><path d="M944.64 516.096c0 240.64-195.072 436.224-436.224 436.224-240.64 0-436.224-195.072-436.224-436.224 0-240.64 195.072-436.224 436.224-436.224s436.224 195.072 436.224 436.224" fill="#FFFFFF" p-id="5494"></path><path d="M865.28 377.856c55.296 93.184 24.576 214.016-69.12 269.312s-214.016 24.576-269.312-69.12L865.28 377.856z" fill="#30C03F" p-id="5495"></path><path d="M853.504 379.904c52.224 88.064 23.04 201.728-65.024 253.952-88.064 52.224-201.728 23.04-253.952-65.024l318.976-188.928z" fill="#EB4E41" p-id="5496"></path><path d="M833.024 468.992c-7.68 4.608-17.92 1.024-20.48-8.192-1.536-4.608 0-9.728 3.584-13.312 6.656-6.656 17.408-5.12 22.016 2.56 4.096 6.656 2.048 15.36-5.12 18.944M622.592 593.92c-6.656 4.096-15.36 1.536-19.456-5.12-4.096-6.656-1.536-15.36 5.12-19.456 6.656-4.096 15.36-1.536 19.456 5.12 3.584 6.656 1.536 15.36-5.12 19.456M824.32 541.184c-7.68 4.608-17.92 1.024-20.48-8.192-1.536-4.608 0-9.728 3.584-13.312 6.656-6.656 17.408-5.12 22.016 2.56 3.584 6.144 1.536 14.848-5.12 18.944M693.76 617.984c-7.68 4.608-17.92 1.024-20.48-8.192-1.536-4.608 0-9.728 3.584-13.312 6.656-6.656 17.408-5.12 22.016 2.56 4.096 6.656 1.536 15.36-5.12 18.944M773.632 598.016c-7.68 4.608-17.92 1.024-20.48-8.192-1.536-4.608 0-9.728 3.584-13.312 6.656-6.656 17.408-5.12 22.016 2.56 3.584 6.144 1.536 14.848-5.12 18.944" fill="#770000" p-id="5497"></path><path d="M335.36 227.328c-105.472 0-191.488 85.504-191.488 191.488s85.504 191.488 191.488 191.488c105.472 0 191.488-85.504 191.488-191.488S441.344 227.328 335.36 227.328" fill="#365C3C" p-id="5498"></path><path d="M335.36 251.904c-92.672 0-168.448 75.264-168.448 168.448S242.176 588.8 335.36 588.8s168.448-75.264 168.448-168.448-75.776-168.448-168.448-168.448" fill="#97CF43" p-id="5499"></path><path d="M335.872 251.904c92.672 0 167.936 75.264 167.936 168.448S428.544 588.288 335.872 588.8V251.904z" fill="#30C03F" p-id="5500"></path><path d="M319.488 403.456c0 3.072-2.56 5.632-5.632 5.632-3.072 0-5.632-2.56-5.632-5.632 0-3.072 2.56-5.632 5.632-5.632 3.072 0 5.632 2.56 5.632 5.632M333.312 393.728c0 3.072-2.56 5.632-5.632 5.632-3.072 0-5.632-2.56-5.632-5.632 0-3.072 2.56-5.632 5.632-5.632 3.072 0.512 5.632 3.072 5.632 5.632M349.696 393.728c0 3.072-2.56 5.632-5.632 5.632-3.072 0-5.632-2.56-5.632-5.632 0-3.072 2.56-5.632 5.632-5.632 3.072 0.512 5.632 3.072 5.632 5.632M362.496 403.456c0 3.072-2.56 5.632-5.632 5.632-3.072 0-5.632-2.56-5.632-5.632 0-3.072 2.56-5.632 5.632-5.632 3.072 0 5.632 2.56 5.632 5.632M366.592 419.328c0 3.072-2.56 5.632-5.632 5.632-3.072 0-5.632-2.56-5.632-5.632 0-3.072 2.56-5.632 5.632-5.632 3.072 0 5.632 2.56 5.632 5.632M361.472 433.152c0 3.072-2.56 5.632-5.632 5.632-3.072 0-5.632-2.56-5.632-5.632 0-3.072 2.56-5.632 5.632-5.632 3.584 0 5.632 2.56 5.632 5.632M349.696 442.368c0 3.072-2.56 5.632-5.632 5.632-3.072 0-5.632-2.56-5.632-5.632 0-3.072 2.56-5.632 5.632-5.632 3.072 0 5.632 2.56 5.632 5.632M333.824 443.392c0 3.072-2.56 5.632-5.632 5.632-3.072 0-5.632-2.56-5.632-5.632 0-3.072 2.56-5.632 5.632-5.632 3.072 0 5.632 2.56 5.632 5.632M320.512 434.688c0 3.072-2.56 5.632-5.632 5.632-3.072 0-5.632-2.56-5.632-5.632 0-3.072 2.56-5.632 5.632-5.632 3.584 0.512 5.632 2.56 5.632 5.632M315.392 419.84c0 3.072-2.56 5.632-5.632 5.632-3.072 0-5.632-2.56-5.632-5.632 0-3.072 2.56-5.632 5.632-5.632 3.072 0.512 5.632 3.072 5.632 5.632" fill="#486822" p-id="5501"></path><path d="M320.512 376.832c4.096-1.536 0-40.448-11.776-43.52-11.776-3.072-18.432 5.632-18.944 10.752-1.536 11.264 23.552 35.84 30.72 32.768M354.304 377.856c3.584 2.048 30.208-26.624 25.088-37.376-5.12-10.752-16.384-10.24-20.48-7.68-9.728 6.656-11.264 41.472-4.608 45.056M377.856 403.968c1.536 4.096 40.448 1.024 44.032-10.24 3.584-11.264-5.12-18.944-10.24-19.456-11.776-2.048-36.352 22.528-33.792 29.696M380.416 432.64c-2.56 3.584 20.48 34.816 32.256 31.744 11.776-3.072 13.312-14.336 11.264-18.944-5.12-10.752-38.912-18.944-43.52-12.8M355.84 459.264c-4.096 1.024-4.608 39.936 6.656 44.544 11.264 4.608 18.944-3.584 20.48-8.192 2.048-11.264-19.968-38.4-27.136-36.352M321.536 459.776c-3.584-2.048-31.744 25.088-26.624 36.352 4.608 10.752 15.872 11.264 19.968 8.192 9.728-5.632 12.8-40.448 6.656-44.544M294.912 436.224c-1.536-4.096-40.448 0.512-43.52 12.288-3.072 11.776 6.144 18.432 10.752 18.944 11.776 1.024 35.328-24.576 32.768-31.232M294.4 399.872c1.536-4.096-30.208-26.624-40.448-19.968-10.24 6.656-8.192 17.92-4.608 21.504 7.68 8.192 42.496 5.12 45.056-1.536" fill="#FFFFFF" p-id="5502"></path><path d="M344.576 441.856c-105.472 0-191.488 85.504-191.488 191.488S238.592 824.32 344.576 824.32c105.472 0 191.488-85.504 191.488-191.488S450.048 441.856 344.576 441.856" fill="#365C3C" p-id="5503"></path><path d="M344.064 466.432c-92.672 0-168.448 75.264-168.448 168.448s75.264 168.448 168.448 168.448 168.448-75.264 168.448-168.448-75.264-168.448-168.448-168.448" fill="#97CF43" p-id="5504"></path><path d="M344.576 466.432c92.672 0 167.936 75.264 167.936 168.448s-75.264 167.936-167.936 168.448V466.432z" fill="#30C03F" p-id="5505"></path><path d="M328.192 617.984c0 3.072-2.56 5.632-5.632 5.632-3.072 0-5.632-2.56-5.632-5.632 0-3.072 2.56-5.632 5.632-5.632 3.072 0 5.632 2.56 5.632 5.632M342.016 608.256c0 3.072-2.56 5.632-5.632 5.632-3.072 0-5.632-2.56-5.632-5.632 0-3.072 2.56-5.632 5.632-5.632 3.072 0 5.632 2.56 5.632 5.632M358.4 608.256c0 3.072-2.56 5.632-5.632 5.632-3.072 0-5.632-2.56-5.632-5.632 0-3.072 2.56-5.632 5.632-5.632 3.584 0 5.632 2.56 5.632 5.632M371.2 617.984c0 3.072-2.56 5.632-5.632 5.632-3.072 0-5.632-2.56-5.632-5.632 0-3.072 2.56-5.632 5.632-5.632 3.072 0 5.632 2.56 5.632 5.632M375.296 633.856c0 3.072-2.56 5.632-5.632 5.632-3.072 0-5.632-2.56-5.632-5.632 0-3.072 2.56-5.632 5.632-5.632 3.072 0 5.632 2.56 5.632 5.632M370.176 647.168c0 3.072-2.56 5.632-5.632 5.632-3.072 0-5.632-2.56-5.632-5.632 0-3.072 2.56-5.632 5.632-5.632 3.584 0.512 5.632 2.56 5.632 5.632M358.4 656.384c0 3.072-2.56 5.632-5.632 5.632-3.072 0-5.632-2.56-5.632-5.632 0-3.072 2.56-5.632 5.632-5.632 3.584 0.512 5.632 3.072 5.632 5.632M342.528 657.408c0 3.072-2.56 5.632-5.632 5.632-3.072 0-5.632-2.56-5.632-5.632 0-3.072 2.56-5.632 5.632-5.632 3.072 0.512 5.632 2.56 5.632 5.632M329.728 649.216c0 3.072-2.56 5.632-5.632 5.632-3.072 0-5.632-2.56-5.632-5.632 0-3.072 2.56-5.632 5.632-5.632 3.072 0 5.632 2.56 5.632 5.632M324.096 634.368c0 3.072-2.56 5.632-5.632 5.632-3.072 0-5.632-2.56-5.632-5.632 0-3.072 2.56-5.632 5.632-5.632 3.072 0 5.632 2.56 5.632 5.632" fill="#486822" p-id="5506"></path><path d="M329.216 591.36c4.096-1.536 0-40.448-11.776-43.52-11.776-3.072-18.432 5.632-18.944 10.752-1.536 11.264 24.064 35.328 30.72 32.768M363.008 591.872c3.584 2.048 30.208-26.624 25.088-37.376-5.12-10.752-16.384-10.24-20.48-7.68-9.216 6.656-11.264 41.984-4.608 45.056M386.56 617.984c1.536 4.096 40.448 1.024 44.032-10.24 3.584-11.264-5.12-18.944-10.24-19.456-11.776-1.536-36.352 23.04-33.792 29.696M389.12 646.656c-2.56 3.584 20.48 34.816 32.256 31.744 11.776-3.072 13.312-14.336 11.264-18.944-5.12-10.24-38.912-18.432-43.52-12.8M364.544 673.792c-4.096 1.024-4.608 39.936 6.656 44.544 11.264 4.608 18.944-3.584 20.48-8.192 2.048-11.264-19.968-38.4-27.136-36.352M330.24 674.304c-3.584-2.048-31.744 25.088-26.624 36.352 4.608 10.752 15.872 11.264 19.968 8.192 9.728-6.144 12.8-40.96 6.656-44.544M303.616 650.752c-1.536-4.096-40.448 0.512-43.52 12.288-3.072 11.776 6.144 18.432 10.752 18.944 11.776 1.024 35.328-24.576 32.768-31.232M303.104 613.888c1.536-4.096-30.208-26.624-40.448-19.968-10.24 6.656-8.192 17.92-4.608 21.504 7.68 8.704 43.008 5.632 45.056-1.536" fill="#FFFFFF" p-id="5507"></path><path d="M604.672 766.464c-3.584-7.68 3.072-18.944 15.36-24.576 12.288-6.144 25.088-4.096 29.184 3.584l-44.544 20.992z" fill="#30C03F" p-id="5508"></path><path d="M604.672 766.464c3.584 7.68 16.896 9.216 29.184 3.584 12.288-5.632 19.456-16.896 15.36-24.576l-44.544 20.992z" fill="#97CF43" p-id="5509"></path><path d="M609.28 766.976c-7.68 4.096-18.944-3.072-25.088-14.848-6.144-12.288-4.608-25.088 3.072-29.184l22.016 44.032z" fill="#30C03F" p-id="5510"></path><path d="M609.28 766.976c7.68-4.096 9.216-16.896 3.072-29.184-6.144-12.288-17.408-18.944-25.088-14.848l22.016 44.032z" fill="#97CF43" p-id="5511"></path><path d="M567.808 755.712c-35.328 0-64 28.672-64 64s28.672 64 64 64 64-28.672 64-64-28.672-64-64-64" fill="#B800FE" p-id="5512"></path><path d="M567.808 763.392c-31.232 0-56.32 25.088-56.32 56.32s25.088 56.32 56.32 56.32 56.32-25.088 56.32-56.32-25.6-56.32-56.32-56.32" fill="#3B0025" p-id="5513"></path><path d="M768 718.848c-3.584-7.68 3.072-18.944 15.36-24.576 12.288-6.144 25.088-4.096 29.184 3.584l-44.544 20.992z" fill="#30C03F" p-id="5514"></path><path d="M768 718.848c3.584 7.68 16.896 9.216 29.184 3.584 12.288-5.632 19.456-16.896 15.36-24.576l-44.544 20.992z" fill="#97CF43" p-id="5515"></path><path d="M772.608 719.872c-7.68 4.096-18.944-3.072-25.088-14.848-6.144-12.288-4.608-25.088 3.072-29.184l22.016 44.032z" fill="#30C03F" p-id="5516"></path><path d="M772.608 719.872c7.68-4.096 9.216-16.896 3.072-29.184-6.144-12.288-17.408-18.944-25.088-14.848l22.016 44.032z" fill="#97CF43" p-id="5517"></path><path d="M731.136 708.608c-35.328 0-64 28.672-64 64s28.672 64 64 64 64-28.672 64-64-28.672-64-64-64" fill="#B800FE" p-id="5518"></path><path d="M731.136 716.288c-31.232 0-56.32 25.088-56.32 56.32s25.088 56.32 56.32 56.32 56.32-25.088 56.32-56.32-25.088-56.32-56.32-56.32" fill="#3B0025" p-id="5519"></path><path d="M802.816 229.376c55.296 93.184 24.576 214.016-69.12 269.312s-214.016 24.576-269.312-69.12l338.432-200.192z" fill="#30C03F" p-id="5520"></path><path d="M790.528 231.424c52.224 88.064 23.04 201.728-65.024 253.952-88.064 52.224-201.728 23.04-253.952-65.024l318.976-188.928z" fill="#EB4E41" p-id="5521"></path><path d="M770.56 321.024c-7.68 4.608-17.92 1.024-20.48-8.192-1.536-4.608 0-9.728 3.584-13.312 6.656-6.656 17.408-5.12 22.016 2.56 3.584 6.144 1.536 14.848-5.12 18.944M560.128 445.44c-6.656 4.096-15.36 1.536-19.456-5.12-4.096-6.656-1.536-15.36 5.12-19.456 6.656-4.096 15.36-1.536 19.456 5.12 3.584 7.168 1.536 15.36-5.12 19.456M761.344 392.704c-7.68 4.608-17.92 1.024-20.48-8.192-1.536-4.608 0-9.728 3.584-13.312 6.656-6.656 17.408-5.12 22.016 2.56 4.096 6.656 1.536 14.848-5.12 18.944M631.296 470.016c-7.68 4.608-17.92 1.024-20.48-8.192-1.536-4.608 0-9.728 3.584-13.312 6.656-6.656 17.408-5.12 22.016 2.56 3.584 6.144 1.536 14.848-5.12 18.944M711.168 449.536c-7.68 4.608-17.92 1.024-20.48-8.192-1.536-4.608 0-9.728 3.584-13.312 6.656-6.656 17.408-5.12 22.016 2.56 3.584 6.144 1.536 14.848-5.12 18.944" fill="#770000" p-id="5522"></path><path d="M648.704 169.984c55.296 93.184 24.576 214.016-69.12 269.312s-214.016 24.576-269.312-69.12l338.432-200.192z" fill="#30C03F" p-id="5523"></path><path d="M636.928 172.032c52.224 88.064 23.04 201.728-65.024 253.952-88.064 52.224-201.728 23.04-253.952-65.024l318.976-188.928z" fill="#EB4E41" p-id="5524"></path><path d="M616.96 261.632c-7.68 4.608-17.92 1.024-20.48-8.192-1.536-4.608 0-9.728 3.584-13.312 6.656-6.656 17.408-5.12 22.016 2.56 3.584 6.144 1.536 14.848-5.12 18.944M406.016 386.56c-6.656 4.096-15.36 1.536-19.456-5.12-4.096-6.656-1.536-15.36 5.12-19.456 6.656-4.096 15.36-1.536 19.456 5.12 3.584 6.656 1.536 15.36-5.12 19.456M607.744 333.312c-7.68 4.608-17.92 1.024-20.48-8.192-1.536-4.608 0-9.728 3.584-13.312 6.656-6.656 17.408-5.12 22.016 2.56 3.584 6.656 1.536 15.36-5.12 18.944M477.184 410.624c-7.68 4.608-17.92 1.024-20.48-8.192-1.536-4.608 0-9.728 3.584-13.312 6.656-6.656 17.408-5.12 22.016 2.56 4.096 6.144 1.536 14.848-5.12 18.944M557.056 390.144c-7.68 4.608-17.92 1.024-20.48-8.192-1.536-4.608 0-9.728 3.584-13.312 6.656-6.656 17.408-5.12 22.016 2.56 4.096 6.656 1.536 15.36-5.12 18.944" fill="#770000" p-id="5525"></path></svg>