<?xml version="1.0" standalone="no"?><!DOCTYPE svg PUBLIC "-//W3C//DTD SVG 1.1//EN" "http://www.w3.org/Graphics/SVG/1.1/DTD/svg11.dtd"><svg t="1545203862195" class="icon" style="" viewBox="0 0 1536 1024" version="1.1" xmlns="http://www.w3.org/2000/svg" p-id="35755" xmlns:xlink="http://www.w3.org/1999/xlink" width="96" height="64"><defs><style type="text/css"></style></defs><path d="M67.45658 532.106097s134.846175-65.579962 180.49389-56.90513 174.004321-2.052823 216.318958-7.15177 148.355073-49.35604 207.003999-67.963885 141.026717-18.563698 166.146203-14.76708 114.781488-26.951576 137.826079-32.337477 46.486503-49.68714 114.030994-50.989468 137.252172 6.622009 164.799729 0 131.623464-79.35374 167.007064-73.106979 94.275334 50.570075 89.397121 71.098303-33.573585 104.804328-13.244018 129.129174 34.544813 64.608734 38.871192 82.973771-44.919294 97.784998-151.35705 98.51342-229.121509 15.009887-310.726732 39.003632-125.663656 63.416772-203.472261 62.291031-95.621809-35.736775-193.164-17.658691-145.90493 39.158146-248.038381 58.251605-86.726243-18.431258-182.105245 8.829346-144.558455 24.280699-159.126874 3.421371-11.036682-26.488036-19.402486-82.686818-38.076551-58.913806-33.992979-103.501999 32.734797-46.442356 32.734797-46.442356z" fill="#F7C779" p-id="35756"></path><path d="M1437.770959 359.227517s-335.890366 41.93939-354.917605 42.932691-165.72681 39.732054-206.319724 54.322547-88.779066 13.729632-272.694328 32.756871-121.535937 31.719423-174.180908 46.089182-197.446233 23.883379-288.543002 38.054478c-67.897665 10.551068-82.377791 28.695372-100.566242 41.078528 4.65748 10.04338 11.191195 19.159679 17.151003 31.520763l2.869538-0.309027s60.238208-25.362294 120.697149-36.354829 120.079095-0.220734 132.131151 0 121.116543-34.037126 223.227921-67.014731 119.858361-14.590493 186.652358-17.128929 161.510798-36.553489 239.495989-69.972561 474.9967-95.974983 474.9967-95.974983zM1497.236599 429.200078s-505.855261 94.076673-622.689572 135.133129-239.098669 72.312337-293.575729 80.391188-118.489813 21.676043-118.489813 21.676043 185.41625-10.308261 242.409674-24.2807 86.395143-30.130141 185.173442-51.695816 173.121387-38.804972 223.227921-40.659135 221.638639-29.490013 221.638638-29.490013 60.414795-54.234253 104.164201-51.386789a339.26759 339.26759 0 0 0 75.049434-2.847464z" fill="#E2A861" p-id="35757"></path><path d="M1143.422663 457.807157c-90.213835 29.004399-79.905574 16.334289-165.550223 40.901941s-116.216257 44.544047-173.121387 58.494412-227.046612 59.311127-240.820391 52.799485-85.622575 4.767846-85.622575 4.767846 57.699771 20.130907 104.804327 11.566443 247.486547-36.001655 291.368393-62.004077 90.059321-39.732054 152.306205-54.697794S1211.496914 465.24588 1258.270371 454.937619s101.14015-18.387111 117.165411-19.490779 113.280499-20.682741 113.280499-20.682741-255.079784 14.016586-345.293618 43.043058zM62.247266 654.988509s81.91425-31.719423 126.193417-32.558211 45.338688 4.966507 80.545702 6.975183 108.75546-16.179775 136.545824-28.430492 39.003633-16.709536 39.003632-16.709535-4.414673 28.430492-59.39942 43.241718-118.269079 29.909407-175.990924 29.578306-62.776645-1.787942-95.864615 7.836044-44.588193 17.12893-44.588194 17.12893z" fill="#FFD89F" p-id="35758"></path><path d="M106.76924 797.449994s101.007709-110.830356 146.611277-119.659701 160.892743-66.220089 198.395387-86.748317 119.549334-100.764902 167.139505-139.746462 124.162667-69.4428 148.906908-75.203947 96.703404-67.544491 116.061743-81.05339 24.81046-63.350552 87.057344-89.573707 129.923815-44.69856 153.144992-60.900409 92.906785-122.440945 128.025506-129.747228 106.283243 12.118276 109.351441 32.977605 7.61531 109.792908 35.317381 124.891088 55.978049 47.236997 66.793996 62.710424-5.540414 107.453131-104.142127 147.538359-207.290953 98.71208-274.217389 151.22461-93.282032 105.422382-165.99169 133.1686-102.045157 2.207336-185.968084 55.183407-121.09447 90.302128-208.902308 145.860784-87.366371 14.987814-165.903397 75.579195-125.332555 76.020662-146.567131 62.070297-20.08676-20.506154-48.561398-69.619387-57.17001-40.659135-69.884268-83.569753 13.332311-55.382068 13.332312-55.382068z" fill="#F7C779" p-id="35759"></path><path d="M1315.815628 129.708688s-296.555633 163.188373-313.839076 171.223077-139.260848 98.248539-171.576251 126.833544-77.389211 45.625641-241.195638 131.358584-101.184296 74.43138-144.757115 107.276545-174.578228 95.268635-253.976116 142.130384c-59.156613 34.942134-65.888989 57.192084-78.227998 75.380535 8.056778 7.61531 17.504177 13.663412 27.613777 22.956298l2.538437-1.368549s46.596869-45.846375 98.690006-78.448732 111.470483-44.63234 122.727898-48.892499 99.926115-76.440056 182.59086-144.867482 105.952143-57.920505 167.051211-84.982448 136.501677-93.745573 196.607445-153.65268S1315.815628 129.708688 1315.815628 129.708688zM1396.957311 172.685526S961.803031 447.300236 868.454779 528.706799s-195.349263 155.639283-242.806994 183.208913-102.177598 64.012753-102.177598 64.012753 168.508054-78.227999 216.208592-112.243051 69.133773-59.973327 152.902186-116.547357 146.522984-100.014408 192.369359-120.321902 194.974016-109.439734 194.974016-109.439734 36.045802-72.731731 77.764458-86.262703a341.099679 341.099679 0 0 0 68.692306-30.461241z" fill="#E2A861" p-id="35760"></path><path d="M1078.836002 330.201045c-73.084905 60.348575-68.206692 44.742707-138.642793 99.330133s-91.472017 84.40854-139.062188 118.423593-188.970061 139.062187-204.178608 138.179253-77.786531 36.045802-77.786531 36.045802 61.076996-2.648804 101.647837-28.033171 216.583838-125.045602 247.751427-165.550223 68.935113-70.303661 121.160689-107.144104 155.153669-109.594248 194.79743-136.479604 87.145637-54.521207 101.53747-61.474316 97.674632-61.121142 97.674631-61.121143-231.836532 107.497278-304.899364 167.82378zM147.428374 913.622104s64.343853-59.774667 105.179575-76.969817 43.970139-12.162423 77.411285-23.309472 95.047901-55.183408 116.326623-76.969817 30.06392-29.93148 30.06392-29.93148 6.379202 28.055244-39.202292 62.136517-98.800373 71.561843-152.526939 92.708125-58.980026 21.565676-86.086116 42.756104-35.096647 32.42577-35.096647 32.425771z" fill="#FFD89F" p-id="35761"></path><path d="M1248.668458 13.249624c37.105323 0 89.220534 16.753683 91.847263 34.544814 3.068197 20.881401 7.593237 109.792908 35.317381 124.891088s56.000122 47.236997 66.81607 62.710424c1.787942 2.56051 2.737097 7.372503 2.781244 13.575119 25.362294 16.290142 47.06041 38.319358 44.014286 51.099835-4.85614 20.528228-33.551512 104.804328-13.244018 129.129174s34.544813 64.608734 38.871192 82.973772-44.919294 97.784998-151.35705 98.513419-229.121509 15.009887-310.726732 39.003633c-80.457408 23.662645-124.405474 62.313104-200.227476 62.313104h-3.244785c-37.524717-0.551834-61.054922-8.829345-86.284776-15.296841a271.016752 271.016752 0 0 0-50.768735 25.693395c-83.87878 52.865705-121.072396 90.324202-208.880235 145.882856s-87.388444 14.987814-165.92547 75.579195c-61.010776 47.016263-102.839799 66.88229-128.444899 66.88229a32.469917 32.469917 0 0 1-18.188452-4.767846c-21.234575-13.928292-20.064687-20.506154-48.561398-69.619387l-13.244018-18.784432a121.955331 121.955331 0 0 0-10.04338-10.815948l-0.309027 0.176587c-10.131674-9.292886-19.557-15.451354-27.613778-22.956298l0.132441-0.220733a63.482992 63.482992 0 0 1-18.828579-30.902709c-12.714257-42.932691 13.244018-55.183408 13.244018-55.183407s6.246762-6.842743 16.334288-17.26137c-17.65869-1.854162-29.158913-7.15177-34.98628-15.451354-14.56842-20.815181-11.036682-26.488036-19.402486-82.686818l-5.363827-22.492757a121.535937 121.535937 0 0 0-5.341754-13.773779h-0.353174c-5.959808-12.361083-12.493523-21.477382-17.173077-31.520762l0.220734-0.154514a63.571286 63.571286 0 0 1-6.048101-35.780921c4.083572-44.56612 32.712724-46.354062 32.712724-46.354063s118.6664-57.832211 171.068563-57.832211a51.762036 51.762036 0 0 1 9.469473 0.794641c12.361083 2.36185 30.792341 3.288931 51.91655 3.288931 56.949277 0 133.56592-6.732376 164.490702-10.440701 42.425004-5.12102 148.355073-49.35604 206.981925-67.963885a351.385867 351.385867 0 0 1 63.085672-12.692183 280.066831 280.066831 0 0 1 33.419071-11.257415c24.74424-5.783221 96.703404-67.544491 116.03967-81.05339s24.81046-63.350552 87.079417-89.573707 129.923815-44.69856 153.144993-60.900409 92.906785-122.440945 128.025506-129.747228a88.293452 88.293452 0 0 1 17.504177-1.567209m0-13.244017a99.440501 99.440501 0 0 0-20.197127 1.854162c-24.898754 5.165167-55.183408 40.195594-95.092048 89.154314-15.1644 18.563698-30.902708 37.767524-37.899965 42.689884-12.096203 8.454098-41.74073 19.027239-73.129052 30.19636-24.059966 8.586538-51.342642 18.320891-77.565797 29.357573-45.758082 19.270046-64.012753 50.989469-76.175176 71.981237-4.811993 8.299585-9.337033 16.157702-13.244018 18.938946-5.430047 3.796618-14.104879 10.639361-25.097414 19.314192-23.044591 18.210525-71.054156 56.110489-86.37307 59.598081a282.539047 282.539047 0 0 0-33.683952 11.213268 361.31888 361.31888 0 0 0-63.792019 13.067431c-20.439934 6.489569-46.111255 15.870748-73.283565 25.825835-49.201526 18.011864-104.980915 38.429725-131.292364 41.608289-28.011098 3.377225-104.716034 10.352407-162.901419 10.352407-22.18373 0-38.827046-1.037448-49.444334-3.046124a64.012753 64.012753 0 0 0-11.941689-1.037448c-51.85033 0-159.391755 50.768735-175.063842 58.185385-9.601913 1.876236-37.524717 11.367782-41.93939 58.008798a77.256771 77.256771 0 0 0 7.107623 42.292564l-0.110367 0.375247c2.56051 5.540414 5.474194 10.528994 8.564465 15.826602s5.893588 10.1096 8.674831 15.892821l0.507688 0.286954a108.843753 108.843753 0 0 1 4.414672 11.301562l5.054801 21.234575c2.074896 14.104879 3.421371 24.987047 4.414672 33.750172 3.200638 26.112789 4.414673 35.891288 17.084783 54.013519a44.146726 44.146726 0 0 0 20.175054 15.318914c-8.829345 6.026028-29.445866 25.406441-16.577096 68.824746a77.256771 77.256771 0 0 0 22.294097 36.774223v0.375247c4.414673 4.193939 8.983859 7.769824 13.817925 11.544369s9.204592 7.195916 13.928292 11.544369h0.573908a112.839032 112.839032 0 0 1 8.233364 8.829345l12.559744 17.857351c7.15177 12.33901 12.427303 21.940923 16.665389 29.688673 12.625964 23.088738 17.349663 31.719423 35.847142 43.859773a45.493201 45.493201 0 0 0 25.472661 7.129696c30.704048 0 76.638717-23.397765 136.479603-69.597314 38.562165-29.73282 56.265002-33.463218 76.771157-37.767524s44.146726-9.226666 88.138939-37.105323c44.521973-28.165611 76.373836-51.894477 107.144104-74.828701s60.392721-45.007587 101.714057-71.032082a267.286353 267.286353 0 0 1 44.544047-23.110811l8.299584 2.207336c21.698116 5.871515 44.146726 11.941689 77.036037 12.427303h3.443445c50.503855 0 87.984425-16.356362 127.650259-33.683952 23.265325-10.153747 47.303217-20.638594 76.307616-29.180986 76.815303-22.404464 197.468306-37.613011 307.084627-38.385578 84.40854-0.573907 129.703081-46.641016 145.242729-66.396676 5.474194-6.953109 23.000444-30.902708 18.916872-48.384812-5.0548-21.543602-20.307494-62.864938-41.586216-88.403819-1.699649-2.074896-6.908963-11.279489-2.03075-43.175498 3.311004-21.543602 9.888867-44.853074 14.215246-60.260281 1.699649-6.003955 3.024051-10.727654 3.840765-14.171099 5.650781-23.750939-27.260603-49.929947-44.146726-61.56261a30.152214 30.152214 0 0 0-4.723699-13.773779c-12.67011-18.122231-42.115977-50.879102-71.34111-66.749849-2.36185-1.280255-10.617288-7.902264-17.857351-39.334733-4.900287-21.256649-7.438723-45.338688-9.116299-61.253583-0.640128-6.202615-1.147815-11.036682-1.677575-14.590493-2.008676-13.773779-16.025262-25.384368-41.652436-34.500666A199.763936 199.763936 0 0 0 1248.624311 0.005607z" fill="" p-id="35762"></path></svg>