<?xml version="1.0" standalone="no"?><!DOCTYPE svg PUBLIC "-//W3C//DTD SVG 1.1//EN" "http://www.w3.org/Graphics/SVG/1.1/DTD/svg11.dtd"><svg t="1545199396760" class="icon" style="" viewBox="0 0 1024 1024" version="1.1" xmlns="http://www.w3.org/2000/svg" p-id="14006" xmlns:xlink="http://www.w3.org/1999/xlink" width="64" height="64"><defs><style type="text/css"></style></defs><path d="M509.9 634.3c161.3 20 206.6-373.1 110.3-419.4s-135.7 27.7-181 46.3 68.4 85 64.8 189c-3.7 103.9-155.4 164.2 5.9 184.1z" fill="#649725" p-id="14007"></path><path d="M521.4 644c-4.2 0-8.4-0.3-12.6-0.8-48.3-6-72.1-15.7-79.6-32.6-8.4-18.8 5.7-39.1 23.6-64.8 18.2-26.1 40.8-58.6 42.2-96 1.8-52.5-28.6-95.8-50.9-127.4-16.2-23.1-28-39.7-23.7-54.3 2-6.8 7.2-11.9 15.4-15.3 11-4.5 22.3-13.2 34.2-22.3 35-26.8 78.5-60.1 154-23.8 28.8 13.8 47.8 54.3 53.5 114.1 5.2 54.5-1.2 117.8-17.6 173.7-13.4 45.7-32.8 83.4-55.9 109.1-23.9 26.7-52.3 40.4-82.6 40.4zM511 625.4c29.4 3.6 56.2-7.7 79.7-33.7 21.4-23.7 39.4-59 52-102.1 15.8-53.8 22-114.6 16.9-166.9-5-52.4-20.9-88.7-43.4-99.6-29.4-14.1-55.4-17.6-79.6-10.6-21.5 6.2-38.9 19.5-55.7 32.4-12.9 9.9-25.1 19.2-38.3 24.6-1.6 0.7-4.5 2.1-5 3.7-1.8 6.2 10.4 23.6 21.2 38.9 23.7 33.7 56.2 79.8 54.1 138.4-1.5 42.7-25.8 77.6-45.4 105.7-13.5 19.3-26.2 37.6-21.9 47.2 5.5 12.2 38.6 18.7 65.4 22z" fill="#333333" p-id="14008"></path><path d="M336.1 635.2c-183.7 0.1-221.2-390.8-110.5-423.4s136 31.3 181.3 49.9-68.5 85.1-64.9 189.1 177.8 184.2-5.9 184.4z" fill="#649725" p-id="14009"></path><path d="M336 644.1c-47.4 0-89.5-24.6-121.8-71.3-27.1-39.1-46.7-93-55.2-151.7-7.2-50-5.7-99 4.1-138 11.2-44.1 31.9-71.8 60-80 85-25 123.7 5 154.7 29 11 8.5 21.4 16.6 32.6 21.2 8.2 3.4 13.4 8.5 15.4 15.3 4.2 14.5-7.5 31.2-23.8 54.3-22.3 31.6-52.8 75-51 127.5 1.3 37.4 27.3 72.9 48.2 101.5 20.4 27.9 36.5 49.9 27.2 68.4C418 637 391 644.1 336 644.1c0.1 0 0 0 0 0z m-53.8-432.5c-15.2 0-32.9 2.6-54.1 8.8-21.3 6.3-38.2 30.1-47.6 67.2-9.3 36.8-10.6 83.3-3.8 131 8.1 56 26.6 107.2 52.2 144 13.9 20.1 29.8 35.7 47 46.3 18.4 11.4 38.7 17.2 60.1 17.2h0.1c58.6 0 71.7-8.7 74.3-13.8 4.4-8.6-10.9-29.5-25.6-49.7-22.4-30.6-50.2-68.6-51.7-111.5-2-58.6 30.5-104.8 54.2-138.5 10.8-15.3 23-32.7 21.2-38.9-0.5-1.7-3.3-3.1-5-3.7-13.5-5.5-24.8-14.3-36.8-23.6-22.1-17.2-44.8-34.8-84.5-34.8z" fill="#333333" p-id="14010"></path><path d="M452.2 177.8l2.9 0.8c7.8 2.2 12.4 10.4 10.1 18.3-0.2 0.7-0.5 1.4-0.8 2.1-2.7 6-5.5 13.9-8.3 23.7-5.1 17.8-8.7 36.3-10.9 55.7-1.1 10-10.2 17.2-20.2 16.1-1-0.1-2-0.3-3-0.6-12.4-3.5-20.3-15.6-18.6-28.4 3.2-24.6 6.5-42.6 9.7-54 2.1-7.3 4.8-14.2 8.3-20.7 5.9-11 18.7-16.5 30.8-13z" fill="#649725" p-id="14011"></path><path d="M427.1 303.6c-1 0-2-0.1-3.1-0.2-1.5-0.2-3-0.5-4.4-0.9-16.8-4.8-27.3-20.9-25-38.2 3.3-25.3 6.6-43.4 10-55.3 2.2-7.8 5.3-15.4 9-22.4 7.8-14.8 25.1-22.2 41.2-17.5l2.9 0.8c6.1 1.7 11.2 5.8 14.2 11.3 3.1 5.6 3.8 12 2.1 18.1-0.3 1.1-0.7 2.3-1.2 3.3-2.5 5.6-5.2 13.1-7.9 22.5-4.9 17.2-8.5 35.5-10.6 54.3-1.8 13.9-13.6 24.2-27.2 24.2z m17.8-117.8c-6.4 0-12.5 3.5-15.5 9.3-3.1 5.9-5.7 12.3-7.6 19-3.1 10.8-6.3 28.6-9.4 52.6-1.1 8.4 4 16.2 12.2 18.6l1.5 0.3c5.1 0.6 9.7-3.1 10.2-8.1 2.2-19.8 6-39.1 11.2-57.2 2.9-10.2 5.9-18.6 8.8-25 0.1-0.3 0.2-0.5 0.3-0.8 0.4-1.5 0.2-3-0.5-4.4-0.7-1.3-2-2.3-3.5-2.8l-2.9-0.8c-1.6-0.5-3.2-0.7-4.8-0.7z" fill="#333333" p-id="14012"></path><path d="M461.1 688c152.4 4.6 196.7-279.6 166.5-364.8s-113.7-74.6-142.1-58.9-140.4 95.1-140.4 212.4-36.3 206.7 116 211.3z" fill="#74B622" p-id="14013"></path><path d="M464.7 697.1c-1.3 0-2.6 0-3.9-0.1-51.4-1.5-84.7-12.4-104.7-34.2-27.6-30-25-76-22.1-129.2 1-18.2 2-37.1 2-56.8 0-28.4 6.3-56.7 18.7-84.2 10.3-22.7 24.7-44.9 43-66 31.4-36.3 67.1-61.1 83.3-70.1 17.1-9.5 55.7-18.6 92-4.8 29.2 11.1 51 34.8 62.9 68.6 11.3 31.8 12.5 87.9 3.2 146.4-10.6 66.7-32.8 125.9-62.4 166.5-14.9 20.5-31.8 36.3-50.1 47-19 11.2-39.8 16.9-61.9 16.9z m-3.3-18.1c38.8 1.2 72.8-17.9 101-56.5 28-38.4 49-94.7 59.2-158.7 8.7-54.8 7.8-108.8-2.4-137.6-10.3-29.1-27.9-48.5-52.4-57.8-30.4-11.5-63.3-3.8-76.9 3.7-15.1 8.4-48.7 31.8-78.4 66.1-38.1 44-57.4 90.6-57.4 138.4 0 20.3-1 39.3-2.1 57.8-2.8 51.2-5 91.6 17.4 116 16.3 18 46.4 27.3 92 28.6z" fill="#333333" p-id="14014"></path><path d="M380.6 688c-152.4 4.6-196.7-279.6-166.5-364.8 30.2-85.2 113.7-74.6 142.1-58.9 28.4 15.7 140.4 95.1 140.4 212.4s36.3 206.7-116 211.3z" fill="#74B622" p-id="14015"></path><path d="M376.9 697.1c-22 0-42.9-5.7-62.1-16.9-18.3-10.7-35.1-26.5-50.1-47-29.6-40.6-51.8-99.7-62.4-166.5-9.3-58.4-8.1-114.5 3.2-146.4 12-33.8 33.7-57.5 62.9-68.6 36.3-13.8 74.9-4.7 92 4.8 16.2 9 51.9 33.8 83.3 70.1 18.3 21.1 32.7 43.3 43 66 12.4 27.5 18.7 55.8 18.7 84.2 0 19.8 1 38.6 2 56.8 2.9 53.2 5.5 99.2-22.1 129.2-20 21.8-53.3 32.7-104.7 34.2-1.1 0.1-2.4 0.1-3.7 0.1z m-68.5-434.5c-10.8 0-22.3 1.6-33.5 5.9-24.4 9.3-42.1 28.7-52.4 57.8-10.2 28.7-11.1 82.7-2.4 137.6 10.2 64 31.2 120.3 59.2 158.7 28.2 38.7 62.2 57.7 101 56.5 45.6-1.4 75.7-10.7 92-28.4 22.4-24.4 20.2-64.9 17.4-116-1-18.5-2.1-37.5-2.1-57.8 0-47.8-19.3-94.4-57.4-138.4-29.7-34.4-63.3-57.8-78.4-66.1-8.6-5-24.9-9.8-43.4-9.8z" fill="#333333" p-id="14016"></path><path d="M420.7 689c70.6 0 123-95.1 123-212.5S508.3 264 420.7 264s-119.2 95.1-119.2 212.5S350.1 689 420.7 689z" fill="#94CA32" p-id="14017"></path><path d="M420.7 697.9c-37.1 0-70.4-23.8-94-66.9-22.1-40.5-34.2-95.3-34.2-154.5C292.5 333.7 338 255 420.7 255c23 0 43.6 6.1 61.3 18.3 16.4 11.3 30.2 27.7 41.1 48.8 19.4 37.7 29.6 91 29.6 154.4 0 58.8-12.9 113.8-36.2 154.7-24.5 43-58.6 66.7-95.8 66.7z m0-424.9c-19.3 0-36.2 5.1-50.4 15.1-13.5 9.5-24.9 23.7-34 42.1-16.9 34.5-25.8 85-25.8 146.3 0 56.2 11.4 108.1 32 145.9 20.2 37.1 48 57.5 78.2 57.5 63.9 0 114-89.4 114-203.5 0-60.5-9.6-111-27.6-146.1-19.6-38-48.7-57.3-86.4-57.3z" fill="#333333" p-id="14018"></path><path d="M540.524 852.09c-4.477-3.019-8.285-6.673-11.535-10.795-11.41-3.113-24.22-8.979-38.898-18.156-67.584-42.329-45.878-163.388-0.099-243.24 30.383-63.821 86.323-114.746 138.242-109.278 84.877 9.001 70.967 57.88 89.606 88.544a17.868 17.868 0 0 1 2 4.366 75.3 75.3 0 0 1 11.228 6.245c4.145 2.796 7.927 5.95 11.155 9.213 1.722-0.406 3.663-0.424 5.907 0.005 35.359 5.877 44.417-89.456 121.399-15.458 33.413 32.187 2.346 135.472-42.16 190.01C773.014 829.301 658.395 934.852 589.493 885c-11.742-8.523-20.822-16.698-27.769-24.64-7.731-1.235-14.817-3.964-21.2-8.27z" fill="#649725" p-id="14019"></path><path d="M630.29 915.896c-19.164-0.02-36.359-5.466-51.36-16.309-10.637-7.657-19.305-15.192-26.531-22.72a67.873 67.873 0 0 1-21.914-9.715c-4.228-2.852-8.204-6.257-11.734-9.965-11.85-3.891-24.352-10.033-38.201-18.65-18.713-11.778-32.6-28.744-41.19-50.702-8.126-20.679-11.404-45.326-9.756-73.163 2.774-46.137 18.948-98.192 44.457-142.985 17.112-35.742 41.384-67.257 68.43-88.578 28.914-22.836 59.23-33.267 87.614-30.284 31.85 3.39 54.876 12.528 70.408 27.95 6.51 6.442 11.74 14.07 15.961 23.19 3.125 6.812 5.2 13.035 7.896 22.092l0.871 3c0.3 1.166 0.6 1.972 0.845 2.861 2.697 9.057 4.584 13.948 7.113 18.067 0.027 0.139 0.193 0.25 0.22 0.39 2.572 1.372 5.115 2.967 7.685 4.7a85.96 85.96 0 0 1 8.12 6.202c0.583 0.03 1.192 0.2 1.775 0.231 1.717 0.314 6.567-4.014 14.492-12.902 3.264-3.588 3.962-4.444 5.58-6.127 6.612-7.12 11.768-11.724 17.446-15.493 8.49-5.612 17.188-8.671 26.566-9.342 20.337-1.36 42.328 9.493 66.885 33.173 20.363 19.525 25.017 56.438 13.139 103.913-9.952 39.968-29.921 81.02-53.542 109.958-32.892 45.725-76.922 89.364-117.759 116.823-25.748 17.25-50.131 28.185-72.482 32.53-7.19 1.181-14.266 1.836-21.033 1.855z m-9.681-445.594c-46.54-0.03-99.197 43.701-130.45 109.349l-0.308 0.636c-23.912 41.89-39.718 92.504-42.252 135.425-2.162 35.573 3.544 83.087 42.519 107.566 13.378 8.42 25.301 14.171 36.322 17.504l2.52 0.734 1.68 1.979a48.696 48.696 0 0 0 9.855 8.817c5.471 3.691 11.67 6.304 18.347 7.671l2.853 0.598 1.93 2.146c6.673 7.275 15.285 14.894 25.756 22.439 16.19 11.764 35.861 15.504 58.572 11.161 19.935-3.803 42.122-13.806 65.811-29.792 39.25-26.358 81.635-68.453 113.326-112.575l0.28-0.415c21.694-26.62 40.879-66.15 50.176-103.182 10.262-40.965 7.378-71.739-8.13-86.661-20.804-19.944-38.171-29.246-53.237-28.19-6.187 0.41-11.912 2.46-17.702 6.394-4.398 2.944-8.69 6.804-14.298 12.792-1.423 1.573-2.148 2.29-5.273 5.852-11.19 12.475-19.415 20.557-30.804 18.665-0.97-0.171-1.857-0.287-2.717-0.264l-3.328-0.073-2.456-2.26c-2.622-2.372-5.439-4.634-8.424-6.647a74.556 74.556 0 0 0-8.21-4.815l-2.712-1.346-1.316-2.697c-0.247-0.529-0.577-1.113-0.907-1.697-3.381-5.538-5.845-11.542-9.004-22.237-0.245-0.889-0.546-1.695-0.927-2.917l-0.872-3c-2.777-9.473-4.526-14.392-6.91-19.619-3.263-7.146-7.363-13.048-12.357-17.984-12.497-12.41-31.954-19.865-59.618-22.844-2.605-0.43-5.212-0.5-7.735-0.513z" fill="#333333" p-id="14020"></path><path d="M692.9 500.9c3.7-4.4 6.3-7.9 7.9-10.6 4.2-7.3 9.3-23.6 15.3-49.1 1.8-7.6 6.8-14 13.6-17.7l20.7-10.9c4.8-2.5 10.8-0.7 13.3 4.1 1.6 3.1 1.5 6.8-0.3 9.7-26.6 43.9-41.5 68.6-44.6 74-1.2 2.1-2.6 5.7-4.2 10.9h1.7c36.1 2.2 88.7-38.8 132.8 29.2 18.9 29.1 4.9 109.8-36.2 170.7-49.6 83.9-162.6 176.2-235.5 132.4-12.4-7.5-22.2-14.9-29.7-22.3-7.8-0.4-15.2-2.4-21.9-6.1-4.7-2.6-8.8-5.9-12.4-9.8-11.7-1.9-25-6.6-40.5-14.5-71.1-36.2-57.5-163.1-16.9-250.3 26.2-69 79.1-127.6 131.9-127.6 86.2 0 75.5 51.8 96.4 81.3 1 1.5 1.8 2.9 2.3 4.3 2.2 0.6 4.3 1.4 6.3 2.3z" fill="#518114" p-id="14021"></path><path d="M632.9 573.6c-10.5-38.2-32-55.1-64.5-50.7-48.7 6.5-97.8 153.6-79.2 198.4 12.4 29.9 27.9 49 46.7 57.3l-8.7 34.3-63.6-34.3-42.7-97.6 68.3-187.5 107.7-76.6 66.8 37.5 41.4 49.5-72.2 69.7z" fill="#416811" p-id="14022"></path><path d="M704.6 599.2c29.4-26.1 54-26.1 73.9 0 29.8 39.1-73.9 173.8-136.9 191.1-42 11.5-67.9 14.6-78 9l27 48.4 88.6 16.2 73-64.6 110.6-155.1-22-130.3-73.7-20.7-62.5 20.7v85.3z" fill="#456F10" p-id="14023"></path><path d="M619.5 872.9c-18.7 0-36-4.7-51.4-13.9-11.2-6.7-20.5-13.4-28.3-20.5-8.1-1.2-15.7-3.8-22.7-7.6-4.5-2.5-8.7-5.5-12.5-9-12.2-2.7-25.3-7.7-39.8-15-19.8-10.1-35-26.2-45.3-47.8-9.6-20.3-14.6-45.3-14.9-74.1-0.4-47.6 12.3-102.8 34.8-151.5 14.7-38.5 36.9-73.3 62.5-98.1C529.5 409 559.2 395 588 395c31.4 0 54.8 6.4 71.5 19.7 14.2 11.3 21.2 24.7 27.9 42.5 0.4 1 0.7 1.9 1.2 3.1 0.4 1 0.8 2 1 3h0.1-0.1 0.1c0.4 1.1 0.8 2.2 1.2 3.1 2-6.7 4.6-16.1 7.7-29.3 3-12.6 11.3-23.4 22.7-29.4l20.7-10.9c13.6-7.2 30.4-2 37.6 11.6 4.6 8.6 4.3 19.1-0.8 27.5-13.8 22.7-24.5 40.4-32 52.8 10.9-2.5 18.5-4 27.1-4.9 11.8-1.2 22.3-0.6 32.3 1.7 22.9 5.5 41.9 20.3 58.1 45.3 12 18.5 14.4 49.2 7 86.6-7.1 35.7-22.8 73.4-43.1 103.5-27.6 46.5-70.4 91.2-114.5 119.6-26.6 17.2-52.3 27.6-76.4 31.1-6.1 0.8-12 1.3-17.8 1.3z m-31.5-460c-49 0-103.2 52.3-131.8 127.3l-0.2 0.6c-21.2 45.7-33.7 99.6-33.3 144 0.6 66.7 27.7 94.5 50.3 106 14.1 7.2 26.4 11.7 37.7 14l2.7 0.5 1.9 1.9c3.1 3.1 6.7 5.8 10.5 7.9 5.8 3.2 12.1 5.2 18.9 5.9l3 0.3 2.2 2.1c7.2 6.8 16.4 13.6 27.4 20.2 16.5 9.9 35.7 13.3 57.2 10.2 21.5-3.1 44.8-12.7 69.3-28.5 41.3-26.6 83-70.3 108.9-113.9l0.3-0.4c19-28.2 33.8-63.7 40.5-97.2 6.5-32.3 4.8-59-4.4-73.3-13.6-20.9-29-33.2-47.2-37.6-7.9-1.9-16.5-2.3-26.2-1.3-7 0.7-13.1 1.8-25.3 4.7-8.9 2.1-15.5 3.5-20.5 4.3l-18.9 3 9.8-16.5c5.5-9.2 19.8-33 42.7-70.6 1.8-3 1.9-6.7 0.3-9.7-2.5-4.8-8.5-6.6-13.3-4.1l-20.7 10.9c-6.9 3.6-11.9 10.1-13.6 17.7-6 25.3-11.1 41.8-15.3 49.1-0.6 1-1.3 2.1-2.1 3.3l-7.4 10.5-7.3-10.6c-3.6-5.2-6.1-10.7-9.3-19.1l-1.8-4.9-1.1-3c-0.4-1.1-0.8-2.1-1.1-3-6.7-17.9-12.6-27-22.3-34.8-13.6-10.7-33.3-15.9-60.5-15.9z m90.1 45.1l3.1 8.4-3.1-8.4z" fill="#333333" p-id="14024"></path><path d="M619.6 854.8c-15.6 0-29.7-3.8-42.2-11.3-12.3-7.4-22-14.7-29.7-22.3-7.9-0.4-15.3-2.4-21.9-6.1-4.6-2.6-8.8-5.9-12.4-9.8-12-2-25.3-6.7-40.5-14.5-22.6-11.5-49.7-39.3-50.3-106-0.4-44.5 12.1-98.5 33.4-144.3 28.5-75.1 82.7-127.6 131.9-127.6 27.2 0 46.9 5.2 60.3 15.8 11 8.7 16.7 19.8 22.3 34.8 0.3 0.9 0.7 1.9 1.1 3l1.1 3-2.6 1 2.6-1c4.9 13.5 7.4 18.8 11.6 24.7 1 1.5 1.8 2.9 2.3 4.3 2.1 0.7 4.2 1.5 6.2 2.4 2-2.4 3.7-4.6 5.1-6.4l18.8 10.2c-0.7 1.8-1.4 3.9-2.2 6.6h1.7c4.6 0.3 9.8-0.1 16.3-1.2 4.5-0.8 6.2-1.1 17.8-3.8 22-5.1 36.1-7 51.5-3.3 18.2 4.4 33.6 16.7 47.2 37.6 9.3 14.3 10.9 41 4.4 73.4-6.8 34-21.2 68.5-40.6 97.3-25.8 43.7-67.6 87.4-109 114.1-23.7 15.3-46.3 24.7-67.3 28.1-5.7 0.9-11.4 1.3-16.9 1.3zM588 434.5c-18.6 0-40 11-60.1 31.1-21 20.9-39.3 50.2-51.6 82.6l-0.6 1.5c-20 43-31.8 93.5-31.4 135 0.5 55.9 21.2 78.2 38.5 87 13 6.6 24.5 10.8 34.2 12.4l7.4 1.2 5 5.6c2 2.2 4.2 4 6.8 5.4 3.7 2.1 7.8 3.2 12.5 3.4l8.3 0.4 5.9 5.9c6.3 6.3 14.9 12.7 25.5 19.1 25.3 15.2 62.1 8.9 103.7-17.9 38.8-25 77.9-66 102.1-106.9l0.7-1.1c17.6-26.1 31.2-58.7 37.4-89.4 5.8-29.2 3.5-49.9-1.4-57.5-10.6-16.3-21.4-25.3-34.1-28.3-10.2-2.4-19.9-1.7-41.6 3.4-11.6 2.7-13.8 3.2-19 4.1-8.2 1.4-14.9 1.9-21.2 1.5l-30 0.8 3.4-11.1-4.3-1.9c-1.4-0.6-2.8-1.2-4.2-1.6l-10.2-3.4-3.2-9.3c-5.8-8.3-9.2-16.1-14-29.4-0.1-0.3-0.3-0.7-0.4-1l-0.7-1.9c-0.4-1.1-0.7-2-1.1-2.9-5.2-14-9.1-20.4-15.5-25.4-9.4-7.7-24.7-11.4-46.8-11.4z m135.4 58.1l-19.3-9.5c3.5-8.9 7.4-22.6 11.9-41.8 1.8-7.6 6.8-14 13.6-17.7l52.2-27.7-20.3 33.4c-19 31.6-31.5 52.3-38.1 63.3z" fill="#94CA32" p-id="14025"></path><path d="M615.4 609.6l-96 167.1 56.3 25.5 103.9-200.8z" fill="#456F10" p-id="14026"></path><path d="M656 680.5c-3.2 0-5.8-2.3-5.8-8.2s2.6-14.8 5.8-14.8 5.8 8.8 5.8 14.8-2.6 8.2-5.8 8.2z m33-14.2c-2.7 1.8-6.1 1.3-9.4-3.7s-5.9-13.8-3.2-15.6c2.7-1.8 9.7 4.2 13 9.2 3.2 5 2.3 8.4-0.4 10.1z m23.7-11.5c-2.9 1.3-6.3 0.3-8.7-5.1-2.4-5.4-3.6-14.6-0.7-15.9 2.9-1.3 8.9 5.7 11.4 11.1 2.4 5.4 1 8.5-2 9.9z m25.6-25.9c-1.8 2.6-5.2 3.5-10.1 0.1-4.9-3.4-10.6-10.6-8.8-13.3 1.8-2.6 10.6 0.3 15.5 3.7 4.9 3.4 5.2 6.9 3.4 9.5z m11.9-27.8c-0.9 3.1-3.8 5-9.5 3.4s-13.5-6.6-12.6-9.7c0.9-3.1 10.1-3.2 15.8-1.5 5.7 1.6 7.2 4.7 6.3 7.8z m5.7-24.5c-0.6 3.2-3.2 5.4-9.1 4.3-5.9-1-14.1-5.1-13.6-8.3 0.6-3.2 9.7-4.2 15.6-3.2 5.9 1.1 7.7 4 7.1 7.2z m-5-29.5c1.4 2.9 0.4 6.2-5 8.8-5.4 2.5-14.5 3.9-15.9 1-1.4-2.9 5.6-9 10.9-11.5 5.5-2.7 8.6-1.3 10 1.7zM577.6 642.2c1.6 2.8 4.9 3.9 10 1 5.2-3 11.5-9.7 9.9-12.5-1.6-2.8-10.6-0.6-15.7 2.3-5.2 3-5.8 6.4-4.2 9.2z m-4.2-35.7c-0.2 3.2 1.9 5.9 7.9 6.3 5.9 0.3 14.9-1.8 15.1-5.1 0.2-3.2-8.5-6.3-14.5-6.6-6-0.3-8.4 2.2-8.5 5.4z m-1.9-26.3c0.3 3.2 2.9 5.6 8.8 4.9 5.9-0.6 14.4-4.1 14.1-7.4-0.3-3.2-9.4-4.9-15.3-4.3-6 0.7-7.9 3.6-7.6 6.8z m9.6-35.1c-1.4 2.9-0.4 6.2 5 8.8 5.4 2.5 14.5 3.9 15.9 1 1.4-2.9-5.6-9-10.9-11.5-5.5-2.6-8.6-1.2-10 1.7z m18.1-24.2c-2.2 2.3-2.4 5.8 1.8 9.9 4.3 4.1 12.5 8.4 14.7 6.1 2.2-2.3-2.3-10.3-6.6-14.5s-7.6-3.8-9.9-1.5z m18.4-17.2c-2.5 2.1-3 5.5 0.8 10s11.5 9.7 14 7.6c2.5-2.1-1.2-10.5-5-15.1-3.9-4.5-7.3-4.6-9.8-2.5z m28.1-10.4c-3.2 0.3-5.6 2.8-5.1 8.7s3.9 14.5 7.1 14.2c3.2-0.3 5-9.3 4.5-15.3s-3.3-7.9-6.5-7.6z" fill="#C1F760" p-id="14027"></path><path d="M604.8 656.6c-13.8-23.2-18.1-86.7-1.8-115 18.7-32.5 68-37.6 99.4-19.5 31.4 18.1 41.6 59.1 22.9 91.6-16.7 29-79.1 54.9-105.7 52.5l-57.5 124.9c-3.7 8.1-12.9 12.1-21.4 9.3l-1.4-0.5c-7.2-2.4-11.1-10.1-8.8-17.3 0.3-1 0.7-1.9 1.2-2.7l73.1-123.3z" fill="#94CA32" p-id="14028"></path><path d="M372.4 485.4c10 1.8 16-40.4 22.1-74.6s9.8-47.6-0.2-49.4c-10-1.8-30 8.7-36.1 43s4.2 79.2 14.2 81z" fill="#FFFFFF" p-id="14029"></path><path d="M362.4 518.6a9 8.5 0 1 0 18 0 9 8.5 0 1 0-18 0Z" fill="#FFFFFF" p-id="14030"></path></svg>