<?xml version="1.0" standalone="no"?><!DOCTYPE svg PUBLIC "-//W3C//DTD SVG 1.1//EN" "http://www.w3.org/Graphics/SVG/1.1/DTD/svg11.dtd"><svg t="1545203990201" class="icon" style="" viewBox="0 0 1024 1024" version="1.1" xmlns="http://www.w3.org/2000/svg" p-id="38052" xmlns:xlink="http://www.w3.org/1999/xlink" width="64" height="64"><defs><style type="text/css"></style></defs><path d="M491 619.5c0.2 147-156.7 256.5-156.7 256.5-41.1 27.7-58.5 24.6-75.9 16.1-83.7-40.6-175.5-184.3-173.7-185.8-14.9-37.9 22.1-39.2 33.8-41.5 35.4-7 57.3 3.9 97.3-38.7 23.2-24.7 42.6-52.3 102.7-56.6" fill="#73AA2B" p-id="38053"></path><path d="M597.2 386.4c-41.6-111.6 98.4-219.2 98.4-219.2S786.2 290.4 924.7 308c0 0 78.5 1.6 21.9 45.2-46.9 36.1-167.3 124.2-219.4 108.1" fill="#96CC62" p-id="38054"></path><path d="M616.7 498.6c-4.5-87.1-19.5-112.3-19.5-112.3-150.4-64.3-243.9 42.9-278 109.3-19 37-14.6 52.3-8.7 64.1 21.6 43 190.1 59.8 190.1 59.8s61.3-37.1 73.6-49.9 42.5-71 42.5-71z" fill="#96CC62" p-id="38055"></path><path d="M609.9 460.3c44.4 84.1-124.3 173.9-124.3 173.9l-2.5 30.7s174.6-15.5 244-203.7c-11.8-14.9-24.5-60-58.5-69.8s-71.4-5-71.4-5" fill="#73AA2B" p-id="38056"></path><path d="M500.6 626.3h-0.7c-0.4 0-43-4.3-87.7-13.9-62.4-13.3-97.7-29.6-107.8-49.6-8.1-16.3-9.8-34.5 8.7-70.3 10.9-21.2 42.3-73.9 98-106.4 26.1-15.2 54.2-24 83.5-25.9 33.6-2.3 69 4.4 105.2 19.9 1.2 0.5 2.2 1.3 2.9 2.4 0.3 0.5 8.5 12.6 12.4 32.1 3.6 17.9 4.3 45.7-13 76.9-1.8 3.3-6 4.5-9.2 2.6-3.3-1.8-4.5-6-2.6-9.2 12.2-21.9 16.1-44.4 11.7-67-2.6-13.2-7.4-22.6-9.5-26.1-63.3-26.5-122-24.5-174.5 6.1-52.7 30.7-82.4 80.8-92.8 100.9-17.6 34.2-14 47.4-8.7 57.9 4.5 8.9 23.3 26.3 98.4 42.4 43.9 9.4 85.9 13.6 86.3 13.7 3.7 0.4 6.5 3.7 6.1 7.4-0.3 3.5-3.2 6.1-6.7 6.1z" fill="" p-id="38057"></path><path d="M483.1 671.7c-1.8 0-3.5-0.7-4.8-2-1.4-1.4-2.1-3.4-2-5.4l2.5-30.7c0.2-2.3 1.5-4.4 3.6-5.4 1.6-0.9 162.2-87.6 121.5-164.7-1.8-3.3-0.5-7.4 2.8-9.2 3.3-1.8 7.4-0.5 9.2 2.8 19.8 37.4 3.5 81.3-47 126.7-31.3 28.2-66.1 48.6-76.9 54.6l-1.5 18.6c14.8-2.5 48.2-9.8 85.9-29.7 29.6-15.6 56-35.7 78.6-59.8 27.7-29.6 49.5-65.5 64.9-106.6-14.4-47.6-37.2-60.7-49.7-64.3-32.1-9.3-71.6-3.6-72-3.5-3.7 0.5-7.2-2-7.7-5.7-0.6-3.7 2-7.2 5.7-7.7 1.7-0.3 42.8-6.2 77.8 3.9 15.4 4.4 43.5 20.1 59.6 75.7 0.4 1.4 0.4 2.9-0.2 4.2-16.1 43.8-39.3 82-68.8 113.5-23.6 25.3-51.4 46.3-82.4 62.6-52.9 27.7-96.7 31.9-98.5 32-0.2 0.1-0.4 0.1-0.6 0.1z" fill="" p-id="38058"></path><path d="M741.6 470.1c-6 0-11.4-0.8-16.4-2.3-3.6-1.1-5.6-4.9-4.5-8.5 1.1-3.6 4.9-5.6 8.5-4.5 33.7 10.4 111.4-28.6 213.2-107 14.7-11.3 18.8-19 17.7-22.3-2.1-6.5-22.4-10.4-35.6-10.7-0.2 0-0.5 0-0.7-0.1-73.2-9.3-132.8-47.8-170-78.5-30.5-25.2-50.9-48.9-59.4-59.4-10.8 9.1-36.2 31.9-58.4 62.3-16.8 23-28.4 45.9-34.6 67.9-7.6 27-6.9 52.9 2 77 1.3 3.5-0.5 7.4-4 8.7-3.5 1.3-7.4-0.5-8.7-4-10-26.8-10.8-55.6-2.3-85.6 6.7-23.6 19-47.9 36.8-72.3 30-41.2 64.7-68 66.1-69.1 1.4-1.1 3.3-1.6 5.1-1.3 1.8 0.3 3.4 1.2 4.5 2.7 0.2 0.3 22.8 30.7 61.8 62.8 35.7 29.4 92.7 66.3 162.4 75.2 7.8 0.2 41.9 2.1 47.8 20 3.6 10.8-3.7 23-22.3 37.3-39 30.1-76.6 55.7-108.5 74.1-43.2 25.2-76.4 37.6-100.5 37.6z" fill="" p-id="38059"></path><path d="M744.7 396.9h-3c-3.8-0.1-6.7-3.3-6.5-7 0.1-3.8 3.3-6.7 7-6.5 1 0 66.4 1.7 139.8-36.1 3.3-1.7 7.4-0.4 9.2 2.9 1.7 3.3 0.4 7.4-2.9 9.2-68.8 35.3-129.5 37.5-143.6 37.5zM536.1 539.4c-1.4 0-2.8-0.4-4-1.3L426 461.3c-3-2.2-3.7-6.4-1.5-9.5 2.2-3 6.4-3.7 9.5-1.5l106.1 76.8c3 2.2 3.7 6.4 1.5 9.5-1.3 1.8-3.4 2.8-5.5 2.8zM545.3 509.5c-2.7 0-5.3-1.6-6.3-4.3l-32.7-83.1c-1.4-3.5 0.3-7.4 3.8-8.8 3.5-1.4 7.4 0.3 8.8 3.8l32.7 83.1c1.4 3.5-0.3 7.4-3.8 8.8-0.8 0.3-1.7 0.5-2.5 0.5zM281.2 904.8c-9.3 0-17.4-2.6-25.7-6.6-44.4-21.5-89.7-70.5-119.9-107.8-18.1-22.4-32.1-42.1-40.7-54.7-14.2-20.8-16.4-26-16.8-27.8-4.8-12.6-4.8-23.2-0.1-31.5 7.7-13.4 25-16.1 35.3-17.7 1.5-0.2 2.9-0.4 3.9-0.6 9-1.8 17-2.4 24.7-3.1 22.6-1.9 40.5-3.3 68.9-33.6 2.2-2.3 4.3-4.6 6.4-7 21.4-23.4 43.6-47.7 100.7-51.8 3.8-0.3 7 2.5 7.3 6.3 0.3 3.7-2.5 7-6.3 7.3-51.7 3.7-71.1 24.9-91.7 47.4-2.2 2.4-4.4 4.8-6.6 7.1-32 34.1-54.2 35.9-77.7 37.9-7.3 0.6-14.9 1.2-23.2 2.9-1.3 0.3-2.8 0.5-4.4 0.7-7.9 1.2-21.2 3.3-25.6 11-2.7 4.7-2.3 11.6 1.3 20.6 0.1 0.3 0.2 0.7 0.3 1 2.8 5.8 25 40.7 56.9 79.8C177 819.8 220 865.9 261.4 886c15.1 7.4 29.7 10.9 69-15.5 2.3-1.7 40.2-30.2 76.9-72.8 62.2-72.1 73.2-128.6 71.5-163.2-0.2-3.7 2.7-6.9 6.5-7.1 3.8-0.2 6.9 2.7 7.1 6.5 1.5 29.9-5.8 61.6-21.7 94.3-12.5 25.8-30.5 52.3-53.3 78.7-38.7 44.8-77.5 73.5-79.1 74.7-0.1 0.1-0.2 0.1-0.2 0.2-25 16.7-42.4 23-56.9 23z m53.1-28.8zM89.1 711.5z m0 0z m0 0z m0.8-0.8c-0.2 0.3-0.5 0.6-0.8 0.8l0.8-0.8zM736 360.8c-1.6 0-3.2-0.6-4.5-1.7-2.8-2.5-3.1-6.8-0.6-9.6 0.2-0.3 24.1-28 28.6-64.2 0.5-3.7 3.9-6.4 7.6-5.9 3.7 0.5 6.4 3.9 5.9 7.6-5 40.4-30.7 70.2-31.8 71.4-1.4 1.6-3.3 2.4-5.2 2.4z" fill="" p-id="38060"></path><path d="M271.9 781.7c-0.4 0-0.9 0-1.2-0.1-3.7-0.5-6.3-4-5.8-7.7 0.5-3.6 3.8-6.2 7.4-5.8 5.3-0.3 33.5-11.9 64.5-30.4 34.2-20.4 56-40 58.4-52.4 0.7-3.7 4.3-6.1 8-5.4 3.7 0.7 6.1 4.3 5.4 8-4.2 21.6-38.5 45.9-66.5 62.5-22 13-58.4 31.3-70.2 31.3z m0.5-13.5h0.2-0.2z" fill="" p-id="38061"></path></svg>