<?xml version="1.0" standalone="no"?><!DOCTYPE svg PUBLIC "-//W3C//DTD SVG 1.1//EN" "http://www.w3.org/Graphics/SVG/1.1/DTD/svg11.dtd"><svg t="1545203299493" class="icon" style="" viewBox="0 0 1024 1024" version="1.1" xmlns="http://www.w3.org/2000/svg" p-id="32900" xmlns:xlink="http://www.w3.org/1999/xlink" width="64" height="64"><defs><style type="text/css"></style></defs><path d="M114.6 559.6c61 178 132 184 173 202 100 71 460 147 605-148-112.5-54.2-512-54-512-54h-266z" fill="#D2DBAF" p-id="32901"></path><path d="M699.8 454.3c-4.6 0-6.6-2.5-7.4-4-1.8-3.5-2.7-10.9 10.6-34.3 6.2-10.9 12.9-20.8 14.4-23 4.3-13.3 9.2-21.6 12.7-27.7 2.8-4.8 4.7-8.1 4.9-11.2-3.4-9.6-18-37.7-28.7-58.3C694 272.2 694 272 694 270.6c0-0.5 0.1-1.1 0.4-1.6 1.7-3.5 3.7-6.9 7.2-6.9 2.8 0 4.5 2.2 6.4 4.7 0.4 0.5 0.8 1 1.2 1.6 1.5 1.8 4.7 8.3 11.3 21.5 8.6 17 26.3 52.5 31.3 55.5 0.1 0 0.2 0.1 0.3 0.1 17.2 9.1 38.5 22.6 55.6 35.3 31.2 23.1 30.5 29.7 30.3 32.2-0.1 0.5-0.2 1-0.5 1.5-1.2 1.9-3.1 3-5.4 3-5 0-11.6-5.2-19-11.5-0.7-0.6-1.3-1.1-1.9-1.6-6.1-5-44.7-24.7-54-27-1.5 2.7-3.3 7.6-5.4 13-7.8 20.2-20.9 54-45.2 62.6-2.5 0.9-4.8 1.3-6.8 1.3z" fill="#5A9C1C" p-id="32902"></path><path d="M701.7 265.7c1.4 0 2.7 2.2 4.9 4.9 4 5 36 75 44 78 34 18 85 54 84 64-0.5 0.9-1.4 1.3-2.4 1.3-4.7 0-13.7-8.2-18.6-12.3-5.9-4.9-50.1-28-57.6-28h-0.4c-7 9-19 65-50 76-2.4 0.8-4.3 1.2-5.8 1.2-18.4 0 20.8-56.2 20.8-56.2 8-25 18-32 18-41-5-15-41-81-41-83 1.8-3.6 3-4.9 4.1-4.9m0-7c-5.9 0-8.8 5.7-10.3 8.8-0.5 1-0.7 2-0.7 3.1 0 2.4 0 2.5 12.6 26.8 9.8 18.9 24.5 47.1 28.3 57.2-0.4 2.2-2 5-4.4 9-3.6 6.2-8.5 14.5-12.9 27.9-2 2.9-8.3 12.3-14.3 22.8-13.9 24.5-13.2 32.7-10.6 37.6 2 3.8 5.8 5.9 10.5 5.9 2.4 0 5.1-0.5 8.2-1.6 11.6-4.1 21.7-13.5 30.8-28.7 7.3-12.1 12.6-25.9 16.5-35.9 1.3-3.5 2.8-7.2 4-10 4.3 1.5 12.2 5 23.9 10.9 14.2 7.1 24.2 13 26 14.5 0.6 0.5 1.2 1 1.9 1.6 8.2 7 15 12.3 21.2 12.3 3.5 0 6.6-1.7 8.4-4.7 0.5-0.9 0.9-1.9 1-2.9 0.5-4.9-2.5-10.1-10-17.4-5.2-5.1-12.5-11.1-21.7-17.9-17.2-12.8-38.7-26.4-56-35.6-0.8-0.8-4-4.5-12.5-20-5.8-10.7-12.3-23.7-17.6-34.1-7.5-15-10.1-20-11.7-22.1l-1.2-1.5c-2.2-2.7-4.8-6-9.4-6z" fill="#377300" p-id="32903"></path><path d="M705.6 277.6c15 26 21 57 43 74 15 12.1 32.6 21.2 51.6 28-15.8-11.3-34.4-22.9-49.6-31-8-3-40-73-44-78-3.9-4.8-4.9-7.8-8.6-0.7 4.2 1.1 5.9 5.1 7.6 7.7z" fill="#78C72D" p-id="32904"></path><path d="M829.6 403.9c-25.9-14.6-48.9-39-79-33.3-6.4 1.4-13.4 1.7-20.4 1.7-3 5.5-6.5 12.5-9.6 22.3 0 0-46 66-15 55s43-67 50-76c6-1 52 23 58 28s18 16 21 11c0.2-2-1.6-5-5-8.7z" fill="#47850E" p-id="32905"></path><path d="M341.1 632.4c-56 0-102-10-136.6-29.6-40.9-23.2-67.6-60.7-79.3-111.4-3.8-16.4-14-74.7 14.4-136.9 14-30.7 35.4-57.4 63.6-79.5 33.4-26.1 76.6-45.9 128.6-58.8 42.6-10.6 83.9-15.9 122.7-15.9 68.3 0 130.1 16.8 178.7 48.7 41.6 27.2 72.1 64.4 85.7 104.5 14.1 41.5 8.3 90.1-16.1 133.3-16.2 28.7-39.3 53.6-68.6 74.3-31.9 22.4-69.9 38.5-112.8 47.9-73 16-130.3 23.4-180.3 23.4z" fill="#B0CB43" p-id="32906"></path><path d="M454.5 203.8c148.1 0 236.4 78 261.2 150.8 31 91-35 216-195 251-58.5 12.8-121.4 23.3-179.5 23.3-101 0-187.7-31.7-212.5-138.3-12.2-52.7-18-216 204-271 44.2-11 84.8-15.8 121.8-15.8m0-7v7-7c-39.1 0-80.6 5.4-123.5 16-52.4 13-96.1 33-129.9 59.4-28.6 22.4-50.4 49.6-64.6 80.8-11.3 24.8-17.8 51.9-19.3 80.3-1.4 27.5 2.3 48.7 4.7 58.8 6.2 26.6 16.5 49.9 30.6 69.1 13.3 18.1 30.2 33 50.4 44.5 18.5 10.5 40.2 18.4 64.6 23.3 22 4.5 46.8 6.8 73.7 6.8 50.3 0 107.8-7.5 181-23.5 43.4-9.5 81.8-25.8 114.1-48.5 29.8-20.9 53.3-46.3 69.7-75.4 12.5-22.1 20.2-45.2 23-68.8 2.8-23.5 0.6-46.2-6.7-67.4-13.9-40.9-44.9-78.7-87.1-106.3-23.5-15.4-50-27.4-78.9-35.6-31.6-8.9-65.8-13.5-101.8-13.5z" fill="#377300" p-id="32907"></path><path d="M245 355.1c-6.6-25.4-9.7-103.9 109.6-130.4s189.2 21.2 205.9 64.9-18.8 103.9-104.8 120.7-189.8 25.6-210.7-55.2z" fill="#BDDB48" p-id="32908"></path><path d="M715.6 354.6c-16.7-49.2-62.4-100.6-135.8-128.9 33.6 21.5 58.7 53.7 62.8 95.9 3 34-1 70-24 98-6 7-13 14-22 17-53 19-106 36-162 40s-108 2-165-10C199.8 451.8 165 384.3 165.4 318 116 383.3 121 458 128.6 490.6c39 168 232 150 392 115s226-160 195-251z" fill="#A3BD3B" p-id="32909"></path><path d="M715.6 354.6c-13.3-39.1-44.9-79.6-94.1-108.8 51.3 48.5 74.4 120.7 47.1 185.8-7 17-29 31-46 36-43 14-85 24-130 31-57 7-148 16-200 12-94-9-157-74-128.5-190.7-48 64.9-42.9 138.5-35.5 170.7 39 168 232 150 392 115s226-160 195-251z" fill="#93B020" p-id="32910"></path><path d="M720.4 372.7c-3.2 29-6.8 45.9-33.8 79.9-21.7 27.3-54 37-85 45-143 32-299 83-426 7-33.9-20.3-45.8-61.3-47.7-101.9-7.1 36.7-3.6 69.3 0.7 87.9 39 168 232 150 392 115 149.7-32.7 217.1-144.2 199.8-232.9z" fill="#839E15" p-id="32911"></path><path d="M165.8 559.9l-7.2-2c2.6 3.5 5.3 6.9 8.2 10.1l0.9-5.1c0.2-1.4-0.6-2.6-1.9-3z" fill="#F0E5A5" p-id="32912"></path><path d="M282.6 624.8l37.7-4.6 5.8 8.5c2.1 0.1 4.2 0.1 6.3 0.2l-7-10.2 29.4-11.7 13.2 21.4c1.9-0.1 3.9-0.2 5.9-0.3l-14.7-23.8 16.7-16 13.8-1 9.8 38.7c1.7-0.2 3.5-0.3 5.2-0.5L395 587l15.4-1.1 20.5 36.3c1.8-0.3 3.7-0.5 5.5-0.8l-18.5-32.9 50.1 21.4 0.8 6.3 5.1-0.9-0.7-5.4 36.8-12.3 3.4 9.8c1.7-0.4 3.4-0.7 5.1-1.1l-3.1-9.1 31 2c3.5-1 6.9-2.1 10.3-3.2l-2.8-0.9 0.8-41.2 28.1 14.4-3.9 19.4c1.9-0.8 3.8-1.6 5.7-2.5l2.9-14.5 12.9 7c1.9-1 3.7-1.9 5.5-2.9l-16.5-8.9 16.1-23.1 18.8-14.3 14.5 25.2c1.4-1 2.8-2.1 4.1-3.2l-15.4-26.7-6.7-45 32.8 24 4 35.3c1.6-1.5 3.1-2.9 4.7-4.4l-3.4-30.1 33.2-5.4c2.4-3.6 4.7-7.3 6.9-11l-7.1 5.8-33.8 5.5-7.5-36.8 32.6-2.3 25.2 9.5c0.7-1.6 1.4-3.2 2-4.7l-22.3-8.4 23.2-24.5 4.1 19.5c1.1-3.5 2.2-7.1 3.1-10.6l-1.8-8.7 3.3 2.2c0.4-1.8 0.7-3.6 1.1-5.5l-3.3-2.2 4.1-2.4c0.3-2.2 0.6-4.3 0.8-6.5l-7.7 4.6-3.8-28 12.4 9v-6.4l-12.6-9.1 8.4-21.8c-0.7-2.8-1.5-5.5-2.4-8.2l-10.5 27.2-30.8-17.6 19.1-23.5 21.6 11.8c0-0.1-0.1-0.3-0.1-0.4-0.8-2.3-1.7-4.6-2.6-6.9l-16.9-9.3 1.1-21.3c-2.9-4.6-6.1-9.1-9.6-13.6l-30.7-1.3-8.1-37.7-6.3-4.8 8.2 37.9-20.9-17.7 10.4-21.4c-1.4-1-2.8-2-4.3-3l-10.3 21.1-29.3-21.9 7.6-18.2c-1.5-0.8-3.1-1.5-4.6-2.3l-6.8 16.4-24.1-29c-3-1-6.1-2-9.2-3l29 34.9-48.6 6.1-13.5-24.8 25.1-18.5c-2.1-0.6-4.2-1.2-6.4-1.7L524 230.6l-16.2-23.2c-11.5-1.6-23.4-2.7-35.8-3.2l26.1 3.5-31.8 31.8-11.2-18.6c-0.4-0.6-1-1.1-1.7-1.2-0.7-0.1-1.5 0-2 0.5l-18.1 13.6-14-28.5c-1.8 0.1-3.7 0.3-5.5 0.5l14.7 29.8-32 3.9L398 211l2.3-3.8c-16.6 2-33.9 4.9-51.7 8.8l-17.9 47.7-39.9-29.7 0.1-1.7c-3.2 1.1-6.3 2.3-9.3 3.5l5.3 1.8 37.6 28-49.7 1.5-22.7-8.6 0.2-9.7c-1.8 0.9-3.5 1.8-5.2 2.7l-0.2 7.1-28.4 12.3-1.1-1.5-4.2 3 1.1 1.4-23.9 22.3-4-1.3c-1.4 1.4-2.8 2.7-4.1 4.1l5.8 1.8-5.4 30.2-19.8 13.7-9.3-8.5c-0.9 1.5-1.8 3-2.7 4.6l9.5 8.7 7.1 23.6-22.3 21-15.3-0.4-1.2 5.1 15.8 0.4 16 39.2-17.7 23.8L124 454c0.1 2 0.2 3.9 0.3 5.7l14.9 6.5-12.8 13.1c0.4 2.2 0.7 4.3 1.1 6.2l16.9-17.3 33.3 9.8-18.8 34.4-19.4 11.8 2.1 4.8 19.6-11.9 42.8 15.1-15.1 43.6-11 3.4c1.5 1.4 3 2.7 4.5 4l3.9-1.2-1.4 3.3 4.2 3.3 2.6-6.3L215 604v0.4c1.7 0.9 3.5 1.7 5.3 2.5l-0.1-1.5h32.5l24 18.4c2 0.3 3.9 0.7 5.9 1z m71.8-23.4L322.9 614l-13-33.3 34.6 2.3c0.8 0.1 1.5-0.2 2-0.8 0.5-0.5 0.8-1.3 0.7-2l-2.6-26.9 26.6 32.1-16.8 16zM604.5 428l26.1-48.8 7.6 37.2-33.4 12.2-0.3-0.6z m8.9 42.3l-30.8-1.4 18.7-35 12.1 36.4z m-3.2-132.2l36.8-5.3-15.9 33.8-20.9-28.5z m16.9 31.7l-41.2 6.9 20.2-35.6 21 28.7z m-0.2 5.3L601.8 422l-17.2-39.8 42.3-7.1z m-28.2 52.7l-20.5 38.5-23.8-37.6 3.2-41.8 21.8-3.7 19.3 44.6z m-352.2 26.4l43-11.3c1.3-0.3 2.2-1.6 1.9-3L283 396l27.9 34.9 17.7 23.5-29.5 1.5c-0.9 0-1.7 0.5-2.1 1.3-0.2 0.4-0.4 0.9-0.4 1.3s0.1 0.8 0.3 1.1l14 28.8-19.2-7.3-45.2-26.9zM285 483l-25.8 11.5-28.8-2.3 11-35L285 483z m-41.7-33.3l12.4-53.7 20.7-6.4 9.3 48.9-42.4 11.2z m261.6-20.9l-28.3 30.5-15.8-26.3 4.4-31.9 39.7 27.7z m-36.9-32l18.4-10.6 29.4-3.8-8.6 40.8c-0.4 0-0.7 0-1.1 0.2L468 396.8z m5 66.6l-15.8 21.1-35.8-15.2 37.5-60.9-3.5 24.8c-0.1 0.6 0 1.2 0.3 1.7l17.3 28.5z m-85.2 6.4l27.1 2.9-1.4 22.7-32.8 0.7 7.1-26.3z m-12.3 25.8l-14.1-4-9.5-34.9 20.1-19.4 11.2 29.9-7.7 28.4z m12.3-31l-12-32 8.8-23.4 31.6 23.7c0.2 0.2 0.5 0.3 0.8 0.4h0.1c0.3 0.1 0.5 0.1 0.8 0.1h0.3c0.2 0 0.4-0.1 0.6-0.2 0.1 0 0.2-0.1 0.3-0.2 0.1 0 0.1-0.1 0.2-0.1l34.6-26.1-37.5 60.9-28.6-3.1z m32.3 9.7l35 14.9-7.1 28.5-29.3-21 1.4-22.4z m2.3-50.1l8-26.8c0.2-0.8 0.1-1.7-0.5-2.4L411 371.3l34.4 0.4 14.4 24.3-37.4 28.2z m2.8-27.1l-8.9 29.5-31-23.2-18.2-32.6 37.8 0.4c0.1 0.4 0.2 0.8 0.5 1.2l19.8 24.7z m-45.3 7.2l-16 9.7-20.4-18.1-11.9-31.2 29.5 5.8 18.8 33.8z m-18 14.8c0.8 0.7 2.1 0.9 3 0.3l13.4-8.1-7.5 20-22.9 22.1-13.1 0.7-18.5-24.7 25.2-28.3 20.4 18z m-58.7 41.7l30.5-1.5 13.4-0.7 8.9 32.6-35.7 0.8-2.3-0.9-14.8-30.3z m19.1 36.2l34.8-0.8 3.7 21.5-20.2 24.1-18.3-10.2V497z m43.3 23.2c0.5-0.6 0.7-1.3 0.6-2.1l-3.6-20.9 13.3 3.8 27.5 34.4-56 6.5 18.2-21.7z m17-18.9l30.2-0.7-6.7 29.9-23.5-29.2z m28.2 31.6l6.9-30.6 26.4 19-33.9 12.7c0.2-0.3 0.5-0.7 0.6-1.1z m38.1-7.9l22.7 22.7-27.7 11-30-20.5 35-13.2z m3.5-3.8l6.8-27.2 9.3 14.3 4.1 33.2-20.2-20.3z m19.7-16.8l-10.9-16.6 14.9-19.9 22.3 28.7-26.3 7.8z m7.4-40.7l27.7-29.9 7.4 37.9-12.2 21.6-22.9-29.6z m39.4 11l50.2-0.7-21.3 13.1c-0.1 0.1-0.1 0.2-0.2 0.2-0.1 0.1-0.3 0.2-0.4 0.3 0 0 0 0.1-0.1 0.1 0 0-0.1 0-0.1 0.1l-16.6 25.3-24.2-16.1 12.7-22.3z m57.2 1l2.7 34.5-25.2-20.5 22.5-14z m-2.4-6.9l-54.2 0.8-8-40.9 38.8 3 23.4 37.1z m-24.3-126.6l-29.5-3-0.8-42.4c0-0.3-0.1-0.5-0.1-0.8l-0.1-0.4 34.4 6.7-3.9 39.9z m3.1 41l-18.2 11.6-12.7-16.4-1.5-34 29.3 2.9 3.1 35.9z m-32 2.2l11.2 14.5c0.8 1.1 2.3 1.3 3.4 0.6l17.1-11-2.8 37-37-2.8 8.1-38.3z m-31.5-4.7l7.3-29.3 18.6-6.2 1.5 32-27.4 3.5z m5.8-34.3l-22.9-19.7 0.8-42 40.3 9.7 1 3 0.8 42.4-20 6.6z m-3.5 3.8l-7.9 31.8-19.2 11.1-14.3-24.1 20.1-37.1 21.3 18.3z m-45.2 15l-26.6-20.6 0.8-32 6.5-27.6 39.3 43.1-20 37.1z m-6.8 1.2l-62.8-0.6 40-16.9 22.8 17.5z m-25-22.2l-47.8 20.3 17.7-60.8 30.9 10.5-0.8 30z m-53.4 21l-31.4-6.1-10-33.9c0.7 0.1 1.4-0.1 2-0.7l46.6-43.4 11.5 19.5-18.7 64.6z m-36.6-5.6l-30.9 9.1-26-38.6 16.9-13.9 30 9.5 10 33.9z m-34.2 13.5c0.6 0.9 1.8 1.4 2.9 1l32.9-9.6 12.3 32.4-25.2 28.3-32.5-40.6c-0.2-0.2-0.4-0.4-0.6-0.5-0.3-0.2-0.5-0.3-0.8-0.4h-1.2H277.6l-22.9 7.1-14.5-26.7 23.4-30.2 26.5 39.2zM249 390.9l-26.4-2.9-20.1-10.8 7.1-24.3 25.7 12.9 13.7 25.1z m-25.8 2.4l27.3 3-12.3 53-36-21.7 21-34.3z m13.6 61.2l-10.6 33.9-18.3-30-5.5-24.6 34.4 20.7z m-8.4 42.7l29.7 2.3 22.6 35.9-32.2 13.8-37.8-19.7 17.7-32.3z m35 1.1l25.9-11.5 11.2 24.6-15.7 20.7-21.4-33.8z m42.1 15c0.6-0.8 0.7-1.8 0.3-2.6L295.5 488l18.8 7.2c0.6 0.8 1.5 1.1 2.5 0.9l0.4 0.1v36.5L305.4 571l-17.8-34.2 17.9-23.5z m15.8 23.7l17.5 9.8 3 30.9-32.4-2.2 11.9-38.5z m69.2 44.9l-14.6 1-29.6-35.7 58.2-6.7-14 41.4z m5.5-0.4l13.6-40 29.3 20-28.1 19-14.8 1z m71.9 22.7l-50.8-21.7 27.6-18.7 28.4-11.2-5.2 51.6z m5.2 0l5-48.9 29.1 37.6-34.1 11.3z m35.7-17.5l-27.9-36.1 27.9-4.1v40.2z m2.9-45.7h-0.8l-32.6 4.8-4.6-36.5 28.5-8.5 26.9 17.9 17.3 27.4-34.7-5.1z m2.2 46.5v-41l32.7 4.9-32.7 36.1z m34.5 6.5l-31.5-2.1 32.2-35.6-0.7 37.7z m36-30.6l-30.9-15.8-19.4-30.7 15.6-23.7 30.3 24.7 20 23.2-15.6 22.3z m37.6-39.9l-18.3 13.9-19.4-22.4-3.2-40.9 33.6 1.5 7.3 47.9z m29.8-28.1l-32.6-23.9-11.2-33.7 36.8 23.1 7 34.5z m-4-38.7l-38.6-24.2 32.8-11.9c1.2-0.4 1.9-1.7 1.6-2.9l-7.6-37.1 31.1 34.6 12.6 39.3-31.9 2.2z m-10.9-83l31.6-3.4-1.4 37-30.2-33.6z m47.4 78.1l-11-34.2 34.2 9.6-23.2 24.6z m25-29.5l-33.8-9.5 29.8-20.3 4 29.8z m-6.9-34.1l-30.2 20.6 1.4-37 28.8 16.4z m-45.3-80.9l32.7 1.4c0.3 0.4 0.8 0.8 1.3 1l1.4 0.4-1.4 26.5-36.8-9 2.8-20.3z m31.8 34.1l-19.1 23.5-33.9 3.7 16.9-36 36.1 8.8z m-37.4-31.5l-2.4 17.4-31.3 4.5 33.7-21.9z m-55.4-49.3l29.6 22 24.8 21.7-43.5 28.3-13.2-31 2.3-41z m6.9 75.7l-23.7 41.6-21.8 3.7-3.1-35.2 23.6-14.6c0.4-0.2 0.7-0.6 0.9-1l12.1-22.7 12 28.2z m-48.2 3.8l3.6-37 28.7 1.4-12.4 23.3-19.9 12.3z m36.3-81.5l-2.3 40.8-32.5-1.6-35.3-6.9 19.2-25.9 50.9-6.4z m-55.3 3.7l-19.4 26.2-11.1-32.6 17.5-17.5 13 23.9z m-32.5-52.5l16.8 24.1-17.6 17.6c-0.4-0.1-0.9-0.1-1.4 0 0 0-0.1 0-0.1 0.1l-30.3-9.2 32.6-32.6z m-3.2 46.9l10.9 31.9-38.5-9.3-3.7-32.1 31.3 9.5z m-33.3 64.6l-35.3-38.8 36 1.4-0.7 37.4z m-32.1-82.2l17.5-13.1 11.1 18.5 3.9 34.3-38.8-1.5 6.3-38.2z m-39.4 5.7l33.9-4.2-6.3 38.7-7 29.7-31.6-10.8-12.5-21 20-32 0.8-0.1c0.3 0.1 0.6 0.2 1 0.3 0.6 0 1.2-0.2 1.7-0.6z m-2.7-31.9l-1.4 27.2h-0.2l-31.7-25.2 33.3-2z m-39 4l33.2 26.4-19.3 30.8-32.3-8.3 18.4-48.9z m-22.1 53.4l32 8.2-45.5 42.3c-0.2 0.2-0.3 0.4-0.4 0.6-0.2-0.1-0.3-0.2-0.5-0.3l-31.2-9.9-8.5-39.3 54.1-1.6z m-59.5 1l8.8 40.9-15.6 12.9-9.1-30.5-3.8-30.8 19.7 7.5z m-19.4 29.3l8.5 28.4-24.5 31.6-24.3-12.1 15.7-17.2v-0.1s0.1 0 0.1-0.1l24.5-30.5zM219 275.9l28.2-12.2 3.8 30.7-25.1 31.4-31.1-27.3 24.2-22.6z m-26.4 27.7l29.8 26.2-14.7 16.1-20-14.8 4.9-27.5z m-27.1 45.1l19.3-13.3 20.3 15-7.4 25.3-25.4-4.5-6.8-22.5z m5.6 27.5l27.5 4.9 19.6 10.5-19.6 32-14.1-21.6c-0.4-0.6-1-1-1.7-1.1l-31.4-5.8 19.7-18.9z m-23.2 87.7l17.6-23.7c0.5-0.7 0.7-1.7 0.3-2.5l-15.3-37.5 30.3 5.6 15.5 23.6 6.4 28.8-21.7 15.5-33.1-9.8z m16.6 49l18.9-34.6 21.3-15.2 19.3 31.6-18 32.9-41.5-14.7z m54 87.3l-24.7-23.1 14.8-42.9 37.4 19.5 4.7 46.5h-32.2z m37.3-1.4l-4.6-45.1 32.1-13.8 19.4 37.3-11.8 9.6-34.8 11.9s-0.2 0.1-0.3 0.1z m2.7 4.5l34.6-11.8c0.3-0.1 0.6-0.2 0.8-0.4l11-8.9 13 33.1-37.8 4.6-21.6-16.6z" fill="#F0E5A5" p-id="32913"></path><path d="M365.7 723.1c-56.9 0-104.2-10.9-144.7-33.4-42.5-23.6-70-57.4-85.6-81.5-16.9-26.2-23.7-46.6-24-47.4-0.3-0.9-0.2-1.9 0.2-2.7 0.4-0.8 1.2-1.5 2.1-1.7 77-24.7 134.2-46.7 134.8-46.9 0.4-0.2 0.8-0.2 1.3-0.2 1.1 0 2.1 0.5 2.8 1.4l0.9 1.2c21.6 27.9 30.5 39.4 65.7 39.4 12.9 0 29.6-1.5 54.1-4.9 89.3-12.3 280.4-48.3 297.2-63.1 17.1-15.2 28.9-50.1 29-50.5 0.4-1.2 1.5-2.1 2.7-2.3 30.6-5.1 67.3-7.8 86.4-7.8 12.4 0 17.7 0.7 17.7 5.3v0.2c-5.6 94.7-49.5 217.1-226.6 262.2-89 22.2-156.9 32.7-214 32.7z" fill="#FEA65E" p-id="32914"></path><path d="M788.5 425.8c8.7 0 14.2 0.6 14.2 1.8-6 101-55 216-224 259-85.5 21.7-154.8 33-213 33-56.8 0-103-10.8-143-33-81-45-108-127-108-127 78-25 135-47 135-47 22.7 29.3 32 41.9 69.4 41.9 13.7 0 31.3-1.7 54.6-4.9 87-12 281-48 299-64s30-52 30-52c29.1-4.9 66-7.8 85.8-7.8m0-7c-19.2 0-56.3 2.8-87 7.9-2.6 0.4-4.7 2.2-5.5 4.7-0.1 0.3-11.6 34.4-28 49-1.8 1.6-16.1 10.7-120.4 31.9-58 11.8-128.3 24-174.9 30.4-24.4 3.4-40.9 4.9-53.7 4.9-33.5 0-41.5-10.4-62.9-38l-0.9-1.2c-1.4-1.7-3.4-2.7-5.5-2.7-0.8 0-1.7 0.2-2.5 0.5-0.6 0.2-57.7 22.2-134.6 46.9-1.8 0.6-3.3 1.8-4.1 3.5s-1 3.6-0.4 5.4c0.3 0.9 7.2 21.7 24.4 48.2 15.8 24.5 43.7 58.7 86.9 82.7 20.8 11.6 42.8 19.9 67 25.5 24.3 5.6 50.2 8.3 79.4 8.3 57.4 0 125.6-10.6 214.7-33.2 78.6-20 138.2-57.1 177.1-110.4 31.1-42.6 48.6-94.7 52.2-155v-0.4c0-2.6-1.5-5.9-5.7-7.4-1.1-0.4-2.5-0.7-4.3-0.9-2.8-0.4-6.6-0.6-11.3-0.6z" fill="#377300" p-id="32915"></path><path d="M468.6 575.6c78-14 181-37 221-69 20.7-16.6 22.6-47.2 18-73.8-1.7 0.3-3.4 0.5-5 0.8 0 0-12 36-30 52s-212 52-299 64c-86.3 11.9-92.9 3.1-123.3-36 2.7 15.3 9.3 30.2 19.3 41 47 53 194 22 199 21z" fill="#F09146" p-id="32916"></path><path d="M341.6 604.6c-16-9-29-26-41-39-5-5-4 12-2 21 4 20 22 33 25 53 4.6 26.6 3.3 52.7-4.6 77.3 67 8.2 150-2.4 259.6-30.3 109-27.7 168-85.4 197.9-149.9-61.8 26-124.5 44.4-191.9 56.9-77 14-174 52-243 11z" fill="#F07E22" p-id="32917"></path><path d="M767.3 426.5c-0.2 14.2-1.2 28.4-3.7 43.1-7 35-19 66-38 96-28 43-79 55-124 70-35 12-69 20-107 27-93 17-187 30-271-19-36.2-21.2-62.3-55.7-76.9-94.5-10.2 3.4-21 6.9-32.1 10.5 0 0 27 82 108 127s187 43 356 0 218-158 224-259c0-2-15-2.3-35.3-1.1z" fill="#FCC247" p-id="32918"></path><path d="M256.6 535.6c11 10 9 51.7 191 29 39.3-4.9 143-32 181-40 21-5 41-11 57-26s18-36 23-57c30.9-2.7 62.3-4.9 93.5-6.4 0.2-2.5 0.4-5.1 0.5-7.6 0-4-58-1-100 6 0 0-12 36-30 52s-212 52-299 64-93 3-124-37c0 0-57 22-135 47 0 0 2.8 8.4 9.2 21.2 0.3-0.1 0.6-0.2 0.8-0.2 45-14 90-26 132-45z" fill="#FFC98C" p-id="32919"></path><path d="M114.6 559.6s2.8 8.4 9.2 21.2c0.3-0.1 0.6-0.2 0.8-0.2 10.6-3.3 21.1-6.5 31.6-9.6-2.1-7.7-3.3-15.4-5.9-23.1-11.2 3.7-23.2 7.7-35.7 11.7z" fill="#FCC349" p-id="32920"></path><path d="M249.9 513c-0.1-0.1-0.2-0.3-0.3-0.4 0 0-40.2 15.5-99.2 35.3 2.5 7.7 3.8 15.4 5.9 23.1 34.3-10.4 68.2-20.8 100.4-35.4-2.1-7.3-5-14.6-6.8-22.6z" fill="#FBC478" p-id="32921"></path><path d="M702.6 433.6v0.1c2.2 2.6 4.2 5.4 6 8v-0.2c19.3-1.7 38.8-3.2 58.3-4.4-0.3-3.5-0.5-7.1-0.9-10.6-19.3 1.3-43.2 3.7-63.4 7.1z" fill="#FEC078" p-id="32922"></path><path d="M802.6 427.6c0-2.1-15.7-2.3-36.6-1 0.4 3.4 0.6 7.1 0.9 10.6 11.7-0.7 23.4-1.4 35.1-2 0.3-2.5 0.5-5.1 0.6-7.6z" fill="#FCC349" p-id="32923"></path><path d="M672.6 485.6c-18 16-212 52-299 64-86.7 12-93 3.1-123.7-36.6 1.8 8 4.7 15.3 6.7 22.6 11 10 9 51.7 191 29 39.3-4.9 143-32 181-40 21-5 41-11 57-26s18-35.9 23-56.8c-1.8-2.6-3.8-5.4-6-8-0.8 2.2-12.6 36.3-30 51.8z" fill="#FFC98C" p-id="32924"></path><path d="M790.6 425.8c-0.1 51-14.3 100.9-47 142.8-59 76-146 100-234 124-17 4-34 6-51 8-67 7-132 5-198-13-65-16.9-114-70.2-137.8-130.6-2.7 0.9-5.4 1.8-8.2 2.6 0 0 27 82 108 127s187 43 356 0 218-158 224-259c0-1.1-4.5-1.7-12-1.8z" fill="#A6C238" p-id="32925"></path><path d="M524.3 791.1c-67.6 0-133.9-15.7-197.3-46.8-52.3-25.6-88.8-67.6-110.2-98.4-23.1-33.2-33.8-60.1-34.2-61.2-0.4-0.9-0.3-2 0.2-2.9 0.5-0.9 1.3-1.5 2.3-1.8l109.7-26.3c0.3-0.1 0.5-0.1 0.8-0.1 1.5 0 2.8 0.9 3.3 2.4 0.1 0.2 6.9 20.1 23.8 39.6 22.5 26 51.2 39.2 85.3 39.2 2.4 0 4.9-0.1 7.4-0.2 44.5-2.4 124.3-15.7 198.8-33.1 82.4-19.2 139.5-38.9 152.9-52.9 29.8-31 24.8-63.3 24.7-63.6-0.2-1 0.1-2 0.8-2.8 0.7-0.8 1.6-1.2 2.7-1.2l112.3-0.4c1.9 0 3.4 1.5 3.5 3.4 0 0.4 1.6 45.6-11.4 96.7-7.6 30.1-18.8 56.5-33.1 78.3-18 27.4-41.1 47.7-68.6 60.3-35.2 16.1-77.6 34.5-125.1 48.6-52.1 15.7-100.7 23.2-148.6 23.2z" fill="#FEA65E" p-id="32926"></path><path d="M907.6 484.2s7 178-111 232c-74.5 34.1-167.2 71.4-272.3 71.4-61.4 0-127.1-12.8-195.7-46.4-100-49-142.7-157.7-142.7-157.7l109.7-26.3S323 638.4 408 638.4c2.5 0 5-0.1 7.6-0.2 91-5 322.6-54.4 354-87 31.4-32.6 25.7-66.6 25.7-66.6l112.3-0.4m0-7l-112.4 0.4c-2.1 0-4 0.9-5.3 2.5s-1.9 3.6-1.6 5.7c0 0 1.2 7.9-1.2 19.2-3.1 15.1-10.8 29.1-22.6 41.4-12.7 13.3-70.7 33.1-151.2 51.9-74.2 17.3-153.9 30.5-198.2 33-2.4 0.1-4.8 0.2-7.2 0.2-33.1 0-61-12.8-82.8-38.2-16.4-19-22.9-38.1-23-38.3-1-2.9-3.7-4.8-6.6-4.8-0.5 0-1.1 0.1-1.6 0.2l-109.7 26.3c-2 0.5-3.6 1.8-4.6 3.6-0.9 1.8-1 3.9-0.3 5.8 0.4 1.1 11.2 28.3 34.6 61.9 13.7 19.7 29 37.6 45.3 53 20.5 19.4 42.8 35 66.2 46.5 33.3 16.3 67.7 28.6 102.1 36.4 31.5 7.1 64.1 10.8 96.7 10.8 48.2 0 97.2-7.6 149.6-23.2 47.7-14.2 90.3-32.6 125.6-48.8 28.1-12.9 51.7-33.6 70.1-61.6 14.5-22.1 25.8-48.8 33.6-79.3 13.1-51.6 11.5-95.9 11.5-97.7-0.1-3.9-3.2-6.9-7-6.9z" fill="#377300" p-id="32927"></path><path d="M374.6 665.6c121.8 31.9 242-3 353-48 31-12 66-30 78-62 7.4-22.2 15-61 0.1-70.7h-11.5s5.7 34-25.7 66.6-263 82-354 87-120-81-120-81l-11.4 2.7c7.5 43.4 26.5 88.4 91.5 105.4z" fill="#F09146" p-id="32928"></path><path d="M906.6 484.6l-25 0.1c-0.1 15.2-1.3 30.5-5 45.9-13 50-27 98-66 134-60 56-139 68-217 81-47 7-92 4-139-5s-89-22-130-48c-47.3-29.8-89.2-66.4-111.7-115.4l-28 6.7s42.7 108.7 142.7 157.7c186 91.2 350 29 468-25s111-232 111-232z" fill="#FCC247" p-id="32929"></path><path d="M186 583.6s3.5 8.8 10.7 22.6c9.7-2 19.5-4.3 29.4-6.9-2.2-8-3-16-5.8-24l-34.3 8.3z" fill="#FCC349" p-id="32930"></path><path d="M295.5 557.3l-75.2 18.1c2.8 8 3.6 16 5.8 24 21-5.4 42.3-11.6 63.1-17.7 1.9-8.3 4.4-16.4 6.3-24.4z" fill="#FBC478" p-id="32931"></path><path d="M795.3 484.6s5.7 34-25.7 66.6-263 82-354 87-120-81-120-81h-0.1c-1.9 8-4.4 16.1-6.3 24.4 0.5-0.1 1-0.3 1.4-0.4 12 46 64 71 108 76 53 6 221-11 346-69 41.7-19.3 59-48 69-93h0.8c-5.3-3.9-11-7.4-16.8-10.7l-2.3 0.1z" fill="#FFC98C" p-id="32932"></path><path d="M797.6 484.6c5.9 3.3 11.5 6.7 16.8 10.7 22.2 0.5 45.6 0.2 68.4-0.1-0.3-3.6-0.5-7.1-1-10.8l-84.2 0.2z" fill="#FEC078" p-id="32933"></path><path d="M907.6 484.2l-25.7 0.1c0.4 3.7 0.7 7.2 1 10.8 8.4-0.1 16.7-0.2 24.8-0.3 0.1-6.7-0.1-10.6-0.1-10.6z" fill="#FCC349" p-id="32934"></path><path d="M907.6 484.2h-5.8c-6.2 144-74.2 202-108.2 220-57 30-115 52-179 61-97 15-211 2-297-49-60.7-35.1-90-78.5-130.4-133l-1.3 0.3s42.7 108.7 142.7 157.7c186 91.2 350 29 468-25s111-232 111-232z" fill="#A6C238" p-id="32935"></path><path d="M384.1 645.7c-0.6 3 0.6 9.9 3.5 10.9 2.3 0.8 5-3.6 5-8 0-4-2-9-5-9-1.8 0-2.9 3.5-3.5 6.1zM355.1 560.7c-0.6 3 0.6 9.9 3.5 10.9 2.3 0.8 5-3.6 5-8 0-4-2-9-5-9-1.8 0-2.9 3.5-3.5 6.1zM374.1 572.7c-0.6 3 0.6 9.9 3.5 10.9 2.3 0.8 5-3.6 5-8 0-4-2-9-5-9-1.8 0-2.9 3.5-3.5 6.1zM388.1 563.7c-0.6 3 0.6 9.9 3.5 10.9 2.3 0.8 5-3.6 5-8 0-4-2-9-5-9-1.8 0-2.9 3.5-3.5 6.1zM406.1 556.7c-0.6 3 0.6 9.9 3.5 10.9 2.3 0.8 5-3.6 5-8 0-4-2-9-5-9-1.8 0-2.9 3.5-3.5 6.1zM436.1 566.7c-0.6 3 0.6 9.9 3.5 10.9 2.3 0.8 5-3.6 5-8 0-4-2-9-5-9-1.8 0-2.9 3.5-3.5 6.1zM449.9 554c-0.4 3.1 1.3 9.8 4.3 10.6 2.4 0.6 4.7-4 4.4-8.3-0.3-4-2.7-8.8-5.6-8.6-1.9 0.1-2.7 3.7-3.1 6.3zM472.9 556c-0.4 3.1 1.3 9.8 4.3 10.6 2.4 0.6 4.7-4 4.4-8.3-0.3-4-2.7-8.8-5.6-8.6-1.9 0.1-2.7 3.7-3.1 6.3zM490.9 545c-0.4 3.1 1.3 9.8 4.3 10.6 2.4 0.6 4.7-4 4.4-8.3-0.3-4-2.7-8.8-5.6-8.6-1.9 0.1-2.7 3.7-3.1 6.3zM511.8 552.3c-0.2 3.1 1.9 9.7 4.9 10.3 2.4 0.5 4.5-4.3 3.9-8.6-0.5-4-3.2-8.7-6.2-8.3-1.8 0.3-2.4 3.9-2.6 6.6zM519.8 533.3c-0.2 3.1 1.9 9.7 4.9 10.3 2.4 0.5 4.5-4.3 3.9-8.6-0.5-4-3.2-8.7-6.2-8.3-1.8 0.3-2.4 3.9-2.6 6.6zM539.8 544.3c-0.2 3.1 1.9 9.7 4.9 10.3 2.4 0.5 4.5-4.3 3.9-8.6-0.5-4-3.2-8.7-6.2-8.3-1.8 0.3-2.4 3.9-2.6 6.6zM553.8 534.3c-0.2 3.1 1.9 9.7 4.9 10.3 2.4 0.5 4.5-4.3 3.9-8.6-0.5-4-3.2-8.7-6.2-8.3-1.8 0.3-2.4 3.9-2.6 6.6zM570.8 536.3c-0.2 3.1 1.9 9.7 4.9 10.3 2.4 0.5 4.5-4.3 3.9-8.6-0.5-4-3.2-8.7-6.2-8.3-1.8 0.3-2.4 3.9-2.6 6.6zM584.7 521.7c0.1 3.1 2.8 9.5 5.9 9.8 2.4 0.3 4.1-4.7 3.1-8.9-0.9-3.9-4-8.3-6.9-7.7-1.9 0.5-2.2 4.1-2.1 6.8zM599.7 527.7c0.1 3.1 2.8 9.5 5.9 9.8 2.4 0.3 4.1-4.7 3.1-8.9-0.9-3.9-4-8.3-6.9-7.7-1.9 0.5-2.2 4.1-2.1 6.8zM614.7 515.7c0.1 3.1 2.8 9.5 5.9 9.8 2.4 0.3 4.1-4.7 3.1-8.9-0.9-3.9-4-8.3-6.9-7.7-1.9 0.5-2.2 4.1-2.1 6.8zM632.5 518.5c0.6 3 4.3 8.9 7.4 8.7 2.4-0.1 3.2-5.3 1.6-9.3-1.5-3.7-5.3-7.6-8-6.4-1.8 0.7-1.5 4.3-1 7zM402.1 653.7c-0.6 3 0.6 9.9 3.5 10.9 2.3 0.8 5-3.6 5-8 0-4-2-9-5-9-1.8 0-2.9 3.5-3.5 6.1zM418.1 647.7c-0.6 3 0.6 9.9 3.5 10.9 2.3 0.8 5-3.6 5-8 0-4-2-9-5-9-1.8 0-2.9 3.5-3.5 6.1zM436.1 658.7c-0.6 3 0.6 9.9 3.5 10.9 2.3 0.8 5-3.6 5-8 0-4-2-9-5-9-1.8 0-2.9 3.5-3.5 6.1zM448.1 642.7c-0.6 3 0.6 9.9 3.5 10.9 2.3 0.8 5-3.6 5-8 0-4-2-9-5-9-1.8 0-2.9 3.5-3.5 6.1zM461.1 654.7c-0.6 3 0.6 9.9 3.5 10.9 2.3 0.8 5-3.6 5-8 0-4-2-9-5-9-1.8 0-2.9 3.5-3.5 6.1zM479.1 638.7c-0.6 3 0.6 9.9 3.5 10.9 2.3 0.8 5-3.6 5-8 0-4-2-9-5-9-1.8 0-2.9 3.5-3.5 6.1zM486.1 656.7c-0.6 3 0.6 9.9 3.5 10.9 2.3 0.8 5-3.6 5-8 0-4-2-9-5-9-1.8 0-2.9 3.5-3.5 6.1zM506.1 633.7c-0.6 3 0.6 9.9 3.5 10.9 2.3 0.8 5-3.6 5-8 0-4-2-9-5-9-1.8 0-2.9 3.5-3.5 6.1zM515.1 649.7c-0.6 3 0.6 9.9 3.5 10.9 2.3 0.8 5-3.6 5-8 0-4-2-9-5-9-1.8 0-2.9 3.5-3.5 6.1zM529.9 633.1c-0.4 3.1 1.4 9.8 4.4 10.5 2.4 0.6 4.7-4 4.3-8.4-0.3-4-2.7-8.8-5.7-8.6-1.8 0.2-2.6 3.8-3 6.5zM553.8 645.3c-0.2 3.1 2 9.7 5 10.3 2.4 0.5 4.4-4.3 3.8-8.6-0.6-4-3.2-8.6-6.2-8.2-1.8 0.2-2.4 3.8-2.6 6.5zM561.8 627.3c-0.2 3.1 2 9.7 5 10.3 2.4 0.5 4.4-4.3 3.8-8.6-0.6-4-3.2-8.6-6.2-8.2-1.8 0.2-2.4 3.8-2.6 6.5zM580.8 641.3c-0.2 3.1 2 9.7 5 10.3 2.4 0.5 4.4-4.3 3.8-8.6-0.6-4-3.2-8.6-6.2-8.2-1.8 0.2-2.4 3.8-2.6 6.5zM593.7 620.7c0 3.1 2.7 9.5 5.8 9.9 2.4 0.3 4.1-4.6 3.2-8.9-0.9-3.9-3.9-8.4-6.8-7.7-1.9 0.3-2.2 4-2.2 6.7zM613.7 633.7c0 3.1 2.7 9.5 5.8 9.9 2.4 0.3 4.1-4.6 3.2-8.9-0.9-3.9-3.9-8.4-6.8-7.7-1.9 0.3-2.2 4-2.2 6.7zM625.7 613.7c0 3.1 2.7 9.5 5.8 9.9 2.4 0.3 4.1-4.6 3.2-8.9-0.9-3.9-3.9-8.4-6.8-7.7-1.9 0.3-2.2 4-2.2 6.7zM647.7 625.7c0 3.1 2.7 9.5 5.8 9.9 2.4 0.3 4.1-4.6 3.2-8.9-0.9-3.9-3.9-8.4-6.8-7.7-1.9 0.3-2.2 4-2.2 6.7zM659.7 610.7c0 3.1 2.7 9.5 5.8 9.9 2.4 0.3 4.1-4.6 3.2-8.9-0.9-3.9-3.9-8.4-6.8-7.7-1.9 0.3-2.2 4-2.2 6.7zM674.7 608.7c0 3.1 2.7 9.5 5.8 9.9 2.4 0.3 4.1-4.6 3.2-8.9-0.9-3.9-3.9-8.4-6.8-7.7-1.9 0.3-2.2 4-2.2 6.7zM685.7 594.7c0 3.1 2.7 9.5 5.8 9.9 2.4 0.3 4.1-4.6 3.2-8.9-0.9-3.9-3.9-8.4-6.8-7.7-1.9 0.3-2.2 4-2.2 6.7zM710.7 602.7c0 3.1 2.7 9.5 5.8 9.9 2.4 0.3 4.1-4.6 3.2-8.9-0.9-3.9-3.9-8.4-6.8-7.7-1.9 0.3-2.2 4-2.2 6.7zM728.5 584.6c0.6 3 4.5 8.8 7.6 8.6 2.4-0.2 3.1-5.3 1.4-9.3-1.6-3.7-5.4-7.5-8.2-6.3-1.7 0.7-1.4 4.3-0.8 7z" fill="#FE9845" p-id="32936"></path></svg>