<?xml version="1.0" standalone="no"?><!DOCTYPE svg PUBLIC "-//W3C//DTD SVG 1.1//EN" "http://www.w3.org/Graphics/SVG/1.1/DTD/svg11.dtd"><svg t="1545201816165" class="icon" style="" viewBox="0 0 1024 1024" version="1.1" xmlns="http://www.w3.org/2000/svg" p-id="17118" xmlns:xlink="http://www.w3.org/1999/xlink" width="64" height="64"><defs><style type="text/css"></style></defs><path d="M516.8 791.04l8.64 2.4a129.28 129.28 0 0 0 77.92-2.88A160 160 0 0 0 688 720a160 160 0 0 0 20.8-65.76l2.88-32a180.48 180.48 0 0 1 48-107.52l23.2-24.8a200.96 200.96 0 0 0 53.44-118.56 108.64 108.64 0 0 0-53.92-104.48l-1.6-0.96a105.44 105.44 0 0 0-114.08 5.28l-1.44 0.96a201.44 201.44 0 0 0-76.16 105.92l-9.76 32a180.32 180.32 0 0 1-69.12 96l-26.72 18.72A160 160 0 0 0 436.8 576a160 160 0 0 0-18.72 108.32 135.84 135.84 0 0 0 35.52 69.76 137.6 137.6 0 0 0 62.88 37.44z" fill="#FDDB8D" p-id="17119"></path><path d="M646.4 678.72a88.32 88.32 0 0 0-32-125.28c-34.4-19.84-82.4-30.72-128 48-28.96 50.24-18.88 110.4 22.56 134.4s107.36-6.4 136.32-56.64zM754.24 314.88c34.88 20.16 42.56 72.64 16.8 116.96s-74.72 64-109.76 43.84-42.56-72.64-16.8-116.96 74.72-64 109.76-43.84z" fill="#EB5B37" p-id="17120"></path><path d="M661.12 375.36c25.6-44.48 74.72-64 109.76-43.84l3.04 2.08a59.36 59.36 0 0 0-19.52-18.56c-34.88-20.16-84.16 0-109.76 43.84s-18.4 93.44 13.76 114.88a94.88 94.88 0 0 1 2.72-98.4z" fill="#FFFFFF" p-id="17121"></path><path d="M672.96 395.68a7.84 7.84 0 0 1-4-1.12 8 8 0 0 1-2.88-10.88 124.96 124.96 0 0 1 13.12-18.56 8 8 0 0 1 12.16 10.4 110.24 110.24 0 0 0-11.36 16 8 8 0 0 1-7.04 4.16zM700 363.68a7.84 7.84 0 0 1-6.08-2.72 7.84 7.84 0 0 1 0-11.04l5.92 5.44 5.12 6.08a8.48 8.48 0 0 1-4.96 2.24z" fill="#FFFFFF" p-id="17122"></path><path d="M793.76 274.24A108.64 108.64 0 0 1 816 350.4a201.12 201.12 0 0 1-53.44 118.56l-23.2 24.8a180.48 180.48 0 0 0-48 107.52l-2.88 32a160 160 0 0 1-105.12 136.16 129.28 129.28 0 0 1-77.92 2.88l-9.44-1.76a137.6 137.6 0 0 1-50.08-25.76c2.4 2.88 4.8 5.76 7.36 8.48a137.6 137.6 0 0 0 62.88 37.44l8.64 2.4a129.28 129.28 0 0 0 77.92-2.88 160 160 0 0 0 105.12-136.16l2.88-32a180.48 180.48 0 0 1 48-107.52l23.2-24.8a201.12 201.12 0 0 0 53.44-118.56 108.64 108.64 0 0 0-41.6-96.96z" fill="#EFCB84" p-id="17123"></path><path d="M462.88 598.08a160 160 0 0 1 46.56-50.88l26.88-19.2a180.32 180.32 0 0 0 69.12-96l9.76-32a201.44 201.44 0 0 1 76.16-105.92l1.44-0.96a105.44 105.44 0 0 1 114.08-5.12l1.6 0.96 3.36 2.08a108.48 108.48 0 0 0-29.6-24.96l-1.6-0.96a105.44 105.44 0 0 0-114.08 5.28l-1.44 0.96a201.44 201.44 0 0 0-76.16 105.92l-9.76 32a180.32 180.32 0 0 1-69.12 96l-26.72 18.72A160 160 0 0 0 436.8 576a160 160 0 0 0-18.72 108.32 135.84 135.84 0 0 0 35.52 69.76 137.6 137.6 0 0 0 22.56 18.88 135.68 135.68 0 0 1-32-66.08 160 160 0 0 1 18.72-108.8z" fill="#FFFFFF" p-id="17124"></path><path d="M508.48 621.92c45.28-78.4 93.12-67.52 128-48 2.88 1.6 5.44 3.36 8.16 5.28a92.96 92.96 0 0 0-29.12-26.24c-34.56-19.84-82.4-30.72-128 48-28.16 48-19.36 106.56 18.88 131.84a107.04 107.04 0 0 1 2.08-110.88z" fill="#FFFFFF" p-id="17125"></path><path d="M560 806.08a137.76 137.76 0 0 1-36.48-4.96l-8.64-2.4A145.92 145.92 0 0 1 448 759.2a144 144 0 0 1-38.08-74.24 167.52 167.52 0 0 1 68.64-167.04l26.72-18.72a173.12 173.12 0 0 0 66.08-91.2 8 8 0 1 1 16 4.64A189.12 189.12 0 0 1 514.72 512l-26.72 18.72a151.52 151.52 0 0 0-62.08 151.2 128 128 0 0 0 33.44 65.6A130.08 130.08 0 0 0 518.88 784l8.64 2.4a120.8 120.8 0 0 0 73.12-2.72 151.52 151.52 0 0 0 99.84-129.28l2.88-32a189.28 189.28 0 0 1 50.24-112l23.2-24.8a193.92 193.92 0 0 0 51.36-113.76 100.96 100.96 0 0 0-49.92-96l-1.6-0.96a97.76 97.76 0 0 0-105.44 4.96l-1.44 0.96a194.56 194.56 0 0 0-73.28 101.6 8 8 0 1 1-16-4.64 210.4 210.4 0 0 1 80-110.08l1.44-0.96a113.76 113.76 0 0 1 122.08-8l1.6 0.96a116.96 116.96 0 0 1 57.76 112 210.08 210.08 0 0 1-55.52 123.2l-23.2 24.8A173.12 173.12 0 0 0 720 622.56l-2.88 32a167.52 167.52 0 0 1-110.4 142.88 136.96 136.96 0 0 1-46.72 8.64z" fill="#7B365D" p-id="17126"></path><path d="M396.8 812.48a154.88 154.88 0 0 0 78.4-49.44l9.44-11.2a118.88 118.88 0 0 0 28.32-76.96 258.72 258.72 0 0 0-24.16-109.12l-6.72-14.4a194.08 194.08 0 0 1-12.96-125.92l8.32-35.52a216.16 216.16 0 0 0-13.44-139.2 116.96 116.96 0 0 0-106.24-68.32 116.96 116.96 0 0 0-106.24 68.32 216.16 216.16 0 0 0-13.92 139.04l8.32 35.52a193.92 193.92 0 0 1-12.96 125.92l-6.72 14.4a258.72 258.72 0 0 0-24.16 109.12A118.88 118.88 0 0 0 229.6 752l9.44 11.2a154.88 154.88 0 0 0 78.4 49.44 154.88 154.88 0 0 0 80 0z" fill="#F4B651" p-id="17127"></path><path d="M488.8 565.6l-6.72-14.4a194.08 194.08 0 0 1-12.96-125.92l8.32-35.52a216.16 216.16 0 0 0-13.44-139.04 116.64 116.64 0 0 0-124-66.88 116.96 116.96 0 0 1 88.64 66.88 216.16 216.16 0 0 1 13.92 139.04l-8.32 35.52a194.08 194.08 0 0 0 12.96 125.92l6.72 14.4a258.72 258.72 0 0 1 24.16 109.12 118.88 118.88 0 0 1-28.8 77.28l-9.44 11.2a153.92 153.92 0 0 1-100.32 52.8 154.56 154.56 0 0 0 135.84-53.6l9.44-11.2a118.88 118.88 0 0 0 28.32-76.96 258.72 258.72 0 0 0-24.32-108.64z" fill="#E2A144" p-id="17128"></path><path d="M274.56 762.88l-9.44-11.2a118.88 118.88 0 0 1-28.32-76.96 258.72 258.72 0 0 1 24.16-109.12l6.72-14.4a194.08 194.08 0 0 0 12.96-125.92L272 389.76a216.16 216.16 0 0 1 13.92-139.04 116.96 116.96 0 0 1 88.64-66.88 116.64 116.64 0 0 0-124 66.88 216.16 216.16 0 0 0-13.92 139.04l8.32 35.52a194.08 194.08 0 0 1-12.96 125.92l-6.72 14.4a258.72 258.72 0 0 0-24.16 109.12A118.88 118.88 0 0 0 229.6 752l9.44 11.2a154.56 154.56 0 0 0 135.84 52.8 153.92 153.92 0 0 1-100.32-53.6z" fill="#FFFFFF" p-id="17129"></path><path d="M236.96 397.76a8 8 0 0 1-7.84-6.24 224 224 0 0 1-5.12-40.32 8 8 0 0 1 7.52-8.32 7.52 7.52 0 0 1 8.32 7.52 210.4 210.4 0 0 0 5.28 37.6 8 8 0 0 1-5.92 9.6z" fill="#7B365D" p-id="17130"></path><path d="M357.12 825.6a162.72 162.72 0 0 1-124.16-57.6l-9.44-11.2a127.04 127.04 0 0 1-30.08-82.08 268.64 268.64 0 0 1 24.96-112l6.72-14.4a186.72 186.72 0 0 0 12.48-120.8 8 8 0 1 1 16-3.68 202.88 202.88 0 0 1-13.6 131.2l-6.72 14.4a252.64 252.64 0 0 0-23.36 105.76 112 112 0 0 0 26.4 71.84l9.44 11.2a146.88 146.88 0 0 0 224 0l9.44-11.2a110.88 110.88 0 0 0 26.4-71.68 252.48 252.48 0 0 0-23.36-105.76l-6.72-14.4a203.04 203.04 0 0 1-13.6-131.2l8.32-35.52a209.12 209.12 0 0 0-13.44-133.92 108.96 108.96 0 0 0-198.08 0 208 208 0 0 0-17.12 59.36 8 8 0 0 1-16-2.08 224 224 0 0 1 18.4-64 124.96 124.96 0 0 1 227.2 0 225.28 225.28 0 0 1 14.4 144l-8.32 35.52a186.88 186.88 0 0 0 12.48 120.8l6.72 14.4a268.48 268.48 0 0 1 24.96 112 126.88 126.88 0 0 1-30.08 82.08l-9.44 11.2a162.72 162.72 0 0 1-124.16 57.44zM691.68 491.84a67.84 67.84 0 0 1-34.24-9.12c-38.72-22.4-48-80-19.84-128a114.24 114.24 0 0 1 55.36-49.6 73.44 73.44 0 0 1 65.28 2.72c38.72 22.4 48 80 19.84 128a114.24 114.24 0 0 1-55.36 49.6 83.52 83.52 0 0 1-31.04 6.4z m32-176.8a67.52 67.52 0 0 0-25.12 5.12 98.24 98.24 0 0 0-48 42.72c-23.36 40.48-17.12 88.16 13.92 106.08a58.08 58.08 0 0 0 51.36 1.76 98.4 98.4 0 0 0 48-42.72c23.36-40.48 17.12-88.16-13.92-106.08a52.16 52.16 0 0 0-25.92-6.88z" fill="#7B365D" p-id="17131"></path><path d="M331.68 402.24a233.28 233.28 0 0 1-101.76-23.68 8 8 0 0 1 7.52-14.08c0.8 0 85.44 44.48 171.84 5.12a8 8 0 1 1 6.72 14.4 201.6 201.6 0 0 1-84.32 18.24zM364.48 724a265.28 265.28 0 0 1-168-59.2 8 8 0 0 1 10.72-11.84 256 256 0 0 0 186.08 53.44 8 8 0 0 1 1.76 16 276.8 276.8 0 0 1-30.56 1.6zM427.36 715.2a8 8 0 0 1-2.72-16l2.88-1.12a8 8 0 0 1 5.6 15.04l-2.88 1.12a8 8 0 0 1-2.88 0.96zM412.32 325.92a172.48 172.48 0 0 1-37.28-3.84 8 8 0 0 1-5.92-9.6 8.16 8.16 0 0 1 9.6-5.92s55.84 12.96 94.24-12.48a8 8 0 0 1 8.8 13.28 126.72 126.72 0 0 1-69.44 18.56z" fill="#7B365D" p-id="17132"></path><path d="M277.28 740.32a8 8 0 0 1-5.6-2.4c-58.24-58.56-4.96-162.4-2.72-166.72a203.52 203.52 0 0 0 16-157.76 213.12 213.12 0 0 1 17.92-170.4 8 8 0 0 1 13.6 8.48 200.48 200.48 0 0 0-16 156.64 216 216 0 0 1-17.28 170.88s-49.92 97.44 0 147.68a8 8 0 0 1-5.6 13.6zM345.12 696.32a8 8 0 0 1-8-7.68 520.48 520.48 0 0 1 13.28-130.4c14.88-55.84 11.2-73.28-4-147.2a304.8 304.8 0 0 1 18.08-159.04 8 8 0 0 1 14.72 6.08s-32 77.76-17.28 148.8c16 75.84 19.84 96 4 155.36a512.96 512.96 0 0 0-12.8 125.76 8 8 0 0 1-7.68 8.32zM459.52 699.36a8 8 0 0 1-3.2-16 128 128 0 0 0 48-34.24 8 8 0 1 1 13.6 8.48 145.12 145.12 0 0 1-55.04 40.32 7.84 7.84 0 0 1-3.36 1.44z" fill="#7B365D" p-id="17133"></path></svg>