<?xml version="1.0" standalone="no"?><!DOCTYPE svg PUBLIC "-//W3C//DTD SVG 1.1//EN" "http://www.w3.org/Graphics/SVG/1.1/DTD/svg11.dtd"><svg t="1545200432379" class="icon" style="" viewBox="0 0 1024 1024" version="1.1" xmlns="http://www.w3.org/2000/svg" p-id="4170" xmlns:xlink="http://www.w3.org/1999/xlink" width="64" height="64"><defs><style type="text/css"></style></defs><path d="M496 809.6c22.4 9.6 41.6 16 60.8 20.8-6.4 33.6-12.8 67.2-17.6 100.8-3.2 17.6-19.2 28.8-36.8 27.2-17.6-3.2-28.8-19.2-27.2-36.8 4.8-36.8 12.8-75.2 20.8-112z" fill="#FFFFFF" p-id="4171"></path><path d="M467.2 859.2c-4.8-28.8-9.6-59.2-16-89.6 19.2-4.8 38.4-12.8 57.6-24 4.8 20.8 9.6 40 14.4 60.8-20.8 19.2-38.4 36.8-56 52.8z" fill="#FFFFFF" p-id="4172"></path><path d="M539.2 924.8c1.6 17.6-12.8 33.6-30.4 33.6-17.6 1.6-33.6-12.8-33.6-30.4-22.4-337.6 115.2-816 131.2-808 16 6.4-89.6 475.2-67.2 804.8z" fill="#3A8230" p-id="4173"></path><path d="M540.8 398.4c-40 192-60.8 380.8-49.6 529.6 0 9.6 8 16 17.6 14.4 9.6 0 16-8 14.4-17.6-4.8-72-3.2-155.2 1.6-248 6.4-89.6 16-184 30.4-289.6 3.2-28.8 12.8-86.4 19.2-131.2-11.2 43.2-22.4 91.2-33.6 142.4z m14.4 524.8c1.6 27.2-17.6 49.6-44.8 51.2-27.2 1.6-49.6-17.6-51.2-44.8-9.6-152 9.6-342.4 51.2-537.6 16-75.2 33.6-145.6 49.6-200 8-24 14.4-44.8 19.2-57.6 3.2-8 4.8-12.8 8-17.6 1.6-3.2 3.2-4.8 4.8-6.4 4.8-4.8 11.2-8 19.2-3.2 12.8 3.2 12.8 9.6 11.2 36.8-1.6 12.8-3.2 30.4-8 57.6 1.6-8-20.8 139.2-27.2 190.4-14.4 105.6-24 198.4-30.4 288-6.4 91.2-6.4 171.2-1.6 243.2z" fill="#333333" p-id="4174"></path><path d="M539.2 928c-1.6 17.6-16 30.4-33.6 30.4-17.6-1.6-30.4-16-30.4-33.6 17.6-305.6-110.4-846.4-92.8-851.2 16-8 174.4 540.8 156.8 854.4z" fill="#3A8230" p-id="4175"></path><path d="M443.2 382.4c12.8 78.4 22.4 148.8 30.4 216 16 131.2 20.8 240 16 326.4 0 9.6 6.4 16 14.4 17.6 9.6 0 16-6.4 17.6-14.4 8-137.6-17.6-332.8-65.6-544-12.8-56-25.6-110.4-40-158.4 11.2 52.8 22.4 123.2 27.2 156.8z m112 547.2c-1.6 27.2-24 46.4-51.2 44.8-27.2-1.6-46.4-24-44.8-51.2 4.8-84.8-1.6-192-16-321.6-8-67.2-17.6-136-30.4-214.4-9.6-59.2-38.4-235.2-36.8-220.8-4.8-32-8-52.8-9.6-67.2-3.2-33.6-3.2-36.8 9.6-43.2 20.8-8 28.8 8 54.4 97.6 19.2 60.8 40 139.2 57.6 222.4 48 214.4 75.2 412.8 67.2 553.6z" fill="#333333" p-id="4176"></path><path d="M476.8 928c1.6 17.6 16 30.4 33.6 30.4 17.6-1.6 30.4-16 30.4-33.6-17.6-305.6-1.6-846.4-19.2-851.2-16-8-62.4 540.8-44.8 854.4z" fill="#3A8230" p-id="4177"></path><path d="M515.2 380.8c0 112 0 156.8 1.6 219.2 1.6 134.4 3.2 240 8 324.8 0 9.6-6.4 16-14.4 17.6s-16-6.4-17.6-14.4c-8-140.8-3.2-342.4 9.6-545.6 3.2-54.4 8-107.2 11.2-152 1.6 35.2 1.6 81.6 1.6 150.4z m-54.4 548.8c1.6 27.2 24 46.4 51.2 44.8 27.2-1.6 46.4-24 44.8-51.2-4.8-83.2-8-188.8-8-323.2 0-62.4 0-107.2-1.6-219.2 0-323.2 0-316.8-19.2-323.2-9.6-3.2-16 0-20.8 6.4-1.6 1.6-3.2 4.8-3.2 8-1.6 4.8-3.2 11.2-4.8 19.2-3.2 16-6.4 38.4-9.6 65.6-6.4 57.6-12.8 136-19.2 222.4-12.8 203.2-17.6 408-9.6 550.4z" fill="#333333" p-id="4178"></path><path d="M539.2 923.2c1.6 17.6-11.2 33.6-28.8 33.6-17.6 1.6-33.6-11.2-33.6-28.8C448 584 201.6 128 214.4 115.2S512 566.4 539.2 923.2z" fill="#64B059" p-id="4179"></path><path d="M467.2 859.2c-4.8-28.8-9.6-59.2-16-89.6 19.2-4.8 38.4-12.8 57.6-24 4.8 20.8 9.6 40 14.4 60.8-20.8 19.2-38.4 36.8-56 52.8z" fill="#E0F2D1" p-id="4180"></path><path d="M360 430.4c38.4 97.6 68.8 190.4 91.2 276.8 20.8 80 33.6 153.6 38.4 219.2 0 9.6 8 16 17.6 14.4 9.6 0 16-8 14.4-17.6-11.2-155.2-73.6-344-166.4-537.6-24-48-48-96-70.4-137.6 33.6 76.8 52.8 121.6 75.2 182.4z m195.2 492.8c1.6 27.2-17.6 49.6-44.8 51.2s-49.6-17.6-51.2-44.8c-4.8-64-17.6-136-38.4-214.4-22.4-86.4-52.8-176-89.6-273.6-27.2-72-49.6-123.2-94.4-224-17.6-38.4-24-54.4-28.8-68.8-12.8-32-14.4-36.8-3.2-46.4 6.4-6.4 14.4-4.8 20.8-1.6 1.6 1.6 4.8 3.2 6.4 4.8 3.2 3.2 8 8 12.8 16 9.6 12.8 22.4 32 36.8 56 33.6 54.4 70.4 123.2 105.6 195.2 92.8 196.8 155.2 390.4 168 550.4z" fill="#333333" p-id="4181"></path><path d="M537.6 931.2c-3.2 17.6-19.2 28.8-36.8 27.2-17.6-3.2-28.8-19.2-27.2-36.8C540.8 492.8 747.2 68.8 761.6 80s-158.4 432-224 851.2z" fill="#64B059" p-id="4182"></path><path d="M496 809.6c22.4 9.6 41.6 16 60.8 20.8-8 33.6-12.8 67.2-19.2 100.8-3.2 17.6-19.2 28.8-36.8 27.2-17.6-3.2-28.8-19.2-27.2-36.8 6.4-36.8 14.4-75.2 22.4-112z" fill="#E0F2D1" p-id="4183"></path><path d="M745.6 83.2z m-92.8 259.2C579.2 531.2 520 736 491.2 924.8c-1.6 8 4.8 17.6 12.8 17.6 8 1.6 17.6-4.8 17.6-12.8 0-4.8 1.6-8 1.6-12.8 20.8-134.4 54.4-276.8 97.6-430.4 25.6-91.2 44.8-152 86.4-280-16 40-35.2 86.4-54.4 136z m-99.2 592c-4.8 25.6-28.8 44.8-54.4 40-25.6-4.8-44.8-28.8-40-54.4 28.8-192 89.6-396.8 163.2-588.8 28.8-73.6 57.6-140.8 83.2-190.4 11.2-22.4 20.8-40 28.8-52.8 3.2-6.4 8-11.2 9.6-14.4l6.4-6.4c6.4-3.2 12.8-4.8 19.2 0 11.2 8 11.2 14.4 0 51.2-4.8 17.6-12.8 40-27.2 86.4-43.2 136-62.4 196.8-89.6 289.6-43.2 152-76.8 292.8-97.6 425.6 0 4.8 0 9.6-1.6 14.4z" fill="#333333" p-id="4184"></path></svg>