<?xml version="1.0" standalone="no"?><!DOCTYPE svg PUBLIC "-//W3C//DTD SVG 1.1//EN" "http://www.w3.org/Graphics/SVG/1.1/DTD/svg11.dtd"><svg t="1545200407331" class="icon" style="" viewBox="0 0 1024 1024" version="1.1" xmlns="http://www.w3.org/2000/svg" p-id="3654" xmlns:xlink="http://www.w3.org/1999/xlink" width="64" height="64"><defs><style type="text/css"></style></defs><path d="M146.4 297.1c13.9-6.5 27.8-10.2 41.7-10.2 56.6 0 91.8 57.5 93.7 60.3 0.9 1.9 1.9 2.8 1.9 4.6 57.4 280 336.5 371.8 339.3 372.8 5.6 1.9 9.3 7.4 9.3 13.9s-4.6 11.1-10.2 13c-35.2 9.3-70.5 13.9-104.8 13.9-217 0-359.8-183.6-396-256.9-33.4-64-43.6-113.1-31.5-151.2 8.3-25 27.8-45.4 56.6-60.2z" fill="" p-id="3655"></path><path d="M66.2 349.9c-14.4 45.6-2.9 100.9 32.9 169.6 24.8 50.2 75.6 114.1 136.7 164.1 82.3 67.3 177.4 106.5 281.4 106.5 36.6 0 73.9-4.9 111.1-14.7 17.1-5.6 28.6-19.4 28.6-36.9 0-16.8-10.2-32-26.2-37.4-1-0.3-2-0.7-3.8-1.3-3.1-1.1-6.6-2.5-10.6-4.1-11.4-4.6-24.2-10.3-37.9-17.1-39.1-19.5-78.1-44.4-114.4-75.1-78.9-66.6-134.2-150.9-156-255.2-0.4-3.6-1.5-6.8-3-9.9-0.5-0.9-0.7-1.3-1.3-2.4 0-0.1-0.5-0.9-1.5-2.6 0.5 0.7-1.2-1.9-2.3-3.4-1.7-2.5-3.6-5.2-5.8-8-6-7.9-12.9-15.7-20.8-23-24.4-22.8-52.9-36.8-85.4-36.8-17.3 0-34.6 4.3-52.2 12.5-35.1 18.2-58.9 43.4-69.5 75.2z m237.7-13.8l-0.1-0.1 0.1 0.1zM89.8 357.4c8.3-25 27.8-45.4 56.6-60.3 13.9-6.5 27.8-10.2 41.7-10.2 56.6 0 91.8 57.5 93.7 60.3 0.9 1.9 1.9 2.8 1.9 4.6 57.4 280 336.5 371.8 339.3 372.8 5.6 1.9 9.3 7.4 9.3 13.9s-4.6 11.1-10.2 13c-35.2 9.3-70.5 13.9-104.8 13.9-217 0-359.8-183.6-396-256.9-33.4-64-43.6-113.1-31.5-151.1z" fill="" p-id="3656"></path><path d="M93.4 348.3c9.7-20.9 27.8-38.2 53-51.2 13.9-6.5 27.8-10.2 41.7-10.2 56.6 0 91.8 57.5 93.7 60.3 0.2 0.4 0.4 0.8 0.6 1.1 0.7 1.2 1.2 2.1 1.2 3.5 57.5 280 336.6 371.8 339.4 372.8 3.8 1.3 6.6 4.2 8.1 8v11.2c-1.7 3.7-5.1 6.4-9.1 7.7-141.8 15-422-23.7-532.3-394.1 1.1-3.1 2.3-6.2 3.7-9.1z" fill="#EF4949" p-id="3657"></path><path d="M622.1 751.5c-35.2 9.3-70.5 13.9-104.8 13.9-217 0-359.8-183.6-396-256.9-33.4-64-43.6-113.1-31.5-151.2 110.3 370.5 390.5 409.1 532.3 394.2z" fill="#C7282B" p-id="3658"></path><path d="M149.7 359l22.5 13.5c-3.4-36.4 0-42.6 13.5-45.8 15.7-3.1 21.3 12.5 23.6 17.7 4.5 12.5 41.6 7.3 59.5 2.1 9-2.1 18 2.1 21.3 10.4 2.2 8.3-2.2 16.6-11.2 19.8-4.5 1-42.7 12.5-71.9 4.2 0 7.3 1.1 14.6 2.2 20.8 1.1 6.2-2.2 12.5-7.9 15.6-5.6 3.1-12.4 3.1-18 0l-38.2-22.9c-14.6 22.9-30.3 52-28.1 65.5 2.2 8.3-4.5 16.6-13.5 17.7h-2.2c-7.9 0-14.6-5.2-15.7-13.5-6.7-34.3 33.7-90.5 41.6-100.9 4.5-6.2 14.6-8.3 22.5-4.2z" fill="" p-id="3659"></path><path d="M252.1 497.4c7.4-1.9 14.8 2.8 16.7 10.2 0 0 23.2 86.2 127 153 6.5 4.6 8.3 13 4.6 19.5-2.8 4.6-7.4 6.5-12.1 6.5-2.8 0-4.6-0.9-7.4-2.8-113.1-72.3-138.2-166-139.1-169.7-1.8-7.5 2.9-14.9 10.3-16.7z" fill="#FFFFFF" p-id="3660"></path><path d="M103.1 157.4c7.4 1.9 13 9.3 11.1 16.7-14.8 74.2 25 92.7 26.9 93.7 6.5 2.8 10.2 10.2 7.4 17.6-1.9 4.6-7.4 8.3-13 8.3-1.9 0-3.7-0.9-4.6-0.9-2.8-0.9-63.1-26-44.5-124.3 1.8-7.4 9.3-13 16.7-11.1z" fill="" p-id="3661"></path><path d="M300.1 820.6c0 2.3 0.5 4.5 1.4 6.4v-13.6c-0.9 2.2-1.4 4.6-1.4 7.2z" fill="#4ECA62" p-id="3662"></path><path d="M888.6 286c-16.8-7.9-33.7-12.4-50.5-12.4-68.5 0-111.2 69.6-113.4 73-1.1 2.2-2.2 3.4-2.2 5.6-69.6 339.2-407.7 450.3-411 451.5-6.7 2.2-11.2 9-11.2 16.8 0 7.9 5.6 13.5 12.4 15.7 42.7 11.2 85.4 16.8 126.9 16.8 262.8 0 435.7-222.4 479.5-311.1 40.4-77.5 52.8-137 38.2-183.1-10.3-30.1-33.9-54.8-68.7-72.8z" fill="" p-id="3663"></path><path d="M901.3 258.9c-21.2-9.9-42.2-15.2-63.2-15.2-39.3 0-73.9 17-103.4 44.6-9.5 8.9-17.9 18.3-25.1 27.8-2.6 3.4-4.9 6.7-7 9.7-1.2 1.8-3.3 5-2.7 4.2-1.2 2-1.8 3.1-1.8 3.2-0.8 1.3-1 1.8-1.6 2.9-1.8 3.7-3.1 7.6-3.6 12-26.4 126.3-93.3 228.4-188.9 309.1-44 37.2-91.3 67.3-138.6 90.9-16.6 8.3-32 15.2-45.9 20.7-4.8 1.9-9.1 3.6-12.8 4.9-2.2 0.8-3.3 1.2-4.6 1.6-19.4 6.5-31.7 24.9-31.7 45.3 0 21.2 14 37.9 34.7 44.7 45 11.8 90.2 17.8 134.5 17.8 126 0 241.2-47.5 340.9-129 74-60.5 135.5-137.9 165.5-198.7 43.4-83.2 57.4-150.2 39.9-205.4-13.1-38.5-41.9-69.1-84.6-91.1z m-203.4 74.2l-0.1 0.2 0.1-0.2z m221 209c-43.8 88.7-216.8 311.1-479.5 311.1-41.6 0-84.2-5.6-126.9-16.8-6.7-2.2-12.4-7.9-12.4-15.7 0-7.9 4.5-14.6 11.2-16.8 3.4-1.1 341.4-112.3 411-451.5 0-2.2 1.1-3.4 2.2-5.6 2.2-3.4 44.9-73 113.4-73 16.8 0 33.7 4.5 50.5 12.4 34.8 18 58.4 42.7 68.5 73 14.8 45.8 2.5 105.4-38 182.9z" fill="" p-id="3664"></path><path d="M952.8 348c-11.7-25.4-33.6-46.3-64.2-62-16.8-7.9-33.7-12.4-50.5-12.4-68.5 0-111.2 69.6-113.4 73-0.3 0.5-0.5 1-0.8 1.4-0.8 1.4-1.5 2.5-1.5 4.2-69.6 339.2-407.7 450.3-411 451.5-4.5 1.5-8 5.1-9.8 9.7V827c2.1 4.5 6.2 7.7 11 9.3 171.7 18.1 511-28.7 644.6-477.3-1.3-3.7-2.8-7.4-4.4-11z" fill="#4ECA62" p-id="3665"></path><path d="M312.5 836.3c42.7 11.2 85.4 16.8 126.9 16.8 262.8 0 435.7-222.4 479.5-311.1 40.4-77.5 52.8-137 38.2-183.1-133.6 448.8-472.9 495.5-644.6 477.4z" fill="#35AF48" p-id="3666"></path><path d="M884.5 361l-27.2 16.4c4.1-44.1 0-51.6-16.3-55.4-19-3.8-25.9 15.1-28.6 21.4-5.4 15.1-50.3 8.8-72.1 2.5-10.9-2.5-21.8 2.5-25.9 12.6-2.7 10.1 2.7 20.2 13.6 23.9 5.4 1.3 51.7 15.1 87.1 5 0 8.8-1.4 17.6-2.7 25.2-1.4 7.6 2.7 15.1 9.5 18.9 6.8 3.8 15 3.8 21.8 0l46.3-27.7c17.7 27.7 36.7 63 34 79.3-2.7 10.1 5.4 20.2 16.3 21.4h2.7c9.5 0 17.7-6.3 19-16.4 8.2-41.6-40.8-109.6-50.3-122.2-5.4-7.4-17.6-9.9-27.2-4.9z" fill="" p-id="3667"></path><path d="M760.6 528.6c-9-2.2-18 3.4-20.2 12.4 0 0-28.1 104.4-153.9 185.3-7.9 5.6-10.1 15.7-5.6 23.6 3.4 5.6 9 7.9 14.6 7.9 3.4 0 5.6-1.1 9-3.4 137-87.6 167.3-201 168.5-205.5 2.2-9.1-3.4-18.1-12.4-20.3z" fill="#FFFFFF" p-id="3668"></path><path d="M941 116.8c-9 2.2-15.7 11.2-13.5 20.2 18 89.8-30.3 112.3-32.6 113.4-7.9 3.4-12.4 12.4-9 21.3 2.2 5.6 9 10.1 15.7 10.1 2.2 0 4.5-1.1 5.6-1.1 3.4-1.1 76.4-31.4 53.9-150.5-2.1-8.9-11.1-15.7-20.1-13.4z" fill="" p-id="3669"></path></svg>