<?xml version="1.0" standalone="no"?><!DOCTYPE svg PUBLIC "-//W3C//DTD SVG 1.1//EN" "http://www.w3.org/Graphics/SVG/1.1/DTD/svg11.dtd"><svg t="1545203085308" class="icon" style="" viewBox="0 0 1024 1024" version="1.1" xmlns="http://www.w3.org/2000/svg" p-id="31412" xmlns:xlink="http://www.w3.org/1999/xlink" width="64" height="64"><defs><style type="text/css"></style></defs><path d="M76.8 460.288m-15.872 0a15.872 15.872 0 1 0 31.744 0 15.872 15.872 0 1 0-31.744 0Z" fill="#7C2004" p-id="31413"></path><path d="M48.64 633.856m-15.872 0a15.872 15.872 0 1 0 31.744 0 15.872 15.872 0 1 0-31.744 0Z" fill="#7C2004" p-id="31414"></path><path d="M88.064 738.816m-15.872 0a15.872 15.872 0 1 0 31.744 0 15.872 15.872 0 1 0-31.744 0Z" fill="#7C2004" p-id="31415"></path><path d="M964.608 589.312m-15.872 0a15.872 15.872 0 1 0 31.744 0 15.872 15.872 0 1 0-31.744 0Z" fill="#7C2004" p-id="31416"></path><path d="M975.36 464.384m-15.872 0a15.872 15.872 0 1 0 31.744 0 15.872 15.872 0 1 0-31.744 0Z" fill="#7C2004" p-id="31417"></path><path d="M764.928 210.944m-15.872 0a15.872 15.872 0 1 0 31.744 0 15.872 15.872 0 1 0-31.744 0Z" fill="#7C2004" p-id="31418"></path><path d="M670.72 223.232m-15.872 0a15.872 15.872 0 1 0 31.744 0 15.872 15.872 0 1 0-31.744 0Z" fill="#7C2004" p-id="31419"></path><path d="M503.808 557.568m-15.872 0a15.872 15.872 0 1 0 31.744 0 15.872 15.872 0 1 0-31.744 0Z" fill="#7C2004" p-id="31420"></path><path d="M373.248 379.392m-15.872 0a15.872 15.872 0 1 0 31.744 0 15.872 15.872 0 1 0-31.744 0Z" fill="#7C2004" p-id="31421"></path><path d="M932.864 367.104c5.632 4.608 13.824 4.096 19.456-0.512 6.656-5.632 7.168-15.872 1.536-22.528s-15.872-7.168-22.528-1.536c-3.584 3.584-5.632 7.68-5.632 12.288-11.264-20.992-24.576-40.448-39.936-57.856-88.064-100.352-201.728-86.016-290.304-8.192-4.608 4.096-8.192 7.68-12.8 11.776-0.512-1.536-1.536-2.56-3.584-3.584-133.632-89.6-343.04-43.52-352.256-41.984-4.096 1.024-7.168 4.096-8.192 7.68s0 8.192 3.584 11.264c0.512 0.512 62.464 59.392 41.472 101.376-0.512 1.536-1.024 3.584-1.024 5.12-36.864 1.024-71.168 9.216-100.864 23.552 1.024-2.048 2.048-5.12 2.048-7.68 0-9.216-7.168-15.872-15.872-15.872-9.216 0-15.872 7.168-15.872 15.872s6.656 15.36 14.336 15.872c-52.224 31.232-86.528 86.528-86.528 165.888 0 84.48 37.888 174.08 96.256 227.84-2.56-2.048-6.144-4.096-10.24-4.096-9.216 0-15.872 7.168-15.872 15.872s7.168 15.872 15.872 15.872c9.216 0 15.872-7.168 15.872-15.872 0-4.608-1.536-7.68-4.608-10.752 23.552 22.016 50.688 37.376 79.872 45.056-6.656 1.536-11.776 7.68-11.776 15.36 0 9.216 7.168 15.872 15.872 15.872 8.192 0 15.872-7.168 15.872-15.872 0-5.12-2.048-9.728-6.144-12.288 7.168 1.024 15.36 1.536 23.04 1.536 23.04 0 45.056-5.632 65.024-15.36-1.536 2.048-2.048 5.12-2.048 7.68 0 9.216 7.168 15.872 15.872 15.872 8.192 0 15.872-7.168 15.872-15.872 0-8.192-6.656-15.36-15.36-15.872 28.16-16.384 53.248-40.96 73.216-70.144 0.512 8.192 7.168 15.36 15.872 15.36 9.216 0 15.872-7.168 15.872-15.872 0-9.216-7.168-15.872-15.872-15.872-1.536 0-3.584 0.512-5.12 1.024 16.384-26.112 29.184-55.296 37.376-86.016 1.536 7.168 7.68 12.288 15.872 12.288 9.216 0 15.872-7.168 15.872-15.872 0-9.216-7.168-15.872-15.872-15.872-5.12 0-9.216 2.048-11.776 5.632 5.632-23.04 8.192-46.592 8.192-69.632 0-57.344-17.408-101.376-46.592-133.632 2.56 2.56 6.656 4.608 11.264 4.608 9.216 0 15.872-7.168 15.872-15.872s-7.168-15.872-15.872-15.872c-9.216 0-15.872 7.168-15.872 15.872 0 4.608 1.536 8.192 4.608 11.264-35.84-38.912-91.136-60.416-153.6-62.464 16.384-40.448-13.824-84.48-33.792-107.52 54.784-9.216 212.48-26.112 314.368 41.984 0.512 0 0.512 0.512 1.024 0.512-17.92 19.968-31.744 41.472-41.472 64.512-0.512-2.56-1.536-5.12-3.584-7.168-5.632-6.656-15.872-7.168-22.528-1.536-6.656 5.632-7.168 15.872-1.536 22.528 5.632 6.144 15.36 7.168 21.504 2.048-7.68 24.064-10.752 49.152-7.168 75.264-0.512-0.512-1.024-1.536-1.536-2.048-5.632-6.656-15.872-7.168-22.528-1.536s-7.168 15.872-1.536 22.528 15.872 7.168 22.528 1.536c2.56-2.048 4.608-5.12 5.12-8.192 6.144 31.744 22.528 64 49.152 94.72 33.792 38.912 79.872 69.632 128 88.064-4.096 0-8.192 1.024-11.776 4.096-6.656 5.632-7.168 15.872-1.536 22.528 5.632 6.656 15.872 7.168 22.528 1.536 6.656-5.632 7.168-15.872 1.536-22.528l-2.048-2.048c28.672 10.24 57.856 15.872 86.016 16.896-3.584 0-7.168 1.024-10.24 4.096-6.656 5.632-7.168 15.872-1.536 22.528 5.632 6.656 15.872 7.168 22.528 1.536 6.656-5.632 7.168-15.872 1.536-22.528-2.56-3.584-6.656-5.12-10.752-5.12 31.744 0.512 62.976-5.12 89.6-18.432-4.096 5.632-4.096 13.824 1.024 19.456 5.632 6.656 15.872 7.168 22.528 1.536 6.656-5.632 7.168-15.872 1.536-22.528-3.584-4.096-8.192-5.632-12.8-5.632 6.144-4.096 12.288-8.192 18.432-13.312 70.144-65.024 70.144-185.344 23.552-282.624z" fill="#7C2004" p-id="31422"></path><path d="M593.408 628.224m-15.872 0a15.872 15.872 0 1 0 31.744 0 15.872 15.872 0 1 0-31.744 0Z" fill="#7C2004" p-id="31423"></path><path d="M885.248 270.848m-15.872 0a15.872 15.872 0 1 0 31.744 0 15.872 15.872 0 1 0-31.744 0Z" fill="#7C2004" p-id="31424"></path><path d="M244.224 890.368c-59.904 0-117.248-33.792-161.792-94.72C40.96 738.816 16.896 666.112 16.896 596.992c0-67.072 23.04-121.856 67.072-159.232 39.936-33.792 95.232-51.712 159.744-51.712S363.52 403.968 403.456 437.76c44.032 37.376 67.072 92.16 67.072 159.232 0 69.12-24.064 141.312-65.536 198.656-44.032 60.928-101.376 94.72-160.768 94.72z m0-482.304c-98.816 0-204.288 49.664-204.288 188.416 0 125.44 89.088 270.848 204.288 270.848s204.288-145.408 204.288-270.848c0-138.752-105.472-188.416-204.288-188.416z" fill="#4F3838" p-id="31425"></path><path d="M116.224 412.672m-15.872 0a15.872 15.872 0 1 0 31.744 0 15.872 15.872 0 1 0-31.744 0Z" fill="#4F3838" p-id="31426"></path><path d="M114.688 839.68m-15.872 0a15.872 15.872 0 1 0 31.744 0 15.872 15.872 0 1 0-31.744 0Z" fill="#4F3838" p-id="31427"></path><path d="M210.944 889.856m-15.872 0a15.872 15.872 0 1 0 31.744 0 15.872 15.872 0 1 0-31.744 0Z" fill="#4F3838" p-id="31428"></path><path d="M323.584 871.424m-15.872 0a15.872 15.872 0 1 0 31.744 0 15.872 15.872 0 1 0-31.744 0Z" fill="#4F3838" p-id="31429"></path><path d="M415.232 783.36m-15.872 0a15.872 15.872 0 1 0 31.744 0 15.872 15.872 0 1 0-31.744 0Z" fill="#4F3838" p-id="31430"></path><path d="M463.872 677.888m-15.872 0a15.872 15.872 0 1 0 31.744 0 15.872 15.872 0 1 0-31.744 0Z" fill="#4F3838" p-id="31431"></path><path d="M475.648 577.024m-15.872 0a15.872 15.872 0 1 0 31.744 0 15.872 15.872 0 1 0-31.744 0Z" fill="#4F3838" p-id="31432"></path><path d="M423.936 450.048m-15.872 0a15.872 15.872 0 1 0 31.744 0 15.872 15.872 0 1 0-31.744 0Z" fill="#4F3838" p-id="31433"></path><path d="M344.064 396.8m-15.872 0a15.872 15.872 0 1 0 31.744 0 15.872 15.872 0 1 0-31.744 0Z" fill="#4F3838" p-id="31434"></path><path d="M132.096 530.944c-2.048 0-4.096-1.024-5.12-3.584-0.512-1.536-5.632-13.312 1.024-21.504 5.12-6.144 14.336-8.192 27.648-6.144 3.072 0.512 5.12 3.584 4.608 6.656-0.512 3.072-3.584 5.12-6.656 4.608-8.704-1.536-14.848-0.512-16.896 2.048-2.048 3.072-0.512 8.704 0.512 10.24 1.024 3.072 0 6.144-3.072 7.68h-2.048zM338.944 512c-2.048 0-3.584-1.024-4.608-2.56-5.12-7.168-9.728-10.752-12.8-10.752-3.584 0.512-6.656 5.632-7.168 7.168-1.024 3.072-4.608 4.096-7.68 3.072-3.072-1.024-4.096-4.608-3.072-7.68 0.512-1.536 5.632-12.8 16.384-14.336 7.68-1.024 15.872 4.096 23.552 15.36 1.536 2.56 1.024 6.144-1.536 7.68-1.024 2.048-2.048 2.048-3.072 2.048zM118.272 640c-3.072 0-5.632-2.56-5.632-5.12 0-1.536-0.512-14.336 8.704-19.968 6.656-4.096 15.872-3.072 27.648 4.096 2.56 1.536 3.584 5.12 2.048 7.68-1.536 2.56-5.12 3.584-7.68 2.048-7.68-4.096-13.312-5.632-15.872-4.096-3.072 2.048-3.072 8.192-3.072 9.728 0 2.56-2.56 5.12-6.144 5.632 0.512 0 0.512 0 0 0zM231.424 631.808c-3.072 0-5.632-2.56-5.632-5.12 0-1.536-0.512-14.336 8.704-19.968 6.656-4.096 15.872-3.072 27.648 4.096 2.56 1.536 3.584 5.12 2.048 7.68-1.536 2.56-5.12 3.584-7.68 2.048-10.752-6.144-14.848-5.12-15.872-4.096-2.56 1.536-3.584 7.168-3.072 9.728 0 3.072-2.56 5.632-6.144 5.632 0.512 0 0 0 0 0zM357.888 648.192c-3.072 0-5.632-2.56-5.632-5.12 0-1.536-0.512-14.336 8.704-19.968 6.656-4.096 15.872-3.072 27.648 4.096 2.56 1.536 3.584 5.12 2.048 7.68-1.536 2.56-5.12 3.584-7.68 2.048-10.752-6.144-14.848-5.12-15.872-4.096-2.56 1.536-3.584 7.168-3.072 9.728 0 3.072-2.56 5.632-6.144 5.632 0.512 0 0.512 0 0 0zM319.488 750.592c-3.072 0-5.632-2.56-5.632-5.632-0.512-12.288-3.584-15.36-5.12-16.384-3.072-1.536-7.68 1.024-9.728 2.56-2.56 2.048-6.144 1.024-7.68-1.536-2.048-2.56-1.024-6.144 1.024-7.68 1.024-1.024 11.776-8.192 21.504-3.584 7.168 3.584 10.752 12.288 11.264 26.112 0 3.584-2.048 6.144-5.632 6.144zM176.64 756.736c-2.048 0-3.584-1.024-4.608-2.56-1.024-1.024-7.68-11.776-3.072-21.504 3.584-7.168 12.288-10.752 26.112-11.264 3.072 0 5.632 2.56 5.632 5.632 0 3.072-2.56 5.632-5.632 5.632-8.704 0-14.848 2.048-16.384 5.12-1.536 3.072 1.024 8.192 2.048 10.24 1.536 2.56 1.024 6.144-1.536 7.68-0.512 1.024-1.536 1.024-2.56 1.024zM771.584 717.312c-6.144 0-11.776 0-17.92-0.512-82.432-5.632-167.936-49.152-223.232-113.152-39.936-45.568-59.392-97.28-55.808-148.992 3.584-56.832 35.328-113.664 88.064-160.256 48.128-41.984 101.376-65.024 154.112-65.536h2.56c56.832 0 109.568 26.112 153.088 75.776 56.32 64 87.552 154.624 81.92 237.056-3.584 56.32-24.576 102.4-59.904 133.12-32.256 28.16-74.24 42.496-122.88 42.496z m-51.712-465.408c-52.224 0-102.912 25.088-142.336 59.904-48.64 42.496-77.312 93.696-80.384 144.384-3.072 46.08 13.824 90.624 50.688 132.608 50.688 58.88 132.608 99.84 207.872 105.472 50.176 3.584 93.184-8.704 124.416-35.84 30.72-27.136 48.64-67.584 52.224-117.76 5.12-75.264-25.088-161.792-76.288-220.672-44.032-48.64-90.624-68.096-136.192-68.096z" fill="#4F3838" p-id="31435"></path><path d="M484.352 399.872m-15.872 0a15.872 15.872 0 1 0 31.744 0 15.872 15.872 0 1 0-31.744 0Z" fill="#4F3838" p-id="31436"></path><path d="M472.576 496.64m-15.872 0a15.872 15.872 0 1 0 31.744 0 15.872 15.872 0 1 0-31.744 0Z" fill="#4F3838" p-id="31437"></path><path d="M566.272 647.68m-15.872 0a15.872 15.872 0 1 0 31.744 0 15.872 15.872 0 1 0-31.744 0Z" fill="#4F3838" p-id="31438"></path><path d="M667.136 701.952m-15.872 0a15.872 15.872 0 1 0 31.744 0 15.872 15.872 0 1 0-31.744 0Z" fill="#4F3838" p-id="31439"></path><path d="M763.392 722.432m-15.872 0a15.872 15.872 0 1 0 31.744 0 15.872 15.872 0 1 0-31.744 0Z" fill="#4F3838" p-id="31440"></path><path d="M868.864 696.832m-15.872 0a15.872 15.872 0 1 0 31.744 0 15.872 15.872 0 1 0-31.744 0Z" fill="#4F3838" p-id="31441"></path><path d="M919.552 370.688m-15.872 0a15.872 15.872 0 1 0 31.744 0 15.872 15.872 0 1 0-31.744 0Z" fill="#4F3838" p-id="31442"></path><path d="M862.208 286.72m-15.872 0a15.872 15.872 0 1 0 31.744 0 15.872 15.872 0 1 0-31.744 0Z" fill="#4F3838" p-id="31443"></path><path d="M740.352 225.28m-15.872 0a15.872 15.872 0 1 0 31.744 0 15.872 15.872 0 1 0-31.744 0Z" fill="#4F3838" p-id="31444"></path><path d="M644.608 238.08m-15.872 0a15.872 15.872 0 1 0 31.744 0 15.872 15.872 0 1 0-31.744 0Z" fill="#4F3838" p-id="31445"></path><path d="M569.856 479.232c-1.024 0-1.536 0-2.56-0.512-1.536-0.512-12.8-6.144-13.312-17.408-0.512-7.68 5.12-15.36 16.896-22.528 2.56-1.536 6.144-0.512 7.68 2.048 1.536 2.56 0.512 6.144-2.048 7.68-10.752 6.144-11.776 10.752-11.264 12.288 0 3.072 4.608 6.656 7.168 7.68 3.072 1.536 4.096 4.608 2.56 7.68-1.024 2.048-3.072 3.072-5.12 3.072z" fill="#4F3838" p-id="31446"></path><path d="M688.64 347.648c-2.56 0-4.608-1.536-5.12-3.584-0.512-1.536-4.608-13.312 3.072-21.504 5.12-5.632 14.848-7.168 27.648-4.096 3.072 0.512 5.12 3.584 4.096 6.656-0.512 3.072-3.584 5.12-6.656 4.096-8.192-2.048-14.336-1.536-16.384 0.512-2.048 2.56-1.536 7.68-0.512 10.24 1.024 3.072-0.512 6.144-3.584 7.168-1.536 0.512-2.048 0.512-2.56 0.512z" fill="#4F3838" p-id="31447"></path><path d="M631.296 570.88c-1.536 0-3.072-0.512-4.096-1.536-1.024-1.024-9.728-10.24-6.656-20.48 2.56-7.68 10.24-12.8 23.552-15.36 3.072-0.512 6.144 1.536 6.656 4.608 0.512 3.072-1.536 6.144-4.608 6.656-8.704 1.536-13.824 4.608-14.848 7.68-1.024 3.584 2.56 8.192 3.584 9.216 2.048 2.048 2.048 5.632 0 8.192-1.024 0-2.048 1.024-3.584 1.024z" fill="#4F3838" p-id="31448"></path><path d="M710.656 490.496c-1.536 0-3.072-0.512-4.096-1.536-1.024-1.024-9.728-10.24-6.656-20.48 2.56-7.68 10.24-12.8 23.552-15.36 3.072-0.512 6.144 1.536 6.656 4.608 0.512 3.072-1.536 6.144-4.608 6.656-8.704 1.536-13.824 4.608-14.848 7.68-1.024 3.584 2.56 8.192 3.584 9.216 2.048 2.048 2.048 5.632 0 8.192-0.512 0.512-2.048 1.024-3.584 1.024z" fill="#4F3838" p-id="31449"></path><path d="M817.664 418.816c-1.536 0-3.072-0.512-4.096-1.536-1.024-1.024-9.728-10.24-6.656-20.48 2.56-7.68 10.24-12.8 23.552-15.36 3.072-0.512 6.144 1.536 6.656 4.608 0.512 3.072-1.536 6.144-4.608 6.656-8.704 1.536-13.824 4.608-14.848 7.68-1.024 3.584 2.56 8.192 3.584 9.216 2.048 2.048 2.048 5.632 0 8.192-1.024 0.512-2.56 1.024-3.584 1.024z" fill="#4F3838" p-id="31450"></path><path d="M825.344 523.264h-1.536c-3.072-0.512-5.12-3.584-4.096-6.656 0.512-1.536 3.584-13.824 13.824-16.896 7.68-2.048 16.384 2.048 26.112 11.776 2.048 2.048 2.048 5.632 0 8.192-2.048 2.048-5.632 2.048-8.192 0-6.144-6.144-11.264-9.728-14.848-8.704-3.072 1.024-5.12 6.144-5.632 8.192-0.512 2.56-3.072 4.096-5.632 4.096z" fill="#4F3838" p-id="31451"></path><path d="M752.128 620.544h-1.536c-1.536-0.512-13.824-4.096-16.384-14.848-2.048-7.68 2.56-16.384 12.288-25.088 2.56-2.048 6.144-2.048 8.192 0.512 2.048 2.56 2.048 6.144-0.512 8.192-6.656 5.632-9.728 10.752-8.704 13.824 0.512 3.072 6.144 5.632 8.192 6.144 3.072 1.024 4.608 4.096 4.096 7.168-1.024 2.56-3.072 4.096-5.632 4.096z" fill="#4F3838" p-id="31452"></path><path d="M244.224 408.064c-1.536 0-3.584-0.512-5.12-1.024-5.632-2.56-7.68-9.728-5.12-15.36 20.992-43.008-40.96-101.888-41.984-102.4-3.072-3.072-4.608-7.168-3.072-11.264 1.024-4.096 4.608-7.168 8.704-8.192 9.216-2.048 221.696-48.128 356.352 42.496 5.12 3.584 6.656 10.752 3.072 15.872-3.584 5.12-10.752 6.656-15.872 3.072-103.424-69.632-262.656-52.224-318.464-43.008 20.48 24.064 52.736 71.168 31.744 113.664-2.048 4.096-6.144 6.144-10.24 6.144z" fill="#4F3838" p-id="31453"></path></svg>