<?xml version="1.0" standalone="no"?><!DOCTYPE svg PUBLIC "-//W3C//DTD SVG 1.1//EN" "http://www.w3.org/Graphics/SVG/1.1/DTD/svg11.dtd"><svg t="1545204088867" class="icon" style="" viewBox="0 0 1024 1024" version="1.1" xmlns="http://www.w3.org/2000/svg" p-id="38566" xmlns:xlink="http://www.w3.org/1999/xlink" width="64" height="64"><defs><style type="text/css"></style></defs><path d="M824.481 470.932c8.784 6.698 10.474 19.248 3.776 28.03-6.698 8.784-19.248 10.474-28.031 3.776-0.121-0.092-0.642-0.387-1.53-0.775-1.32-0.579-3.043-1.176-5.124-1.753-4.737-1.315-10.882-2.407-18.123-3.179-15.71-1.674-35.455-1.74-56.875-0.055-49.474 3.891-101.395 16.316-144.488 36.155-44.336 20.41-84.268 45.135-119.963 73.2-29.284 23.026-54.668 47.46-76.275 72.292-7.25 8.333-19.883 9.21-28.216 1.959-8.333-7.251-9.21-19.884-1.959-28.217 23.21-26.672 50.401-52.847 81.726-77.477 38.105-29.961 80.706-56.337 127.96-78.091 47.65-21.937 104.137-35.455 158.079-39.698 50.145-3.944 91.514 0.465 109.043 13.833z" fill="#914646" p-id="38567"></path><path d="M776.306 360.226c32.27 39.105 55.611 78.848 64.243 114.006 9.292 37.849 8.593 68.92-2.406 96.677-10.052 25.365-28.115 47.128-56.84 70.933-29.39 24.356-99.876 61.351-169.467 87.457-88.94 33.363-168.013 47.27-224.378 33.396-56.27-13.85-107.04-54.158-150.21-111.252-31.54-41.712-57.403-91.722-64.453-119.66-7.29-34.803 9.245-79.423 44.38-121.5 38.97-46.665 98.194-87.908 173.682-117.673 73.69-29.056 140.201-40.425 198.446-37.038 45.124 2.624 82.906 14.14 108.343 29.983 20.917 13.028 51.916 42.264 78.66 74.671zM229.386 564.24c10.901 21.08 24.5 42.885 39.767 63.078 38.136 50.437 81.975 85.241 127.865 96.536 46.542 11.456 118.768-1.247 200.769-32.007 65.778-24.675 132.557-59.725 157.992-80.803 24.004-19.893 37.997-36.751 45.177-54.87 7.674-19.366 8.185-42.105 0.746-72.405-6.935-28.248-27.465-63.204-56.248-98.083-24.215-29.344-52.216-55.753-68.955-66.178-19.618-12.218-50.917-21.759-89.518-24.004-52.3-3.041-113.034 7.341-181.451 34.318-69.463 27.389-123.133 64.763-157.651 106.1-27.85 33.351-40.164 66.314-36.193 86.487 2.359 9.05 8.807 24.636 17.7 41.831z" fill="#914646" p-id="38568"></path></svg>