<?xml version="1.0" standalone="no"?><!DOCTYPE svg PUBLIC "-//W3C//DTD SVG 1.1//EN" "http://www.w3.org/Graphics/SVG/1.1/DTD/svg11.dtd"><svg t="1545294472941" class="icon" style="" viewBox="0 0 1024 1024" version="1.1" xmlns="http://www.w3.org/2000/svg" p-id="2727" xmlns:xlink="http://www.w3.org/1999/xlink" width="64" height="64"><defs><style type="text/css"></style></defs><path d="M192.022 526.464c-9.554 31.934 73.187 88.686 133.319 114.949 13.22 5.769 219.184 92.392 323.37-14.744 97.305-100.047 18.803-292.555-24.573-366.125-19.413-32.927-69.48-105.954-88.46-97.797-7.313 3.144-7.607 17.299-7.864 22.606-4.088 85.001-107.312 180.85-132.689 204.44-47.326 43.955-107.32 92.392-178.884 117.947-6.281 2.251-20.768 7.194-24.218 18.724z" fill="#9A2700" p-id="2728"></path><path d="M620.196 466.4c23.265 107.911-69.352 197.030-53.077 207.871 14.792 9.839 102.122-56.506 122.369-151.845 12.571-59.258-4.147-113.661-17.692-157.744-4.225-13.76-18.675-43.876-47.661-104.108 0 0-32.366-67.348-73.028-89.894-1.044-0.6-2.289-0.97-3.618-1.012-15.962-1.484-37.938 53.782-42.293 83.014-12.267 82.494 93.11 112.186 114.998 213.718z" fill="#731D00" p-id="2729"></path><path d="M323.375 274.796c-84.931 85.51-147.118 209.807-121.877 232.452s137.604-54.727 210.829-134.164c69.727-75.623 136.178-188.222 112.54-211.32-22.921-22.401-129.436 40.494-201.491 113.032z" fill="#CC3400" p-id="2730"></path><path d="M319.925 318.327c-21.81 21.781-39.383 55.248-31.451 63.12s41.104-9.888 62.727-31.394c21.8-21.722 39.65-55.16 31.758-63.081s-41.3 9.653-63.033 31.354z" fill="#FFFFFF" p-id="2731"></path><path d="M257.021 304.223c0 0 0 0-0.001 0-10.857 0-19.658-8.8-19.658-19.657 0-5.302 2.099-10.113 5.51-13.648l0.653-0.672c3.567-3.622 8.526-5.867 14.008-5.867 10.857 0 19.658 8.8 19.658 19.657 0 5.267-2.072 10.051-5.445 13.58l-0.574 0.593c-3.571 3.711-8.581 6.015-14.127 6.015-0.008 0-0.019 0-0.027 0z" fill="#000000" p-id="2732"></path><path d="M739.135 698.419c35.589 63.072 87.743 69.019 88.46 99.272 0.983 40.868-93.373 65.087-88.46 80.597 3.46 10.93 55.119 13.651 93.373-12.777 25.231-17.426 53.488-52.967 45.214-83.544-5.72-21.131-24.415-23.343-60.94-50.126-63.799-46.794-87.32-99.134-95.339-94.357-5.877 3.509 2.545 34.106 17.693 60.94z" fill="#E4EEFB" p-id="2733"></path><path d="M896.701 776.833c-6.605-24.385-25.094-35.157-46.5-47.631-6.782-3.932-14.468-8.423-22.606-13.761-33.822-22.242-64.123-52.261-90.052-89.227-3.605-5.085-9.467-8.364-16.094-8.364-10.862 0-19.667 8.806-19.667 19.667 0 4.234 1.339 8.154 3.614 11.364 28.748 40.974 62.607 74.452 100.586 99.427 9.033 5.898 17.211 10.703 24.425 14.911 19.225 11.204 26.154 15.844 28.346 23.933 5.131 18.94-15.421 47.050-37.408 62.236-15.907 10.837-35.19 17.893-56.002 19.464-1.103 0.794-9.447-1.507-12.16-4.268s0-15.176 2.515-25.997c3.932-17.102 8.934-38.392 4.787-62.806-4.001-23.589-16.012-45.891-35.689-66.335-18.439-19.157-44.229-37.211-76.762-53.862 2.653-2.28 5.219-4.629 7.657-7.058 37.92-37.723 58.158-101.669 55.513-175.445-2.054-57.382-17.692-117.73-45.33-174.511-30.882-63.612-75.219-120.689-131.756-169.725l-0.393-0.402c-19.362-18.626-56.123-15.471-109.315 9.397-44.849 20.965-96.323 55.523-141.251 94.809-4.126 3.622-6.716 8.907-6.716 14.798 0 10.858 8.802 19.66 19.66 19.66 4.968 0 9.506-1.842 12.967-4.883 40.797-35.689 87.562-67.407 128.273-87.006 18.822-9.063 35.846-15.264 49.222-17.948 13.603-2.722 18.793-0.983 19.835-0.472 2.153 4.070 3.763 27.904-24.651 82.641-24.396 47.090-61.627 97.709-99.517 135.452-39.61 39.463-89.443 75.878-136.621 99.9-21.486 10.93-41.094 18.508-56.693 21.929-14.801 3.244-21.849 1.73-23.481 0.816-0.56-1.208-3.932-10.428 5.818-39.876 7.038-21.29 17.387-42.638 22.941-54.059 13.28-27.393 30.47-50.471 44.004-67.505 2.75-3.354 4.418-7.692 4.418-12.416 0-10.856-8.8-19.658-19.658-19.658-6.315 0-11.933 2.977-15.531 7.605-14.776 18.66-33.658 43.98-48.608 74.832-25.555 52.77-48.161 110.348-22.057 138.066 49.046 57.007 106.239 101.69 169.989 132.876 56.595 27.688 116.756 43.503 173.971 45.734q6.989 0.275 13.859 0.275c43.109 0 82.396-8.030 114.388-22.971 68.547 30.696 106.486 64.978 112.776 101.866 2.821 16.62-0.806 32.228-4.315 47.316-4.806 20.64-10.262 44.092 7.696 62.423 10.811 11.068 25.801 15.461 41.93 15.461 26.754 0 56.763-12.089 76.665-25.821 25.021-17.632 44.107-42.181 54.626-70.864-0.667 6.711 3.55-14.786-1.651-33.991zM482.229 663.802c-51.799-2.024-106.516-16.463-158.244-41.762-44.987-22.007-86.494-51.375-123.843-87.574 30.951-7.373 64.311-24.573 84.164-35.905 93.723-54.658 169.733-130.299 223.257-220.811-61.779 89.371-27.682 44.718-1.548-0.701 11.696-20.336 29.408-54.344 37.035-85.639 36.219 37.526 65.568 79.181 87.476 124.315 25.221 51.886 39.542 106.77 41.399 158.726 2.251 62.905-13.761 116.148-43.955 146.165s-83.142 45.625-145.742 43.178z" fill="#000000" p-id="2734"></path></svg>