<?xml version="1.0" standalone="no"?><!DOCTYPE svg PUBLIC "-//W3C//DTD SVG 1.1//EN" "http://www.w3.org/Graphics/SVG/1.1/DTD/svg11.dtd"><svg t="1545200169863" class="icon" style="" viewBox="0 0 1024 1024" version="1.1" xmlns="http://www.w3.org/2000/svg" p-id="2212" xmlns:xlink="http://www.w3.org/1999/xlink" width="64" height="64"><defs><style type="text/css"></style></defs><path d="M669.7 250.5c-96.7 0-175.1 78.4-175.1 175.1v148.8c0 96.7 78.4 175.1 175.1 175.1s175.1-78.4 175.1-175.1V425.6c0-96.7-78.4-175.1-175.1-175.1z" fill="" p-id="2213"></path><path d="M638.9 246.3c-116.1 0-210.1 94.1-210.1 210.1v148.8c0 116.1 94.1 210.1 210.1 210.1S849 721.3 849 605.2V456.4c0-116-94-210.1-210.1-210.1zM814 605.2c0 96.7-78.4 175.1-175.1 175.1S463.8 702 463.8 605.2V456.4c0-96.7 78.4-175.1 175.1-175.1S814 359.7 814 456.4v148.8z" fill="" p-id="2214"></path><path d="M760.3 330.3c-31.5-30.3-74.3-49-121.4-49-96.7 0-175.1 78.4-175.1 175.1v148.8c0 73.2 45 135.9 108.8 162.1 162.9-27.2 272.9-101.1 187.7-437z" fill="#F28640" p-id="2215"></path><path d="M844.8 574.5V425.6c0-49.6-20.6-94.3-53.7-126.1 85.2 335.9-24.8 409.8-187.7 437 20.5 8.4 42.8 13 66.3 13 96.7 0.1 175.1-78.3 175.1-175z" fill="#D9671D" p-id="2216"></path><path d="M400.5 263.3c-96.7 0-175.1 78.4-175.1 175.1v148.8c0 96.7 78.4 175.1 175.1 175.1s175.1-78.3 175.1-175V438.5c0-96.8-78.4-175.2-175.1-175.2z" fill="" p-id="2217"></path><path d="M369.7 246.3c-116.1 0-210.1 94.1-210.1 210.1v148.8c0 116.1 94.1 210.1 210.1 210.1s210.1-94.1 210.1-210.1V456.4c0-116-94-210.1-210.1-210.1z m175.1 358.9c0 96.7-78.4 175.1-175.1 175.1S194.6 702 194.6 605.2V456.4c0-96.7 78.4-175.1 175.1-175.1s175.1 78.4 175.1 175.1v148.8z" fill="" p-id="2218"></path><path d="M483.4 327.7c-31.5-30.3-74.3-49-121.4-49-96.7 0-175.1 78.4-175.1 175.1v148.8c0 73.2 45 135.9 108.8 162.1 162.9-27.2 272.9-101.1 187.7-437z" fill="#F28640" p-id="2219"></path><path d="M575.6 587.3V438.5c0-49.6-20.6-94.3-53.7-126.1 85.2 335.9-24.8 409.8-187.7 437 20.5 8.4 42.8 13 66.3 13 96.7 0 175.1-78.4 175.1-175.1z" fill="#D9671D" p-id="2220"></path><path d="M557.6 162c-141.1 75.9-123.9 216.1-123.9 216.1s158.6 80.6 107.5-5.9c-34.1-57.7-25.9-124.6 24.5-200.6 1.4-8.2-1.3-11.4-8.1-9.6zM797.9 345.4c-96.7 0-175.1 78.4-175.1 175.1v148.8c0 96.7 78.4 175.1 175.1 175.1S973 766.1 973 669.3V520.5c0-96.7-78.4-175.1-175.1-175.1z" fill="" p-id="2221"></path><path d="M797.9 310.4c-116.1 0-210.1 94.1-210.1 210.1v148.8c0 116.1 94.1 210.1 210.1 210.1s210.1-94 210.1-210.1V520.5c0-116.1-94.1-210.1-210.1-210.1zM973 669.3c0 96.7-78.4 175.1-175.1 175.1S622.8 766 622.8 669.3V520.5c0-96.7 78.4-175.1 175.1-175.1S973 423.8 973 520.5v148.8z" fill="" p-id="2222"></path><path d="M919.3 394.4c-31.5-30.3-74.3-49-121.4-49-96.7 0-175.1 78.4-175.1 175.1v148.8c0 73.2 45 135.9 108.8 162.1 162.9-27.2 272.9-101.1 187.7-437z" fill="#F28640" p-id="2223"></path><path d="M973 669.3V520.5c0-49.6-20.6-94.3-53.7-126.1 85.2 335.9-24.8 409.8-187.7 437 20.5 8.4 42.8 13 66.3 13 96.7 0.1 175.1-78.3 175.1-175.1z" fill="#D9671D" p-id="2224"></path><path d="M226.1 345.4C129.4 345.4 51 423.8 51 520.5v148.8c0 96.7 78.4 175.1 175.1 175.1S401.2 766 401.2 669.3V520.5c0-96.7-78.4-175.1-175.1-175.1z" fill="" p-id="2225"></path><path d="M226.1 310.4c-116 0-210.1 94-210.1 210.1v148.8c0 116.1 94.1 210.1 210.1 210.1s210.1-94.1 210.1-210.1V520.5c0.1-116.1-94-210.1-210.1-210.1z m175.1 358.9c0 96.7-78.4 175.1-175.1 175.1S51 766.1 51 669.3V520.5c0-96.7 78.4-175.1 175.1-175.1s175.1 78.4 175.1 175.1v148.8z" fill="" p-id="2226"></path><path d="M347.5 394.4c-31.5-30.3-74.3-49-121.4-49-96.7 0-175.1 78.4-175.1 175.1v148.8c0 73.2 45 135.9 108.8 162.1 163-27.2 273-101.1 187.7-437z" fill="#F28640" p-id="2227"></path><path d="M401.2 669.3V520.5c0-49.6-20.6-94.3-53.7-126.1 85.2 335.9-24.8 409.8-187.7 437 20.5 8.4 42.8 13 66.3 13 96.7 0.1 175.1-78.3 175.1-175.1z" fill="#D9671D" p-id="2228"></path><path d="M548.8 128.1l-4.1 1.1-3.7 2c-46.4 24.9-81 57.9-104.9 96.8-31.5 51.5-40.6 104.5-37.7 148.6 0.2 2.5 0.4 4.5 0.5 5.8l2.3 18.5 16.6 8.4c2.4 1.2 6.5 3.2 12 5.8 9 4.2 18.6 8.5 28.3 12.5 7.9 3.2 15.6 6.1 23 8.7 29.5 10.2 51.9 14.2 71.2 8.4 19.9-5.9 33.4-22.5 34-44.2 0.4-14.5-4.9-29.2-15-46.2-26.5-44.9-20.1-97.7 23.5-163.5l4-6 1.3-7.1c5.7-31.1-17.2-58.4-51.3-49.6z m16.8 43.5c-50.4 76.1-58.6 142.9-24.5 200.6 51.1 86.5-107.5 5.9-107.5 5.9s-17.2-140.2 124-216.1c6.8-1.8 9.5 1.4 8 9.6z" fill="" p-id="2229"></path><path d="M557.6 162c-141.1 75.9-123.9 216.1-123.9 216.1s158.6 80.6 107.5-5.9c-34.1-57.7-25.9-124.6 24.5-200.6 1.4-8.2-1.3-11.4-8.1-9.6z" fill="#91DC5A" p-id="2230"></path><path d="M654.3 345.4c-96.7 0-175.1 78.4-175.1 175.1v148.8c0 96.7 78.4 175.1 175.1 175.1S829.4 766 829.4 669.3V520.5c0-96.7-78.4-175.1-175.1-175.1z" fill="" p-id="2231"></path><path d="M654.3 310.4c-116.1 0-210.1 94.1-210.1 210.1v148.8c0 116.1 94.1 210.1 210.1 210.1s210.1-94.1 210.1-210.1V520.5c0-116.1-94.1-210.1-210.1-210.1z m175.1 358.9c0 96.7-78.4 175.1-175.1 175.1S479.2 766 479.2 669.3V520.5c0-96.7 78.4-175.1 175.1-175.1s175.1 78.4 175.1 175.1v148.8z" fill="" p-id="2232"></path><path d="M775.7 394.4c-31.5-30.3-74.3-49-121.4-49-96.7 0-175.1 78.4-175.1 175.1v148.8c0 73.2 45 135.9 108.8 162.1 162.9-27.2 272.9-101.1 187.7-437z" fill="#F28640" p-id="2233"></path><path d="M829.4 669.3V520.5c0-49.6-20.6-94.3-53.7-126.1 85.2 335.9-24.8 409.8-187.7 437 20.5 8.4 42.8 13 66.3 13 96.7 0.1 175.1-78.3 175.1-175.1z" fill="#D9671D" p-id="2234"></path><path d="M380 345.4c-96.7 0-175.1 78.4-175.1 175.1v148.8c0 96.7 78.4 175.1 175.1 175.1S555.1 766 555.1 669.3V520.5c0-96.7-78.4-175.1-175.1-175.1z" fill="" p-id="2235"></path><path d="M380 310.4c-116.1 0-210.1 94.1-210.1 210.1v148.8c0 116.1 94.1 210.1 210.1 210.1s210.1-94.1 210.1-210.1V520.5c0-116.1-94.1-210.1-210.1-210.1z m175.1 358.9c0 96.7-78.4 175.1-175.1 175.1S204.9 766 204.9 669.3V520.5c0-96.7 78.4-175.1 175.1-175.1s175.1 78.4 175.1 175.1v148.8z" fill="" p-id="2236"></path><path d="M501.4 394.4c-31.5-30.3-74.3-49-121.4-49-96.7 0-175.1 78.4-175.1 175.1v148.8c0 73.2 45 135.9 108.8 162.1 162.9-27.2 272.9-101.1 187.7-437z" fill="#F28640" p-id="2237"></path><path d="M555.1 669.3V520.5c0-49.6-20.6-94.3-53.7-126.1 85.2 335.9-24.8 409.8-187.7 437 20.5 8.4 42.8 13 66.3 13 96.7 0.1 175.1-78.3 175.1-175.1z" fill="#D9671D" p-id="2238"></path><path d="M503 345.4c-96.7 0-175.1 78.4-175.1 175.1v148.8c0 96.7 78.4 175.1 175.1 175.1S678.1 766 678.1 669.3V520.5c0-96.7-78.4-175.1-175.1-175.1z" fill="" p-id="2239"></path><path d="M503 310.4c-116.1 0-210.1 94.1-210.1 210.1v148.8c0 116.1 94.1 210.1 210.1 210.1s210.1-94.1 210.1-210.1V520.5c0.1-116.1-94-210.1-210.1-210.1z m175.1 358.9c0 96.7-78.4 175.1-175.1 175.1S327.9 766 327.9 669.3V520.5c0-96.7 78.4-175.1 175.1-175.1s175.1 78.4 175.1 175.1v148.8z" fill="" p-id="2240"></path><path d="M624.4 394.4c-31.5-30.3-74.3-49-121.4-49-96.7 0-175.1 78.4-175.1 175.1v148.8c0 73.2 45 135.9 108.8 162.1 163-27.2 273-101.1 187.7-437z" fill="#F28640" p-id="2241"></path><path d="M678.1 669.3V520.5c0-49.6-20.6-94.3-53.7-126.1 85.2 335.9-24.8 409.8-187.7 437 20.5 8.4 42.8 13 66.3 13 96.7 0.1 175.1-78.3 175.1-175.1z" fill="#D9671D" p-id="2242"></path><path d="M451.1 380.6c-60.6 7.7-95.6 57.2-105.5 143-1.1 9.6 5.8 18.3 15.4 19.4 9.6 1.1 18.3-5.8 19.4-15.4 8.2-71.5 33.4-107 75.2-112.3 9.6-1.2 16.4-10 15.2-19.6s-10.1-16.4-19.7-15.1z" fill="#FFFFFF" p-id="2243"></path></svg>