<?xml version="1.0" standalone="no"?><!DOCTYPE svg PUBLIC "-//W3C//DTD SVG 1.1//EN" "http://www.w3.org/Graphics/SVG/1.1/DTD/svg11.dtd"><svg t="1545202333236" class="icon" style="" viewBox="0 0 1024 1024" version="1.1" xmlns="http://www.w3.org/2000/svg" p-id="1641" xmlns:xlink="http://www.w3.org/1999/xlink" width="64" height="64"><defs><style type="text/css"></style></defs><path d="M393.957742 611.460272c102.606721 34.880666 339.818215 137.856523 377.299912-98.793603s-196.351627-196.029612-304.305962-213.127899-332.969414-120.369845-353.641717 90.694851c-17.041499 174.077303 178.05669 186.247215 280.647767 221.226651z" fill="#E26F4D" p-id="1642"></path><path d="M602.507481 667.188749c-74.310964-0.025105-154.233978-27.263165-205.043494-44.625281l-6.528559-2.24898c-17.870413-6.070284-38.7772-11.50777-60.952338-17.247391-52.324174-13.552154-111.634555-29.020786-156.516417-59.517318-25.127781-17.141896-43.059243-36.890128-54.791891-60.617644-13.202525-26.592731-18.141907-58.052745-14.745754-93.558606 5.271215-53.736992 24.161188-92.458677 56.170248-114.927992 62.676459-44.138662 162.293423-19.147452 242.323789 1.020355 24.249284 6.068133 47.230216 11.834131 65.996295 14.806386 17.185777 2.72196 37.881221 4.379852 59.876303 6.14234 78.768448 6.400906 176.735164 14.323821 225.869933 76.77912 26.975567 34.241478 35.873993 81.616767 26.472282 140.976836-9.589433 60.545295-35.265925 103.76066-76.134731 128.471603-29.859767 17.84865-65.235259 24.49655-101.995666 24.546572z m-350.964535-398.610506c-30.579073 0.016583-58.613465 5.701023-80.585531 21.052841-27.69268 19.508087-43.585544 52.730924-48.272125 101.498187-3.129295 31.903252 1.239863 59.931817 12.821903 83.331739 10.278412 20.763531 26.25106 38.176588 48.634785 53.466417 42.22093 28.758878 99.883529 43.764034 150.757456 56.883999 22.471445 5.78655 43.757664 11.38538 62.205046 17.648292l6.52856 2.248981c49.473683 16.846801 127.946451 43.652671 198.919826 43.655387 33.719124-0.025481 65.647523-6.004389 92.168783-21.95189 36.042939-21.729164 58.681219-60.464655 67.363332-115.281358 8.650826-54.619165 1.231175-95.989188-22.606179-126.392487-44.084672-55.985638-137.544217-63.599673-212.626931-69.619309-22.291389-1.809418-43.480677-3.545528-61.259067-6.361348-19.556229-3.097402-42.932237-8.925975-67.560952-15.155451-46.35694-11.594572-99.419426-24.959923-146.488906-25.024z" fill="#333333" p-id="1643"></path><path d="M392.192881 548.32286c100.971511 29.863088 364.293545 116.927639 386.104436-116.028461 21.810891-232.956101-253.389365-147.859222-361.3437-164.95751s-281.686898-81.063566-291.536067 87.875606c-8.789717 149.465149 165.80382 163.247277 266.775331 193.110365z" fill="#C54540" p-id="1644"></path><path d="M532.079835 441.79446c-198.0812-25.298189-234.944991-48.247501-245.423698-63.271705-16.583055-23.787019-17.022325-61.925281-1.337441-116.847812l18.011204 5.181364c-13.846622 48.430167-14.263147 82.383024-1.306322 100.938365 3.392497 4.789672 16.296252 14.730654 65.288663 26.945137 39.256319 9.761218 95.445051 19.369364 167.100305 28.491018l-2.332711 18.563633zM677.703631 286.260155c4.929544-2.357879 11.01119-0.483422 13.727949 4.097977s0.806107 10.252326-4.123437 12.610205c-57.370866 27.260845-102.491035 38.541378-135.874901 33.253894-33.680172-5.334415-60.383347-22.11835-79.678253-49.878513-3.044352-4.430792-1.726314-10.195579 2.953855-12.896695 4.680168-2.701116 10.954443-1.403629 13.998795 3.027164 16.151785 23.313726 37.896885 36.882463 65.650928 41.278272 28.050349 4.442739 69.380187-5.919425 123.345064-31.492304z" fill="#EEBDA8" p-id="1645"></path><path d="M753.109365 334.348255c5.58872-0.127299 10.307235 3.961175 10.595876 9.170464 0.288641 5.209288-4.033566 9.485797-9.622286 9.613096-65.931257 1.403357-120.768804 14.587189-164.642697 39.733392-45.413091 25.914883-80.143192 63.646436-104.434769 113.459679-2.263705 4.70379-8.248419 6.692053-13.362929 4.464544-5.114509-2.22751-7.362883-7.848436-5.099178-12.552226 25.811143-53.01495 63.214748-93.56295 111.981991-121.47775 47.082345-26.865457 105.299503-40.931463 174.583992-42.411199z" fill="#FFD6C5" p-id="1646"></path><path d="M667.256273 368.842555c-5.145796-2.029972-7.70612-7.59906-5.639953-12.334137s7.9834-6.936521 13.129196-4.906549c0.758864 0.322685 2.094697 0.838 3.794319 1.613426 2.739149 1.243811 5.826442 2.846502 9.09563 4.579248 9.313719 5.120023 18.356592 11.310859 26.702255 18.707473 9.670762 8.618954 17.672269 18.188482 23.36498 28.911031 9.29747 17.368277 9.993468 40.461471 2.992556 69.321603-1.208535 5.073406-6.642658 8.060092-12.11114 6.788984-5.468481-1.271108-8.912817-6.372731-7.605513-11.430493 6.177637-24.940666 5.53164-43.874833-1.345378-56.708641-4.524047-8.51252-11.065493-16.433346-19.063012-23.47108-7.103691-6.288686-14.873304-11.569133-22.882476-15.976302-2.790987-1.555761-5.415723-2.882697-7.676672-3.949521-0.758864-0.322685-1.517728-0.64537-2.079053-0.936769-0.395075-0.062574-0.57697-0.19263-0.675739-0.208273z" fill="#FFD6C5" p-id="1647"></path><path d="M177.482594 465.00904c-5.162358-0.007665-9.355742-4.21546-9.348077-9.377818 0.018693-28.244816 11.903451-50.864112 35.248465-67.213434 22.887364-16.016821 56.145769-20.165133 99.036903-12.258133 5.120336 0.912228 8.49719 5.800669 7.584962 10.921005-0.912228 5.120336-5.800669 8.49719-10.921005 7.584962-37.687672-6.88036-66.318667-3.821575-84.889651 9.234019-18.326516 12.790574-27.198523 29.812252-27.250654 51.875735-0.09079 5.047946-4.298585 9.241329-9.460943 9.233664z" fill="#EEBDA8" p-id="1648"></path><path d="M608.300757 608.877104c-16.604818 0.002464-34.337197-1.186124-53.311549-3.482641-37.241678-4.582298-75.006648-12.892351-126.108482-27.769603-5.520319-1.583058-11.024995-3.264885-18.671298-5.488406l-8.503936-2.561849c-3.279923-1.025721-5.603445-1.697471-7.828198-2.353576-11.503196-3.441871-23.282147-6.421186-46.673798-12.15099-34.510507-8.402076-42.697585-10.407508-59.175419-15.04227-56.320938-15.805123-93.847581-33.290862-121.738133-56.641389-38.434589-32.209041-56.079269-75.502289-52.643558-128.517531 3.676189-55.812056 29.843769-93.178589 77.95123-111.174484 34.011128-12.736292 78.279804-15.444488 139.247473-8.521814 21.984347 2.469513 40.35535 5.379194 73.411622 10.817287 11.935385 1.991626 16.577521 2.726868 22.701189 3.696762 11.555954 1.830283 26.325267 2.549569 46.429017 2.190061 8.120515-0.131288 16.979342-0.449378 28.796326-0.906421 6.623339-0.267171 30.403006-1.461921 31.2088-1.435542l0.272998 5.308057-0.272998-5.308057 5.406826-0.257355c23.452074-1.044143 39.214903-1.483704 54.701978-1.460709 0.098769 0.015643 0.296307 0.04693 0.410718-0.036195 69.444912 0.06437 115.672716 9.917298 150.114217 32.179217 46.654792 30.169858 66.85305 82.271014 60.091113 155.008736-6.887085 73.527873-37.235767 124.507942-90.036889 151.682592-29.276052 14.802459-64.069666 22.251246-105.779249 22.22612zM407.084393 551.594688c0.296307 0.04693 0.493844 0.078217 0.774508 0.223916l7.729428 2.337933c7.547535 2.207877 13.150979 3.905348 18.57253 5.472763 50.145432 14.52328 87.021483 22.692542 123.161061 27.20153 62.35534 7.749939 110.81034 2.26241 147.959368-16.86165 23.036134-11.842151 41.343936-28.98929 54.564528-51.09327 13.657689-22.94597 22.27019-51.753344 25.416048-85.678904 6.223314-66.140762-10.645939-111.133631-51.516312-137.552425-31.136118-20.118453-74.349018-29.190128-139.863728-29.138248-16.407281 0.033751-33.189085 0.514417-59.599316 1.697512l0.015644-0.098768c-1.232156 0.108585-2.464313 0.21717-3.894007 0.294468l-9.186421 0.468698c-6.935289 0.319009-14.790784 0.694765-18.15966 0.869913-11.931396 0.540169-20.987761 0.826972-29.305813 0.926973-21.320263 0.369323-37.092908-0.407628-49.735319-2.409989-6.123668-0.969894-10.864572-1.720779-22.799958-3.712405-32.661197-5.375518-50.850306-8.155144-72.423934-10.660852-57.890191-6.536496-99.366961-4.196078-130.575448 7.465412-41.108679 15.358272-62.62554 46.37415-65.736727 94.783451-3.15229 47.390327 11.9428 84.407461 45.991377 112.985678 25.739108 21.592321 61.119215 37.92811 114.721556 52.99891 16.19717 4.489063 24.269835 6.57762 58.598449 14.84964 23.687958 5.776734 35.747572 8.901748 47.547074 12.39055 2.042859 0.52605 4.36638 1.197799 7.745072 2.239164-0.098769-0.015643-0.098769-0.015643 0 0z" fill="#333333" p-id="1649"></path><path d="M608.330498 590.151209c-15.897793 0.0132-32.824378-1.14901-50.992935-3.419148-36.238346-4.524632-73.031272-12.579482-123.16106-27.20153-5.421551-1.567415-10.94187-3.150473-18.57253-5.472763l-7.448766-2.192233c-0.395075-0.062574-0.675738-0.208273-1.05517-0.369616-3.279923-1.025721-5.603445-1.697471-7.926967-2.36922-11.799503-3.488802-23.760348-6.598172-47.547074-12.390549-34.214201-8.355146-42.401279-10.360577-58.598449-14.849641-53.617985-14.972031-88.982449-31.406589-114.721556-52.99891-34.048577-28.578216-49.060541-65.480939-45.991376-112.985677 3.225599-48.492427 24.726817-79.409537 65.736726-94.783452 31.208487-11.661489 72.685257-14.001907 130.575449-7.465411 21.589271 2.40694 39.762737 5.285334 72.423934 10.660852 11.935385 1.991626 16.67629 2.742511 22.799957 3.712405 12.642411 2.002361 28.415056 2.779312 49.735319 2.409989 8.318053-0.100001 17.275649-0.402448 29.305814-0.926973 6.722108-0.251527 31.011263-1.466829 31.2088-1.435542l0.206435 3.171338-0.107666-3.155695 5.406826-0.257354c23.353305-1.059786 38.902953-1.431866 54.19249-1.440158 65.597836 0.062532 108.727611 9.019794 139.863728 29.138248 40.870372 26.418794 57.739625 71.411663 51.516311 137.552425-3.197696 33.613609-11.565728 62.155965-24.880181 84.852558-13.283166 22.499056-31.736668 39.926857-54.985982 51.83649-26.358998 13.644531-58.396901 20.314821-96.982077 20.379567zM412.364527 533.599127c0.478201 0.176986 6.674259 1.968317 8.503936 2.56185 7.547535 2.207877 13.052211 3.889704 18.374992 5.441475 49.173387 14.268076 85.176162 22.197779 120.328051 26.550333 57.697562 7.113466 103.838856 2.170701 137.124245-14.93289 41.324617-21.196368 64.134976-61.018316 69.80985-121.778631 2.847713-30.125413 0.374795-55.423727-7.086251-75.437292-7.206762-19.062072-18.980199-33.582615-35.969671-44.575697-27.91386-18.0894-67.945606-26.150997-129.696365-26.211691-16.095331-0.018087-32.580829 0.509508-58.793522 1.723891l0.015643-0.098769c-1.232156 0.108585-2.464313 0.21717-3.894006 0.294469l-9.186421 0.468697c-7.034058 0.303366-14.790784 0.694765-18.258429 0.85427-12.128934 0.508882-21.39848 0.863167-29.815301 0.947525-22.438007 0.394783-39.213984-0.439834-52.942852-2.614273-6.123668-0.969894-10.864572-1.720779-22.898726-3.728048-32.364891-5.328588-50.356462-8.076927-71.535015-10.520061-54.895839-6.26473-93.596346-4.193321-121.903423 6.409009-33.896716 12.653167-50.908557 37.599054-53.636636 78.475545-2.738815 41.583517 9.775399 72.522076 39.354837 97.355055 23.587664 19.834114 56.821236 35.019953 107.720624 49.257662 15.900863 4.442133 23.890404 6.416278 57.907067 14.740137 23.407295 5.631035 35.550034 8.870461 47.36518 12.260493l4.927706 1.489198c1.382764 0.219008 2.749884 0.536785 4.184487 1.067743z" fill="#EEBDA8" p-id="1650"></path><path d="M297.274435 464.593497a10.6 7.5 9 1 0-2.346517 14.815325 10.6 7.5 9 1 0 2.346517-14.815325Z" fill="#FFFFFF" p-id="1651"></path><path d="M592.025177 802.356868c113.834199-10.795143 379.295193-13.053598 315.88523-277.000291s-282.093657-111.254251-392.734878-79.528391c-110.641221 31.72586-372.797783 27.731257-293.529273 255.921601 65.466711 188.039251 256.544722 111.402224 370.378921 100.607081z" fill="#F3B297" p-id="1652"></path><path d="M343.388155 772.951402c147.535567-18.066166 228.549744-19.24226 242.973968-3.40459 14.424223 15.83767-32.383671 35.085294-140.547373 57.674311l332.797314-57.665225 100.92327-67.430361 41.012194-104.762827-12.403681-43.256776-628.315588 157.904187 63.559896 60.941281z" fill="#E26F4D" p-id="1653"></path><path d="M402.14572 842.903445c-17.595946-0.051911-35.014462-1.299029-51.871737-4.579618C318.510213 832.03551 292.317599 819.780432 270.115734 800.763408c-24.82761-21.280972-44.059277-51.344621-57.254675-89.380939-10.771176-31.033236-15.89431-59.420795-15.107891-84.613484 0.69168-23.709103 6.50908-45.142905 17.397766-63.765647 40.907678-70.298946 144.651658-89.435999 227.946245-104.789882 25.87415-4.818544 50.37497-9.347323 69.600203-14.86007 20.474874-5.871076 44.970143-16.223939 71.04443-27.237639 74.515632-31.457918 167.210463-70.625356 239.893578-35.914914 20.476009 9.73309 38.402467 25.08666 53.270486 45.374391 15.885795 21.660367 28.865792 49.875606 38.595791 83.808144 20.534983 71.613996 14.178292 132.525756-18.906773 181.128004-47.899406 70.223193-149.99978 113.231957-303.555154 127.718748l-0.901718-9.312192 0.901718 9.312192c-19.860587 1.845824-42.219068 5.864326-65.909879 9.952778-39.676707 7.111885-82.951775 14.735434-124.984141 14.720547zM759.039551 385.303529c-15.700292 0.028699-32.882088 2.146691-51.61395 6.477666-39.441375 9.020973-80.344574 26.367394-116.538284 41.635181-26.527354 11.247644-51.59938 21.76589-73.131642 27.940167-20.090369 5.760821-44.975694 10.399854-71.358039 15.260091-79.531538 14.690966-178.619768 33.013154-215.125322 95.808015-9.284186 15.874-14.280224 34.367502-14.837555 54.917183-0.623811 22.857403 4.085172 49.075059 14.126257 77.924957 12.065978 34.823156 29.481907 62.182531 51.807462 81.268117 19.603683 16.849202 43.006557 27.719596 71.541648 33.269243 53.553125 10.443315 115.355061-0.412129 169.823151-9.996866 24.075316-4.198707 46.845865-8.231338 67.4069-10.173982 59.334383-5.674597 108.953778-15.117352 151.893224-28.990489 64.827956-20.981806 111.322935-51.478967 137.961049-90.638397 29.806808-43.709086 35.371783-99.400387 16.46306-165.342939-9.123596-31.817762-21.112686-58.02848-35.650633-77.890708-13.011282-17.803273-28.586938-31.126146-46.204645-39.598242-16.628187-7.923597-35.326682-11.820555-56.562681-11.868997z" fill="#333333" p-id="1654"></path><path d="M560.657869 737.880152c109.846477-15.269299 400.87104-45.559949 312.528258-297.051744s-309.962237-37.20405-420.603459-5.47819c-110.641221 31.72586-305.639463 44.988429-235.854012 224.507204 61.702779 158.949857 234.082736 93.292028 343.929213 78.02273z" fill="#F65C56" p-id="1655"></path><path d="M228.836895 623.720038c63.785895-47.834815 130.037893-59.134054 198.893118-34.145096 103.234774 37.497218 176.087876 92.028637 250.575692 74.622737s61.518606-135.194013 136.112514-156.583471c19.32136-5.540311 43.21275-0.947763 71.578043 13.805207-4.089274 61.926068-20.164169 101.281471-48.513064 118.148901-42.406716 25.163673-116.016466 70.301846-205.51384 77.447475s-192.169901 69.563994-293.531035 37.875345c-67.560423-21.199038-104.126275-64.91355-109.601428-131.171098z" fill="#FF8E89" p-id="1656"></path><path d="M399.540002 773.156812c-21.112309 0.02012-42.392082-2.720548-63.854142-9.362084-71.215299-22.335648-110.339027-69.165808-116.216283-139.365223l-0.444489-5.178072 4.214035-3.080895c66.201791-49.567861 136.024586-61.47489 207.751548-35.54088 31.013052 11.28896 58.716816 23.734902 85.513751 35.920723 61.770146 27.852811 110.526676 49.866462 159.787049 38.446056 32.959229-7.682398 47.07754-38.986603 61.908345-72.159593 16.009802-35.59166 32.485411-72.461218 73.723538-84.28606 21.628388-6.201841 48.102443-1.30956 78.515337 14.416719l5.483355 2.796931-0.419953 6.154156c-2.112506 31.814734-7.38929 58.399044-15.858612 78.928794-8.825569 21.464141-21.365303 37.231355-37.180266 46.65563l-3.377157 2.008684c-43.71079 26.05776-116.868861 69.505967-206.242545 76.720158-30.807617 2.488116-63.325826 11.708532-97.670433 21.45266-44.341728 12.610756-89.548591 25.469585-135.633078 25.472296z m-160.918863-145.064295c6.705115 59.663066 40.326503 98.188152 102.734336 117.743774 62.723776 19.569056 126.798932 1.403861 188.663187-16.127369 35.305868-10.019765 68.689213-19.488255 101.337356-22.088013 85.019749-6.79796 155.843922-48.952753 198.126948-74.184989l3.377157-2.008683c24.450108-14.501111 39.018017-49.679315 43.498733-104.435532-23.636819-11.323461-43.488828-14.889654-59.157394-10.396765-32.87515 9.426798-46.897335 40.70344-61.824266 73.903993-16.146926 35.83904-32.759661 72.955977-74.796442 82.721171-55.495139 12.896107-109.377388-11.392845-171.765984-39.588468-26.425866-11.980134-53.786123-24.316516-84.20829-35.35879-32.730582-11.836765-65.219587-15.212346-96.532623-9.770495-30.228085 5.234776-60.228722 18.518667-89.452718 39.590166z" fill="#FFD6C5" p-id="1657"></path><path d="M350.472329 482.314977c-5.482661-2.06892-8.290693-8.233736-6.221773-13.716397 2.06892-5.482661 8.233736-8.290693 13.716397-6.221773 33.638104 12.824897 56.606896 29.437379 68.59113 50.552022 12.782194 22.446281 10.016737 46.54197-7.542878 70.198469-3.525635 4.756038-10.214162 5.737672-14.9702 2.212037-4.756038-3.525635-5.737672-10.214162-2.212037-14.9702 12.730599-17.278363 14.570684-32.266161 6.177621-47.02443-8.971208-16.048907-28.132483-29.90407-57.53826-41.029728zM709.242127 335.642786c3.553199-4.659912 10.26929-5.54542 14.929202-1.992221s5.54542 10.26929 1.992221 14.929202c-41.788078 54.530785-79.339161 86.832584-113.463951 96.617709-34.413169 9.867817-67.714263 4.748531-99.051584-15.289992-4.961725-3.154566-6.451554-9.8014-3.296988-14.763125s9.8014-6.451554 14.763125-3.296988c26.224341 16.719268 53.233461 20.937971 81.782933 12.751541 28.673162-8.117867 63.136161-37.765662 102.345042-88.956126zM803.389888 350.882507c5.272117-2.656085 11.702604-0.546859 14.331125 4.629131 2.656085 5.272117 0.546859 11.702604-4.629131 14.331125-61.988197 31.610812-107.857095 70.458903-137.826511 116.503275-30.984417 47.583778-46.398729 102.666343-46.091681 165.412384 0.033114 5.920211-4.728727 10.718635-10.648938 10.75175-5.920211 0.033114-10.718635-4.728727-10.75175-10.648938-0.324645-66.798163 16.212148-125.947673 49.500818-177.105023 32.260233-49.302001 81.052528-90.652842 146.116068-123.873704z" fill="#FFD6C5" p-id="1658"></path><path d="M738.036518 425.902484c-5.865084 0.225367-10.828197-4.385221-11.14969-10.222741-0.225367-5.865084 4.385221-10.828197 10.222741-11.149689 0.920263-0.055821 2.376284-0.057209 4.368064-0.004163 3.227985 0.01066 6.827039 0.227007 10.797164 0.649041 11.223361 1.046981 22.80505 3.343602 34.099749 7.178935 13.232045 4.424138 25.36709 10.827314 35.800816 19.278785 16.94968 13.761117 28.482927 37.293737 35.272626 70.404914 1.14563 5.809263-2.544001 11.444565-8.353263 12.590194s-11.444565-2.544001-12.590194-8.353263c-5.837709-28.702807-15.306452-47.938007-27.816036-58.186924-8.289305-6.777715-18.197932-11.946768-29.121562-15.576414-9.673295-3.259964-19.592582-5.201032-29.304794-6.057148-3.406802-0.271474-6.470099-0.433388-9.189889-0.48574-0.947827-0.040305-1.771964-0.012047-2.403848-0.038917l-0.631884-0.02687z" fill="#FFD6C5" p-id="1659"></path><path d="M383.735226 780.875196c-26.016131-0.03015-48.422548-3.071938-68.85409-9.384792-25.213061-7.750583-47.202995-20.586581-65.035407-38.151746-18.231047-17.866979-32.909588-41.12188-43.526736-69.078385-22.184203-58.137347-14.786587-107.800264 21.823166-147.738415 26.414576-28.692336 67.119972-51.807715 128.363003-72.5938 21.99807-7.452175 40.907362-12.978357 74.826464-22.392413 12.235587-3.404468 17.041896-4.782655 23.290097-6.574297 11.727393-3.362776 26.130802-9.365426 45.118622-18.971294 7.633578-3.853373 15.953475-8.215633 26.936647-14.173816 6.315376-3.371354 28.775785-15.74148 28.968038-15.796607l3.646297 6.548627-3.550171-6.57619c0.617756-0.385198 1.359201-0.701835 1.976957-1.087033l2.786965-1.527359c22.131032-12.067618 36.986121-19.760235 51.910465-26.84853 29.793562-14.368843 54.633031-23.884135 78.157073-30.005366 29.607554-7.76162 55.635733-9.503433 79.705246-5.378081 28.877903 4.931197 54.288767 18.450738 75.58658 40.119683 21.201686 21.696509 38.826772 52.324868 52.434931 91.075068 27.477828 78.049593 22.623014 143.836224-14.387707 195.436675-28.834887 40.205463-75.343995 70.290557-142.10791 92.13958-37.583945 12.233442-77.327827 20.925038-132.964947 28.97245-5.98808 0.884815-12.09985 1.701067-20.31296 2.807779l-8.116985 1.079149c-0.412068 0.014129-0.796573 0.124384-1.112515 0.110948-3.598361 0.511664-6.11177 0.816252-8.597616 1.216968-12.511918 1.715196-25.078271 3.96615-49.908467 8.797435-36.764665 7.10911-45.444277 8.765709-63.284828 11.488716-28.099874 4.312431-52.218271 6.546923-73.770212 6.485046z m180.675324-398.435587c-1.070823 0.619143-2.237772 1.26585-3.569409 2.063811l-8.553148 4.637204c-6.480064 3.522608-13.770137 7.485541-16.914043 9.219282-11.175424 6.01331-19.563883 10.499261-27.389714 14.40776-20.086207 10.128885-35.423314 16.503298-48.400347 20.224403-6.248201 1.791643-11.05451 3.16983-23.386222 6.601861-33.603161 9.427491-52.251638 14.774856-73.769077 22.089212-58.125994 19.684229-96.387931 41.162687-120.579558 67.449094-15.533081 16.937633-24.951617 35.971055-28.146046 56.756763-3.289862 21.541282 0.084709 45.644855 10.026891 71.610274 19.278657 50.544074 50.860329 81.955823 96.601058 95.991696 34.556285 10.585044 75.861334 11.328634 133.846482 2.399876 17.428482-2.708878 26.108095-4.365477 62.584381-11.391895 24.734071-4.803722 37.616365-7.041241 50.196846-8.880127l1.304767-0.166077c2.293593-0.345587 4.710876-0.622612 8.020859-1.051584 0.412068-0.014129 7.196722-1.023327 9.201936-1.286224 8.213111-1.106712 14.297317-2.019091 20.189271-2.876342 54.428479-7.908899 93.307225-16.352422 129.833782-28.282663 62.877868-20.526657 106.284763-48.369816 132.76027-85.193959 16.351667-22.789975 25.694703-48.979815 27.933673-77.813944 2.320274-30.001772-3.110223-63.814783-15.98829-100.381645-25.040172-71.362454-62.192052-110.227577-113.38094-118.956136-21.43172-3.633368-44.891362-2.003891-71.875947 5.109634-22.274401 5.762902-45.960356 14.947429-74.683095 28.69713-15.610663 7.597184-31.27576 15.730126-55.86438 29.022596z" fill="#333333" p-id="1660"></path><path d="M383.772315 762.139171c-24.148042-0.045667-44.727368-2.883155-63.413816-8.552076-45.740729-14.035872-77.322401-45.447622-96.601058-95.991695-19.705548-51.670024-13.742887-93.639378 18.119155-128.367038 24.191627-26.286407 62.453564-47.764865 120.579557-67.449094 21.613566-7.34192 40.234479-12.78541 73.769077-22.089212 12.331713-3.432032 17.138022-4.810219 23.386223-6.601861 12.977033-3.721104 28.286576-10.191644 48.400347-20.224403 7.825831-3.9085 16.310416-8.422015 27.389714-14.40776 6.123123-3.316227 28.254156-15.383845 28.968037-15.796607l3.027155 5.477804-3.027155-5.477804c0.096126-0.027564 0.192252-0.055127 0.260815-0.178818l4.503108-2.435574c21.870217-11.888801 36.464491-19.4026 51.072893-26.504331 62.333091-30.04523 107.528601-40.404085 146.559042-33.806763 51.161324 8.632434 88.340768 47.593683 113.38094 118.956136 12.795376 36.278483 18.115619 69.706989 16.097158 99.310128-2.101152 29.31476-11.430059 55.916668-28.042541 78.885461-26.379381 36.79658-69.786275 64.639738-132.76027 85.193959-36.526557 11.930241-75.309177 20.3462-129.833782 28.282663-5.891954 0.857251-12.003724 1.673503-20.189271 2.876342l-9.201936 1.286223c-3.598361 0.511664-6.207896 0.843816-8.597615 1.216968-12.800297 1.797887-25.682591 4.035406-50.897293 8.976947-36.448722 7.122545-45.155899 8.683018-62.584381 11.391896-26.657982 3.898975-49.759989 6.050082-70.364103 6.028509z m189.623572-363.238587c-1.070823 0.619143-2.237772 1.26585-3.56941 2.063812l-8.553147 4.637204c-6.480064 3.522608-13.770137 7.485541-16.914043 9.219281-11.340113 6.164563-19.948388 10.609516-27.938908 14.66927-21.184593 10.651902-37.523961 17.521769-51.654507 21.573638-6.248201 1.791643-11.150636 3.197393-23.482349 6.629425-33.218656 9.317236-51.674881 14.609474-72.807816 21.813574-54.981394 18.678499-90.799872 38.520037-112.768549 62.400515-26.949641 29.365913-31.490783 63.957647-14.415143 108.995659 17.089075 44.72207 44.711282 72.4838 84.516283 84.684697 31.712111 9.736118 70.462059 10.276103 125.453166 1.789753 17.140103-2.626187 25.72359-4.255222 61.883934-11.295076 25.62677-4.955669 38.701317-7.248316 51.913682-9.060332 2.513409-0.304589 5.095381-0.732867 8.693741-1.244531 0.192252-0.055127 0.384505-0.110255 0.604321-0.069256l8.625179-1.120841c8.213111-1.106712 14.201191-1.991527 19.997019-2.821215 53.343527-7.701824 91.233448-15.965836 126.606491-27.565311 58.964259-19.300418 99.268941-44.901642 123.288941-78.316902 14.403662-20.150795 22.705519-43.441333 24.56276-69.253164 1.910981-27.075601-3.200798-57.963134-15.087265-91.797465-22.615951-64.359372-54.970101-99.190665-98.808932-106.593831-34.977626-5.886909-76.670901 3.987847-135.255765 32.23008-15.18516 7.267113-30.561878 15.317364-54.889683 28.431016z" fill="#FFD6C5" p-id="1661"></path><path d="M331.660452 707.381945c24.184625 9.605931 70.638795 8.352886 69.784572-8.77517-0.854223-17.128056-31.246303-11.014016-58.701299-21.866812-27.454996-10.852796-42.554878-29.409563-53.482229-22.531117-11.545106 7.263644 18.118205 43.594732 42.398956 53.173099z" fill="#FFFFFF" p-id="1662"></path><path d="M444.459195 699.723732a8.5 11.2 74 1 0-21.532262 6.174277 8.5 11.2 74 1 0 21.532262-6.174277Z" fill="#FFFFFF" p-id="1663"></path></svg>