<?xml version="1.0" standalone="no"?><!DOCTYPE svg PUBLIC "-//W3C//DTD SVG 1.1//EN" "http://www.w3.org/Graphics/SVG/1.1/DTD/svg11.dtd"><svg t="1545199280375" class="icon" style="" viewBox="0 0 1024 1024" version="1.1" xmlns="http://www.w3.org/2000/svg" p-id="1114" xmlns:xlink="http://www.w3.org/1999/xlink" width="64" height="64"><defs><style type="text/css"></style></defs><path d="M400 840a112 40 0 1 0 224 0 112 40 0 1 0-224 0Z" fill="#D2968F" p-id="1115"></path><path d="M512 896c-70.4 0-128-20.8-128-56s57.6-56 128-56 128 20.8 128 56-57.6 56-128 56z m0-32c52.8 0 96-16 96-24S564.8 816 512 816s-96 16-96 24 43.2 24 96 24z" fill="#333333" p-id="1116"></path><path d="M512 848c-203.2 0-352-108.8-352-296C160 395.2 360 240 512 240s352 155.2 352 312C864 739.2 715.2 848 512 848z" fill="#B5568F" p-id="1117"></path><path d="M222.4 734.4c-40-48-62.4-108.8-62.4-182.4C160 395.2 360 240 512 240c116.8 0 260.8 91.2 321.6 204.8C763.2 355.2 643.2 288 544 288c-152 0-352 155.2-352 312 0 51.2 11.2 96 30.4 134.4z" fill="#D299BB" p-id="1118"></path><path d="M275.2 782.4c14.4 1.6 30.4 1.6 44.8 1.6 203.2 0 352-108.8 352-296 0-94.4-72-188.8-163.2-248h3.2c152 0 352 155.2 352 312C864 739.2 715.2 848 512 848c-92.8 0-174.4-22.4-236.8-65.6z" fill="#9F3A76" p-id="1119"></path><path d="M512 848c-203.2 0-352-108.8-352-296C160 395.2 360 240 512 240s352 155.2 352 312C864 739.2 715.2 848 512 848z m0-32c187.2 0 320-96 320-264C832 416 648 272 512 272s-320 144-320 280C192 720 324.8 816 512 816z" fill="#333333" p-id="1120"></path><path d="M606.4 632c0 9.6-8 16-17.6 14.4-9.6 0-16-8-14.4-17.6 1.6-16 1.6-33.6 1.6-52.8 0-129.6-35.2-256-64-256s-64 126.4-64 256c0 134.4 32 224 64 224 19.2 0 40-33.6 52.8-96 1.6-8 9.6-14.4 19.2-12.8 8 1.6 14.4 9.6 12.8 19.2-16 75.2-44.8 121.6-84.8 121.6-59.2 0-96-104-96-256 0-148.8 40-288 96-288s96 139.2 96 288c0 19.2 0 38.4-1.6 56z" fill="#333333" p-id="1121"></path><path d="M296 459.2c3.2-8 12.8-11.2 20.8-8 8 3.2 11.2 12.8 8 20.8-12.8 35.2-20.8 70.4-20.8 104 0 131.2 107.2 224 208 224s208-92.8 208-224c0-126.4-104-256-208-256-51.2 0-105.6 32-147.2 86.4-4.8 6.4-16 8-22.4 3.2s-8-16-3.2-22.4C385.6 326.4 449.6 288 512 288c123.2 0 240 145.6 240 288 0 150.4-121.6 256-240 256s-240-105.6-240-256c0-38.4 8-78.4 24-116.8z" fill="#333333" p-id="1122"></path><path d="M512 352c-27.2 0-54.4-11.2-72-28.8-20.8-20.8-24-49.6-4.8-76.8 20.8-28.8 41.6-65.6 62.4-108.8 6.4-12.8 22.4-12.8 28.8 0 20.8 44.8 41.6 81.6 62.4 108.8 19.2 27.2 16 56-4.8 76.8-17.6 17.6-44.8 28.8-72 28.8z m-51.2-86.4c-9.6 14.4-9.6 25.6 1.6 35.2 11.2 11.2 30.4 19.2 49.6 19.2s38.4-8 49.6-19.2c11.2-11.2 11.2-22.4 1.6-35.2-17.6-24-33.6-51.2-51.2-84.8-17.6 32-33.6 60.8-51.2 84.8z" fill="#333333" p-id="1123"></path><path d="M460.8 265.6c-9.6 14.4-9.6 25.6 1.6 35.2 11.2 11.2 30.4 19.2 49.6 19.2s38.4-8 49.6-19.2c11.2-11.2 11.2-22.4 1.6-35.2-17.6-24-33.6-51.2-51.2-84.8-17.6 32-33.6 60.8-51.2 84.8z" fill="#E7C9CF" p-id="1124"></path><path d="M500.8 200c3.2-6.4 6.4-12.8 11.2-19.2 17.6 33.6 33.6 60.8 51.2 84.8 9.6 14.4 9.6 25.6-1.6 35.2-11.2 11.2-32 19.2-49.6 19.2-12.8 0-24-3.2-35.2-8h9.6c17.6 0 38.4-8 49.6-19.2 11.2-11.2 11.2-22.4 1.6-35.2-11.2-17.6-24-36.8-36.8-57.6z" fill="#CFA1AB" p-id="1125"></path><path d="M357.205107 513.975657a16 32 14.999 1 0 16.56334-61.819542 16 32 14.999 1 0-16.56334 61.819542Z" fill="#FFFFFF" p-id="1126"></path></svg>