<?xml version="1.0" standalone="no"?><!DOCTYPE svg PUBLIC "-//W3C//DTD SVG 1.1//EN" "http://www.w3.org/Graphics/SVG/1.1/DTD/svg11.dtd"><svg t="1545200369287" class="icon" style="" viewBox="0 0 1024 1024" version="1.1" xmlns="http://www.w3.org/2000/svg" p-id="1368" xmlns:xlink="http://www.w3.org/1999/xlink" width="64" height="64"><defs><style type="text/css"></style></defs><path d="M350.4 254.4c25.6-40 104-65.6 110.4-131.2s104-49.6 91.2-3.2c-20.8 81.6 84.8 76.8 100.8 115.2C688 321.6 734.4 544 736 654.4c0 25.6 6.4 145.6-25.6 164.8-41.6 25.6-172.8 19.2-392-17.6-17.6-83.2-56-409.6 32-547.2z" fill="#D2BC8F" p-id="1369"></path><path d="M553.6 113.6c-25.6-4.8-57.6 6.4-60.8 43.2-6.4 65.6-84.8 91.2-110.4 131.2-80 124.8-56 406.4-36.8 518.4-8-1.6-17.6-3.2-27.2-4.8-17.6-83.2-56-409.6 32-547.2 25.6-40 104-65.6 110.4-131.2 6.4-60.8 92.8-51.2 92.8-9.6z m32 80c25.6 14.4 59.2 22.4 67.2 43.2 1.6 1.6 1.6 4.8 3.2 8-25.6-14.4-59.2-24-70.4-51.2z" fill="#E4D6BB" p-id="1370"></path><path d="M457.6 136c1.6-3.2 1.6-8 1.6-11.2 0-3.2 1.6-4.8 1.6-8 12.8-57.6 102.4-40 91.2 4.8-20.8 81.6 84.8 76.8 100.8 115.2C688 321.6 734.4 544 736 654.4c0 25.6 6.4 145.6-25.6 164.8-41.6 25.6-172.8 19.2-392-17.6 0-1.6-1.6-3.2-1.6-6.4 182.4 27.2 291.2 30.4 329.6 8 32-19.2 25.6-139.2 25.6-164.8-1.6-110.4-52.8-323.2-88-409.6-14.4-35.2-131.2-24-126.4-92.8z" fill="#B99E67" p-id="1371"></path><path d="M702.4 804.8c8-4.8 14.4-32 17.6-70.4 1.6-20.8 1.6-41.6 1.6-65.6v-8-6.4c-1.6-102.4-46.4-323.2-83.2-411.2-1.6-6.4-11.2-11.2-28.8-20.8-1.6 0-9.6-4.8-12.8-6.4-49.6-24-70.4-49.6-59.2-99.2 1.6-9.6-8-19.2-25.6-20.8-19.2-1.6-33.6 9.6-35.2 28.8-3.2 38.4-24 62.4-65.6 94.4 0 0-17.6 12.8-22.4 17.6-12.8 11.2-20.8 17.6-25.6 25.6-65.6 102.4-65.6 361.6-32 524.8 209.6 35.2 334.4 40 371.2 17.6zM336 246.4c8-11.2 17.6-20.8 33.6-33.6 4.8-3.2 22.4-17.6 22.4-17.6 35.2-27.2 49.6-46.4 52.8-73.6 3.2-38.4 33.6-59.2 68.8-57.6 35.2 3.2 62.4 27.2 52.8 60.8-8 30.4 3.2 44.8 41.6 62.4 3.2 1.6 11.2 4.8 12.8 6.4 27.2 12.8 38.4 20.8 46.4 36.8 38.4 92.8 83.2 316.8 84.8 424v14.4c0 25.6 0 48-1.6 68.8-3.2 51.2-12.8 83.2-33.6 96-46.4 27.2-177.6 22.4-403.2-16l-8-1.6-1.6-11.2c-12.8-56-24-161.6-24-256-3.2-131.2 14.4-238.4 56-302.4z" fill="#333333" p-id="1372"></path><path d="M736 702.4c0 68.8 3.2 195.2-148.8 232-152 36.8-254.4-28.8-267.2-131.2-14.4-102.4 27.2-225.6 182.4-244.8 153.6-22.4 233.6 73.6 233.6 144z" fill="#F4EAD5" p-id="1373"></path><path d="M736 702.4c0 28.8 1.6 97.6-25.6 148.8-12.8 25.6-43.2 38.4-65.6 56-40 32-161.6 32-212.8 25.6l144-377.6c60.8 22.4 160 102.4 160 147.2z" fill="#EDE0C4" p-id="1374"></path><path d="M720 702.4c0-76.8-89.6-145.6-216-129.6-128 16-185.6 110.4-169.6 227.2 14.4 97.6 112 150.4 248 118.4 76.8-19.2 115.2-60.8 129.6-121.6 6.4-25.6 8-48 8-89.6v-4.8z m32 0v3.2c0 44.8-1.6 67.2-8 97.6-17.6 73.6-64 124.8-153.6 145.6-152 36.8-270.4-25.6-288-144C284.8 672 352 560 499.2 540.8c145.6-19.2 252.8 64 252.8 161.6zM436.8 177.6l20.8-25.6c24 19.2 56 22.4 96 9.6l9.6 30.4c-49.6 16-92.8 11.2-126.4-14.4z" fill="#333333" p-id="1375"></path><path d="M494.4 696c1.6-25.6-1.6-43.2-8-52.8-9.6-14.4-27.2-20.8-38.4-12.8-9.6 8-9.6 25.6 0 41.6 6.4 9.6 22.4 17.6 46.4 24zM492.8 795.2c-25.6-3.2-43.2-1.6-52.8 4.8-14.4 9.6-20.8 25.6-14.4 36.8s25.6 12.8 40 3.2c9.6-4.8 19.2-20.8 27.2-44.8zM582.4 742.4c16 20.8 28.8 32 40 35.2 17.6 4.8 33.6-1.6 36.8-14.4 3.2-12.8-8-27.2-24-32-11.2-1.6-28.8 1.6-52.8 11.2zM553.6 790.4c-11.2 28.8-16 49.6-12.8 62.4 4.8 20.8 22.4 33.6 36.8 30.4s22.4-24 17.6-44.8c-3.2-12.8-17.6-28.8-41.6-48zM438.4 726.4c-17.6-6.4-30.4-9.6-38.4-8-12.8 3.2-20.8 12.8-19.2 20.8 1.6 8 14.4 12.8 27.2 9.6 8 0 19.2-8 30.4-22.4zM552 675.2c14.4-11.2 22.4-22.4 24-30.4 3.2-12.8 0-24-9.6-27.2-8-1.6-17.6 6.4-20.8 19.2-1.6 8 1.6 20.8 6.4 38.4zM612.8 689.6c17.6 4.8 30.4 6.4 38.4 3.2 12.8-4.8 20.8-14.4 17.6-22.4-3.2-8-14.4-11.2-27.2-6.4-8 3.2-17.6 11.2-28.8 25.6z" fill="#CCB584" p-id="1376"></path><path d="M526.4 748.8m-16 0a16 16 0 1 0 32 0 16 16 0 1 0-32 0Z" fill="#CCB584" p-id="1377"></path><path d="M512 272m-16 0a16 16 0 1 0 32 0 16 16 0 1 0-32 0Z" fill="#B8A275" p-id="1378"></path><path d="M416 336m-16 0a16 16 0 1 0 32 0 16 16 0 1 0-32 0Z" fill="#B8A275" p-id="1379"></path><path d="M608 432m-16 0a16 16 0 1 0 32 0 16 16 0 1 0-32 0Z" fill="#B8A275" p-id="1380"></path><path d="M512 448m-16 0a16 16 0 1 0 32 0 16 16 0 1 0-32 0Z" fill="#B8A275" p-id="1381"></path><path d="M416 512m-16 0a16 16 0 1 0 32 0 16 16 0 1 0-32 0Z" fill="#B8A275" p-id="1382"></path></svg>