<?xml version="1.0" standalone="no"?><!DOCTYPE svg PUBLIC "-//W3C//DTD SVG 1.1//EN" "http://www.w3.org/Graphics/SVG/1.1/DTD/svg11.dtd"><svg t="1545201886584" class="icon" style="" viewBox="0 0 1024 1024" version="1.1" xmlns="http://www.w3.org/2000/svg" p-id="17734" xmlns:xlink="http://www.w3.org/1999/xlink" width="64" height="64"><defs><style type="text/css"></style></defs><path d="M521.3 208c74.9 0 48-39.4 32-88s-9.9-88-32-88-16 39.4-32 88-42.9 88 32 88z" fill="#CFDB87" p-id="17735"></path><path d="M505.3 207.3c54.6-5.6 30.7-42.5 16-87.3-9.8-29.6-11.3-55.8-16-71.8 3-10.2 7.4-16.2 16-16.2 22.1 0 16 39.4 32 88s42.9 88-32 88c-6 0-11.3-0.2-16-0.7z" fill="#B9C769" p-id="17736"></path><path d="M521.3 224c-38.5 0-60.4-10.3-65.2-34.2-3.1-15.3-1.4-21.1 13.4-61.5 1.9-5.2 3.3-9.3 4.7-13.3 3-9 5.3-18.2 7.4-28.5 0.8-4 1.6-8.1 2.5-13.2-0.1 0.5 1.7-9.6 2.1-12.3 5.7-31.3 12.8-45 35.2-45 22.4 0 29.5 13.7 35.2 45 0.5 2.6 2.2 12.8 2.1 12.3 0.9 5.1 1.6 9.2 2.5 13.2 2.1 10.4 4.4 19.5 7.4 28.5 1.3 4 2.8 8.1 4.7 13.3 14.8 40.4 16.5 46.2 13.4 61.5-5 23.9-26.9 34.2-65.4 34.2z m-3.7-157.3c-0.5 2.5-2.2 12.5-2.1 12.1-0.9 5.4-1.7 9.7-2.6 14-2.3 11.5-5 21.9-8.4 32.2-1.4 4.4-3 8.8-5 14.3-11.5 31.5-13.3 37.9-12.1 44.2 1 4.8 8.8 8.5 33.9 8.5s32.9-3.7 33.9-8.5c1.3-6.4-0.5-12.8-12.1-44.2-2-5.5-3.6-9.9-5-14.3-3.4-10.3-6-20.7-8.4-32.2-0.9-4.3-1.7-8.6-2.6-14 0.1 0.4-1.7-9.6-2.1-12.1-1.4-7.7-2.6-12.7-3.7-16-1.2 3.3-2.3 8.3-3.7 16z" fill="#333333" p-id="17737"></path><path d="M407.2 186.1c16.2-28.5 196.5-27.1 208 0s-7.2 84.4-7.2 141.6 12.5 175.2 0 283.2-68.1 198.5-78.2 270.9c-14.2 101.4 11.1 102.4-10.6 111.1-14.6 5.8-18.1-91.1-35.1-161.5-16-66.4-45.6-105.6-49.1-130.7-27.8-202-22.7-363.1-19.4-408.8s-16.3-91.8-8.4-105.8z" fill="#AFC438" p-id="17738"></path><path d="M617.7 194.8c-56.2-10.6-161.3-6.1-173.4 15.4-7.9 13.9 11.8 60 8.4 105.8s-8.4 206.8 19.4 408.8c3.5 25.1 33.1 64.3 49.1 130.7 2.8 11.5 5.2 23.6 7.3 36-11.3 91.9 11.7 93.1-9.3 101.5-14.6 5.8-18.1-91.1-35.1-161.5-16-66.4-45.6-105.6-49.1-130.7-27.8-202-22.7-363.1-19.4-408.8s-16.3-91.8-8.4-105.8c16.2-28.5 196.5-27.1 208 0 1.1 2.5 1.9 5.4 2.5 8.6z" fill="#CFDB87" p-id="17739"></path><path d="M471 406.8c6.5 59 12.5 248.7 41.7 449.4 1.6 11.1 4.2 11.1 7.9 0v57.3l-30.3-39.4c1.2-12.5 1.2-23.5 0-33C456 580.5 464.5 347.8 471 406.8z" fill="#667805" p-id="17740"></path><path d="M516 975.2c-0.7 0.4-1.6 0.7-2.7 1.2 0.7-0.3 1.3-0.5 2-0.6 0.2-0.3 0.4-0.5 0.7-0.6z m-0.3 0.1c0.1-0.1 0.2-0.1 0.3-0.2 0 0-0.1 0-0.1 0.1l-0.2 0.1z m-1.8-95.7c4.4-31.4 4.2-30.8 40.4-129 21.4-58.2 32.8-98.1 37.8-141.6 1.7-14.4 2.9-29.3 3.8-44.9 2.7-47.7 2-92.9-1.1-160.9-2.9-62.6-2.8-60-2.8-75.6 0-19.7 1.7-37.4 5.6-66.1 6.3-46.3 7-59.4 2.9-69.2 0.6 1.4-0.3 0.7-3.1-0.5-4.7-2-11.6-3.9-20.2-5.5-17.3-3.2-40.4-5.1-64.3-5.1-46.9-0.2-88.7 7.3-91.8 12.8-0.5 0.9 0.3 8 5.3 35.4 4.6 25.4 6.5 43.1 5.3 61.9-6.8 93-2.9 246.9 19.2 407.2 1.2 8.7 31.2 74.2 28.3 67.4 8.6 20.5 15.3 40.3 20.5 61.8 3.2 13.2 6.1 27.9 8.9 44.7 0.8 4.9 2.1 13.1 3.5 22.2 0.5-4.8 1.1-9.8 1.8-15z m116-699.7c7.6 17.9 6.8 31.1-0.6 86-3.7 27.4-5.3 43.9-5.3 61.4 0 15.2-0.1 12.9 2.8 74.5 3.2 69 3.9 115.1 1.1 164.1-0.9 16.2-2.2 31.8-4 46.8-5.4 46.6-17.3 88.6-39.5 149-34.8 94.5-34.8 94.5-38.7 122.4-5.2 37-5.4 60.9-2.9 81.5 0.3 2.2 1.1 8.4 1.2 8.9 0.5 3.7 0.7 6.1 0.5 8.8-0.5 9-5 15.6-13 20-1.8 1-3.8 1.9-6.3 2.9-16.1 6.5-24.4-3.8-29.6-20-2.6-8-4.8-18.9-7.4-34.8-1-6.4-8.4-57.6-11.1-73.6-2.7-16.2-5.4-30.1-8.4-42.5-4.7-19.6-10.9-37.9-18.9-56.9-2.9-7-6-13.7-9.8-21.9-0.7-1.4-7.2-15.4-9-19.2-7-15.3-10.5-24.8-11.8-34.2-22.4-162.6-26.3-318.8-19.5-412.2 1.1-17-0.6-32.5-4.8-55.6-8.1-44.5-8.2-45.4-1.6-56.9 22.2-39.4 219.6-38.7 236.6 1.5z" fill="#333333" p-id="17741"></path><path d="M519.2 327.7c0-101 8.6-154.7 25.7-161.3 35.9 2.5 65.8 9.2 70.3 19.7 11.5 27.1-7.2 84.4-7.2 141.6s12.5 175.2 0 283.2-68.1 198.5-78.2 270.9c-14.2 101.4-10.6-402.6-10.6-554.1z" fill="#869C0D" p-id="17742"></path><path d="M586.8 172c15.3 3.4 25.9 8.1 28.4 14.1 11.5 27.1-7.2 84.4-7.2 141.6s12.5 175.2 0 283.2-68.1 198.5-78.2 270.9c-5.7 41-8.6-17-9.9-110.7 20.4-56.2 47.8-120.3 56.1-192.3 12.5-108 0-226 0-283.2 0-46.5 12.4-93.2 10.8-123.6z" fill="#667805" p-id="17743"></path><path d="M535.2 327.7c0 20.3 0 17.8-0.2 101.7-0.2 67.6-0.2 113.4-0.2 161 0.1 87.8 0.6 157.9 1.6 209.1 4.7-12.9 10.6-28.9 18-48.9 21.4-58.2 32.8-98.1 37.8-141.6 1.7-14.4 2.9-29.3 3.8-44.9 2.7-47.7 2-92.9-1.1-160.9-2.9-62.6-2.8-60-2.8-75.6 0-19.7 1.7-37.4 5.6-66.1 6.2-46 7-59.2 2.9-69.1 0.5 1.2 0.3 1.1-0.7 0.5-2.7-1.4-6.8-2.9-12-4.3-10-2.6-23.4-4.7-38.7-6-6.8 9.5-14 60.9-14 145.1z m-32 0c0-110.9 8.7-165.8 36-176.3l3.3-1.3 3.5 0.2c46.4 3.3 76.2 11.1 83.9 29.5 7.6 17.9 6.8 31.1-0.6 86-3.7 27.4-5.3 43.9-5.3 61.4 0 15.2-0.1 12.9 2.8 74.5 3.2 69 3.9 115.1 1.1 164.1-0.9 16.2-2.2 31.8-4 46.8-5.4 46.6-17.3 88.6-39.5 149-34.8 94.5-34.8 94.5-38.7 122.4-1.8 13-2.9 17.5-7.5 22.2-5.7 5.8-15.2 6.9-22.2 1.3-3-2.5-4.5-5-5.6-8.1-0.9-2.4-1.4-5.2-1.9-8.9-1.5-10.8-2.6-31.9-3.5-63.3-1.4-52.8-2.1-132.2-2.2-236.8 0-47.7 0-93.5 0.2-161.1 0.2-83.8 0.2-81.3 0.2-101.6z" fill="#333333" p-id="17744"></path><path d="M479.1 188.3c-1 16.2-0.2 41.5 2.5 75.9 4 51.6 7.8 111.1 7.8 80.6 0-20.3 3.1-73 9.3-158l-19.6 1.5z" fill="#CFDB87" p-id="17745"></path></svg>