<?xml version="1.0" standalone="no"?><!DOCTYPE svg PUBLIC "-//W3C//DTD SVG 1.1//EN" "http://www.w3.org/Graphics/SVG/1.1/DTD/svg11.dtd"><svg t="1545203451707" class="icon" style="" viewBox="0 0 1024 1024" version="1.1" xmlns="http://www.w3.org/2000/svg" p-id="35608" xmlns:xlink="http://www.w3.org/1999/xlink" width="64" height="64"><defs><style type="text/css"></style></defs><path d="M648.57 331.83a2.39 2.39 0 0 1 3.87 2.49c-8.21 26.38-24.74 110.74-82.83 110.74-46.97 0 52.52-89.64 78.96-113.23z" fill="#42C19D" p-id="35609"></path><path d="M569.61 455.06c-13.87 0-19.21-6.38-21.25-11.73-3-8-0.2-18 8.94-31.46 6.09-9 15.28-20 27.31-32.74 22.08-23.35 48.59-47 57.3-54.77A12.39 12.39 0 0 1 662 337.29c-0.84 2.7-1.8 6.13-2.9 10.09-9.77 34.95-30.1 107.68-89.49 107.68z m-2.1-20.1a20 20 0 0 0 2.09 0.1c18.81 0 34.27-10.73 47.26-32.8 8.38-14.24 14.25-30.81 18.55-45-10.27 9.53-22.63 21.35-33.93 33.14-26.96 28.16-32.74 40.38-33.96 44.6z m87.71-95.67z" fill="#786B59" p-id="35610"></path><path d="M384.68 331.5a2.22 2.22 0 0 0-3.6 2.32c8 25.73 23.11 118.33 83 111.31 46.92-5.49-53.67-90.69-79.4-113.63z" fill="#70E8C5" p-id="35611"></path><path d="M457.54 455.53c-23.46 0-43-13.21-58.13-39.36-12.9-22.27-19.93-49.35-24.58-67.26-1.27-4.89-2.36-9.11-3.3-12.13a12.22 12.22 0 0 1 19.8-12.78c1.75 1.56 3.85 3.41 6.23 5.51 70.15 61.82 94 92 87.93 111.35-1.75 5.59-6.67 12.58-20.24 14.17a66.26 66.26 0 0 1-7.71 0.5z m-60-99.29c12.69 45 30.18 83.1 65.4 79a13.23 13.23 0 0 0 3.46-0.78c-0.18-2.43-2.73-12.67-28.63-39.79-12.95-13.59-27.93-27.4-40.25-38.43zM378 339z" fill="#786B59" p-id="35612"></path><path d="M516.3 300.89c-1.36-2-3.77-2.61-4.59-0.33-9.26 26-45.47 136-0.21 138.3 46.83 2.39 27.81-104.19 4.8-137.97z" fill="#52D9B7" p-id="35613"></path><path d="M513 448.9q-1 0-2-0.05c-10.17-0.52-18.44-5.12-23.91-13.31-9.37-14-10.35-38.31-3-74.24 5.6-27.37 14.6-53.93 18.22-64.08a12 12 0 0 1 9.71-8 13.3 13.3 0 0 1 12.56 6.07c19.91 29.24 36.09 103.37 17.72 136.07-6.41 11.36-16.76 17.54-29.3 17.54z m2.51-128.24c-13.75 43.22-21.93 88.57-11.78 103.77 2 2.92 4.43 4.25 8.3 4.45 5.92 0.3 9.78-1.89 12.84-7.34 6.06-10.78 7.18-32.14 3-57.13a199.14 199.14 0 0 0-12.37-43.75z" fill="#786B59" p-id="35614"></path><path d="M699 607.81c1.56 126.62-84.3 287.29-188.3 287.29s-189.42-163-188.3-287.29c0.94-104 84.3-167.67 188.3-167.67S697.69 503.83 699 607.81z" fill="#FF454E" p-id="35615"></path><path d="M510.68 905.1c-34.69 0-69.65-16.77-101.09-48.49-28.61-28.87-53.14-68.45-70.95-114.46-17.31-44.75-26.64-92.49-26.26-134.43 0.48-52.8 20.89-97.88 59-130.35 35.76-30.46 85.22-47.23 139.28-47.23s103.43 16.77 139.15 47.23c38 32.44 58.49 77.5 59.14 130.32 1.08 87.88-38.4 190-96 248.3-31.72 32.13-67.09 49.11-102.27 49.11z m0-455c-104.14 0-177.46 64.87-178.3 157.76-0.74 81.75 37.71 180.43 91.41 234.63 27.6 27.85 57.64 42.57 86.88 42.57 29.72 0 60.17-14.92 88.06-43.16 54.15-54.82 91.26-151 90.24-234-1.14-92.9-74.46-157.76-178.29-157.76z" fill="#786B59" p-id="35616"></path><path d="M441.86 524.2s-50.38 24.73-44.86 76.95" fill="#FF454E" p-id="35617"></path><path d="M397 611.15a10 10 0 0 1-9.93-9c-2.56-24.32 5.4-47.12 23-65.94a105.18 105.18 0 0 1 27.39-21 10 10 0 0 1 8.83 17.94c-1.89 0.94-44 22.54-39.37 66.93a10 10 0 0 1-8.9 11 10.21 10.21 0 0 1-1.02 0.07z" fill="#FFFFFF" p-id="35618"></path></svg>