<?xml version="1.0" standalone="no"?><!DOCTYPE svg PUBLIC "-//W3C//DTD SVG 1.1//EN" "http://www.w3.org/Graphics/SVG/1.1/DTD/svg11.dtd"><svg t="1545201829102" class="icon" style="" viewBox="0 0 1024 1024" version="1.1" xmlns="http://www.w3.org/2000/svg" p-id="17336" xmlns:xlink="http://www.w3.org/1999/xlink" width="64" height="64"><defs><style type="text/css"></style></defs><path d="M488 92.8c-30.4-8-44.8 19.2-67.2 41.6s-75.2-33.6-124.8 0 20.8 128-43.2 128-94.4 60.8-81.6 100.8 72 56 62.4 89.6-46.4 36.8-46.4 73.6 36.8 99.2 107.2 107.2c9.6 1.6 19.2 0 30.4-1.6 65.6-12.8 142.4-72 172.8-20.8 35.2 57.6 136 72 145.6 41.6 9.6-30.4 51.2 27.2 84.8 11.2 33.6-16 16-81.6 43.2-104s86.4-44.8 73.6-78.4c-12.8-33.6-48-51.2-38.4-76.8s56-70.4 25.6-89.6c-28.8-20.8-80-40-80-78.4s-38.4-78.4-88-94.4-75.2 35.2-107.2 16-38.4-57.6-68.8-65.6z" fill="#7FA500" p-id="17337"></path><path d="M481.6 96c12.8 6.4 20.8 17.6 30.4 30.4-12.8-8-22.4-19.2-30.4-30.4z m211.2 67.2c27.2 19.2 46.4 46.4 46.4 73.6 0 6.4 1.6 14.4 4.8 19.2-19.2-12.8-36.8-28.8-36.8-51.2 0-14.4-6.4-28.8-14.4-41.6z m102.4 137.6c8 4.8 16 9.6 22.4 14.4 28.8 20.8-16 64-25.6 89.6s25.6 43.2 38.4 76.8c12.8 33.6-46.4 56-73.6 78.4s-8 88-43.2 104c-33.6 16-75.2-41.6-84.8-11.2-9.6 30.4-110.4 17.6-145.6-40 44.8 28.8 107.2 32 113.6 8 9.6-30.4 51.2 27.2 84.8 11.2 33.6-16 16-81.6 43.2-104 25.6-22.4 86.4-44.8 73.6-78.4s-48-51.2-38.4-76.8c6.4-19.2 35.2-49.6 35.2-72zM462.4 595.2c-36.8-12.8-97.6 28.8-150.4 38.4-11.2 1.6-20.8 3.2-30.4 1.6-41.6-4.8-72-27.2-89.6-52.8 16 11.2 33.6 19.2 56 20.8 9.6 1.6 19.2 0 30.4-1.6 65.6-12.8 142.4-72 172.8-20.8 3.2 4.8 6.4 9.6 11.2 14.4zM184 401.6c-8-6.4-16-14.4-20.8-22.4 8 8 16 16 20.8 22.4z" fill="#5C8900" p-id="17338"></path><path d="M540.8 142.4c-1.6 0-3.2-1.6-4.8-1.6-30.4-8-44.8 19.2-67.2 41.6s-75.2-33.6-124.8 0 20.8 128-43.2 128-94.4 60.8-81.6 100.8c1.6 4.8 3.2 9.6 6.4 12.8-16-17.6-46.4-33.6-54.4-60.8-12.8-40 19.2-100.8 81.6-100.8s-6.4-94.4 43.2-128 102.4 24 124.8 0 36.8-49.6 67.2-41.6c24 6.4 35.2 30.4 52.8 49.6z m24 19.2c28.8 11.2 54.4-33.6 100.8-19.2 35.2 11.2 65.6 35.2 80 62.4-9.6-6.4-20.8-11.2-32-14.4-49.6-16-75.2 35.2-107.2 16-17.6-11.2-28.8-30.4-41.6-44.8z m240 134.4c11.2 6.4 20.8 12.8 28.8 17.6 9.6 6.4 11.2 14.4 9.6 24-17.6-9.6-33.6-24-38.4-41.6z m-267.2 352c-1.6-1.6-3.2-1.6-4.8-3.2 0 1.6 3.2 3.2 4.8 3.2z m-288-27.2c-40-22.4-60.8-65.6-60.8-92.8 0-36.8 38.4-40 46.4-73.6 1.6-8 0-14.4-3.2-19.2 20.8 25.6 57.6 40 51.2 67.2-8 33.6-46.4 36.8-46.4 73.6 0 12.8 4.8 28.8 12.8 44.8z" fill="#99B90F" p-id="17339"></path><path d="M660.8 659.2z m-174.4-38.4c-11.2-19.2-28.8-16-92.8 8-9.6 4.8-17.6 6.4-24 9.6-14.4 4.8-27.2 9.6-40 11.2-12.8 1.6-24 3.2-35.2 1.6-70.4-8-121.6-68.8-121.6-123.2 0-22.4 8-33.6 27.2-51.2 1.6-1.6 1.6-1.6 3.2-1.6 11.2-9.6 16-16 17.6-24 1.6-4.8-1.6-11.2-12.8-20.8l-6.4-6.4s-6.4-4.8-8-6.4c-19.2-17.6-30.4-28.8-35.2-48-16-56 28.8-121.6 97.6-121.6 8 0 9.6-1.6 11.2-4.8 1.6-6.4 1.6-12.8-1.6-33.6 0-6.4-1.6-11.2-1.6-14.4-4.8-35.2 1.6-57.6 24-73.6 8-4.8 16-9.6 24-11.2 20.8-4.8 38.4-3.2 65.6 6.4 24 8 28.8 9.6 32 6.4 1.6-1.6 3.2-4.8 6.4-6.4 0 0 11.2-12.8 14.4-16 20.8-22.4 38.4-30.4 64-24 17.6 4.8 28.8 14.4 43.2 33.6 0 1.6 4.8 8 6.4 11.2 9.6 11.2 16 19.2 24 24 1.6 1.6 4.8 1.6 6.4 1.6 4.8 0 8-1.6 25.6-9.6 27.2-12.8 46.4-17.6 70.4-9.6 56 17.6 99.2 64 99.2 108.8 0 16 12.8 28.8 43.2 46.4 3.2 1.6 14.4 8 12.8 8 4.8 3.2 9.6 6.4 12.8 8 1.6 0 1.6 1.6 3.2 1.6 24 16 20.8 40 1.6 70.4-1.6 3.2-4.8 6.4-6.4 11.2-11.2 17.6-14.4 20.8-16 27.2-1.6 3.2 0 6.4 1.6 11.2 1.6 3.2 3.2 4.8 6.4 9.6 1.6 1.6 8 9.6 9.6 11.2 9.6 12.8 16 22.4 20.8 33.6 11.2 30.4-4.8 48-48 76.8-22.4 14.4-20.8 12.8-27.2 17.6l-3.2 3.2c-6.4 4.8-8 14.4-12.8 40-6.4 40-11.2 57.6-33.6 67.2-9.6 4.8-19.2 4.8-28.8 3.2-9.6-1.6-19.2-4.8-32-12.8-9.6-4.8-14.4-8-16-8-17.6 46.4-134.4 20.8-171.2-41.6z m-1.6-512c-11.2-3.2-19.2 0-32 14.4-3.2 3.2-12.8 14.4-14.4 16l-6.4 6.4c-16 16-25.6 14.4-64 1.6-22.4-8-35.2-9.6-48-6.4-4.8 1.6-9.6 3.2-14.4 6.4-11.2 8-12.8 19.2-11.2 43.2 0 3.2 0 8 1.6 14.4 3.2 25.6 3.2 33.6 0 44.8-4.8 19.2-19.2 28.8-41.6 28.8-46.4 0-76.8 44.8-67.2 80 3.2 9.6 11.2 19.2 25.6 32 1.6 1.6 8 6.4 8 6.4 3.2 3.2 4.8 4.8 8 6.4 19.2 17.6 27.2 32 22.4 52.8-4.8 16-11.2 25.6-27.2 40-1.6 1.6-1.6 1.6-3.2 1.6-12.8 11.2-16 17.6-16 27.2 0 38.4 40 86.4 94.4 91.2 8 1.6 16 0 25.6-1.6 9.6-1.6 20.8-4.8 35.2-9.6 6.4-1.6 12.8-4.8 22.4-8 40-16 51.2-19.2 68.8-22.4 27.2-3.2 48 4.8 62.4 27.2 12.8 22.4 41.6 40 72 46.4 12.8 3.2 25.6 3.2 35.2 1.6 6.4-1.6 9.6-3.2 9.6-3.2 4.8-16 17.6-22.4 32-19.2l14.4 4.8c1.6 1.6 3.2 1.6 6.4 3.2 0 0 4.8 3.2 6.4 3.2 9.6 4.8 17.6 8 22.4 9.6 4.8 0 8 0 11.2-1.6 8-3.2 11.2-14.4 16-41.6 4.8-33.6 8-48 22.4-59.2 1.6-1.6 3.2-3.2 4.8-3.2 3.2-3.2 8-6.4 14.4-9.6 1.6-1.6 4.8-3.2 8-4.8 3.2-1.6 6.4-3.2 8-4.8 28.8-19.2 38.4-28.8 35.2-38.4-3.2-8-8-16-16-25.6-1.6-1.6-8-9.6-9.6-11.2-3.2-4.8-6.4-9.6-9.6-12.8-8-12.8-9.6-25.6-4.8-38.4 3.2-8 4.8-11.2 19.2-33.6 3.2-4.8 4.8-8 6.4-9.6 11.2-17.6 11.2-25.6 6.4-28.8 0 0-1.6-1.6-3.2-1.6-3.2-1.6-6.4-4.8-12.8-8 0 0-11.2-6.4-14.4-8-40-24-57.6-43.2-57.6-73.6 0-30.4-33.6-65.6-76.8-78.4-16-4.8-27.2-1.6-46.4 8-22.4 11.2-27.2 12.8-40 12.8-8 0-16-1.6-24-6.4-11.2-8-20.8-16-32-30.4-1.6-1.6-6.4-8-8-9.6-9.6-12.8-16-19.2-24-20.8z" fill="#333333" p-id="17340"></path><path d="M652.8 251.2c8 1.6 14.4 9.6 14.4 17.6-1.6 8-9.6 14.4-17.6 14.4-8-1.6-11.2 1.6-12.8 8-1.6 8-1.6 19.2 1.6 30.4 14.4 40-44.8 80-78.4 52.8-6.4-6.4-8-16-1.6-22.4 6.4-6.4 16-8 22.4-1.6 8 6.4 30.4-8 27.2-17.6-4.8-16-6.4-35.2-1.6-49.6 4.8-24 22.4-35.2 46.4-32zM315.2 417.6c8 3.2 12.8 12.8 9.6 20.8-3.2 8-12.8 12.8-20.8 9.6-40-16-41.6-67.2-1.6-78.4 12.8-3.2 20.8 0 33.6 8l1.6 1.6c12.8 8 12.8 8 20.8-3.2 4.8-6.4 16-8 22.4-1.6 6.4 4.8 8 16 1.6 22.4-20.8 25.6-38.4 25.6-62.4 11.2l-1.6-1.6c-6.4-6.4-8-6.4-9.6-6.4-8 1.6-8 11.2 6.4 17.6zM611.2 502.4c3.2-8 12.8-12.8 20.8-9.6s12.8 12.8 9.6 20.8c-1.6 6.4 9.6 14.4 16 8 3.2-1.6 3.2-4.8 6.4-14.4 6.4-28.8 19.2-41.6 54.4-44.8 9.6 0 16 6.4 17.6 14.4 0 9.6-6.4 16-14.4 17.6-19.2 1.6-22.4 4.8-25.6 19.2-3.2 16-6.4 24-17.6 32-33.6 28.8-81.6-6.4-67.2-43.2z" fill="#456C02" p-id="17341"></path><path d="M488 928c75.2 0 136-86.4 136-192 0-70.4-44.8-134.4-136-192-91.2 57.6-136 121.6-136 192 0 105.6 60.8 192 136 192z" fill="#EAF4BF" p-id="17342"></path><path d="M427.2 907.2c9.6 3.2 19.2 4.8 28.8 4.8 75.2 0 136-86.4 136-192 0-62.4-36.8-121.6-108.8-172.8 1.6-1.6 3.2-1.6 4.8-3.2 91.2 57.6 136 121.6 136 192 0 105.6-60.8 192-136 192-22.4 0-43.2-8-60.8-20.8z" fill="#CCDD9C" p-id="17343"></path><path d="M425.6 907.2c-44.8-32-73.6-96-73.6-171.2 0-70.4 44.8-134.4 136-192 36.8 24 65.6 48 88 73.6-16-14.4-35.2-27.2-56-41.6-91.2 57.6-136 121.6-136 192 0 54.4 16 104 41.6 139.2z" fill="#F9FFDF" p-id="17344"></path><path d="M488 944c-84.8 0-152-94.4-152-208 0-76.8 48-145.6 144-204.8l8-4.8 8 4.8c94.4 59.2 144 128 144 204.8 0 113.6-67.2 208-152 208zM368 736c0 97.6 54.4 176 120 176S608 833.6 608 736c0-62.4-40-120-120-172.8-80 52.8-120 110.4-120 172.8z" fill="#333333" p-id="17345"></path></svg>