<?xml version="1.0" standalone="no"?><!DOCTYPE svg PUBLIC "-//W3C//DTD SVG 1.1//EN" "http://www.w3.org/Graphics/SVG/1.1/DTD/svg11.dtd"><svg t="1545203146309" class="icon" style="" viewBox="0 0 1176 1024" version="1.1" xmlns="http://www.w3.org/2000/svg" p-id="31903" xmlns:xlink="http://www.w3.org/1999/xlink" width="73.5" height="64"><defs><style type="text/css"></style></defs><path d="M1062.21611 554.607204c52.55563-42.470631 84.642973-105.793062 86.120212-178.575507 3.210155-159.271967-231.656694-230.108433-231.656694-230.108434S760.617816 102.529358 585.224055 100.853259s-324.978447 45.041595-324.978448 45.041596-230.108433 53.09539-231.656694 230.108433C27.949723 448.856754 62.210312 512.93201 114.723329 555.388437a233.631081 233.631081 0 0 0-86.106007 181.402148c0 127.937448 111.006013 213.560512 231.656694 232.864053 0 0 188.23438 25.738054 337.847474 25.738054s318.543934-25.738054 318.543934-25.738054c123.87504-25.752259 231.656694-105.324323 231.656694-233.275976 0-72.782445-33.607195-139.315032-86.106008-181.771458z" fill="#FF7212" p-id="31904"></path><path d="M598.12149 1024c-149.840362 0-333.955517-24.942618-341.711023-26.007935C132.592243 978.191377 0.010014 888.079778 0.010014 736.804789A260.888987 260.888987 0 0 1 72.451558 555.388437C25.478188 506.881011-0.586563 442.962001 0.010014 375.761816 1.771338 183.109922 232.476349 123.267525 252.759981 118.367068c14.630351-4.460126 160.12422-47.34268 332.762362-46.035891 177.06986 1.619282 332.293623 44.288771 338.813362 46.092708 11.022478 3.309584 256.187389 79.273776 252.579516 258.17598-1.420422 68.66322-26.902801 130.806701-72.540973 178.092565a265.491156 265.491156 0 0 1 72.540973 181.686232c0 153.63289-131.431687 235.704898-254.411861 261.272502-8.522535 1.349401-174.328445 26.348836-324.38187 26.348836zM576.403231 129.488976c-164.769002 0-306.186259 43.351293-307.620885 43.791623l-2.088021 0.553965c-2.031204 0.468739-208.120294 50.382384-209.498104 202.438604-0.553965 60.438974 26.988026 117.625181 75.495452 156.899862L160.191051 555.388437l-27.485174 22.243815c-47.285863 38.237772-75.495452 97.725063-75.495452 159.172537 0 117.767224 107.611203 188.632099 207.594738 204.626055 1.207359 0.170451 187.495761 25.382949 333.316327 25.382949 145.621707 0 312.563955-25.169885 314.240054-25.411357 99.42957-20.723963 207.381675-85.665677 207.381675-205.009569 0-61.688946-28.223794-121.332484-75.495452-159.556052l-27.499379-22.229611 27.499379-22.229611c47.427905-38.351406 74.231276-94.088782 75.495452-156.92827C1122.484634 239.898411 910.500791 173.99081 908.384361 173.294803c-0.90907-0.241472-154.130038-42.271771-323.37337-43.820032z" fill="" p-id="31905"></path><path d="M392.188647 563.371211s250.974439 45.055799 550.200627-3.210155" fill="#FF7212" p-id="31906"></path><path d="M706.769602 610.032087c-137.553708 0-276.86874-20.283632-285.675359-21.604625a28.578899 28.578899 0 0 1 8.380492-56.547017c3.167542 0.426127 318.174624 46.305771 456.282297 1.093726a28.593103 28.593103 0 0 1 17.797893 54.359566c-52.172116 17.045069-124.230146 22.69835-196.785323 22.69835z" fill="#FF601A" p-id="31907"></path><path d="M634.654755 171.732339s-53.976052 129.82661 269.553564 154.07322c0 0-95.381366-237.011686-269.553564-154.07322z" fill="#009245" p-id="31908"></path><path d="M883.924687 352.651543c-1.27838 0-2.570965 0-3.877753-0.184655-247.01146-23.309132-279.723789-113.25028-277.23805-164.769001a55.226024 55.226024 0 0 1 35.411131-48.635264C797.392553 77.231634 894.663081 241.47508 920.68522 293.363111a40.979187 40.979187 0 0 1-36.760533 59.288432z m-224.04323-160.649776c-0.355106 37.470744 51.248841 81.716902 194.92457 100.139781-33.990709-56.646446-100.849992-135.962835-194.92457-100.139781z" fill="" p-id="31909"></path><path d="M604.754863 164.545001s53.976052 129.82661-269.553564 154.073221c0.028408 0 95.381366-237.011686 269.553564-154.073221z" fill="#009245" p-id="31910"></path><path d="M355.513339 345.464206a40.964983 40.964983 0 0 1-36.774736-59.260024C344.774946 234.372968 442.102291 69.973276 601.218011 131.903694a55.197616 55.197616 0 0 1 35.382723 48.578447c2.499943 51.54713-30.226589 141.488278-277.23805 164.769001a38.138342 38.138342 0 0 1-3.849345 0.213064zM532.952509 175.808951c-69.785354 0-120.267167 62.313932-148.348918 109.145259 143.661524-18.465492 195.279675-62.669038 194.92457-100.139781a129.982856 129.982856 0 0 0-46.575652-9.005478z" fill="" p-id="31911"></path><path d="M626.529939 134.091144s-37.342906-89.91274 186.714528-106.716337c0 0-66.092256 164.172424-186.714528 106.716337z" fill="#009245" p-id="31912"></path><path d="M676.798689 174.857268a140.110468 140.110468 0 0 1-51.00737-9.942957 47.101208 47.101208 0 0 1-30.098751-41.433722C593.81761 84.646239 617.311397 17.048336 795.688046 0.173718a37.158251 37.158251 0 0 1 36.817349 53.606742C793.088673 132.32982 737.209254 174.857268 676.798689 174.857268z m-23.209703-60.808284c47.825623 14.275245 84.50093-19.530808 107.454957-51.873827-71.68872 11.775302-102.298823 33.32311-107.454957 51.873827z" fill="" p-id="31913"></path><path d="M605.82018 139.076827s37.342906-89.926944-186.714528-106.730541c0 0 66.063847 164.172424 186.714528 106.730541z" fill="#009245" p-id="31914"></path><path d="M555.579839 179.828746c-60.367953 0-116.27578-42.513243-155.720911-121.062603a37.172455 37.172455 0 0 1 36.803145-53.620947C615.052926 21.991406 638.532508 89.631922 636.657551 128.452067A47.087004 47.087004 0 0 1 606.530391 169.871585a140.195694 140.195694 0 0 1-50.950552 9.957161zM579.542365 125.710652z m-108.236189-58.564017c23.010843 32.286202 59.657742 66.063847 107.454957 51.873827-5.170338-18.550717-35.766237-40.098525-107.454957-51.873827z" fill="" p-id="31915"></path><path d="M506.674694 884.116799a28.593103 28.593103 0 0 1-0.340901-57.186207l9.218541-0.17045 1.420423 57.157798-9.942957 0.184655zM415.952314 882.085595h-1.974387c-129.883427-8.792415-212.537808-43.550152-245.605243-103.378344-33.465152-60.552608-1.761324-120.934766-0.411922-123.463118a28.593103 28.593103 0 0 1 50.467609 26.902801c-0.965887 1.903366-18.238224 36.575878 0.284084 69.387636 16.050773 28.408449 63.634925 64.345136 199.157429 73.492656a28.593103 28.593103 0 0 1-1.91757 57.058369z" fill="#FFFFFF" p-id="31916"></path><path d="M542.128438 502.832807a19.047865 19.047865 0 0 1-19.062069-19.062069 29.189681 29.189681 0 0 0-58.379362 0 19.062069 19.062069 0 1 1-38.124138 0 67.313819 67.313819 0 0 1 134.613434 0A19.047865 19.047865 0 0 1 542.128438 502.832807zM816.937565 492.293272a19.047865 19.047865 0 0 1-19.062069-19.062069 29.189681 29.189681 0 1 0-58.379361 0 19.062069 19.062069 0 0 1-38.124138 0 67.313819 67.313819 0 1 1 134.613433 0 19.047865 19.047865 0 0 1-19.047865 19.062069zM645.520987 713.453044a67.38484 67.38484 0 0 1-67.313819-67.313818 19.062069 19.062069 0 0 1 38.124138 0 29.189681 29.189681 0 1 0 58.379362 0 19.062069 19.062069 0 0 1 38.124138 0 67.38484 67.38484 0 0 1-67.313819 67.313818z" fill="" p-id="31917"></path></svg>