<?xml version="1.0" standalone="no"?><!DOCTYPE svg PUBLIC "-//W3C//DTD SVG 1.1//EN" "http://www.w3.org/Graphics/SVG/1.1/DTD/svg11.dtd"><svg t="1545208764805" class="icon" style="" viewBox="0 0 1024 1024" version="1.1" xmlns="http://www.w3.org/2000/svg" p-id="26944" xmlns:xlink="http://www.w3.org/1999/xlink" width="64" height="64"><defs><style type="text/css"></style></defs><path d="M234.2 708.3c-28.2 0-37.6 11.5-59.6 3.7-21.9-7.8 21.2-35.7 26.3-44.3 5.1-8.6-4.7-38 4.7-52.1 9.4-14.1 35.3-23.1 39.2-34.9s-4.3-32.9 8.2-54.1 38.4-16.5 47.8-29 21.6-30.2 39.6-38.8 43.5-1.2 57.6-10.2c14.1-9 11.8-23.9 47-31.4 35.3-7.4 44.7 17.2 69.8 17.2 25.1 0 46.6-16.1 83.5-8.6 36.8 7.4 34.9 29.8 49 33.7 14.1 3.9 43.1 0.8 72.1 18.8 29 18 29 52.5 47 63.5s63.5 7.8 77.6 29.8c14.1 21.9-7.8 30.2-26.7 33.7-18.8 3.5-96.4 82.3-293.2 114.5-196.6 32.1-289.9-11.5-289.9-11.5z" fill="#EFCA75" p-id="26945"></path><path d="M524.2 719.8c57.9-9.5 105.4-22.9 144.2-37.4 32.1-28.3 59.6-62.4 70.1-98.9 26-90.5-133-111.5-212-111.5s-118.9 10.4-169 60.5c-94 123.5-26.1 49.3 7 27.5 33.1-21.7 82-37 152-46s175 8 150 87.7-163 116.3-265 93.3c0 0-56-12.5-103-0.5-28 8-39.3 15.5-38.9 22.3 39.9 10.8 126.9 25.4 264.6 3z" fill="#ECA35F" p-id="26946"></path><path d="M634.6 677.9s97.3-21.2 106-82.6c4.1-42.3 2.3-102.8-113-102.8-139 0-170 8.5-234 40 0 0 97.4-23.9 176.6-13.2 83.9 11.4 141.1 21 141.1 54.3s-52.7 99.1-76.7 104.3z" fill="#F2954B" p-id="26947"></path><path d="M222.9 661c-0.7 7.3 14.7 18.3 28.7 16.7 17.7-2.1 26.5-23.6 25.3-24.7-1.1-1-10.8 15.7-24.7 15-12.4-0.6-20.5-14.8-26.7-11.3-1.6 0.9-2.5 2.8-2.6 4.3zM270.8 594.6c0.3 7.7 16.6 15.8 30.7 14 20.5-2.7 30.9-25.8 29.9-26.8s-13.3 17.8-26.8 15.5c-10.2-1.8-12.7-14-21.8-13.5-6 0.2-12.2 6-12 10.8zM339.3 536.2c2.3 8.4 21.8 12.1 36.7 7.4 17.5-5.6 26.6-22.3 25.5-23.4-1.1-1.1-12.7 15.2-26.2 13.1-11.2-1.8-13.8-14.6-22.7-14-7.5 0.6-15.1 10.6-13.3 16.9zM426.1 488.8c-0.6 8.8 17.3 20.5 33.8 19 20-1.8 32.3-22.6 31-24.2-1.3-1.6-17.4 15.8-29.8 10.8-8.7-3.5-8-15.1-16.4-17.1-7.7-1.9-18.2 5-18.6 11.5zM542 474.2c-2.8 9.1 12.1 25.5 28.1 26 17 0.5 29.7-17.3 28.3-19.3-1.4-2.1-19.5 11.5-26.9 5.5-5.4-4.4 0.3-14.9-5.2-19.5-6-5.1-21.9-0.5-24.3 7.3zM650.5 516.8c-2 7.7 14.2 22.3 31.3 23.4 16.5 1.1 30-10.4 29.3-12.1-0.7-1.7-15.9 7.4-26.1 0.7-7.7-5.1-5.2-14.4-12.8-18.3-7.6-3.7-20.2 0.4-21.7 6.3zM752.6 587.2c1.7 2.1 12.7 15.2 28.6 14.5 14.9-0.7 25.9-13 24.9-14.8-1.1-2-15.8 9.5-28.3 3.7-8.7-4-10.6-13.7-16.3-13.2-4.1 0.3-7 5.4-8.9 9.8z" fill="" p-id="26948"></path><path d="M387.1 737.5c-27.1 0-55.1-1.6-82.5-5.5-42.6-6.1-66-15.3-71.6-17.7-10.4 0.1-18.2 2-25.1 3.6-10.7 2.5-20.8 4.9-35.2-0.3-7.1-2.5-9.3-6.9-9.9-10.1-2-10 8.4-20.2 23.4-33.5 3.9-3.5 8.8-7.8 9.7-9.4 1.2-2.1 0.6-10.1 0.2-16-0.9-12.4-1.9-26.6 4.7-36.4 5.2-7.8 13.9-13.6 22.3-19.3 6.9-4.7 14.8-10 16.2-14.1 1.1-3.3 0.9-8.2 0.7-14-0.4-11.7-0.9-26.3 8-41.3 8.4-14.1 21.7-18.3 32.4-21.7 6.9-2.2 12.9-4.1 15.8-7.9 0.7-1 1.4-1.9 2.2-2.9 9.1-12.3 21.6-29.1 39.6-37.7 10-4.8 21.3-5.2 32.2-5.5 9.8-0.3 19-0.6 24.8-4.3 3.8-2.4 6.2-5.4 9-8.9 6.3-7.9 14.2-17.8 40-23.2 22.7-4.8 36 2.6 47.7 9.1 7.7 4.3 14.4 8 23.4 8 8.8 0 17.5-2.3 26.8-4.6 15.8-4.1 33.8-8.7 57.9-3.9 25.3 5.1 34.2 17 40.6 25.6 3.6 4.8 5.6 7.3 8.8 8.2 3.6 1 8.7 1.5 14.6 2.1 15.7 1.6 37.3 3.8 59.1 17.4 17.7 11 25.6 27.7 31.9 41.2 4.6 9.9 8.7 18.4 15.1 22.3 6 3.7 16.5 5.7 27.6 7.9 19.6 3.8 41.8 8.1 51.9 23.8 5.6 8.7 6.9 16.6 3.9 23.6-4 9.3-15.3 15.6-34.5 19.2-3.2 0.6-11.5 6-21.1 12.2-38.9 25.1-119.8 77.4-272.2 102.3-37.4 5.9-86.5 11.7-138.4 11.7z m-150.4-34.7c0.2 0.1 23.6 10.8 70.3 17.4 43.2 6.1 115.8 10 216.2-6.4 150-24.5 229.4-75.8 267.6-100.5 12.4-8 19.9-12.9 25.4-13.9 19.3-3.6 24.4-9.2 25.7-12.2 1.3-3.1 0.3-7.2-3-12.4-7.3-11.4-26.9-15.2-44.1-18.5-12.2-2.4-23.7-4.6-31.6-9.4-9.5-5.8-14.5-16.3-19.7-27.4-6.2-13.3-12.7-27-27.4-36.1-19.5-12.1-39.4-14.1-54-15.6-6.4-0.7-12-1.2-16.6-2.5-7.2-2-11.3-7.4-15.2-12.6-5.9-7.9-12.6-16.8-33.4-21-21.4-4.3-37.2-0.2-52.5 3.7-10 2.6-19.4 5-29.8 5-12 0-20.8-4.9-29.2-9.5-10.8-6-21-11.7-39.3-7.8-21.6 4.6-27.2 11.6-33.1 19-3.2 4-6.5 8.1-11.9 11.6-8.6 5.5-19.9 5.8-30.9 6.2-9.7 0.3-19.7 0.6-27.4 4.3-15.3 7.3-26.3 22.1-35.1 34-0.8 1-1.5 2-2.2 3-5.2 6.9-13.6 9.6-21.7 12.1-9.7 3-19.7 6.2-25.7 16.3-7.1 12-6.7 24.1-6.4 34.8 0.2 6.6 0.4 12.9-1.3 18.2-2.7 8.1-11.5 14-20.9 20.3-7.5 5-15.2 10.2-19 16-4.3 6.4-3.4 18.9-2.7 28.9 0.7 9.9 1.3 17.7-1.9 23-1.8 3.1-5.6 6.5-12.1 12.3-4.8 4.3-10.3 9.2-14.4 13.8-4.9 5.6-5.2 7.9-5.2 8.4 0.2 0.2 0.7 0.6 2.2 1.2 11.1 4 18.4 2.3 28.4-0.1 7.8-1.8 16.7-3.9 29.1-3.9h1.3l1.5 0.3z" fill="" p-id="26949"></path><path d="M352.7 624.6c12-0.7 40.4 10.3 75.6-35s67.8-55.7 67.8-55.7-26-13.8-67.4 5.8-106.4 86.8-76 84.9z" fill="#FFFFFF" p-id="26950"></path></svg>