<?xml version="1.0" standalone="no"?><!DOCTYPE svg PUBLIC "-//W3C//DTD SVG 1.1//EN" "http://www.w3.org/Graphics/SVG/1.1/DTD/svg11.dtd"><svg t="1545294237005" class="icon" style="" viewBox="0 0 1024 1024" version="1.1" xmlns="http://www.w3.org/2000/svg" p-id="7577" xmlns:xlink="http://www.w3.org/1999/xlink" width="64" height="64"><defs><style type="text/css"></style></defs><path d="M697.7 863.9H310c-2.5 0-4.8-1.4-5.9-3.7l-200-417.4c-1.6-3.2-0.2-7.1 3.1-8.7 3.2-1.6 7.1-0.2 8.7 3.1l198.2 413.7h379.7L912 437c1.7-3.2 5.6-4.4 8.8-2.7 3.2 1.7 4.4 5.6 2.7 8.8l-220 417.4c-1.1 2.1-3.4 3.4-5.8 3.4z" fill="#35383A" p-id="7578"></path><path d="M513 545c-109.9 0-213.3-12.1-291.1-33.9-38.3-10.8-68.4-23.4-89.6-37.5C108.9 458 97 441 97 423s11.9-35 35.3-50.6c21.2-14.1 51.4-26.7 89.6-37.5C299.7 313.1 403.1 301 513 301s213.3 12.1 291.1 33.9c38.3 10.8 68.4 23.4 89.6 37.5C917.1 388 929 405 929 423s-11.9 35-35.3 50.6c-21.2 14.1-51.4 26.7-89.6 37.5C726.3 532.9 622.9 545 513 545z m0-230c-108.6 0-210.7 11.9-287.3 33.4C152.8 368.9 111 396.1 111 423s41.8 54.1 114.7 74.6C302.3 519.1 404.4 531 513 531s210.7-11.9 287.3-33.4c72.9-20.5 114.7-47.7 114.7-74.6s-41.8-54.1-114.7-74.6C723.7 326.9 621.6 315 513 315z" fill="#35383A" p-id="7579"></path><path d="M513 534c-109.6 0-212.7-12-290.3-33.8C143.6 477.9 100 447.7 100 415s43.6-62.9 122.7-85.2C300.3 308 403.4 296 513 296s212.7 12 290.3 33.8C882.4 352 926 382.3 926 415s-43.6 62.9-122.7 85.2C725.7 522 622.6 534 513 534z m0-230c-108.9 0-211.2 11.9-288.1 33.5C150.6 358.4 108 386.7 108 415s42.6 56.6 116.9 77.5C301.8 514.1 404.1 526 513 526c108.9 0 211.2-11.9 288.1-33.5 74.3-20.9 116.9-49.1 116.9-77.5s-42.6-56.6-116.9-77.5C724.2 315.9 621.9 304 513 304z" fill="#838689" p-id="7580"></path><path d="M306 850a197 50 0 1 0 394 0 197 50 0 1 0-394 0Z" fill="#FFFFFF" p-id="7581"></path><path d="M503 907c-53.2 0-103.3-5.3-141-14.9-41.8-10.6-63-24.8-63-42.1s21.2-31.5 63-42.1c37.8-9.6 87.8-14.9 141-14.9s103.3 5.3 141 14.9c41.8 10.6 63 24.8 63 42.1s-21.2 31.5-63 42.1c-37.7 9.6-87.8 14.9-141 14.9z m0-100c-52.1 0-100.9 5.1-137.6 14.4C326.7 831.2 313 843 313 850s13.7 18.8 52.4 28.6c36.7 9.3 85.5 14.4 137.6 14.4s100.9-5.1 137.6-14.4C679.3 868.8 693 857 693 850s-13.7-18.8-52.4-28.6C603.9 812.1 555.1 807 503 807z" fill="#35383A" p-id="7582"></path><path d="M503 893.5c-52.9 0-102.7-5.2-140.2-14.8-49.9-12.7-60.3-28.1-60.3-38.7s10.5-26.1 60.3-38.7c37.5-9.5 87.3-14.8 140.2-14.8 52.9 0 102.7 5.2 140.2 14.8 49.9 12.7 60.3 28.1 60.3 38.7s-10.5 26.1-60.3 38.7c-37.5 9.6-87.3 14.8-140.2 14.8z m0-100c-52.3 0-101.5 5.2-138.4 14.5-34.5 8.8-55.1 20.7-55.1 32s20.6 23.2 55.1 32c36.9 9.4 86.1 14.5 138.4 14.5s101.5-5.2 138.4-14.5c34.5-8.8 55.1-20.7 55.1-32s-20.6-23.2-55.1-32c-36.9-9.3-86.1-14.5-138.4-14.5z" fill="#5D5F61" p-id="7583"></path><path d="M430 573.1c1.9 12.7-11 30.2-19.9 46.3h363.3c17.9-12.2 54.2-18.9 57.1-37 3.5-21.7-44.5-43.4-47.8-64.1-3.3-21.4 35.9-56.6 26.4-75.6-9.6-19.1-61.2-8.4-76.1-23.5-14.8-15-3.6-66.9-22.8-76.8-18.4-9.6-53.7 29.6-75.4 26.1-21.6-3.5-42.7-51.9-63.2-48.7-21.3 3.3-27 56-45.7 65.6-19 9.7-64.4-17-79.6-1.9-14.9 14.9 11.1 60.8 1.2 80.1-9.5 18.5-62 23.7-65.5 45.6-3.2 21.6 44.9 43.3 48 63.9z" fill="#97CE4B" p-id="7584"></path><path d="M815.3 537c-6.7-6.1-18.2-16.1-18.9-20.6-0.7-5.1 7-18.1 12.2-26.8 10.6-17.7 21.4-36.1 12.9-53-8.5-17.1-30.8-19.3-50.4-21.2-9.9-1-24.8-2.4-28.2-5.9-3.4-3.4-4.7-18.9-5.4-28.1-1.7-19.9-3.6-42.4-20.7-51.3-16.5-8.6-34.7 2.2-52.3 12.5-8.8 5.2-21.9 13-27.2 12.1-5.3-0.8-15.3-12.5-22-20.2-13.4-15.4-27.2-31.4-45.5-28.5-19 2.9-27.9 23.7-35.9 42-3.6 8.5-9.9 22.8-14.1 24.8-4.3 2.2-18.9-1.2-28.7-3.4-19.1-4.5-40.9-9.5-54.4 4-13.4 13.3-8.8 34.2-4.5 54.4 2.2 9.8 5.4 24.7 3 29.2-2 4-16 9.9-24.4 13.6-18.4 7.9-39.2 16.7-42.4 36.1-3.1 19.4 13.8 34.4 28.9 47.7 6.7 6.1 18.2 16.1 18.9 20.6 0.7 5.1-7 18.2-12.2 26.8-2.2 3.5-4.2 7.1-6.1 10.7-2.4 4.4-2.3 9.6 0.1 13.8 2.5 4.2 7 6.9 11.9 6.9h117.6c7.7 0 13.8-6.4 13.7-14.2v-0.4c-0.2-7.5-6.3-13.4-13.7-13.4h-72.4c-9.3 0-15.7-9-13-17.8 1.7-5.6 2.4-11.1 1.6-16.6-2.2-14.4-15.3-26.1-27.9-37.3-6.1-5.5-20.5-18.3-19.9-22.4 0.7-4.1 18.3-11.6 25.9-14.9 15.5-6.7 31.5-13.4 38.3-26.4 6.9-13.4 3-31-0.6-48-0.7-3.3-1.7-7.5-2.4-11.8-1.7-9.6 6.6-17.8 16-16 4.5 0.8 8.8 1.8 11.9 2.5 16.7 3.9 34.1 7.9 47.3 1.1 13.1-6.7 20.2-22.9 27-38.7 1.3-3 3.1-7.3 5.1-11.4 4.2-8.7 15.8-10.5 22.4-3.4 2.8 3 5.5 6.2 7.6 8.6 11.4 13.2 23.4 26.9 38.4 29.4 15 2.4 30.7-6.7 45.7-15.6 2.8-1.6 6.3-3.8 9.9-5.7 8.4-4.6 18.9 0.7 20.1 10.4 0.6 4.6 1 9.2 1.2 12.5 1.4 17.1 3 34.8 13.4 45.3 10.5 10.7 28.2 12.4 45.3 14.1 3.1 0.4 7.7 0.7 12.2 1.3 9.6 1.3 14.9 11.9 10.2 20.4-2 3.8-4.3 7.5-6 10.4-8.9 14.9-18.1 30.3-15.8 45.3 2.2 14.4 15.3 26.1 27.9 37.3 6.1 5.5 20.5 18.3 19.9 22.4-0.7 4.1-18.3 11.8-25.9 14.9-6.3 2.7-12.6 5.5-18.4 8.6-2 1.1-4.2 1.7-6.5 1.7h-7.3c-7.6 0-13.7 6.2-13.7 13.8v0.5c0 7.5 6.1 13.7 13.7 13.7h10.8c4.9 0 9.8-1.3 14-3.8 4.9-2.9 11.8-5.8 18.3-8.7 18.4-7.9 39.2-16.7 42.4-36.1 3.1-19.3-13.8-34.5-28.9-47.8z" fill="#35383A" p-id="7585"></path><path d="M864.8 264.2c62.4 74.4 52.7 185.2-21.6 247.6-74.4 62.4-185.2 52.7-247.6-21.7l-18.8-22.4c-34.7-41.3-29.3-102.9 12-137.6 24.5-20.6 56.1-26.9 85.1-20.1-1.6-29.7 10.1-59.7 34.6-80.3 41.3-34.7 102.9-29.3 137.6 12.1l18.7 22.4z" fill="#FF1D25" p-id="7586"></path><path d="M730.4 559.3c-52.1 0-103.8-22.1-139.8-65l-18.8-22.4c-17.9-21.3-26.4-48.3-24-76 2.4-27.7 15.5-52.8 36.8-70.7 23.2-19.5 52.9-27.7 82.6-23.1 0.6-30.1 13.9-57.9 37-77.3 21.3-17.9 48.3-26.4 76-24 27.7 2.4 52.8 15.5 70.7 36.8L869.8 260c64.6 77 54.5 192.2-22.4 256.8-34.1 28.6-75.7 42.5-117 42.5zM651.1 313.8c-21.1 0-41.6 7.3-58.2 21.3-18.7 15.6-30.1 37.6-32.2 61.9-2.1 24.2 5.3 47.9 21 66.5l18.8 22.4c33.4 39.9 81.5 60.4 129.8 60.4 38.4 0 77-13 108.6-39.5 71.5-60 80.8-166.9 20.8-238.5L841 245.9c-15.7-18.7-37.6-30.1-61.9-32.2-24.2-2.1-47.9 5.3-66.5 21-22.1 18.6-33.9 45.9-32.3 74.9l0.5 8.7-8.4-2c-7.2-1.7-14.3-2.5-21.3-2.5z" fill="#35383A" p-id="7587"></path><path d="M796.5 486.6l-31.1-37.1c-6.9-8.3-19.3-9.3-27.5-2.4-8.3 6.9-20.6 5.9-27.5-2.4l-12.6-15c-6.9-8.3-5.9-20.6 2.4-27.5 8.3-6.9 9.3-19.3 2.4-27.5l-6.3-7.5c-21.2-25.2-59.1-28.1-83.9-6-23.9 21.4-24.9 58.7-4.3 83.3 0 0 64.2 108.5 182.4 65.4 9.6-3.5 12.5-15.6 6-23.3z" fill="#FF4A51" p-id="7588"></path><path d="M624.2 431c-19.8-23.6-19.6-59 1.7-80.7-2 1.4-4 2.9-5.9 4.6-23.9 21.4-24.9 58.7-4.3 83.3 0 0 64.2 108.5 182.4 65.4 3.6-1.3 6.2-3.8 7.8-6.9C688.1 539 624.2 431 624.2 431z" fill="#FF1D25" p-id="7589"></path><path d="M826.4 461.5l-31.1-37.1c-6.9-8.3-5.9-20.6 2.4-27.5 8.3-6.9 9.3-19.3 2.4-27.5l-12.6-15c-6.9-8.3-19.3-9.3-27.5-2.4s-20.6 5.9-27.5-2.4l-6.3-7.5C705 316.9 708.8 279 734.8 258.4c25.2-19.9 62.1-14.3 82.7 10.2 0 0 95.7 82 32.7 191-4.9 8.8-17.3 9.6-23.8 1.9z" fill="#FF4A51" p-id="7590"></path><path d="M654.2 390l-19.4-2.6 2.5-18.8 19.4 2.6-2.5 18.8z m7.4 37.6l-18.6 5.9-5.7-18.1 18.6-5.9 5.7 18.1z m8.3 44.1l-12.8-14 14.4-13.2 12.8 14-14.4 13.2z m40.4 23.3l-17.5-7.3 7.5-18 17.5 7.3-7.5 18z m46.4 4l-18.9 0.8-0.8-19.5 18.9-0.8 0.8 19.5z m88.7-74.4l-19.1-4.2 4.1-18.5 19.1 4.2-4.1 18.5z m4.2-46.5l-19.1 4.2-4.1-18.5 19.1-4.2 4.1 18.5z m-15.9-43.8l-15.5 11.9-11.5-15 15.5-11.9 11.5 15z m-42.1-15.8l-16.8-8.8 9-17.3 16.8 8.8-9 17.3zM756 304.7l-19-0.8 0.9-19.5 18.9 0.8-0.8 19.5z" fill="#FFFFFF" p-id="7591"></path><path d="M794.6 613.7c5 8.7-28.8 35.3-28.9 45.8-0.2 10.9 33.1 13.2 28 25.1-5.2 12.1-45 25.2-54.6 37.3-9.5 12 4.5 31.7-8.8 42.9-12.8 10.8-43.5 5.3-59.5 14.5-15.8 9.1-26.5 38.5-42.3 44.3-16.3 5.9-26.3-16.1-41.5-13.9-15.3 2.2-46.6 30.2-59.6 28.7-12.9-1.6 1.7-31.5-7.7-36.8-9.1-5.1-49.1 10.8-54.1 2.2s28.8-35.3 28.9-45.8c0.2-10.9-33.1-13.2-28-25.1 5.2-12.1 45-25.2 54.6-37.3 9.5-12-4.5-31.7 8.8-42.9 12.8-10.8 43.5-5.3 59.5-14.5 15.8-9.1 26.5-38.5 42.3-44.3C648 588 658 610 673.2 607.8c15.3-2.2 46.6-30.2 59.6-28.7 12.9 1.6-1.7 31.5 7.7 36.8 9.1 5.1 49.1-10.8 54.1-2.2z" fill="#97CE4B" p-id="7592"></path><path d="M528.4 845.5c-0.6 0-1.3 0-1.9-0.1-3-0.4-10-2.3-11.5-12.2-0.6-4.3-0.1-9.3 0.4-14.1 0.4-3.5 1-9.2 0.4-11.4-3.6-0.6-14.1 1.4-20.5 2.7-16.4 3.2-30.6 6-35.8-3-5.2-9 4.3-19.9 15.3-32.6 4.3-4.9 11.3-13 12.6-16.4-1.6-1.6-6.8-4-10.1-5.4-4.4-2-9-4-12.4-6.7-7.9-6.2-6-13.3-4.8-16.1 3.7-8.7 16.5-15.5 31.3-23.3 9.7-5.2 20.8-11 24.3-15.5 2.7-3.4 2.2-8.8 1.7-15.1-0.8-9.1-1.8-20.5 8.1-28.8 8.4-7.1 21.5-8.4 34.3-9.6 9.8-1 20-2 26.3-5.6 6.2-3.6 12.1-11.8 17.8-19.8 7.5-10.4 15.2-21.2 25.6-25 12.2-4.4 21.5 2.2 29 7.4 5.1 3.6 9.6 6.7 13.9 6.1 5.7-0.8 16.3-7.4 25.6-13.3 14.2-8.9 26.4-16.5 35.9-15.4 3 0.4 10 2.3 11.5 12.2 0.6 4.3 0.1 9.3-0.4 14.1-0.4 3.5-1 9.2-0.4 11.4 3.6 0.6 14.1-1.4 20.5-2.7 16.4-3.2 30.6-6 35.8 3 5.2 9-4.3 19.9-15.3 32.6-4.3 4.9-11.3 13-12.6 16.4 1.6 1.6 6.8 4 10.1 5.4 4.4 2 9 4 12.4 6.7 7.9 6.2 6 13.3 4.8 16.1-3.7 8.7-16.5 15.5-31.3 23.3-9.7 5.2-20.8 11-24.3 15.5-2.7 3.4-2.2 8.8-1.7 15.1 0.8 9.1 1.8 20.5-8.1 28.8-8.4 7.1-21.5 8.4-34.3 9.6-9.8 1-20 2-26.3 5.6-6.2 3.6-12.1 11.8-17.8 19.8-7.5 10.4-15.2 21.2-25.6 25-12.2 4.4-21.5-2.2-29-7.4-5.1-3.6-9.6-6.7-13.9-6.1-5.7 0.8-16.3 7.4-25.6 13.3-13.3 8.2-24.9 15.5-34 15.5z m-14.4-52c3.6 0 6.6 0.6 9.1 1.9 8.4 4.8 7.3 15.5 6.3 25-0.4 3.4-0.9 8.7-0.4 11 5.1-0.3 17.6-8.1 26.1-13.4 11.5-7.2 22.4-14 31-15.3 9.8-1.4 17.3 3.8 23.9 8.5 6.9 4.9 11.1 7.5 16.2 5.7 6.3-2.3 12.8-11.3 19-20 6.6-9.2 13.4-18.7 22.2-23.8 8.8-5.1 20.6-6.3 31.9-7.4 10.6-1 21.5-2.1 26.6-6.4 4.1-3.5 3.9-8.4 3.2-16.9-0.7-8.1-1.5-17.2 4.6-25 5.4-6.8 16.7-12.8 28.7-19.2 8.8-4.7 21.8-11.6 24.6-15.9-1.8-1.6-6.6-3.7-9.7-5.1-8.8-3.9-18.7-8.3-18.5-18.1 0.1-7 6.2-14.3 16.1-25.8 3.6-4.2 9.8-11.3 12.3-15.5-4.9 0-14.1 1.8-19.6 2.9-14.9 2.9-24.3 4.5-30.4 1.1-8.4-4.8-7.3-15.5-6.3-25 0.4-3.4 0.9-8.7 0.4-11-5.1 0.3-17.6 8.1-26.1 13.4-11.5 7.2-22.4 14-31 15.3-9.8 1.4-17.3-3.8-23.9-8.5-6.9-4.9-11.1-7.5-16.2-5.7-6.3 2.3-12.8 11.3-19 20-6.6 9.2-13.4 18.7-22.2 23.8-8.8 5.1-20.6 6.3-31.9 7.4-10.6 1-21.5 2.1-26.6 6.4-4.1 3.5-3.9 8.4-3.2 16.9 0.7 8.1 1.5 17.2-4.6 25-5.4 6.8-16.7 12.8-28.7 19.2-8.8 4.7-21.8 11.6-24.6 15.9 1.8 1.6 6.6 3.7 9.7 5.1 8.8 3.9 18.7 8.3 18.5 18.1-0.1 7-6.2 14.3-16.1 25.8-3.6 4.2-9.8 11.3-12.3 15.5 4.9 0 14.1-1.8 19.6-2.9 8.8-1.7 15.8-3 21.3-3z" fill="#35383A" p-id="7593"></path><path d="M590 657c0 10-42.6 16.2-47.9 25.2-5.6 9.3 22.1 28 11.7 35.8-10.5 7.9-51.6-0.7-66 5-14.3 5.7-12 29.7-29 32.8-16.5 2.9-40.4-17.2-58.8-17.2-18.3 0-42.2 20.1-58.8 17.2-17.1-3.1-14.8-27.1-29-32.8-14.4-5.7-55.5 2.9-66-5-10.4-7.8 17.2-26.4 11.7-35.8-5.4-9-47.9-15.2-47.9-25.2s42.6-16.2 47.9-25.2c5.6-9.3-22.1-28-11.7-35.8 10.5-7.9 51.6 0.7 66-5 14.3-5.7 12-29.7 29-32.8 16.5-2.9 40.4 17.2 58.8 17.2 18.3 0 42.2-20.1 58.8-17.2 17.1 3.1 14.8 27.1 29 32.8 14.4 5.7 55.5-2.9 66 5 10.4 7.8-17.2 26.4-11.7 35.8 5.3 9 47.9 15.2 47.9 25.2z" fill="#97CE4B" p-id="7594"></path><path d="M344.7 763c-1.6 0-3.1-0.1-4.7-0.4-12.8-2.3-17.6-12.6-21.4-20.9-2.7-5.7-4.9-10.6-9-12.2-5.3-2.1-17.8-1.7-28.8-1.3-16.7 0.6-31.2 1.1-38.8-4.6-2.4-1.8-7.6-7-3.9-16.4 1.6-4.1 4.6-8.1 7.4-12 2.1-2.9 5.4-7.5 6-9.7-2.8-2.3-12.9-5.8-19.1-7.9-15.8-5.4-29.5-10.2-29.5-20.6s13.7-15.1 29.5-20.6c6.2-2.1 16.3-5.6 19.1-8-0.6-2.2-3.9-6.9-6-9.7-2.8-3.9-5.8-8-7.4-12-3.7-9.4 1.5-14.5 3.9-16.3 7.6-5.7 22-5.2 38.7-4.6 11 0.4 23.5 0.8 28.8-1.3 4-1.6 6.3-6.5 9-12.2 3.9-8.3 8.7-18.6 21.4-20.9 10.8-1.9 22.9 3.5 34.5 8.8 9 4.1 18.3 8.3 25.5 8.3 7.1 0 16.4-4.2 25.3-8.3 11.7-5.3 23.7-10.7 34.6-8.8 12.8 2.3 17.6 12.6 21.4 20.9 2.7 5.7 4.9 10.6 9 12.2 5.3 2.1 17.8 1.7 28.8 1.3 16.7-0.6 31.2-1.1 38.8 4.6 2.4 1.8 7.6 7 3.9 16.4-1.6 4.1-4.6 8.1-7.4 12-2.1 2.9-5.4 7.5-6 9.7 2.8 2.3 12.9 5.8 19.1 7.9 15.8 5.4 29.5 10.2 29.5 20.6s-13.7 15.1-29.5 20.6c-6.2 2.1-16.3 5.6-19.1 8 0.6 2.2 3.9 6.9 6 9.7 2.8 3.9 5.8 8 7.4 12 3.7 9.4-1.5 14.5-3.9 16.3-7.6 5.7-22 5.2-38.7 4.6-11-0.4-23.5-0.8-28.8 1.3-4 1.6-6.3 6.5-9 12.2-3.9 8.3-8.7 18.6-21.4 20.9-10.8 1.9-22.9-3.5-34.5-8.8-9-4.1-18.3-8.3-25.5-8.3-7.1 0-16.4 4.2-25.3 8.3-10 4.5-20.3 9.2-29.9 9.2z m-50.4-49.2c8.1 0 15.3 0.5 20.5 2.6 9.2 3.6 13.1 12 16.5 19.3 3.6 7.7 5.9 12.1 11.2 13 6.6 1.2 16.7-3.4 26.4-7.8 10.3-4.7 21-9.5 31.1-9.5 10.2 0 20.9 4.9 31.3 9.5 9.7 4.4 19.7 8.9 26.2 7.7 5.3-1 7.6-5.4 11.2-13 3.4-7.4 7.3-15.7 16.5-19.3 8.1-3.2 20.9-2.8 34.5-2.3 9.9 0.3 24.7 0.9 29.2-1.4-0.8-2.2-3.9-6.5-5.9-9.2-5.6-7.8-12-16.6-7-24.9 3.6-6 12.5-9.3 26.9-14.2 5.3-1.8 14.2-4.9 18.4-7.3-4.2-2.4-13.2-5.5-18.4-7.3-14.3-4.9-23.3-8.3-26.9-14.3-4.9-8.3 1.4-17.1 7-24.8 2-2.7 5.1-7.1 5.9-9.3-4.6-2.3-19.3-1.8-29.3-1.4-13.6 0.5-26.4 0.9-34.5-2.3-9.2-3.6-13.1-12-16.5-19.3-3.6-7.7-5.9-12.1-11.2-13-6.6-1.2-16.7 3.4-26.4 7.8-10.3 4.7-21 9.5-31.1 9.5-10.2 0-20.9-4.9-31.3-9.5-9.7-4.4-19.7-8.9-26.2-7.7-5.3 1-7.6 5.4-11.2 13-3.4 7.4-7.3 15.7-16.5 19.3-8.1 3.2-20.9 2.8-34.5 2.3-9.9-0.3-24.7-0.9-29.2 1.4 0.8 2.2 3.9 6.5 5.9 9.2 5.6 7.8 12 16.6 7 24.9-3.6 6-12.5 9.3-26.9 14.2-5.3 1.8-14.2 4.9-18.4 7.3 4.2 2.4 13.2 5.5 18.4 7.3 14.3 4.9 23.3 8.3 26.9 14.3 4.9 8.3-1.4 17.1-7 24.8-2 2.7-5.1 7.1-5.9 9.3 4.6 2.3 19.3 1.8 29.3 1.4 4.8-0.1 9.5-0.3 14-0.3z" fill="#35383A" p-id="7595"></path><path d="M604 424c0 16.8-42.6 27.1-47.9 42.2-5.6 15.6 22.1 47 11.7 60-10.5 13.2-51.6-1.2-66 8.4-14.3 9.5-12 49.8-29 54.9-16.5 4.9-40.4-28.8-58.8-28.8-18.3 0-42.2 33.7-58.8 28.8-17.1-5.1-14.8-45.5-29-54.9-14.4-9.6-55.5 4.8-66-8.4-10.4-13.1 17.2-44.3 11.7-60-5.4-15.1-47.9-25.5-47.9-42.2s42.6-27.1 47.9-42.2c5.6-15.6-22.1-47-11.7-60 10.5-13.2 51.6 1.2 66-8.4 14.3-9.5 12-49.8 29-54.9 16.5-4.9 40.4 28.8 58.8 28.8 18.3 0 42.2-33.7 58.8-28.8 17.1 5.1 14.8 45.5 29 54.9 14.4 9.6 55.5-4.8 66 8.4 10.4 13.1-17.2 44.3-11.7 60 5.3 15.1 47.9 25.4 47.9 42.2z" fill="#97CE4B" p-id="7596"></path><path d="M469.3 634c-13 0-25.1-10-36-19-5.5-4.5-15.6-12.9-19.3-13-3.7 0.1-13.9 8.5-19.3 13-12.9 10.7-27.7 22.9-43.8 17.6-16.6-5.4-21.3-24.2-25.6-40.9-1.8-6.9-4.8-18.6-7.4-20.9-2.9-1.8-15.1-1-22.4-0.6-17.1 1.1-36.4 2.3-46.6-11.6-10.1-13.8-2.9-31.6 3.3-47.5 2.6-6.5 7.3-18.4 6.3-21.9-1.3-3-11.3-9.3-17.3-13-14.7-9.3-31.3-19.7-31.3-37.4s16.7-28.1 31.3-37.4c6-3.8 16-10 17.3-13.1 0.9-3.4-3.9-15.3-6.5-21.8-6.2-15.8-13.4-33.7-3.3-47.5 10.1-13.9 29.5-12.7 46.6-11.6 7.3 0.5 19.5 1.2 22.6-0.6 2.6-2.3 5.5-13.9 7.3-20.8 4.3-16.7 9-35.5 25.6-40.9C367 240 381.6 252.2 394.7 262.9c5.5 4.5 15.6 12.9 19.3 13 3.7-0.1 13.8-8.5 19.3-13C446.1 252.2 460.9 240 477 245.3c16.6 5.4 21.3 24.2 25.6 40.9 1.8 6.9 4.8 18.6 7.4 20.9 2.9 1.8 15.1 1 22.4 0.6 17.1-1.1 36.4-2.3 46.6 11.6 10.1 13.9 2.9 31.6-3.3 47.5-2.6 6.5-7.3 18.4-6.3 21.9 1.3 3 11.3 9.3 17.3 13 14.6 9.3 31.3 19.7 31.3 37.4s-16.7 28.1-31.3 37.4c-6 3.8-16 10-17.3 13.1-0.9 3.4 3.9 15.3 6.5 21.8 6.2 15.8 13.4 33.7 3.3 47.5-10.1 13.9-29.5 12.7-46.6 11.6-7.3-0.5-19.5-1.2-22.6 0.6-2.6 2.3-5.5 13.9-7.3 20.8-4.3 16.7-9 35.5-25.6 40.9-2.7 0.8-5.3 1.2-7.8 1.2z m-55.2-60c13.7 0 25.6 9.9 37.2 19.5 5.1 4.3 13.5 11.2 17.4 12.3 2.2-2.7 5.1-14.5 6.8-20.9 3.7-14.2 7.3-28.8 18-36.6 10.8-7.8 26.1-6.8 40.8-6 6.7 0.5 17.8 1.1 21.8-0.2 0-4.3-3.9-14.2-6.5-20.4-5.5-13.8-11.1-28.1-6.9-40.9 4-12.4 16.7-20.3 29-28.1 5.6-3.5 16-10 18-13.6-2.1-3.7-12.4-10.1-18-13.6-12.3-7.8-25-15.7-29-28.1-4.1-12.8 1.5-27 6.9-40.9 2.4-6.2 6.5-16.3 6.5-20.4-4-1.5-15-0.7-21.7-0.2-14.7 1-30 1.9-40.8-6-10.7-7.8-14.4-22.5-18-36.6-1.6-6.2-4.4-17.3-7.1-20.8-4 1.3-12.2 8-17.2 12.3-11.6 9.6-23.5 19.5-37.2 19.5s-25.6-9.9-37.2-19.5c-5.1-4.3-13.5-11.2-17.4-12.3-2.2 2.7-5.1 14.5-6.8 20.8-3.7 14.2-7.3 28.8-18 36.6s-26.1 6.8-40.8 6c-6.7-0.5-17.8-1.1-21.8 0.2 0 4.3 3.9 14.2 6.5 20.4 5.5 13.8 11.1 28.1 6.9 40.9-4 12.4-16.7 20.3-29 28.1-5.6 3.5-16 10-18 13.6 2.1 3.7 12.4 10.1 18 13.6 12.3 7.8 25 15.7 29 28.1 4.1 12.8-1.5 27-6.9 40.8-2.4 6.2-6.5 16.3-6.5 20.4 4 1.3 15 0.7 21.7 0.2 14.7-1 30-1.9 40.8 6 10.7 7.8 14.4 22.4 18 36.6 1.6 6.2 4.4 17.4 7.1 20.8 4-1.3 12.1-8 17.2-12.3 11.6-9.3 23.5-19.3 37.2-19.3z" fill="#35383A" p-id="7597"></path><path d="M554 654c0 28.7 23.3 52 52 52s52-23.3 52-52-23.3-52-52-52-52 23.3-52 52z" fill="#F85207" p-id="7598"></path><path d="M606 716c-34.2 0-62-27.8-62-62s27.8-62 62-62 62 27.8 62 62-27.8 62-62 62z m0-104.1c-23.2 0-42 18.9-42 42.1s18.9 42.1 42 42.1 42.1-18.9 42.1-42.1-18.9-42.1-42.1-42.1z" fill="#333333" p-id="7599"></path><path d="M666 759c0 14-30.7 22.7-34.6 35.3-4 13.1 15.9 39.4 8.4 50.2-7.6 11-37.2-1-47.6 7-10.3 7.9-8.6 41.7-20.9 46-11.9 4.1-29.1-24.1-42.4-24.1-13.2 0-30.4 28.2-42.4 24.1-12.3-4.3-10.6-38.1-20.9-46-10.4-8-40 4-47.6-7-7.5-10.9 12.4-37.1 8.4-50.2C422.7 781.7 392 773 392 759s30.7-22.7 34.6-35.3c4-13.1-15.9-39.4-8.4-50.2 7.6-11 37.2 1 47.6-7 10.3-7.9 8.6-41.7 20.9-46 11.9-4.1 29.1 24.1 42.4 24.1 13.2 0 30.4-28.2 42.4-24.1 12.3 4.3 10.6 38.1 20.9 46 10.4 8 40-4 47.6 7 7.5 10.9-12.4 37.1-8.4 50.2C635.3 736.3 666 745 666 759z" fill="#97CE4B" p-id="7600"></path><path d="M489.2 906c-1.7 0-3.4-0.3-5.2-0.9-10.8-3.8-13.9-16.9-16.9-29.6-1.5-6.3-3.8-15.7-6.3-17.7-2.4-1.9-11.4-1.3-17.4-0.9-11.8 0.8-25.3 1.7-31.9-8-6.3-9.3-1.7-21.6 2.7-33.5 2.4-6.5 5.7-15.4 4.7-18.9-0.9-3-8.2-7.9-13.5-11.4-10-6.7-21.4-14.4-21.4-26.2s11.4-19.5 21.4-26.2c5.3-3.5 12.5-8.4 13.5-11.5 1.1-3.5-2.2-12.5-4.7-19-4.4-11.9-9-24.2-2.7-33.4 6.6-9.7 20-8.7 31.9-7.9 6 0.4 15 1 17.4-0.9 2.5-2 4.8-11.4 6.3-17.7 3-12.7 6.2-25.8 16.9-29.5 10.7-3.7 20.4 4.9 29.8 13.2 4.8 4.2 12 10.5 15.2 10.5 3.2 0 10.3-6.3 15.1-10.5 9.4-8.3 19.2-16.9 29.9-13.2 10.8 3.8 13.9 16.9 16.9 29.6 1.5 6.3 3.8 15.7 6.3 17.7 2.4 1.9 11.4 1.3 17.4 0.9 11.8-0.8 25.3-1.7 31.9 8 6.3 9.3 1.7 21.6-2.7 33.5-2.4 6.5-5.7 15.4-4.7 18.9 0.9 3 8.2 7.9 13.5 11.4 10 6.7 21.4 14.4 21.4 26.2s-11.4 19.5-21.4 26.2c-5.3 3.5-12.5 8.4-13.5 11.5-1.1 3.5 2.2 12.5 4.7 19 4.4 11.9 9 24.2 2.7 33.4-6.6 9.7-20 8.7-31.9 7.9-6-0.4-15-1-17.4 0.9-2.5 2-4.8 11.4-6.3 17.7-3 12.7-6.2 25.8-16.9 29.5-10.7 3.7-20.4-4.9-29.8-13.2-4.8-4.2-12-10.5-15.2-10.5-3.2 0-10.3 6.3-15.1 10.5-7.9 7-16 14.1-24.7 14.1z m0-16c2.7 0 10.2-6.5 14.2-10.1 8.1-7.1 16.4-14.5 25.6-14.5 9.3 0 17.7 7.4 25.8 14.5 4 3.5 11.4 10 14 10 2.5-1.3 5.2-12.6 6.5-18.1 2.6-10.9 5.1-21.2 12.1-26.6 7.2-5.6 17.9-4.9 28.3-4.2 5.2 0.4 16.1 1.1 17.6-1 1.6-2.4-2.5-13.4-4.5-18.8-3.8-10.1-7.7-20.5-5-29.3 2.6-8.5 11.4-14.4 19.9-20.1 5.4-3.6 14.3-9.6 14.3-12.9s-9-9.3-14.3-12.9c-8.5-5.7-17.3-11.6-19.9-20.1-2.6-8.7 1.2-19.1 5-29.1 2-5.4 6.2-16.5 4.5-18.9-1.5-2.1-12.4-1.4-17.6-1-10.3 0.7-21 1.4-28.3-4.2-7-5.4-9.4-15.7-12.1-26.6-1.3-5.5-4-16.8-6.5-18.1-2.7 0-10.1 6.5-14.2 10.1-8.1 7.1-16.4 14.5-25.6 14.5-9.3 0-17.7-7.4-25.8-14.5-4-3.5-11.4-10-14-10-2.5 1.3-5.2 12.6-6.5 18.1-2.6 10.9-5.1 21.2-12.1 26.6-7.2 5.6-17.9 4.9-28.3 4.2-5.2-0.4-16.1-1.1-17.6 1-1.6 2.4 2.5 13.4 4.5 18.8 3.8 10.1 7.7 20.5 5 29.3-2.6 8.5-11.4 14.4-19.9 20.1-5.4 3.6-14.3 9.6-14.3 12.9s9 9.3 14.3 12.9c8.5 5.7 17.3 11.6 19.9 20.1 2.6 8.7-1.2 19.1-5 29.1-2 5.4-6.2 16.5-4.5 18.9 1.5 2.1 12.4 1.4 17.6 1 10.3-0.7 21-1.4 28.3 4.2 7 5.4 9.4 15.7 12.1 26.6 1.2 5.4 4 16.8 6.5 18.1z" fill="#35383A" p-id="7601"></path><path d="M584 714l120 119.9c-32.8 32.8-84.9 34.7-120 5.6V714z" fill="#FFDE50" p-id="7602"></path><path d="M572 712.3v126.4c0 2.5 1.1 4.9 3.1 6.5 39.4 32.5 96.4 29.9 132.6-6.2 3.1-3.1 3.1-8.7 0-11.8L586.4 706.5c-2.4-2.4-6-3.1-9.1-1.8-3.3 1.3-5.3 4.3-5.3 7.6z m16.8 122.4V732.5l100.8 100.3c-29.1 23.7-70.6 24.7-100.8 1.9z" fill="#35383A" p-id="7603"></path><path d="M421.8 526.7l-255.1-121c-32.2 70.2-5.3 153.3 60.1 192l195-71z" fill="#FFDE50" p-id="7604"></path><path d="M427.9 543.4l-195.1 71c-3.8 1.4-8.1 1-11.7-1.1-72.5-43.1-100.8-133.3-65.6-209.9 3-6.6 11.7-9.8 18.3-6.6l255.1 121c5.1 2.4 8.2 7.6 8 13.2-0.3 5.6-3.8 10.5-9 12.4zM229.6 586l157.7-57.4L175.4 428c-20.1 58.6 1.8 123.7 54.2 158z" fill="#35383A" p-id="7605"></path><path d="M304.8 762.4c0 40.5 32.9 73.4 73.4 73.4s73.4-32.9 73.4-73.4-32.9-73.4-73.4-73.4-73.4 32.9-73.4 73.4z" fill="#F85207" p-id="7606"></path><path d="M378.2 849.8c-48.2 0-87.4-39.3-87.4-87.4S330 675 378.2 675s87.4 39.3 87.4 87.4-39.3 87.4-87.4 87.4z m0-146.8c-32.7 0-59.2 26.6-59.2 59.4s26.6 59.4 59.2 59.4 59.4-26.6 59.4-59.4-26.7-59.4-59.4-59.4z" fill="#333333" p-id="7607"></path><path d="M443.8 453.1c47.3-7.5 91.8 24.8 99.3 72.1l52.9-8.4c-12.1-76.6-84.1-128.7-160.5-116.6-76.6 12.1-128.7 84.1-116.6 160.5l52.9-8.4c-7.7-47.2 24.7-91.7 72-99.2z" fill="#9E8FFF" p-id="7608"></path><path d="M598.3 530.7l-52.9 8.4c-7.7 1.2-14.8-4.1-16-11.7-6.3-39.6-43.7-66.8-83.3-60.5-39.6 6.3-66.8 43.7-60.5 83.3 1.2 7.7-4.1 14.8-11.7 16l-53 8.4c-7.7 1.2-14.8-4.1-16-11.7-13.3-84 44.2-163.4 128.4-176.7S596.7 430.5 610 514.7c1.1 7.7-4.2 14.8-11.7 16z m-44.4-21.3l25.3-4c-16.7-61.2-77.4-101.4-141.6-91.2s-109.4 67.2-106.5 130.5l25.3-4c-0.9-49.5 34.8-93.4 85.2-101.4 50.3-8 97.9 22.7 112.3 70.1z" fill="#35383A" p-id="7609"></path><path d="M513 554.5c-109.9 0-213.3-12.1-291.2-34-38.3-10.8-68.5-23.4-89.8-37.5-23.5-15.7-35.5-32.8-35.5-51 0-4.1 3.4-7.5 7.5-7.5s7.5 3.4 7.5 7.5c0 12.9 9.7 25.8 28.8 38.5 19.9 13.3 48.7 25.2 85.5 35.6 76.6 21.5 178.6 33.4 287.2 33.4s210.6-11.9 287.2-33.4c36.8-10.3 65.6-22.3 85.5-35.6 19.1-12.7 28.8-25.7 28.8-38.5 0-4.1 3.4-7.5 7.5-7.5s7.5 3.4 7.5 7.5c0 18.2-11.9 35.4-35.5 51-21.3 14.1-51.5 26.8-89.8 37.5-77.9 21.9-181.3 34-291.2 34z" fill="#35383A" p-id="7610"></path><path d="M513 541c-109.6 0-212.7-12-290.3-33.8C143.6 484.9 100 454.7 100 422c0-2.2 1.8-4 4-4s4 1.8 4 4c0 28.3 42.6 56.6 116.9 77.5C301.8 521.1 404.1 533 513 533c108.9 0 211.2-11.9 288.1-33.5 74.3-20.9 116.9-49.1 116.9-77.5 0-2.2 1.8-4 4-4s4 1.8 4 4c0 32.7-43.6 62.9-122.7 85.2C725.7 529 622.6 541 513 541z" fill="#838689" p-id="7611"></path><path d="M206 556c20 11.2 35.8 16.8 47.5 16.8 17.6 0 113.9 295.4 113.9 295.4s-52.4-2.9-52.4-40.9c0-25.3-36.3-115.7-109-271.3z" fill="#FFFFFF" p-id="7612"></path></svg>