<?xml version="1.0" standalone="no"?><!DOCTYPE svg PUBLIC "-//W3C//DTD SVG 1.1//EN" "http://www.w3.org/Graphics/SVG/1.1/DTD/svg11.dtd"><svg t="1545201231883" class="icon" style="" viewBox="0 0 1024 1024" version="1.1" xmlns="http://www.w3.org/2000/svg" p-id="9811" xmlns:xlink="http://www.w3.org/1999/xlink" width="64" height="64"><defs><style type="text/css"></style></defs><path d="M268.4 532.1S200.8 390.7 328.9 263c0 0 38.6-157.8 132.5-114.1 0 0 102.8-113 207.4-11.3 0 0 174-42.4 157.9 134 0 0 94.5 75.6 26.4 177.5 0 0 35 130.8-105 157 0 0-97.4 209.4-184.8 123.2" fill="#CEEB93" p-id="9812"></path><path d="M540.7 770.2c-99.6 149-224.6 158.6-290 114.8s-122.6-150.8-23-299.8 318.4-283.5 383.8-239.8 28.9 275.8-70.8 424.8z" fill="#FEFFD3" p-id="9813"></path><path d="M250.7 885c-65.4-43.7-122.6-150.8-23-299.8s318.4-283.5 383.8-239.8c-167.3 93-416.2 410.8-360.8 539.6z" fill="#ECF4C1" p-id="9814"></path><path d="M335.1 917c-32.4 0-63.5-9.6-91.7-28.4-42.9-28.7-69-70-75.4-119.4-9.6-74.3 25-162.5 95.1-241.9 32.4-36.7 54-59 74.8-77.1 22.5-19.6 44.7-34.9 74.3-51.4 3.4-1.9 7.7-0.7 9.6 2.8 1.9 3.4 0.7 7.7-2.8 9.6-53.1 29.4-84.4 56.4-145.4 125.5-67.4 76.3-100.8 160.4-91.7 230.6 2.9 22.2 10 42.5 21.2 60.6 11.7 18.9 27.8 35.3 48 48.8 37.9 25.4 81.7 32.3 126.6 20.2 33.8-9.2 67.9-29.3 98.6-58.3 31.3-29.6 59.2-68.5 80.5-112.5 41.7-86.2 62.1-130.5 68.8-195.6 0.4-3.9 3.9-6.7 7.8-6.3 3.9 0.4 6.7 3.9 6.3 7.8-6.9 67.3-28.8 115-70.1 200.4-22.1 45.6-50.9 85.9-83.5 116.7-32.3 30.5-68.5 51.8-104.6 61.6-15.6 4.2-31.2 6.3-46.4 6.3z" fill="" p-id="9815"></path><path d="M608.3 757.2c-17.8 0-34.6-7.7-50-22.9-2.8-2.8-2.8-7.2-0.1-10 2.8-2.8 7.2-2.8 10-0.1 15.5 15.3 31.5 21.1 49.1 18 26.2-4.7 55.9-30 85.9-73.2 23.2-33.3 38.2-65.5 38.4-65.8 1-2.1 2.9-3.6 5.1-4 40.4-7.6 69.5-24.9 86.2-51.5 27.1-42.8 13.4-96.2 13.2-96.8-0.5-2-0.2-4.1 1-5.8 26.8-40 30.8-80.4 11.9-120-14.2-29.8-36.5-47.9-36.8-48.1-1.9-1.5-2.9-3.8-2.6-6.2 4.5-49.3-5.9-85.2-30.8-106.7-43.5-37.5-117.6-19.9-118.3-19.8-2.4 0.6-4.9-0.1-6.6-1.8-28.6-27.8-59.7-41.4-92.3-40.4-59.2 1.8-104.5 50.9-104.9 51.4-2.1 2.3-5.4 3-8.2 1.7-19-8.8-36.2-9.3-52.5-1.5-48.1 23.1-69.8 110-70.1 110.8-0.3 1.3-1 2.4-1.9 3.3-28.4 28.3-49.1 59.6-61.7 93-10 26.7-14.9 54.8-14.5 83.7 0.7 49.3 16.9 84 17.1 84.4 1.7 3.5 0.2 7.8-3.4 9.5-3.5 1.7-7.8 0.2-9.4-3.3-0.7-1.5-17.6-37.4-18.5-89.6-0.5-30.7 4.6-60.7 15.2-89.1 13.1-34.9 34.5-67.6 63.7-97.1 3.7-13.9 26.8-94.1 77.2-118.3 18.8-9 38.9-9.2 60-0.6 12.4-12.3 55.6-50.6 111.4-52.3 35.6-1.1 69.1 12.9 99.9 41.7 16.9-3.4 83.7-13.8 127.1 23.6 28 24.1 40.1 62.8 36 115.1 7.1 6.3 25.2 24.1 37.8 50.5 14.4 30 23.9 77-11.2 131.4 2.8 13 11.1 62.4-15.6 104.7-18.5 29.3-49.4 48.6-92.1 57.3-10.3 21.1-67 131.9-133 143.8-4 0.7-7.9 1-11.7 1z" fill="" p-id="9816"></path></svg>