<?xml version="1.0" standalone="no"?><!DOCTYPE svg PUBLIC "-//W3C//DTD SVG 1.1//EN" "http://www.w3.org/Graphics/SVG/1.1/DTD/svg11.dtd"><svg t="1545201178562" class="icon" style="" viewBox="0 0 1024 1024" version="1.1" xmlns="http://www.w3.org/2000/svg" p-id="1189" xmlns:xlink="http://www.w3.org/1999/xlink" width="64" height="64"><defs><style type="text/css"></style></defs><path d="M871.394472 342.803309a167.5 193.6 83 1 0-384.31387 47.18781 167.5 193.6 83 1 0 384.31387-47.18781Z" fill="#603418" p-id="1190"></path><path d="M672.095 552.349c-45.335 0.025-88.818-12.771-124.86-37.16-44.276-29.928-71.903-73.586-77.972-123.015-6.07-49.429 10.274-98.486 45.897-138.224 35.361-39.403 85.639-64.82 141.519-71.68l1.097 8.932-1.097-8.933c55.88-6.861 110.813 5.637 154.657 35.315 44.277 29.927 71.903 73.586 77.973 123.015s-10.275 98.486-45.897 138.224c-35.362 39.403-85.64 64.82-141.52 71.68a244.56 244.56 0 0 1-29.797 1.846z m-13.222-352.214c-51.514 6.325-97.805 29.741-130.244 65.864-32.179 35.788-46.923 79.813-41.5 123.981 5.423 44.169 30.38 83.319 70.26 110.26 40.216 27.201 90.797 38.723 142.31 32.398 51.513-6.325 97.804-29.741 130.244-65.864 32.178-35.788 46.923-79.813 41.5-123.982-5.423-44.168-30.38-83.318-70.261-110.259-40.215-27.202-90.796-38.723-142.31-32.398z" fill="#333333" p-id="1191"></path><path d="M791.103067 303.741195a103.2 120.7 83 1 0-239.600641 29.41926 103.2 120.7 83 1 0 239.600641-29.41926Z" fill="#E0C7B4" p-id="1192"></path><path d="M666.653 439.891c-67.81-0.036-125.589-43.922-133.035-104.566-3.973-32.357 6.79-64.509 30.289-90.567 23.15-25.612 56.069-42.248 92.595-46.732 36.525-4.485 72.49 3.693 101.15 22.943 29.093 19.5 47.313 48.093 51.299 80.55s-6.79 64.507-30.289 90.565c-23.151 25.613-56.07 42.248-92.595 46.733-6.563 0.705-12.964 1.088-19.414 1.074z m-7.946-223.9c-32.257 3.96-61.202 18.496-81.419 40.927-19.955 22.097-29.131 49.117-25.804 76.213 6.934 56.476 66.274 95.838 132.377 87.721 32.258-3.96 61.202-18.496 81.42-40.927 19.955-22.097 29.13-49.117 25.804-76.213-3.327-27.097-18.78-51.193-43.476-67.707-25.043-16.873-56.644-23.975-88.902-20.014z" fill="#905B37" p-id="1193"></path><path d="M666.668 421.956c-58.843-0.03-108.748-37.225-115.073-88.738-6.934-56.476 41.12-109.024 107.224-117.14 66.103-8.117 125.443 31.245 132.377 87.72 6.934 56.477-41.12 109.025-107.223 117.141-5.868 0.62-11.674 0.93-17.305 1.017z m-5.767-188.1c-56.178 6.898-97.279 50.432-91.551 97.081 5.204 42.382 47.346 72.974 97.22 72.996a124.973 124.973 0 0 0 15.098-0.947c56.178-6.897 97.279-50.43 91.55-97.08-5.715-46.551-56.127-78.848-112.317-72.05z" fill="#333333" p-id="1194"></path><path d="M766.327 320.354a9.652 9.652 0 0 1-4.897-1.42c-7.706-4.973-15.708-7.401-24.475-7.465-8.85-0.012-17.712 2.224-26.362 6.686-4.453 2.31-9.869 0.624-12.18-3.828-2.31-4.452-0.624-9.869 3.828-12.18 11.13-5.775 22.706-8.763 34.387-8.751 0.138 0.031 0.276 0.063 0.446-0.043 12.094 0.107 23.563 3.553 34.046 10.328 4.165 2.703 5.416 8.29 2.712 12.455-1.632 2.671-4.59 4.165-7.505 4.218zM724.46 404.885c-3.498 0.063-6.795-2.004-8.246-5.46l-28.19-64.927c-2.003-4.527 0.096-9.848 4.622-11.85 4.527-2.004 9.848 0.096 11.85 4.622l28.19 64.928c2.004 4.526-0.096 9.847-4.622 11.85-1.156 0.604-2.385 0.9-3.604 0.837zM613.945 403.9a7.887 7.887 0 0 1-1.908-0.223c-4.908-1.06-8.013-5.842-6.9-10.665 3.086-14.31 8.08-26.51 14.78-36.356 6.87-9.953 17.83-19.396 32.682-28.087 4.293-2.565 9.826-1.07 12.391 3.224 2.565 4.293 1.07 9.826-3.223 12.39-12.509 7.345-21.615 15.04-26.948 22.735-5.364 7.833-9.435 17.924-11.98 29.89-1.04 4.188-4.76 7.102-8.894 7.091zM630.298 317.978c-1.081-0.032-2.13-0.202-3.201-0.594-12.211-4.634-21.984-7.253-29.022-7.572-6.954-0.371-16.293 1.101-28.017 4.418-4.812 1.356-9.751-1.453-11.14-6.128-1.356-4.812 1.454-9.752 6.128-11.14 13.823-3.92 24.89-5.647 33.974-5.074 8.946 0.541 20.182 3.426 34.343 8.727 4.664 1.802 6.953 6.975 5.235 11.586-1.187 3.572-4.664 5.745-8.3 5.777z" fill="#333333" p-id="1195"></path><path d="M609.822 319.787l-8.815-99.298 128.823 6.752-7.926 92.01c-0.75 8.573-4.48 16.69-10.507 22.782-16.284 16.47-33.512 24.18-51.886 23.216-19.573-1.025-34.65-11.429-45.423-31.32-2.382-4.23-3.829-9.113-4.266-14.142z" fill="#9C7961" p-id="1196"></path><path d="M662.407 365.401c-1.004 0.048-2.003-0.005-3.001-0.057-19.474-1.02-34.744-11.534-45.423-31.32-2.372-4.43-3.824-9.213-4.26-14.243l-8.816-99.297 128.823 6.751-7.926 92.012c-0.75 8.572-4.48 16.688-10.507 22.78-15.239 15.625-31.667 23.376-48.89 23.374zM620.73 239.648l6.997 78.574c0.264 2.617 0.937 5.056 2.22 7.326 10.038 18.65 22.21 21.392 30.5 21.826 13.082 0.686 25.505-5.172 38.09-17.931a19.372 19.372 0 0 0 5.416-11.633l6.354-73.468-89.577-4.694z" fill="#333333" p-id="1197"></path><path d="M725.120453 224.938319a57.8 31.4 0.001 1 0-115.6-0.002018 57.8 31.4 0.001 1 0 115.6 0.002018Z" fill="#FFE7D6" p-id="1198"></path><path d="M667.264048 265.373181c-16.970563 0-32.951176-3.676955-45.184123-10.253048-13.930004-7.566043-21.637468-18.243355-21.637468-30.122749 0-11.879394 7.707464-22.556706 21.637468-30.122749 12.162237-6.646804 28.284271-10.323759 45.184123-10.253048 16.970563 0 32.951176 3.676955 45.184123 10.253048 13.930004 7.566043 21.637468 18.243355 21.637468 30.122749s-7.707464 22.556706-21.637468 30.122749c-12.232947 6.576093-28.213561 10.253048-45.184123 10.253048z m0-62.932503c-27.860007 0-48.790368 11.879394-48.790368 22.485995s20.85965 22.415285 48.790368 22.485996c27.860007 0 48.790368-11.879394 48.790368-22.485996s-20.85965-22.415285-48.790368-22.485995z" fill="#333333" p-id="1199"></path><path d="M283.474925 794.36239a270.6 252.5 24.999 1 0 213.414234-457.689157 270.6 252.5 24.999 1 0-213.414234 457.689157Z" fill="#784828" p-id="1200"></path><path d="M234.6 331.2c-60.6 105.5-80.4 195.5-59.5 270 31.3 111.7 163.8 198.4 290.8 188 84.7-7 146.8-66.8 186.2-179.6-22.7 74-53.1 127.9-91.3 161.8-57.3 50.8-158 61.4-158 59.3 0-2.1-127.7-1.9-203.8-59.3-76.1-57.4-100.7-158.5-100.8-170.2-0.1-7.8 12.6-66.5 38-176.1l76.8-74 21.6-19.9z" fill="#603418" p-id="1201"></path><path d="M381.2 818c149.4 0 270.6-113.1 270.6-252.5S530.6 313 381.2 313 110.7 426 110.7 565.5 231.8 818 381.2 818z m0 18.1c-159.1 0-288.6-120.8-288.6-270.6S222.1 295 381.2 295s288.6 120.8 288.6 270.6-129.5 270.5-288.6 270.5z" fill="#333333" p-id="1202"></path><path d="M410.8 499.9l130.3-55.3c2.1-0.9 4.5 0.1 5.4 2.2 0.6 1.5 0.3 3.2-0.8 4.4l-96.6 103.4 59 138.8c0.4 1 0 2.2-1.1 2.7-0.7 0.3-1.6 0.2-2.2-0.4l-110.3-103-130.3 55.4c-2.1 0.9-4.5-0.1-5.4-2.2-0.6-1.5-0.3-3.2 0.8-4.4l96.6-103.4L301 408.2c-0.9-2.1 0.1-4.5 2.2-5.4 1.5-0.6 3.2-0.3 4.4 0.8l103.2 96.3z" fill="#E0C7B4" p-id="1203"></path><path d="M506.3 714.2c-5 0-9.9-1.9-13.7-5.4l-101.8-94.9-119.5 50.8c-11.2 4.8-24.2-0.5-29-11.7-3.4-8-1.8-17.4 4.2-23.8l88.6-94.8-50.7-119.2c-2.3-5.4-2.4-11.5-0.2-16.9 2.2-5.5 6.4-9.8 11.9-12.1 8-3.4 17.4-1.8 23.7 4.2l94.7 88.3L534.1 428c11.2-4.8 24.2 0.5 29 11.7 3.4 8 1.8 17.4-4.2 23.8l-88.6 94.8 54.5 128c2.1 4.9 2.1 10.4 0.1 15.4s-5.8 8.9-10.8 11c-2.5 1-5.1 1.5-7.8 1.5zM394.5 592.7l110.4 102.9c0.6 0.6 1.5 0.7 2.2 0.4 0.6-0.3 1-0.8 1.1-1.1 0.1-0.4 0.3-0.9 0-1.6l-59-138.8 96.6-103.4c1.1-1.2 1.4-2.9 0.8-4.4-0.9-2.1-3.3-3.1-5.4-2.2l-130.3 55.3-103.3-96.3c-1.2-1.1-2.9-1.4-4.4-0.8-1.4 0.6-2 1.7-2.2 2.2-0.2 0.6-0.5 1.8 0 3.1l55.3 129.9-96.7 103.6c-1.1 1.2-1.4 2.9-0.8 4.4 0.9 2.1 3.3 3.1 5.4 2.2l130.3-55.4z" fill="#333333" p-id="1204"></path><path d="M403.4 529.9l168.3-103.6L424 553.6l122.1 190.5-150.3-174.7-174.1 99.1L381.9 544 279.2 367.6z" fill="#C19F85" p-id="1205"></path></svg>