<?xml version="1.0" standalone="no"?><!DOCTYPE svg PUBLIC "-//W3C//DTD SVG 1.1//EN" "http://www.w3.org/Graphics/SVG/1.1/DTD/svg11.dtd"><svg t="1545203040472" class="icon" style="" viewBox="0 0 1024 1024" version="1.1" xmlns="http://www.w3.org/2000/svg" p-id="30603" xmlns:xlink="http://www.w3.org/1999/xlink" width="64" height="64"><defs><style type="text/css"></style></defs><path d="M473.9 135.2H479.6l12.2 0.6s0-0.1 0.1-0.1c12.3-23.4 3.6-52.8-19.4-65.8-5.6-3.1-11.6-5.1-17.6-5.9-4-0.5-7.9 1.5-9.9 5.1-3.4 6.2 0.5 13.8 7.5 14.8 4.6 0.6 9.1 2.3 13.2 5.3 10.7 7.7 14.8 22.1 9.8 34.3-2 4.8-5.1 8.8-8.8 11.8 2.3-0.1 4.6-0.1 6.9-0.1h0.3z" fill="#4BBB58" p-id="30604"></path><path d="M886.7 632c0-217-170.7-477.5-387.5-495.8l-7.4-0.4-12.2-0.6H473.6c-2.3 0-4.6 0.1-6.9 0.1C242.5 141.7 63.3 409.7 63.3 632c0 130 62.3 226.7 173.9 279.9l9.9 4.5c61.9 27.4 138.2 42 226.7 42.1h1.2c90.5 0 168.2-15.1 231-43.5l0.4 0.2c3.3-1.5 6.6-3.1 9.8-4.7 0-0.1 0.1-0.2 0.1-0.3C825.7 856.6 886.7 760.6 886.7 632zM494.5 938.2c-3.7-7.6-11.1-35.3-15.2-136.3-2.8-68.1-3.7-159.8-2.7-272.5 1.5-168.9 6.8-335.4 8.1-374.2l3.8 0.1h0.5c0.4 0.5 1.1 1.2 1.9 2.2 15.3 16.9 96.3 109 160.2 237.5 63 126.5 121.7 314.6 49.7 500.3-56.7 26.3-126.6 40.9-206.3 42.9z m-226.7-41.3C193.2 712 249.4 523 310.9 395.5c58.4-121.2 132.2-210.7 153.7-235.4-1.5 47.2-6.5 207.1-7.9 369.2-1 113-0.1 205 2.7 273.5 3.3 80.7 8.7 117.7 14.2 135.7-77.1-0.1-145.6-11.7-202.6-33.9-1.1-2.6-2.2-5.1-3.2-7.7zM184.6 856c-32.9-26.1-58.1-58.2-75.1-95.3-17.4-37.9-26.2-81.2-26.2-128.8 0-106.6 43.3-226.2 115.7-320 36.6-47.3 79.7-86.4 124.7-113.1 38.1-22.6 77.4-36.5 117.1-41.6-0.8 1-1.6 1.9-2.4 3-30.2 36.5-93.6 119.2-145.2 226.2-41.3 85.4-67.1 169.5-76.9 249.9-10.6 87.3-2.1 170.3 25.2 247.4 1.1 3.2 2.3 6.5 3.5 9.7-22.3-10.7-42.5-23.1-60.4-37.4z m580.4 0.2c-11.7 9.3-24.5 17.9-38.1 25.6 26.2-77.3 33.6-160.4 21.9-247.3-10.8-80.2-37.7-164-80.1-248.9-53-106.3-117.5-188.2-148.1-224.3-0.8-0.9-1.5-1.8-2.2-2.6 41.6 6.8 82.5 23.2 121.9 48.9 43.4 28.4 83.1 66.7 117.9 113.9 68 92.1 108.5 208.2 108.5 310.5 0 47.6-8.8 91-26.3 128.9-17 37.1-42.4 69.2-75.4 95.3z" fill="#FCDD29" p-id="30605"></path><path d="M241.5 883.7c-27.3-77.1-35.8-160.1-25.2-247.4 9.8-80.4 35.6-164.5 76.9-249.9 51.6-107 115-189.7 145.2-226.2 0.8-1 1.7-2 2.4-3-39.8 5-79 19-117.1 41.6-45 26.7-88.1 65.8-124.7 113.1-72.4 93.8-115.7 213.4-115.7 320 0 47.6 8.8 90.9 26.2 128.8 17 37.1 42.2 69.2 75.1 95.3 17.9 14.3 38.1 26.7 60.4 37.4-1.2-3.2-2.4-6.5-3.5-9.7z m-62.1-282.9c-23.8 41.1-30.1 90-18.5 135.3 1 3.6-0.1 7.5-3 10-5.7 5.1-14.6 2.2-16.4-5.1-12.9-50.3-5.9-104.5 20.5-150.2 3.4-6 11.6-6.9 16.2-1.7 2.8 3.3 3.2 8 1.2 11.7zM866.7 632c0-102.3-40.5-218.4-108.5-310.5-34.8-47.2-74.5-85.5-117.9-113.9-39.4-25.7-80.4-42.2-121.9-48.9 0.7 0.9 1.5 1.7 2.2 2.6 30.6 36.1 95.1 118 148.1 224.3 42.4 84.9 69.3 168.7 80.1 248.9 11.7 87 4.3 170-21.9 247.3 13.6-7.8 26.4-16.3 38.1-25.6 33-26.1 58.4-58.2 75.4-95.3 17.5-37.9 26.3-81.3 26.3-128.9z" fill="#FFEB7F" p-id="30606"></path><path d="M459.4 802.8c-2.8-68.5-3.7-160.5-2.7-273.5 1.3-162.2 6.3-322 7.9-369.2-21.4 24.8-95.2 114.3-153.7 235.4C249.4 523 193.2 712 267.8 896.9c1 2.6 2.1 5.1 3.2 7.7 57 22.2 125.5 33.8 202.6 33.9-5.5-18-10.9-55-14.2-135.7zM651.1 395c-63.9-128.5-144.9-220.6-160.2-237.5-0.8-1-1.5-1.7-1.9-2.2h-0.5l-3.8-0.1c-1.3 38.8-6.6 205.3-8.1 374.2-1 112.7-0.1 204.4 2.7 272.5 4.1 101 11.6 128.7 15.2 136.3 79.7-2 149.5-16.7 206.3-42.9 72-185.7 13.3-373.8-49.7-500.3z" fill="#FFEB7F" p-id="30607"></path><path d="M161.9 590.9c-26.4 45.6-33.4 99.8-20.5 150.2 1.8 7.3 10.7 10.1 16.4 5.1 2.9-2.5 4-6.4 3-10-11.6-45.3-5.2-94.2 18.5-135.3 2.1-3.8 1.6-8.4-1.2-11.6-4.6-5.3-12.8-4.4-16.2 1.6z" fill="#FFFFFF" p-id="30608"></path></svg>