<?xml version="1.0" standalone="no"?><!DOCTYPE svg PUBLIC "-//W3C//DTD SVG 1.1//EN" "http://www.w3.org/Graphics/SVG/1.1/DTD/svg11.dtd"><svg t="1545200098214" class="icon" style="" viewBox="0 0 1024 1024" version="1.1" xmlns="http://www.w3.org/2000/svg" p-id="1303" xmlns:xlink="http://www.w3.org/1999/xlink" width="64" height="64"><defs><style type="text/css"></style></defs><path d="M467.2 747.2c1.6-3.2 6.4-4.8 11.2-3.2s4.8 6.4 3.2 9.6c-16 27.2 14.4 139.2 48 164.8 3.2 3.2 4.8 6.4 1.6 9.6-3.2 3.2-8 3.2-11.2 1.6-40-28.8-73.6-150.4-52.8-182.4z" fill="#648F2F" p-id="1304"></path><path d="M467.2 747.2c-20.8 33.6 12.8 153.6 52.8 182.4 3.2 3.2 8 1.6 11.2-1.6 3.2-3.2 1.6-8-1.6-9.6-35.2-24-64-137.6-48-164.8 1.6-3.2 0-8-3.2-9.6s-9.6-1.6-11.2 3.2z m-27.2-17.6c11.2-17.6 33.6-24 52.8-14.4 20.8 9.6 27.2 35.2 16 54.4-8 12.8 19.2 107.2 40 121.6 19.2 12.8 22.4 40 8 57.6-12.8 16-36.8 19.2-54.4 6.4-52.8-36.8-92.8-176-62.4-225.6z" fill="#333333" p-id="1305"></path><path d="M473.6 150.4c-24-25.6-40-40-51.2-40-11.2 0-11.2 32 0 94.4-17.6-11.2-28.8-16-36.8-16-11.2 0 3.2 81.6 20.8 94.4 17.6 12.8-56-24-43.2 0 11.2 24 62.4 51.2 88 96 16 30.4 25.6 80 25.6 147.2l-46.4-83.2-22.4-36.8c-25.6-59.2-46.4-97.6-60.8-115.2-14.4-17.6-22.4 3.2-22.4 64-33.6-59.2-54.4-91.2-64-97.6-9.6-6.4-16 14.4-19.2 60.8-30.4-24-52.8-40-65.6-48-14.4-8-19.2 1.6-16 28.8-14.4 0-25.6 1.6-32 6.4s8 28.8 44.8 73.6c-33.6 11.2-52.8 20.8-59.2 28.8-6.4 8 24 25.6 89.6 54.4-57.6 24-89.6 40-96 49.6s8 14.4 44.8 14.4c-17.6 27.2-25.6 44.8-25.6 51.2 0 6.4 19.2 0 56-20.8l-19.2 38.4c94.4-9.6 144-9.6 150.4 0-72 27.2-112 46.4-120 59.2s6.4 19.2 43.2 16c-19.2 28.8-14.4 43.2 11.2 43.2h97.6c-17.6 35.2-27.2 57.6-27.2 65.6 0 12.8 128-44.8 150.4-38.4 22.4 6.4 116.8 44.8 144 60.8 17.6 11.2 25.6 3.2 20.8-24 49.6 1.6 76.8 0 84.8-6.4s3.2-17.6-12.8-30.4c67.2-1.6 107.2-11.2 123.2-27.2s3.2-27.2-33.6-32c44.8-11.2 64-19.2 57.6-27.2-6.4-8-32-16-80-22.4 54.4-12.8 81.6-22.4 86.4-28.8 3.2-6.4 3.2-14.4 0-27.2 19.2-6.4 30.4-12.8 35.2-20.8s-9.6-24-41.6-51.2c41.6-20.8 62.4-35.2 62.4-46.4 0-9.6-14.4-14.4-44.8-14.4 20.8-41.6 28.8-67.2 24-75.2-6.4-8-19.2-4.8-41.6 11.2 4.8-30.4 4.8-44.8 0-44.8-6.4 0-57.6 51.2-57.6 51.2s-4.8-67.2-9.6-67.2c-6.4 0-76.8 102.4-84.8 113.6-4.8 8-3.2-14.4 6.4-64-91.2 144-137.6 214.4-140.8 214.4-4.8 0 9.6-68.8 19.2-96 6.4-22.4 70.4-142.4 136-203.2 17.6-16 38.4-25.6 52.8-33.6 32-14.4-17.6-14.4-38.4-14.4-22.4 0 0-46.4 0-52.8 0-4.8-20.8 0-60.8 17.6-3.2-51.2-8-78.4-14.4-81.6s-20.8 8-48 40c-16-35.2-25.6-54.4-32-54.4s-16 51.2-30.4 153.6l-76.8-107.2z" fill="#8AB555" p-id="1306"></path><path d="M686.4 195.2c35.2-14.4 52.8-19.2 52.8-14.4 0 8-22.4 52.8 0 52.8s72 0 38.4 14.4c-16 8-35.2 16-52.8 33.6-65.6 60.8-129.6 182.4-136 203.2-8 27.2-24 96-19.2 96 3.2 0 49.6-72 140.8-214.4-9.6 51.2-12.8 72-6.4 64 8-11.2 80-113.6 84.8-113.6 6.4 0 9.6 67.2 9.6 67.2s51.2-51.2 57.6-51.2c4.8 0 4.8 14.4 0 44.8 22.4-16 36.8-19.2 41.6-11.2 6.4 8-1.6 33.6-24 75.2 28.8 0 44.8 4.8 44.8 14.4 0 9.6-20.8 25.6-62.4 46.4 9.6 8 17.6 14.4 24 20.8-43.2 24-100.8 49.6-177.6 72-240 73.6-225.6-164.8-16-400zM241.6 712c-16-3.2-16-17.6-1.6-41.6-36.8 3.2-51.2-3.2-43.2-16s48-33.6 120-59.2c-3.2-4.8-19.2-8-46.4-8 113.6-24 161.6 14.4 78.4 73.6-33.6 24-70.4 41.6-107.2 51.2zM244.8 276.8c3.2-16 8-22.4 14.4-19.2 9.6 6.4 30.4 38.4 64 97.6 0-59.2 8-80 22.4-64 14.4 17.6 35.2 56 60.8 115.2l22.4 36.8 38.4 67.2H464c-44.8 1.6-174.4-139.2-219.2-233.6z m228.8 233.6c11.2-3.2 8-14.4-1.6-32 1.6 11.2 1.6 20.8 1.6 32z" fill="#648F2F" p-id="1307"></path><path d="M422.4 94.4c17.6 0 36.8 14.4 64 44.8l52.8 76.8c14.4-104 20.8-126.4 40-126.4 14.4 0 24 11.2 36.8 40 25.6-27.2 41.6-35.2 56-27.2 12.8 8 17.6 28.8 20.8 73.6 11.2-4.8 19.2-6.4 27.2-9.6 6.4-1.6 11.2-3.2 14.4-3.2 11.2 0 20.8 4.8 20.8 17.6 0 3.2 0 6.4-1.6 11.2 0 1.6-3.2 8-3.2 11.2-1.6 3.2-1.6 6.4-1.6 8 0 3.2-1.6 4.8-1.6 6.4h14.4c14.4 0 25.6 1.6 32 4.8 9.6 4.8 17.6 14.4 9.6 27.2-3.2 6.4-8 9.6-17.6 12.8-24 11.2-35.2 17.6-49.6 30.4-51.2 48-120 160-131.2 196.8-1.6 6.4-4.8 14.4-6.4 24 24-35.2 57.6-88 100.8-156.8 9.6-14.4 32-6.4 28.8 11.2v3.2c1.6-3.2 3.2-4.8 4.8-8 1.6-1.6 1.6-1.6 1.6-3.2 41.6-59.2 44.8-60.8 56-60.8 6.4 0 11.2 3.2 14.4 8 1.6 1.6 1.6 3.2 3.2 6.4s1.6 6.4 3.2 9.6c1.6 6.4 1.6 14.4 3.2 24 1.6 0 1.6-1.6 1.6-1.6l3.2-3.2c24-22.4 30.4-27.2 40-27.2 16 0 19.2 9.6 19.2 27.2v4.8c16-4.8 27.2-3.2 35.2 8 9.6 12.8 4.8 35.2-11.2 70.4 22.4 3.2 35.2 11.2 35.2 30.4 0 16-16 30.4-49.6 49.6 27.2 25.6 36.8 41.6 27.2 57.6-6.4 8-16 16-30.4 20.8 1.6 9.6 0 17.6-4.8 25.6-4.8 6.4-14.4 11.2-32 17.6 11.2 4.8 19.2 8 24 14.4 12.8 16 1.6 28.8-16 36.8-1.6 0-3.2 1.6-4.8 1.6 11.2 9.6 11.2 24-4.8 40-16 17.6-49.6 27.2-102.4 32 3.2 9.6 1.6 20.8-8 28.8-11.2 9.6-35.2 12.8-80 11.2-3.2 25.6-20.8 36.8-46.4 20.8-22.4-14.4-112-51.2-139.2-59.2-3.2-1.6-27.2 4.8-64 17.6-3.2 1.6-3.2 1.6-4.8 1.6-36.8 12.8-40 12.8-51.2 16-8 1.6-14.4 3.2-19.2 4.8H320c-8-1.6-12.8-8-12.8-17.6 0-9.6 6.4-25.6 17.6-49.6h-72c-32 0-44.8-17.6-36.8-43.2-8 0-14.4-1.6-19.2-3.2-16-6.4-22.4-22.4-12.8-36.8 8-12.8 28.8-25.6 67.2-43.2-22.4 1.6-49.6 3.2-83.2 6.4-11.2 1.6-19.2-9.6-17.6-19.2-8 3.2-12.8 4.8-17.6 4.8-9.6 0-19.2-6.4-19.2-17.6 0-8 4.8-19.2 14.4-35.2-6.4 0-12.8-1.6-16-3.2-16-4.8-25.6-20.8-14.4-35.2 8-11.2 30.4-24 68.8-41.6-17.6-8-30.4-16-40-20.8-24-14.4-35.2-27.2-22.4-43.2 6.4-8 20.8-17.6 44.8-25.6-38.4-48-46.4-67.2-27.2-80 6.4-3.2 12.8-6.4 22.4-8 0-8 1.6-14.4 3.2-19.2 6.4-14.4 22.4-16 36.8-8 11.2 6.4 25.6 16 44.8 32 1.6-9.6 3.2-17.6 4.8-24 6.4-19.2 17.6-30.4 35.2-19.2 9.6 6.4 22.4 24 43.2 57.6 1.6-4.8 1.6-8 3.2-11.2 6.4-16 19.2-22.4 32-17.6 1.6-8 9.6-14.4 19.2-14.4 3.2 0 6.4 0 11.2 1.6-3.2-8-4.8-16-6.4-25.6-1.6-12.8-3.2-24-3.2-32 0-17.6 3.2-28.8 20.8-28.8 4.8 0 9.6 1.6 16 3.2-11.2-57.6-8-81.6 17.6-81.6z m14.4 313.6l14.4 32c-3.2-22.4-9.6-41.6-17.6-54.4-8-14.4-19.2-27.2-35.2-43.2l-3.2-3.2c12.8 19.2 27.2 41.6 41.6 68.8z m-131.2 198.4c1.6 0 1.6 0 0 0 1.6 0 1.6 0 0 0z m385.6-184zM460.8 160c-12.8-14.4-24-25.6-32-30.4v3.2c0 14.4 3.2 36.8 8 68.8 3.2 14.4-12.8 24-24 16-6.4-4.8-11.2-6.4-16-9.6 0 4.8 1.6 11.2 3.2 19.2 4.8 20.8 11.2 40 14.4 41.6 1.6 1.6 3.2 1.6 3.2 3.2l3.2 3.2c1.6 3.2 1.6 3.2 1.6 12.8-6.4 9.6-6.4 9.6-12.8 11.2h-4.8c-1.6 0-3.2 0-4.8-1.6h-3.2c8 6.4 19.2 16 24 20.8 17.6 17.6 32 33.6 41.6 51.2 17.6 33.6 27.2 84.8 27.2 155.2 0 17.6-24 22.4-30.4 6.4l-51.2-110.4c-30.4-52.8-52.8-88-67.2-108.8-1.6 9.6-1.6 24-1.6 41.6 0 16-22.4 22.4-30.4 8-20.8-38.4-38.4-65.6-48-80-1.6 9.6-3.2 20.8-3.2 36.8 0 12.8-16 19.2-25.6 11.2-24-19.2-41.6-33.6-56-41.6 0 1.6 0 4.8 1.6 8 1.6 9.6-6.4 19.2-16 19.2h-12.8c0 1.6 1.6 1.6 1.6 3.2 6.4 11.2 19.2 28.8 38.4 49.6 6.4 8 3.2 20.8-6.4 25.6-19.2 6.4-33.6 12.8-41.6 17.6 1.6 1.6 3.2 1.6 3.2 3.2 14.4 8 36.8 20.8 68.8 35.2 12.8 6.4 12.8 24 0 28.8-32 12.8-57.6 24-72 32h16c12.8 0 20.8 14.4 12.8 24-4.8 6.4-8 12.8-11.2 17.6 6.4-3.2 12.8-6.4 20.8-11.2 14.4-8 28.8 8 22.4 20.8l-8 14.4c84.8-8 124.8-6.4 136 9.6 6.4 8 1.6 20.8-8 24-51.2 19.2-86.4 35.2-102.4 44.8h19.2c12.8-1.6 22.4 12.8 14.4 24-12.8 19.2-12.8 19.2-1.6 19.2h97.6c12.8 0 19.2 12.8 14.4 24-8 16-14.4 30.4-19.2 40 8-1.6 14.4-4.8 44.8-14.4 3.2-1.6 3.2-1.6 4.8-1.6 49.6-16 70.4-22.4 83.2-17.6 28.8 8 116.8 44.8 145.6 62.4V784c-1.6-9.6 6.4-19.2 16-17.6 35.2 1.6 60.8 0 68.8-1.6l-8-8c-11.2-9.6-4.8-27.2 9.6-28.8 62.4-1.6 100.8-11.2 110.4-22.4-4.8-1.6-12.8-3.2-24-4.8-17.6-3.2-19.2-27.2-1.6-32 12.8-3.2 22.4-6.4 30.4-8-11.2-3.2-28.8-6.4-51.2-9.6-17.6-3.2-19.2-27.2-1.6-32 27.2-6.4 46.4-11.2 60.8-16 6.4-1.6 11.2-4.8 14.4-6.4 1.6-1.6 1.6-4.8-1.6-12.8s1.6-17.6 9.6-20.8c11.2-3.2 19.2-8 24-11.2 0-1.6-1.6-1.6-1.6-3.2-6.4-8-17.6-17.6-33.6-30.4-9.6-8-8-22.4 3.2-27.2 20.8-9.6 35.2-17.6 44.8-25.6 1.6-1.6 3.2-3.2 4.8-3.2-4.8-1.6-12.8-1.6-24-1.6s-19.2-12.8-14.4-24c9.6-20.8 17.6-36.8 20.8-48 1.6-3.2 1.6-4.8 1.6-6.4-4.8 1.6-11.2 4.8-17.6 11.2-11.2 8-27.2-1.6-25.6-16 0-3.2 1.6-8 1.6-11.2l-3.2 3.2-3.2 3.2c-6.4 4.8-12.8 11.2-17.6 17.6l-8 8c-9.6 9.6-27.2 3.2-27.2-9.6v-9.6c0-8-1.6-16-1.6-22.4-6.4 8-12.8 17.6-20.8 28.8-1.6 1.6-1.6 1.6-1.6 3.2-8 11.2-16 22.4-25.6 35.2-4.8 6.4-14.4 19.2-14.4 20.8-3.2 4.8-6.4 8-12.8 8-11.2 1.6-16-4.8-17.6-12.8-94.4 148.8-104 161.6-116.8 161.6-9.6 0-14.4-4.8-16-12.8 0-1.6-1.6-4.8-1.6-6.4v-11.2c1.6-6.4 3.2-16 4.8-27.2 4.8-20.8 9.6-46.4 14.4-60.8 12.8-41.6 84.8-160 140.8-211.2 9.6-8 17.6-14.4 27.2-20.8-16 0-25.6-9.6-27.2-22.4-1.6-8 0-16 1.6-25.6v-3.2c-8 3.2-19.2 6.4-33.6 12.8-9.6 4.8-20.8-3.2-22.4-14.4-1.6-24-3.2-43.2-4.8-56 0-3.2-1.6-4.8-1.6-6.4-8 6.4-19.2 17.6-32 32-8 9.6-22.4 6.4-27.2-4.8-4.8-11.2-8-19.2-12.8-27.2 0 3.2-1.6 4.8-1.6 8-4.8 25.6-11.2 62.4-17.6 113.6-1.6 14.4-20.8 19.2-28.8 6.4L460.8 160z m129.6-44.8c1.6 0 1.6 0 0 0 1.6 0 1.6 0 0 0z m72 16c1.6 0 0 0 0 0z m73.6 65.6z m40 36.8z m1.6 92.8z m84.8 22.4s1.6 0 0 0c1.6 0 1.6 0 0 0z m-17.6-8zM632 792zM144 307.2z" fill="#333333" p-id="1308"></path></svg>