<?xml version="1.0" standalone="no"?><!DOCTYPE svg PUBLIC "-//W3C//DTD SVG 1.1//EN" "http://www.w3.org/Graphics/SVG/1.1/DTD/svg11.dtd"><svg t="1545208566901" class="icon" style="" viewBox="0 0 1024 1024" version="1.1" xmlns="http://www.w3.org/2000/svg" p-id="23699" xmlns:xlink="http://www.w3.org/1999/xlink" width="64" height="64"><defs><style type="text/css"></style></defs><path d="M327.31 385.617c0.616-22.022 18.089-38.775 38.726-40.408 1.589-0.577 3.208-1.082 4.876-1.442-4.055-1.012-8.005-2-11.767-2.943-9.434-2.356-19.299-0.348-27.062 5.535-7.611 5.77-12.127 14.505-12.393 23.971-0.422 15.075 0.228 30.223 1.809 45.169 2.143 0.465 4.247 0.917 6.332 1.362a350.49 350.49 0 0 1-0.521-31.244zM595.597 720.775a306.202 306.202 0 0 1-34.631-7.335c-61.324 39.057-134.701 56.872-209.905 45.157a297.433 297.433 0 0 1-37.26-8.292c-93.391-19.771-167.626-76.987-210.883-162.845 32.55 126.591 202.688 223.111 407.723 223.111 221.455 0 402.226-112.592 412.864-254.065-68.183 115.296-195.112 184.424-327.908 164.269z" fill="#CCFFDE" p-id="23700"></path><path d="M298.926 369.751c0.442-15.795 7.954-30.352 20.609-39.945 12.806-9.706 29.087-13.042 44.662-9.129 71.405 17.905 199.205 49.182 252.858 57.502 21.036 3.263 55.207 6.918 101.563 10.859a5644.954 5644.954 0 0 0 38.99 3.159l53.849 3.968c14.834 1.04 29.324 2.023 42.998 2.927l4.543 0.29c-73.461-74.166-202.029-123.325-348.358-123.325-134.694 0-254.324 41.66-329.794 106.128 38.223 9.523 81.514 20.045 119.291 28.579-1.17-13.608-1.595-27.344-1.211-41.013zM99.498 515.469a176.025 176.025 0 0 0-0.944 6.727 319.688 319.688 0 0 0 9.245 26.281l3.369 7.431a330.557 330.557 0 0 1-11.67-40.439z" fill="#CCFFDE" p-id="23701"></path><path d="M951.278 443.405c1.349 7.677 0.913 15.648-1.499 23.344-12.549 40.044-27.992 71.634-50.074 102.43l-15.163 20.287c-0.072 0.096-0.146 0.191-0.223 0.287-3.181 3.959-21.751 25.411-24.482 28.547-0.336 0.385-0.7 0.745-1.088 1.078l-34.776 29.686c-0.132 0.113-0.265 0.22-0.401 0.325-59.231 45.669-128.814 69.683-199.889 69.683a317.117 317.117 0 0 1-47.646-3.605c-4.822-0.732-9.582-1.59-14.312-2.508a328.63 328.63 0 0 0 24.176-17.094c79.234 10.18 158.794-11.973 224.782-62.77l33.991-29.016c4.665-5.367 20.499-23.701 23.346-27.208l14.926-19.965c20.896-29.144 34.992-58.015 47.011-96.37 2.661-8.489 1.282-17.577-3.782-24.936-2.096-3.045-4.714-5.578-7.67-7.582-7.48-0.463-15.577-0.972-24.177-1.522 9.467 8.797 13.913 22.595 9.663 36.156-42.321 135.054-165.698 226.802-299.943 218.064a339.965 339.965 0 0 0 23.859-23.603c33.591-36.677 59.934-81.417 75.922-131.745 3.922-12.345 1.166-24.867-5.85-34.269a48.227 48.227 0 0 1-1.675 22.217c-12.351 38.876-27.483 69.524-49.066 99.375l-14.807 19.652a9.045 9.045 0 0 1-0.227 0.29c-3.104 3.831-21.226 24.602-23.891 27.637-0.338 0.385-0.703 0.745-1.094 1.075l-33.888 28.698c-0.13 0.11-0.265 0.22-0.401 0.325-57.42 43.913-124.709 66.982-193.387 66.985-15.798 0-31.662-1.22-47.504-3.689a342.303 342.303 0 0 1-18.237-3.358 297.61 297.61 0 0 0 37.26 8.292c75.204 11.715 148.581-6.099 209.905-45.157a306.594 306.594 0 0 0 34.631 7.335c132.796 20.155 259.725-48.973 327.908-164.269 14.137-23.906 25.75-49.796 34.364-77.287 4.064-12.973 0.983-26.106-6.592-35.815zM341.302 379.125c0.448-16.023 10.91-28.902 24.734-33.916-20.637 1.633-38.11 18.386-38.726 40.408a350.14 350.14 0 0 0 0.522 31.245 1572.152 1572.152 0 0 0 15.009 3.135 311.378 311.378 0 0 1-1.539-40.872z" fill="#3AAE47" p-id="23702"></path><path d="M888.392 422.071l-9.7-0.619c7.302 8.212 10.46 19.95 6.837 31.514-37.15 118.552-141.159 201.332-257.623 204.147a340.617 340.617 0 0 1-23.859 23.603c134.246 8.738 257.622-83.009 299.943-218.064 4.249-13.56-0.197-27.359-9.663-36.156a35.154 35.154 0 0 0-5.935-4.425zM359.807 374.927c0.363-12.962 7.749-23.713 18.103-29.416-2.374-0.591-4.707-1.172-6.997-1.744-1.668 0.36-3.287 0.865-4.876 1.442-13.824 5.014-24.286 17.893-24.734 33.916a311.536 311.536 0 0 0 1.539 40.871 951.82 951.82 0 0 0 19.752 3.826 290.021 290.021 0 0 1-2.787-48.895z" fill="#FFFFFF" p-id="23703"></path><path d="M642.314 473.922a11992 11992 0 0 0 22.865 1.53c-3.965-2.602-8.555-4.205-13.452-4.526l-14.658-0.992c1.877 1.174 3.647 2.491 5.245 3.988z" fill="#FF2939" p-id="23704"></path><path d="M885.529 452.966c3.624-11.564 0.466-23.302-6.837-31.514l-25.607-1.633a9856.047 9856.047 0 0 1-43.12-2.936l-53.925-3.973a5384.926 5384.926 0 0 1-39.18-3.173c-46.833-3.982-81.483-7.692-102.989-11.027-50.005-7.755-162.358-34.881-235.962-53.198-10.354 5.702-17.74 16.453-18.103 29.416a290.243 290.243 0 0 0 2.785 48.896c3.817 0.692 7.382 1.303 10.659 1.825 20.48 3.258 53.646 6.932 98.578 10.926a5122.374 5122.374 0 0 0 37.856 3.217l52.249 4.057c14.437 1.069 28.503 2.078 41.781 3.008l49.385 3.342c15.023 0.985 28.522 8.692 37.023 21.148a48.463 48.463 0 0 1 7.855 19.754c7.015 9.402 9.771 21.925 5.85 34.269-15.988 50.328-42.331 95.068-75.922 131.745 116.464-2.816 220.473-85.596 257.624-204.149zM591.577 414.8h-0.094c-47.467-0.594-149.057-32.981-153.357-34.358a7.42 7.42 0 0 1-4.802-9.329 7.424 7.424 0 0 1 9.329-4.802c1.033 0.33 103.767 33.085 149.016 33.65a7.422 7.422 0 0 1 7.327 7.512 7.422 7.422 0 0 1-7.419 7.327z m27.354 8.618a8.072 8.072 0 1 1-0.063-16.145 8.073 8.073 0 0 1 0.063 16.145zM734.344 537.15c-3.348 1.682-9.704-4.199-14.196-13.138-4.492-8.939-5.419-17.549-2.07-19.231 3.348-1.682 9.704 4.199 14.196 13.138 4.491 8.938 5.418 17.547 2.07 19.231z" fill="#FF2939" p-id="23705"></path><path d="M718.078 504.78c-3.348 1.683-2.422 10.293 2.07 19.231 4.492 8.939 10.848 14.82 14.196 13.138 3.348-1.683 2.422-10.293-2.07-19.231-4.492-8.939-10.848-14.82-14.196-13.138z" fill="#231815" p-id="23706"></path><path d="M591.668 399.961c-45.249-0.565-147.983-33.32-149.016-33.65a7.424 7.424 0 0 0-9.329 4.802 7.42 7.42 0 0 0 4.802 9.329c4.301 1.377 105.89 33.764 153.357 34.358h0.094a7.42 7.42 0 0 0 0.092-14.839zM618.868 407.273a8.073 8.073 0 1 0 0.064 16.146 8.073 8.073 0 0 0-0.064-16.146z" fill="#FFFFFF" p-id="23707"></path><path d="M651.562 509.074C607.543 647.641 475.64 738.832 336.766 717.198c-138.294-21.543-235.971-147.566-231.383-291.387 0.496-15.56 10.706-28.029 24.152-32.846-20.05 1.507-37.084 17.712-37.766 39.098-0.913 28.614 1.804 56.593 7.73 83.406a330.608 330.608 0 0 0 11.67 40.439l7.836 17.285c42.367 87.947 119.195 144.83 216.231 159.946 78.986 12.288 158.826-8.692 224.869-59.117l33.1-28.031c4.567-5.214 19.974-22.913 22.755-26.309l14.565-19.328c20.384-28.193 34.171-56.155 45.979-93.326 2.588-8.147 1.298-16.885-3.539-23.971-2.106-3.086-4.771-5.627-7.786-7.605-7.092-0.467-14.749-0.979-22.865-1.53 9.161 8.579 13.427 21.998 9.248 35.152z" fill="#3AAE47" p-id="23708"></path><path d="M105.383 425.811c-4.587 143.821 93.09 269.844 231.383 291.387 138.874 21.633 270.777-69.557 314.796-208.125 4.179-13.154-0.087-26.572-9.248-35.152-1.598-1.497-3.368-2.814-5.245-3.989l-9.618-0.651c6.854 7.986 9.733 19.251 6.218 30.314-41.127 129.466-164.365 214.665-294.115 194.453-129.208-20.128-220.469-137.871-216.183-272.244 0.396-12.423 7.421-22.738 17.291-28.293l-6.983-1.769a36.62 36.62 0 0 0-4.145 1.223c-13.445 4.817-23.655 17.286-24.151 32.846z" fill="#FFFFFF" p-id="23709"></path><path d="M123.371 421.804c-4.286 134.373 86.974 252.116 216.182 272.244 129.75 20.212 252.988-64.987 294.115-194.451 3.515-11.064 0.636-22.328-6.218-30.314l-25.185-1.704a9605.74 9605.74 0 0 1-41.87-3.014c-0.013 0-0.025 0-0.036-0.003l-52.323-4.063a5140.313 5140.313 0 0 1-38.048-3.231c-45.403-4.034-79.049-7.773-99.999-11.106-48.583-7.724-157.891-34.574-229.326-52.649-9.87 5.552-16.895 15.868-17.292 28.291z m71.212-3.492c1.265-3.898 5.454-6.028 9.348-4.765 1.001 0.325 100.625 32.52 144.538 33.239a7.42 7.42 0 0 1-0.119 14.839h-0.125c-46.13-0.759-144.704-32.607-148.878-33.964a7.421 7.421 0 0 1-4.764-9.349z m180.272 35.892a7.84 7.84 0 1 1 0 15.68 7.84 7.84 0 0 1 0-15.68z m17.903 126.408c-1.026 9.662-4.792 17.182-8.412 16.798-3.619-0.384-5.721-8.528-4.695-18.19 1.026-9.662 4.792-17.182 8.411-16.798 3.62 0.385 5.722 8.528 4.696 18.19z m-176.843-61.161c-2.626 9.354-7.596 16.139-11.1 15.156-3.504-0.984-4.216-9.364-1.589-18.719 2.626-9.354 7.596-16.14 11.1-15.156 3.504 0.984 4.215 9.365 1.589 18.719z m35.04 14.458c-1.205 9.641-5.11 17.09-8.721 16.639-3.612-0.451-5.562-8.633-4.357-18.274 1.205-9.641 5.11-17.09 8.721-16.639 3.611 0.452 5.562 8.633 4.357 18.274z m26.366 32.485c-1.24 9.636-5.171 17.072-8.781 16.608-3.61-0.464-5.531-8.653-4.292-18.29 1.24-9.636 5.171-17.072 8.781-16.607 3.61 0.464 5.531 8.653 4.292 18.289z m54.541 45.984c-3.637 0.143-6.895-7.611-7.278-17.319-0.383-9.708 2.255-17.695 5.892-17.838 3.637-0.143 6.895 7.611 7.278 17.319 0.382 9.708-2.256 17.694-5.892 17.838z m108.554-17.783c-3.595 0.569-7.741-6.749-9.261-16.345-1.52-9.596 0.163-17.837 3.757-18.407 3.595-0.569 7.741 6.749 9.26 16.345 1.521 9.596-0.162 17.837-3.756 18.407z m44.161-32.498c4.329 8.698 5.196 17.064 1.938 18.685-3.258 1.622-9.409-4.115-13.737-12.813-4.329-8.698-5.196-17.064-1.938-18.686 3.258-1.622 9.408 4.115 13.737 12.814z" fill="#FF2939" p-id="23710"></path><path d="M313.802 750.305a342.303 342.303 0 0 0 18.237 3.358 308.295 308.295 0 0 0 47.504 3.689c68.678-0.003 135.967-23.072 193.387-66.985 0.136-0.104 0.271-0.214 0.401-0.325l33.888-28.698c0.391-0.33 0.756-0.69 1.094-1.075 2.665-3.034 20.787-23.805 23.891-27.637 0.078-0.096 0.154-0.191 0.227-0.29l14.807-19.652c21.583-29.851 36.715-60.499 49.066-99.375a48.255 48.255 0 0 0 1.675-22.217 48.463 48.463 0 0 0-7.855-19.754c-8.5-12.456-22-20.162-37.023-21.148l-49.385-3.342c-13.278-0.93-27.344-1.939-41.781-3.008l-52.249-4.057a5122.374 5122.374 0 0 1-37.856-3.217c-44.932-3.994-78.098-7.669-98.578-10.926a501.693 501.693 0 0 1-10.659-1.825 951.82 951.82 0 0 1-19.752-3.826c-4.786-0.974-9.805-2.023-15.009-3.135-2.085-0.445-4.189-0.898-6.332-1.362-1.581-14.945-2.231-30.094-1.809-45.169 0.265-9.465 4.782-18.2 12.393-23.971 7.763-5.883 17.628-7.892 27.062-5.535a11803.964 11803.964 0 0 0 18.764 4.687c73.603 18.316 185.957 45.443 235.962 53.198 21.506 3.336 56.156 7.045 102.989 11.027a5279.342 5279.342 0 0 0 39.18 3.173l53.925 3.973a9856.047 9856.047 0 0 0 43.12 2.936l25.607 1.633 9.7 0.619 15.634 0.997a28.9 28.9 0 0 1 14.478 4.95c2.956 2.004 5.574 4.537 7.67 7.582 5.065 7.358 6.443 16.447 3.782 24.936-12.019 38.354-26.115 67.226-47.011 96.37l-14.926 19.965c-2.847 3.507-18.682 21.841-23.346 27.208l-33.991 29.016c-65.989 50.797-145.549 72.95-224.782 62.77a328.63 328.63 0 0 1-24.176 17.094c4.731 0.918 9.491 1.776 14.312 2.508a317.107 317.107 0 0 0 47.646 3.605c71.074 0 140.658-24.014 199.889-69.683a8.76 8.76 0 0 0 0.401-0.325l34.776-29.686c0.388-0.333 0.752-0.693 1.088-1.078 2.732-3.136 21.301-24.588 24.482-28.547 0.077-0.096 0.151-0.191 0.223-0.287l15.163-20.287c22.083-30.796 37.525-62.386 50.074-102.43 2.412-7.697 2.848-15.667 1.499-23.344a49.565 49.565 0 0 0-7.993-19.583c-8.75-12.708-22.594-20.542-37.967-21.487l-46.32-2.953-4.543-0.29c-13.675-0.904-28.164-1.887-42.998-2.927l-53.849-3.968a5644.954 5644.954 0 0 1-38.99-3.159c-46.356-3.941-80.527-7.596-101.563-10.859-53.654-8.321-181.454-39.598-252.858-57.502-15.575-3.913-31.857-0.577-44.662 9.129-12.655 9.593-20.167 24.15-20.609 39.945-0.384 13.67 0.041 27.406 1.213 41.013-37.777-8.534-81.068-19.056-119.291-28.579a10170.287 10170.287 0 0 1-52.933-13.344c-15.201-3.875-31.118-0.687-43.667 8.75-12.4 9.323-19.793 23.519-20.284 38.945a349.726 349.726 0 0 0 2.559 54.851c0.028 0.229 0.065 0.455 0.109 0.681l8.467 43.53c0.043 0.229 0.096 0.452 0.155 0.678a340.831 340.831 0 0 0 13.363 40.177c0.055 0.136 0.112 0.27 0.172 0.403l11.397 25.133c0.888 1.844 1.816 3.653 2.732 5.472 43.257 85.859 117.492 143.075 210.884 162.846zM98.554 522.196a319.615 319.615 0 0 1-3.131-10.908l-8.334-42.846a329.07 329.07 0 0 1-2.363-51.245c0.291-9.1 4.666-17.485 12.006-23.003 7.487-5.628 16.986-7.535 26.052-5.222 3.488 0.889 7.148 1.819 10.897 2.771 2.284 0.58 4.612 1.169 6.983 1.769 71.434 18.075 180.743 44.925 229.326 52.649 20.951 3.333 54.597 7.072 99.999 11.106a5149.534 5149.534 0 0 0 38.048 3.231l52.323 4.063a9594.477 9594.477 0 0 0 41.906 3.017l25.185 1.704 9.618 0.651 14.658 0.992c4.897 0.321 9.487 1.924 13.452 4.526 3.015 1.979 5.68 4.52 7.786 7.605 4.837 7.086 6.127 15.824 3.539 23.971-11.809 37.172-25.595 65.133-45.979 93.326l-14.565 19.328c-2.781 3.397-18.187 21.096-22.755 26.309l-33.1 28.031c-66.043 50.425-145.883 71.405-224.869 59.117-97.036-15.117-173.865-71.999-216.231-159.946l-7.836-17.285-3.369-7.431c-3.452-8.566-6.534-17.371-9.246-26.28z" fill="#231815" p-id="23711"></path><path d="M214.325 500.732c-3.504-0.984-8.474 5.802-11.1 15.156-2.626 9.355-1.915 17.735 1.589 18.719 3.504 0.984 8.474-5.801 11.1-15.156 2.627-9.354 1.916-17.735-1.589-18.719zM246.598 515.635c-3.611-0.451-7.516 6.998-8.721 16.639-1.205 9.641 0.746 17.822 4.357 18.274 3.611 0.451 7.516-6.998 8.721-16.639 1.205-9.641-0.746-17.822-4.357-18.274zM273.029 548.105c-3.61-0.464-7.541 6.971-8.781 16.607-1.24 9.637 0.682 17.825 4.292 18.29 3.61 0.464 7.541-6.971 8.781-16.608 1.239-9.636-0.682-17.825-4.292-18.289z" fill="#231815" p-id="23712"></path><path d="M324.582079 595.044909a17.592 6.59 87.708 1 0 13.169456-0.527098 17.592 6.59 87.708 1 0-13.169456 0.527098Z" fill="#231815" p-id="23713"></path><path d="M388.062 562.422c-3.619-0.385-7.385 7.136-8.411 16.798-1.026 9.661 1.076 17.805 4.695 18.19 3.619 0.385 7.385-7.136 8.412-16.798 1.026-9.662-1.076-17.805-4.696-18.19zM444.173 576.188c-1.52-9.596-5.666-16.914-9.26-16.345-3.595 0.569-5.277 8.81-3.757 18.407 1.52 9.596 5.666 16.914 9.261 16.345 3.593-0.57 5.276-8.811 3.756-18.407zM470.839 549.283c-3.258 1.622-2.391 9.987 1.938 18.686 4.329 8.698 10.479 14.435 13.737 12.813 3.258-1.621 2.391-9.987-1.938-18.685-4.328-8.699-10.478-14.436-13.737-12.814z" fill="#231815" p-id="23714"></path><path d="M348.226 461.625h0.125a7.42 7.42 0 0 0 0.119-14.839c-43.913-0.719-143.537-32.914-144.538-33.239a7.42 7.42 0 0 0-4.583 14.114c4.174 1.357 102.747 33.205 148.877 33.964z" fill="#FFFFFF" p-id="23715"></path><path d="M374.855 462.045m-7.84 0a7.84 7.84 0 1 0 15.68 0 7.84 7.84 0 1 0-15.68 0Z" fill="#FFFFFF" p-id="23716"></path></svg>