<?xml version="1.0" standalone="no"?><!DOCTYPE svg PUBLIC "-//W3C//DTD SVG 1.1//EN" "http://www.w3.org/Graphics/SVG/1.1/DTD/svg11.dtd"><svg t="1545200825889" class="icon" style="" viewBox="0 0 1024 1024" version="1.1" xmlns="http://www.w3.org/2000/svg" p-id="1767" xmlns:xlink="http://www.w3.org/1999/xlink" width="64" height="64"><defs><style type="text/css"></style></defs><path d="M316.8 614.4c76.8 68.8 105.6 132.8 105.6 216s150.4 64 174.4 30.4 11.2-256 97.6-316.8 137.6-96 137.6-105.6-244.8-20.8-299.2 16C480 491.2 288 491.2 302.4 536c14.4 44.8-62.4 9.6 14.4 78.4z" fill="#E4F2AC" p-id="1768"></path><path d="M312 609.6c-8-9.6-17.6-19.2-28.8-30.4 4.8 8 12.8 17.6 28.8 30.4z m428.8-180.8c51.2 1.6 91.2 4.8 91.2 9.6 0 9.6-49.6 44.8-137.6 105.6s-73.6 281.6-97.6 315.2c-24 32-166.4 51.2-174.4-24 46.4 11.2 110.4-3.2 126.4-24 24-33.6 11.2-254.4 97.6-315.2 40-27.2 70.4-49.6 94.4-67.2z" fill="#CAD98B" p-id="1769"></path><path d="M267.2 582.4c-6.4-16 1.6-25.6 14.4-32l3.2-1.6c4.8-1.6 3.2-1.6 1.6-6.4-6.4-22.4 8-36.8 36.8-48 17.6-6.4 38.4-11.2 80-19.2 1.6 0 14.4-3.2 17.6-3.2 59.2-11.2 88-19.2 102.4-28.8 27.2-19.2 92.8-27.2 177.6-28.8 94.4-1.6 145.6 3.2 145.6 25.6 0 12.8-9.6 22.4-43.2 46.4-19.2 14.4-22.4 17.6-102.4 72-30.4 22.4-51.2 68.8-64 142.4-3.2 16-4.8 32-8 51.2-1.6 9.6-4.8 41.6-6.4 48-4.8 41.6-9.6 59.2-17.6 70.4-16 22.4-65.6 36.8-110.4 35.2-54.4-1.6-92.8-27.2-92.8-75.2 0-81.6-27.2-140.8-99.2-203.2-19.2-20.8-30.4-33.6-35.2-44.8z m30.4-11.2z m30.4 30.4c78.4 68.8 110.4 136 110.4 227.2 0 27.2 22.4 41.6 62.4 43.2 35.2 1.6 75.2-9.6 83.2-22.4 3.2-4.8 8-22.4 11.2-56 0-6.4 4.8-38.4 6.4-48 3.2-20.8 4.8-36.8 8-52.8 14.4-80 36.8-134.4 76.8-161.6 78.4-56 81.6-57.6 100.8-72 4.8-3.2 9.6-8 14.4-11.2h-8c-25.6-1.6-57.6-3.2-89.6-3.2-78.4 1.6-140.8 9.6-160 22.4-20.8 14.4-51.2 22.4-115.2 35.2-3.2 0-16 3.2-17.6 3.2-38.4 8-59.2 11.2-75.2 17.6-14.4 4.8-17.6 8-17.6 8 6.4 22.4-1.6 35.2-17.6 44.8 4.8 6.4 12.8 14.4 27.2 25.6z m489.6-168z" fill="#333333" p-id="1770"></path><path d="M536 123.2c-75.2-9.6-112 17.6-121.6 32-28.8-1.6-49.6 9.6-64 33.6-44.8 1.6-72 20.8-81.6 57.6-76.8 6.4-124.8 43.2-140.8 113.6s3.2 123.2 60.8 160c14.4 65.6 49.6 102.4 100.8 116.8 49.6 14.4 116.8 11.2 163.2-72 36.8 12.8 62.4 0 78.4-40 28.8 22.4 59.2 20.8 88-4.8 59.2 41.6 108.8 35.2 150.4-17.6 68.8 25.6 113.6 12.8 132.8-38.4 28.8-78.4-46.4-144-96-156.8-6.4-30.4-25.6-44.8-60.8-44.8-3.2-54.4-38.4-78.4-107.2-73.6-17.6-38.4-52.8-59.2-102.4-65.6z" fill="#6FA763" p-id="1771"></path><path d="M744 244.8c-17.6-19.2-46.4-27.2-88-24-17.6-36.8-52.8-59.2-102.4-65.6-75.2-9.6-112 17.6-121.6 32-28.8-1.6-49.6 9.6-64 33.6-44.8 1.6-72 20.8-81.6 57.6-78.4 6.4-126.4 43.2-142.4 113.6-8 32-8 62.4 0 88-22.4-32-28.8-72-16-120 16-70.4 64-107.2 142.4-113.6 9.6-36.8 36.8-56 81.6-57.6 14.4-24 35.2-35.2 64-33.6 9.6-14.4 46.4-41.6 121.6-32 49.6 6.4 84.8 27.2 102.4 65.6 59.2-4.8 94.4 12.8 104 56z m11.2 17.6c28.8 3.2 46.4 17.6 51.2 44.8 33.6 9.6 81.6 44.8 97.6 91.2-20.8-30.4-56-52.8-81.6-59.2-6.4-30.4-25.6-44.8-60.8-44.8 0-12.8-3.2-22.4-6.4-32z m-542.4 320c-6.4-11.2-12.8-22.4-17.6-35.2 3.2 1.6 6.4 4.8 9.6 6.4 1.6 9.6 4.8 19.2 8 28.8z" fill="#A8CAA1" p-id="1772"></path><path d="M566.4 129.6c24 8 43.2 19.2 57.6 36.8-17.6-14.4-38.4-27.2-57.6-36.8z m75.2 59.2c65.6-4.8 100.8 19.2 104 73.6 33.6 0 54.4 14.4 60.8 44.8 48 12.8 124.8 78.4 96 156.8-19.2 51.2-64 64-132.8 38.4-41.6 52.8-91.2 59.2-150.4 17.6-30.4 25.6-59.2 27.2-88 4.8-14.4 40-41.6 52.8-78.4 40-44.8 83.2-112 84.8-163.2 72-19.2-4.8-35.2-14.4-49.6-25.6 40 0 83.2-19.2 116.8-78.4 36.8 12.8 62.4 0 78.4-40 28.8 22.4 59.2 20.8 88-4.8 59.2 41.6 108.8 35.2 150.4-17.6 68.8 25.6 113.6 12.8 132.8-38.4 28.8-78.4-46.4-144-96-156.8-6.4-30.4-25.6-44.8-60.8-44.8-1.6-17.6-3.2-32-8-41.6z" fill="#529344" p-id="1773"></path><path d="M537.6 107.2c51.2 6.4 88 27.2 110.4 65.6 64-3.2 104 22.4 112 75.2 30.4 3.2 49.6 20.8 59.2 48 68.8 22.4 124.8 100.8 97.6 174.4-22.4 57.6-72 75.2-142.4 51.2-43.2 48-96 54.4-155.2 19.2-27.2 19.2-56 22.4-83.2 8-17.6 30.4-44.8 43.2-76.8 35.2-43.2 68.8-105.6 88-174.4 68.8-56-16-94.4-57.6-110.4-121.6-59.2-40-80-99.2-62.4-174.4 17.6-73.6 67.2-115.2 145.6-124.8 12.8-35.2 41.6-54.4 84.8-57.6 16-20.8 38.4-33.6 64-33.6 22.4-25.6 70.4-41.6 131.2-33.6z m-3.2 32c-32-3.2-57.6-1.6-78.4 6.4-14.4 4.8-24 12.8-27.2 17.6-3.2 4.8-8 8-14.4 8-22.4-1.6-38.4 8-49.6 25.6-3.2 4.8-8 8-12.8 8-38.4 1.6-59.2 16-67.2 46.4-1.6 6.4-8 11.2-14.4 11.2-72 4.8-112 38.4-128 100.8-14.4 64 1.6 110.4 52.8 142.4 3.2 1.6 6.4 6.4 6.4 9.6 12.8 57.6 43.2 91.2 89.6 104 59.2 16 108.8 0 144-64 3.2-6.4 11.2-9.6 19.2-8 28.8 9.6 46.4 1.6 57.6-30.4 3.2-9.6 16-12.8 24-6.4 24 17.6 44.8 16 68.8-4.8 4.8-4.8 12.8-4.8 19.2-1.6 52.8 36.8 92.8 32 129.6-14.4 4.8-4.8 11.2-8 17.6-4.8 62.4 22.4 96 12.8 112-28.8 20.8-56-28.8-120-84.8-134.4-6.4-1.6-11.2-6.4-11.2-12.8-4.8-22.4-17.6-32-44.8-32-8 0-16-6.4-16-14.4-3.2-44.8-30.4-62.4-89.6-57.6-6.4 0-12.8-3.2-16-9.6-12.8-32-41.6-51.2-86.4-56z" fill="#333333" p-id="1774"></path><path d="M420.8 601.6c-6.4-6.4-4.8-17.6 1.6-22.4 6.4-6.4 17.6-4.8 22.4 1.6 20.8 24 32 49.6 32 76.8 0 9.6-6.4 16-16 16s-16-6.4-16-16c0-17.6-8-35.2-24-56zM585.6 526.4c6.4-6.4 16-6.4 22.4-1.6 6.4 6.4 6.4 16 1.6 22.4-20.8 24-40 94.4-35.2 161.6 0 9.6-6.4 16-14.4 17.6-9.6 0-16-6.4-17.6-14.4-6.4-75.2 14.4-153.6 43.2-185.6zM568 355.2c-8 4.8-17.6 1.6-22.4-6.4-4.8-8-1.6-17.6 6.4-22.4 49.6-28.8 118.4-20.8 152 16 6.4 6.4 6.4 16-1.6 22.4-6.4 6.4-16 6.4-22.4-1.6-22.4-24-75.2-28.8-112-8zM408 252.8c-4.8 8-14.4 11.2-22.4 6.4-8-4.8-11.2-14.4-6.4-22.4 16-30.4 70.4-32 92.8-1.6 4.8 8 3.2 17.6-3.2 22.4-8 4.8-17.6 3.2-22.4-3.2-8-11.2-33.6-9.6-38.4-1.6zM276.8 417.6c-6.4 6.4-16 6.4-22.4 0-6.4-6.4-6.4-16 0-22.4 40-38.4 116.8-28.8 139.2 20.8 3.2 8 0 17.6-8 20.8s-17.6 0-20.8-8c-12.8-28.8-62.4-35.2-88-11.2z" fill="#333333" p-id="1775"></path></svg>