<?xml version="1.0" standalone="no"?><!DOCTYPE svg PUBLIC "-//W3C//DTD SVG 1.1//EN" "http://www.w3.org/Graphics/SVG/1.1/DTD/svg11.dtd"><svg t="1545202358645" class="icon" style="" viewBox="0 0 1024 1024" version="1.1" xmlns="http://www.w3.org/2000/svg" p-id="22173" xmlns:xlink="http://www.w3.org/1999/xlink" width="64" height="64"><defs><style type="text/css"></style></defs><path d="M84 716.8l162.6-520.3s7.3-21.1 33.8-18c40.3 4.8 46.4 29.9 106 31.9s117-61.9 145.8-21.9c28.7 39.9 55.2 14 37.5 55.9l-111.4 491" fill="#F49292" p-id="22174"></path><path d="M121.4 679.4c-19.1 12.2-87.3 69.5 2 90.7 98.2 35.5 66.4 56.7 334.9 18.3v-52.9c0-0.1-189.2-150.2-336.9-56.1z" fill="#E57777" p-id="22175"></path><path d="M365.9 751.7s-44.1 80.1-151.7 59.3c-21.6-4.2-39.5-27.1-31.7-59.4 0 0 37.6-113.5 204-20.4 17.1 9.6 92.5 64.1-26.5 73.8" fill="#DB6161" p-id="22176"></path><path d="M489.3 590c3.2-4.7-196.3-105.9-345.5-49.7l17-54.4s108.6-74.5 353.8-4.7L489.3 590zM531.6 402.2s-140.8-111.9-341.8-22.1l20.8-68.6c154.6-89.8 333.8 44.1 333.8 44.1l-12.8 46.6" fill="#FFFBF8" p-id="22177"></path><path d="M781 778.2L867.8 258s4.7-11.3-38.6-41.6c-27.6-19.3-58.3-36.3-115.9-20-21 6-57.6 29.1-83.9 23.9-11.5-2.2-39-9.3-46.7-4L457.1 739.2l323.9 39z" fill="#F49292" p-id="22178"></path><path d="M837.1 442s-168.6-131.4-305.5-29.7l19-83.6C674.7 223.5 844.5 398 844.5 398l-7.4 44zM494.4 576c136.3-103.6 312.3 34.3 312.3 34.3l16-82S705 410.1 508.6 513.7L494.4 576z" fill="#FFFBF8" p-id="22179"></path><path d="M781.1 754.5c-13.3-39.9-77-55.8-77-55.8s-2.3 1-6.4 2.7c-52.6-10.5-221.2-37.8-240.6 37.8-4.5 17.5-7.5 55.5 19.1 70.9 8.7 17.7 52.4 44.5 168.2 34.7 154.8-13.2 136.7-90.3 136.7-90.3z" fill="#E57777" p-id="22180"></path><path d="M680.8 767.4s16.6 54.6-69.1 75.5c-28.2 6.9-92.7-4.6-101.6-55.9-6.1-35.4-15-80.1 161.2-57.9 27.3 3.4 218.6 33.9 22.1 107.7" fill="#DB6161" p-id="22181"></path><path d="M248.6 821.8c-11.1 0-23-1.1-35.8-3.5-12.6-2.4-23.9-10.2-31-21.4-8.3-13-10.6-29.7-6.4-47 0-0.2 0.1-0.4 0.2-0.6 0.5-1.6 13.2-38.6 55-54.8 41.3-16 95-5.8 159.6 30.3 0.5 0.3 48.7 27.7 42.5 55.8-3.9 17.8-27.4 28.2-72 31.8-4.1 0.3-7.6-2.7-7.9-6.7s2.7-7.6 6.7-7.9c50-4.1 57.8-15.5 58.8-20.2 2.7-12.4-22.1-32.4-35.3-39.8-60.6-33.9-110.1-43.8-147.1-29.4-33.7 13.1-45.1 42.5-46.2 45.5-4 17 0.3 28.5 4.6 35.2 5 7.8 12.8 13.2 21.4 14.9 42.3 8.2 79.3 1.4 110-20.2 23-16.2 33.8-35.2 33.9-35.4 2-3.5 6.5-4.8 10-2.9 3.6 2 4.8 6.4 2.9 10-0.5 0.9-12.1 21.7-37.7 39.9-18.5 12.8-47 26.4-86.2 26.4z" fill="" p-id="22182"></path><path d="M139.2 780.6c-0.4 0-0.8 0-1.2-0.1-40.5-6.5-62.2-19.2-66.3-38.9-2.7-12.9 2.8-27.2 16.3-42.7 9.9-11.3 22.1-20.9 29.5-25.7 34.9-22.3 75-33.1 119-32.1 34.9 0.8 72.4 8.9 111.4 24.2 66 25.9 113 62.8 114.9 64.4 3.2 2.5 3.7 7.2 1.2 10.3s-7.2 3.7-10.3 1.2c-0.6-0.4-47.5-37.3-111.5-62.3-37.3-14.6-73-22.3-106.2-23-41-0.9-78.2 9.2-110.6 29.8-13.9 8.9-43.1 34.5-39.3 53 2.6 12.7 21.4 22.1 54.2 27.4 4 0.6 6.8 4.4 6.1 8.4-0.5 3.5-3.6 6.1-7.2 6.1z" fill="" p-id="22183"></path><path d="M458.3 742.8c-0.5 0-1.1-0.1-1.6-0.2-4-0.9-6.5-4.8-5.6-8.8l111.4-491c0.1-0.4 0.2-0.8 0.4-1.2 6-14.1 5.2-17.1 5-17.5-0.5-0.8-3.8-2.1-6.2-3.1-8.8-3.7-22-9.3-35.5-28.1-12.5-17.4-31.7-10.1-64.4 4.4-22.9 10.1-48.7 21.5-75.6 20.6-35.8-1.2-53.6-10.6-69.4-18.8-11.5-6-21.4-11.2-37.2-13.1-19.8-2.3-25.5 11.7-25.9 13L91 719c-1.2 3.9-5.3 6-9.2 4.8-3.9-1.2-6-5.3-4.8-9.2l162.6-520.3c0-0.1 0-0.1 0.1-0.2 3.2-9.2 16-25.9 41.6-22.9 18.6 2.2 30.7 8.6 42.4 14.7 15 7.9 30.6 16.1 63 17.2 23.5 0.8 47.8-9.9 69.2-19.3 15.7-6.9 30.4-13.4 43.9-15.2 16.6-2.2 29.2 2.9 38.4 15.7 11.1 15.4 21.6 19.9 29.3 23.1 6 2.5 11.6 4.9 14.1 11.2 2.5 6.1 1.2 13.8-4.8 28.2L465.5 737c-0.8 3.4-3.8 5.8-7.2 5.8z" fill="" p-id="22184"></path><path d="M489.3 597.4c-1.4 0-2.9-0.4-4.1-1.3-0.9-0.6-1.7-1.4-2.2-2.3-7.7-5.7-55.5-29.9-119.8-46.7-58.4-15.2-143.4-27.6-216.8 0.1-3.8 1.4-8.1-0.5-9.5-4.3s0.5-8.1 4.3-9.5c78-29.4 167.5-16.1 228.8 0.3 62.9 16.8 118.7 43.2 124.9 51.2 2.2 2.8 2.4 6.5 0.5 9.3-1.4 2-3.8 3.2-6.1 3.2z m-6.1-11.5z m0 0zM160.8 493.3c-2.3 0-4.7-1.1-6.1-3.2-2.3-3.4-1.4-7.9 1.9-10.2 1.2-0.8 29.2-19.7 87.9-29.7 34.1-5.8 71.7-7.5 111.8-5 49.9 3.2 103.8 12.9 160.3 29 3.9 1.1 6.2 5.2 5.1 9.1-1.1 3.9-5.2 6.2-9.1 5.1-69.2-19.7-171.4-39.8-265.6-23.6-55.6 9.5-81.8 27.2-82 27.3-1.3 0.7-2.8 1.2-4.2 1.2zM531.6 409.6c-1.6 0-3.2-0.5-4.6-1.6-0.6-0.5-35.4-27.6-93.6-43.6-34.2-9.4-69.7-13.2-105.5-11.3-44.8 2.4-90.3 13.7-135.1 33.8-3.7 1.7-8.1 0-9.7-3.7-1.7-3.7 0-8.1 3.7-9.7 46.7-20.9 94.1-32.7 140.8-35.1 37.5-1.9 74.6 2.1 110.4 12.1 61.1 17 96.7 44.9 98.1 46.1 3.2 2.5 3.7 7.2 1.2 10.4-1.4 1.6-3.5 2.6-5.7 2.6z" fill="" p-id="22185"></path><path d="M544.5 363c-1.5 0-3.1-0.5-4.4-1.5-0.6-0.4-45-33.3-107.3-54.8-36.1-12.5-71.2-18.8-104.2-18.8h-0.7c-41.2 0.1-79.4 10.2-113.5 30-3.5 2-8 0.8-10.1-2.7-2-3.5-0.8-8 2.7-10.1 36.4-21.1 77.1-31.9 121.1-32h0.5c34.8 0 71.6 6.7 109.4 19.8 64.5 22.4 109.1 55.4 110.9 56.8 3.3 2.4 3.9 7.1 1.5 10.3-1.4 1.9-3.7 3-5.9 3zM594.4 852.2c-19 0-41.9-5.2-60.2-17.2-17.2-11.3-28.1-27.5-31.4-46.7l-0.1-0.7c-2.8-16-6.2-36 8.3-51.1 12.8-13.4 43.4-29.4 161.2-14.5 3.3 0.4 32.9 4.2 61.4 12.9 34.9 10.6 52.7 23.5 54.6 39.7 2.7 22.7-26.6 44.7-92.3 69.4-3.8 1.4-8.1-0.5-9.5-4.3-1.4-3.8 0.5-8.1 4.3-9.5 77.1-29 83.6-47.3 82.8-53.8-0.5-4.3-5.8-15.7-44.3-27.3-27.4-8.3-55.8-12-59-12.4-82.4-10.4-132.4-7-148.7 10.1-9.4 9.8-7 23.7-4.4 38.4l0.1 0.7c2.7 15.3 11.1 27.7 25 36.9 20.5 13.5 50.5 17.3 67.6 13.1 29.7-7.2 49.6-19.3 58.9-35.7 9-15.7 4.9-30.3 4.8-30.5-1.2-3.9 1-8 4.9-9.2 3.9-1.2 8 1 9.2 4.9 0.3 0.8 6.1 20.7-6.1 42.1-11.5 20.1-34.4 34.5-68.3 42.7-5.3 1.3-11.7 2-18.8 2z" fill="" p-id="22186"></path><path d="M490.2 822.8c-0.5 0-1-0.1-1.5-0.2-14.4-3-25.4-10.4-32.6-21.9-15-24.1-7.8-56.9-6.2-63.3 5.9-23.2 24.4-39.5 54.8-48.5 23-6.8 53.1-9.5 89.4-8 61.2 2.6 120.3 16.4 120.9 16.6 4 0.9 6.4 4.9 5.5 8.9s-4.9 6.4-8.9 5.5c-0.6-0.1-58.5-13.7-118.3-16.2-53-2.2-118.5 3.8-129.1 45.4-6 23.5-1.4 42.6 4.4 51.8 5.1 8.1 12.6 13.1 23.1 15.3 4 0.8 6.5 4.7 5.7 8.7-0.7 3.5-3.8 5.9-7.2 5.9zM781 785.6c-0.4 0-0.8 0-1.2-0.1-4-0.7-6.7-4.5-6.1-8.5l86.8-520.2v-0.1c-0.4-1.6-3.9-12.1-35.6-34.3-26.8-18.8-55.4-34.3-109.7-18.9-5.9 1.7-13.5 5-21.7 8.5-20.1 8.7-45 19.6-65.7 15.5-1.8-0.3-4-0.8-6.5-1.3-7.4-1.6-30-6.4-34.7-3.8-3.4 2.3-7.9 1.4-10.2-1.9-2.3-3.4-1.4-8 1.9-10.3 8.4-5.8 25.1-2.9 46 1.5 2.4 0.5 4.5 1 6.2 1.3 16.1 3.2 38.8-6.6 57-14.5 8.6-3.7 16.7-7.3 23.5-9.2 60.5-17.1 93.5 1 122.1 21 39.6 27.7 43.5 42.6 41.6 49.4L788 779.4c-0.3 3.6-3.5 6.2-7 6.2z" fill="" p-id="22187"></path><path d="M822.7 535.7c-1.9 0-3.8-0.7-5.2-2.2-0.6-0.6-29.5-28.9-81.1-44.5-30.4-9.2-62.6-12.4-95.7-9.3-41.6 3.8-84.9 17.5-128.6 40.6-3.6 1.9-8.1 0.5-10-3.1-1.9-3.6-0.5-8.1 3.1-10 45.7-24.1 91-38.3 134.7-42.2 35.2-3.2 69.3 0.2 101.6 10.2 55.1 16.9 85.2 46.7 86.5 48 2.9 2.9 2.9 7.5 0 10.4-1.5 1.4-3.4 2.1-5.3 2.1zM806.8 617.7c-1.6 0-3.2-0.5-4.5-1.6-0.6-0.4-44.1-34.2-103.3-54.9-34.5-12.1-67.5-17.5-98-16.1-37.8 1.8-72.1 14.2-102 36.8-3.2 2.5-7.9 1.8-10.3-1.4s-1.8-7.9 1.4-10.3c32.3-24.5 69.5-37.9 110.4-39.8 32.5-1.5 67.4 4.2 103.8 17.1 61.5 21.7 105.3 55.7 107.1 57.1 3.2 2.5 3.8 7.1 1.3 10.3-1.6 1.8-3.7 2.8-5.9 2.8zM837.1 449.4c-1.6 0-3.2-0.5-4.5-1.6-0.4-0.3-42.2-32.5-99.6-52-33.5-11.3-65.6-16.2-95.7-14.5-37.2 2.1-71.3 14.5-101.3 36.8-3.3 2.4-7.9 1.7-10.3-1.5-2.4-3.3-1.7-7.9 1.5-10.3 32.4-24.1 69.2-37.4 109.5-39.7 32-1.8 66.1 3.4 101.4 15.4 59.8 20.3 101.8 52.8 103.6 54.2 3.2 2.5 3.8 7.1 1.3 10.3-1.5 1.9-3.7 2.9-5.9 2.9z" fill="" p-id="22188"></path><path d="M844.5 405.5c-1.9 0-3.8-0.7-5.3-2.2-0.4-0.4-42.5-43.3-98.8-72.9-32.6-17.1-63.6-26.5-92-27.8-34.9-1.6-66.2 9.1-93 31.8-3.1 2.6-7.8 2.2-10.4-0.9-2.6-3.1-2.2-7.8 0.9-10.4 29.8-25.2 64.6-37.1 103.4-35.3 30.6 1.4 63.7 11.4 98.3 29.6 58.3 30.7 100.5 73.7 102.3 75.5 2.8 2.9 2.8 7.6-0.1 10.4-1.6 1.5-3.4 2.2-5.3 2.2z" fill="" p-id="22189"></path></svg>