<?xml version="1.0" standalone="no"?><!DOCTYPE svg PUBLIC "-//W3C//DTD SVG 1.1//EN" "http://www.w3.org/Graphics/SVG/1.1/DTD/svg11.dtd"><svg t="1545200343323" class="icon" style="" viewBox="0 0 1024 1024" version="1.1" xmlns="http://www.w3.org/2000/svg" p-id="2778" xmlns:xlink="http://www.w3.org/1999/xlink" width="64" height="64"><defs><style type="text/css"></style></defs><path d="M411.6 603.4s0-236.4 134-350.7c72.9-62.1 254.8-181 308.2 15 22.8 83.7 20.6 228.6-105.2 330.6-58.3 47.3-146.2 92.9-239.5 76.5" fill="#7FC655" p-id="2779"></path><path d="M641.4 424.8C572.5 486 439.6 597.6 365.2 635.1c-93 46.8-127.5 59.2-161.3 90.8-135 126.3 2.1 136.5 36.6 133.3 198.7-18.5 274.4-209 322.4-310 69.5-146.3 202.9-253.1 202.9-253.1" fill="#E8EFB9" p-id="2780"></path><path d="M641.4 424.8C572.5 486 439.6 597.6 365.2 635.1c-93 46.8-127.5 59.2-161.3 90.8-135 126.3 5.2 89.7 28.1 80 184-77.2 282.9-155.7 330.8-256.7 69.5-146.3 202.9-253.1 202.9-253.1" fill="#FEFFD3" p-id="2781"></path><path d="M229.2 867c-26.7 0-74.1-6.2-87.5-35.8-5.8-12.9-4.4-28.4 4.3-46 9.2-18.7 27-40.5 52.9-64.7 26.9-25.1 53.9-38.3 107.8-64.7 15.9-7.8 34-16.6 55.2-27.3 32.5-16.4 79.2-48.5 138.9-95.5 60.2-47.3 114.7-95 135.6-113.5 17.2-21.9 34-41 48.7-56.7 41.9-44.9 74.8-71.3 76.2-72.4 3.2-2.5 7.8-2 10.3 1.1 2.5 3.2 2 7.8-1.1 10.3-0.3 0.3-33.6 27-74.8 71.2-37.9 40.6-90.6 104.7-126.1 179.4-3.1 6.5-6.3 13.3-9.7 20.6-23.8 51.1-56.4 121.1-106 179-27.1 31.7-57.2 57.2-89.3 75.8-37.4 21.6-78.9 34.7-123.4 38.8-3.2 0.2-7.2 0.4-12 0.4z m369.3-395.2c-62.4 53.2-165.6 137.4-230 169.9-21.3 10.7-39.4 19.6-55.4 27.4-52.5 25.7-78.9 38.6-104.2 62.2-44.2 41.3-62.8 73.8-53.8 93.9 11.2 24.9 62.8 28.8 84.7 26.8 42.4-3.9 81.9-16.4 117.4-36.9 30.7-17.7 59.4-42.2 85.5-72.6C491 686 521.8 619.9 546.6 566.7c3.4-7.3 6.6-14.1 9.7-20.7 12.4-26.2 27-51.1 42.2-74.2z" fill="" p-id="2782"></path><path d="M641.4 432.1c-4 0-7.3-3.3-7.3-7.3 0-63.2-24.9-93.7-25.2-94a7.3 7.3 0 0 1 0.9-10.3c3.1-2.6 7.7-2.2 10.3 0.8 1.2 1.4 28.6 34.4 28.6 103.5 0 4-3.3 7.3-7.3 7.3zM614.4 505.2c-11.5 0-19.1-2.8-23.3-8.4-2.4-3.2-1.8-7.8 1.5-10.3s7.8-1.8 10.3 1.5c0.3 0.4 7.6 9.1 64.3-8.2 30.5-9.3 59.4-21.3 59.7-21.5 3.7-1.6 8 0.2 9.6 3.9 1.6 3.7-0.2 8-3.9 9.6-0.3 0.1-29.8 12.4-61 21.9-25.1 7.7-43.8 11.5-57.2 11.5zM515.1 538.5c-2.1 0-4.1-0.9-5.6-2.6-2.6-3.1-2.3-7.7 0.8-10.3 25.4-21.7-3.6-81.5-16.9-102.7-2.2-3.4-1.1-8 2.3-10.1 3.4-2.2 8-1.1 10.1 2.3 2.2 3.6 54.3 87.4 14.1 121.7-1.4 1.2-3.1 1.7-4.8 1.7z" fill="" p-id="2783"></path><path d="M548.5 685.5c-13.7 0-27.3-1.2-40.7-3.5-4-0.7-6.7-4.5-6-8.5 0.7-4 4.5-6.6 8.5-6 41.3 7.3 84.7 2.5 129-14 45-16.8 81.7-42.4 104.6-61 55.1-44.7 90.7-101.2 105.8-168.1 15.4-68.4 4.7-126.4-3-154.9-14.7-53.9-40.5-86.9-76.6-98.1-31.6-9.8-71.2-3.4-117.8 19-44.8 21.5-83.1 51.7-102 67.8-29.8 25.4-55.2 59.2-75.6 100.5-16.4 33.3-29.6 71.4-39.2 113.4-16.4 71.8-16.6 130.6-16.6 131.2 0 4-3.3 7.3-7.3 7.3s-7.3-3.3-7.3-7.3c0-2.4 0.2-60.8 16.9-134.1 9.9-43.2 23.4-82.5 40.4-116.8 21.3-43.2 48-78.6 79.3-105.4 32.7-27.9 146.2-116.6 233.6-89.6 41.2 12.7 70.3 49.2 86.4 108.2 8.1 29.8 19.3 90.5 3.2 162C848.3 497.7 811 557 753.2 603.8c-23.7 19.2-61.8 45.8-108.7 63.3-32.5 12.3-64.7 18.4-96 18.4z" fill="" p-id="2784"></path></svg>