<?xml version="1.0" standalone="no"?><!DOCTYPE svg PUBLIC "-//W3C//DTD SVG 1.1//EN" "http://www.w3.org/Graphics/SVG/1.1/DTD/svg11.dtd"><svg t="1545294798887" class="icon" style="" viewBox="0 0 1024 1024" version="1.1" xmlns="http://www.w3.org/2000/svg" p-id="10868" xmlns:xlink="http://www.w3.org/1999/xlink" width="64" height="64"><defs><style type="text/css"></style></defs><path d="M647.3 190.5L93.9 578.7c-38.5 27-47.8 80.3-20.8 118.9 34.7 49.6 103 61.7 152.5 26.9l77.2-25.6 294-165.8 142.4-168.7c49.5-34.8 61.5-103.2 26.8-152.9-27-38.7-80.1-48-118.7-21z" fill="#F7D822" p-id="10869"></path><path d="M647.3 190.5L93.9 578.7c-38.5 27-47.8 80.3-20.8 118.9 34.7 49.6 103 61.7 152.5 26.9l77.2-25.6 294-165.8 142.4-168.7c49.5-34.8 61.5-103.2 26.8-152.9-27-38.7-80.1-48-118.7-21z" fill="#F7D822" p-id="10870"></path><path d="M673.3 172.5L119.9 560.7c-38.5 27-47.8 80.3-20.8 118.9 34.7 49.6 103 61.7 152.5 26.9l77.2-25.6 436.4-334.5c49.5-34.8 61.5-103.2 26.8-152.9-27-38.7-80.1-48-118.7-21z" fill="#FFFFFF" p-id="10871"></path><path d="M339.6 899.6L913 497.4c39.5-27.8 49.1-82.4 21.4-122l-0.1-0.1c-35.7-51-105.9-63.3-156.8-27.6L245.1 721.1c-50.8 35.7-63.2 106-27.5 156.9l0.1 0.1c27.7 39.7 82.3 49.3 121.9 21.5z" fill="#FFFFFF" p-id="10872"></path><path d="M647.3 190.5L93.9 578.7c-38.5 27-47.8 80.3-20.8 118.9 34.7 49.6 103 61.7 152.5 26.9l77.2-25.6 436.4-334.5c49.5-34.8 61.5-103.2 26.8-152.9-27-38.7-80.1-48-118.7-21z" fill="#F7D822" p-id="10873"></path><path d="M200.3 512.6c-40.9 25.8-53.1 80-27.3 121 26.9 42.8 77.8 61.2 124.1 48.9l-72.3 45.7c-52.6 33.2-122 17.5-155.2-35.2-25.8-41-13.6-95.1 27.3-121l101.7-64.3" fill="#FB973A" p-id="10874"></path><path d="M313.6 917.6L887 515.4c39.5-27.8 49.1-82.4 21.4-122l-0.1-0.1c-35.7-51-105.9-63.3-156.8-27.6L219.1 739.1c-50.8 35.7-63.2 106-27.5 156.9l0.1 0.1c27.7 39.7 82.3 49.3 121.9 21.5z" fill="#F7D822" p-id="10875"></path><path d="M408.2 844.8c-39.6 27.8-94.2 18.2-121.9-21.5-29-41.4-26.3-95.5 2.9-133.5l-70 49.2c-50.9 35.8-63.2 106.1-27.5 157.1 27.8 39.7 82.3 49.3 121.9 21.5l98.4-69.2" fill="#FB973A" p-id="10876"></path><path d="M269.8 949.4c-5.9 0-11.9-0.5-17.9-1.6-27-4.7-50.5-19.7-66.3-42.2-20.1-28.7-30.6-61.5-29.6-92.4 1.1-34.6 16.8-64.3 44.4-83.7 6.8-4.8 16.1-3.1 20.9 3.7 4.8 6.8 3.1 16.1-3.7 20.9-33.8 23.7-47.2 77.5-7.4 134.3 11.1 15.9 27.8 26.5 46.9 29.9 19.1 3.3 38.3-0.9 54.1-12.1l66.8-47c6.8-4.8 16.1-3.1 20.9 3.7 4.8 6.8 3.1 16.1-3.7 20.9l-66.8 47c-17.4 12.2-37.7 18.6-58.6 18.6zM502.5 805.1c-4.7 0-9.4-2.2-12.3-6.4-4.8-6.8-3.1-16.1 3.7-20.9L915 482.4c32.7-23 40.7-68.4 17.7-101.3-18-25.7-45.8-44.1-74.4-49.1-22.3-3.9-43.2 0.5-60.6 12.7-6.8 4.8-16.1 3.1-20.9-3.6-4.8-6.8-3.1-16.1 3.7-20.9 24.1-16.9 52.8-23.1 83.1-17.7 36.3 6.4 71.3 29.4 93.8 61.5 32.5 46.4 21.2 110.5-25.1 143.1L511.1 802.3c-2.6 1.9-5.6 2.8-8.6 2.8zM425.1 859.4c-4.7 0-9.4-2.2-12.3-6.4-4.8-6.8-3.1-16.1 3.6-20.9l34.1-24c6.8-4.8 16.1-3.1 20.9 3.7s3.1 16.1-3.6 20.9l-34.1 24c-2.6 1.9-5.6 2.7-8.6 2.7z" fill="" p-id="10877"></path><path d="M636.8 455.9c-4.7 0-9.4-2.2-12.3-6.4-4.8-6.8-3.1-16.1 3.7-20.9l139.1-97.4c42.6-30 53-89.2 23.1-132-16.7-23.9-46.9-35.1-75.1-27.7-8 2.1-16.2-2.7-18.3-10.7s2.7-16.2 10.7-18.3c40.3-10.5 83.4 5.4 107.3 39.6 39.4 56.3 25.8 134.3-30.4 173.7l-139.2 97.4c-2.6 1.8-5.6 2.7-8.6 2.7zM472.7 570.6c-4.7 0-9.4-2.2-12.3-6.4-4.8-6.8-3.2-16.1 3.6-20.9l119.1-83.9c6.8-4.8 16.1-3.2 20.9 3.6 4.8 6.8 3.2 16.1-3.6 20.9l-119.1 83.9c-2.6 1.9-5.6 2.8-8.6 2.8zM169.3 760.2c-7.2 0-14.5-0.6-21.8-1.9-32.8-5.8-61.4-24-80.5-51.3-31.7-45.3-20.7-108 24.5-139.8L592.3 216c6.8-4.8 16.1-3.1 20.9 3.7 4.8 6.8 3.1 16.1-3.7 20.9L108.8 591.8c-31.7 22.3-39.4 66.2-17.1 98 14.5 20.7 36.2 34.6 61.1 38.9 24.8 4.4 49.9-1.2 70.5-15.7l154.4-108.7c6.8-4.8 16.1-3.1 20.9 3.6 4.8 6.8 3.1 16.1-3.6 20.9L240.5 737.5c-21.2 14.9-45.9 22.7-71.2 22.7zM641.3 214.9c-4.7 0-9.4-2.2-12.3-6.4-4.8-6.8-3.1-16.1 3.7-20.9l26.6-18.7c6.8-4.8 16.1-3.1 20.9 3.7 4.8 6.8 3.1 16.1-3.7 20.9l-26.6 18.7c-2.7 1.8-5.7 2.7-8.6 2.7z" fill="" p-id="10878"></path><path d="M233.4 634.6c-8.5 0-16.9-4-22.2-11.6-8.5-12.2-5.5-29.1 6.7-37.6l38.9-27.1c12.2-8.5 29.1-5.5 37.6 6.7s5.5 29.1-6.7 37.6l-38.9 27.1c-4.7 3.3-10 4.9-15.4 4.9zM494.1 451.8c-8.5 0-16.9-4-22.1-11.5-8.6-12.2-5.6-29 6.6-37.6L630.4 296c12.2-8.6 29-5.6 37.6 6.6 8.6 12.2 5.6 29-6.6 37.6L509.6 446.8c-4.7 3.4-10.1 5-15.5 5zM382.4 787.3c-8.5 0-16.9-4-22.1-11.5-8.6-12.2-5.6-29 6.6-37.6l395.5-277.4c12.2-8.6 29-5.6 37.6 6.6 8.6 12.2 5.6 29-6.6 37.6L397.9 782.4c-4.7 3.3-10.1 4.9-15.5 4.9z" fill="#FB973A" p-id="10879"></path><path d="MNaN NaNaNaN NaN NaN 1 0 NaN NaN NaN NaN NaN 1 0 NaN NaNZ" fill="#F8FBD9" p-id="10880"></path><path d="MNaN NaNaNaN NaN NaN 1 0 NaN NaN NaN NaN NaN 1 0 NaN NaNZ" fill="#F8FBD9" p-id="10881"></path><path d="MNaN NaNaNaN NaN NaN 1 0 NaN NaN NaN NaN NaN 1 0 NaN NaNZ" fill="#F8FBD9" p-id="10882"></path><path d="MNaN NaNaNaN NaN NaN 1 0 NaN NaN NaN NaN NaN 1 0 NaN NaNZ" fill="#F8FBD9" p-id="10883"></path><path d="MNaN NaNaNaN NaN NaN 1 0 NaN NaN NaN NaN NaN 1 0 NaN NaNZ" fill="#F8FBD9" p-id="10884"></path><path d="MNaN NaNaNaN NaN NaN 1 0 NaN NaN NaN NaN NaN 1 0 NaN NaNZ" fill="#F8FBD9" p-id="10885"></path></svg>